<svg id="svg" version="1.1" xmlns="http://www.w3.org/2000/svg" xmlns:xlink="http://www.w3.org/1999/xlink" width="400" height="203.125" viewBox="0, 0, 400,203.125"><g id="svgg"><path id="path0" d="M360.232 0.404 C 360.057 0.684,359.980 1.865,359.980 4.263 L 359.980 7.720 356.271 7.720 L 352.562 7.720 352.306 8.298 C 352.116 8.729,352.064 10.347,352.104 14.646 L 352.158 20.416 355.612 20.526 C 360.363 20.677,359.980 20.400,359.980 23.691 L 359.980 26.409 347.689 26.409 L 335.399 26.409 335.399 27.324 C 335.399 27.826,335.490 28.238,335.602 28.238 C 335.714 28.238,335.805 28.603,335.805 29.050 C 335.805 29.497,335.896 29.863,336.008 29.863 C 336.120 29.863,336.211 30.137,336.211 30.472 C 336.211 30.808,336.291 31.082,336.388 31.082 C 336.485 31.082,336.627 31.627,336.702 32.294 C 336.778 32.961,336.927 33.561,337.033 33.627 C 337.140 33.693,337.227 34.056,337.227 34.434 C 337.227 34.812,337.318 35.177,337.430 35.246 C 337.542 35.315,337.633 35.641,337.633 35.969 C 337.633 36.298,337.725 36.567,337.836 36.567 C 337.948 36.567,338.040 36.887,338.040 37.278 C 338.040 37.669,338.121 37.989,338.221 37.989 C 338.320 37.989,338.457 38.309,338.525 38.700 C 338.593 39.091,338.705 39.731,338.773 40.122 C 338.841 40.513,338.978 40.833,339.078 40.833 C 339.177 40.833,339.259 41.102,339.259 41.430 C 339.259 41.759,339.350 42.084,339.462 42.153 C 339.573 42.222,339.665 42.548,339.665 42.876 C 339.665 43.205,339.756 43.474,339.868 43.474 C 339.980 43.474,340.071 43.788,340.071 44.173 C 340.071 44.557,340.163 44.928,340.274 44.997 C 340.386 45.067,340.477 45.392,340.477 45.720 C 340.477 46.049,340.569 46.318,340.681 46.318 C 340.792 46.318,340.884 46.638,340.884 47.029 C 340.884 47.420,340.975 47.740,341.087 47.740 C 341.199 47.740,341.290 48.014,341.290 48.349 C 341.290 48.685,341.368 48.959,341.464 48.959 C 341.560 48.959,341.698 49.526,341.770 50.220 C 341.843 50.913,341.993 51.571,342.104 51.682 C 342.215 51.793,342.306 52.135,342.306 52.441 C 342.306 52.747,342.397 53.054,342.509 53.123 C 342.621 53.192,342.712 53.518,342.712 53.846 C 342.712 54.175,342.803 54.444,342.915 54.444 C 343.027 54.444,343.118 54.758,343.118 55.143 C 343.118 55.527,343.210 55.898,343.321 55.967 C 343.433 56.037,343.525 56.362,343.525 56.691 C 343.525 57.019,343.616 57.288,343.728 57.288 C 343.840 57.288,343.931 57.608,343.931 57.999 C 343.931 58.390,344.022 58.710,344.134 58.710 C 344.246 58.710,344.337 58.984,344.337 59.319 C 344.337 59.655,344.429 59.929,344.540 59.929 C 344.652 59.929,344.744 60.295,344.744 60.741 C 344.744 61.188,344.835 61.554,344.947 61.554 C 345.058 61.554,345.150 61.828,345.150 62.164 C 345.150 62.499,345.241 62.773,345.353 62.773 C 345.465 62.773,345.556 63.093,345.556 63.484 C 345.556 63.875,345.648 64.195,345.759 64.195 C 345.871 64.195,345.962 64.469,345.962 64.804 C 345.962 65.140,346.054 65.414,346.166 65.414 C 346.277 65.414,346.369 65.734,346.369 66.125 C 346.369 66.516,346.460 66.836,346.572 66.836 C 346.684 66.836,346.775 67.037,346.775 67.283 C 346.775 68.426,347.464 70.086,347.937 70.086 C 348.192 70.086,348.400 70.178,348.400 70.289 C 348.400 70.401,348.812 70.493,349.314 70.493 L 350.229 70.493 350.229 71.305 C 350.229 71.752,350.137 72.118,350.025 72.118 C 349.914 72.118,349.822 72.478,349.822 72.918 C 349.822 73.359,349.914 73.776,350.025 73.845 C 350.137 73.914,350.229 74.239,350.229 74.568 C 350.229 74.896,350.320 75.165,350.432 75.165 C 350.543 75.165,350.635 75.348,350.635 75.571 C 350.635 75.842,350.499 75.978,350.229 75.978 C 350.005 75.978,349.822 76.069,349.822 76.181 C 349.822 76.293,349.686 76.384,349.520 76.384 C 349.132 76.384,348.434 76.945,347.626 77.905 C 346.313 79.465,346.438 84.342,347.821 85.549 C 348.327 85.991,348.295 86.135,347.689 86.135 C 347.410 86.135,347.181 86.227,347.181 86.338 C 347.181 86.450,346.816 86.541,346.369 86.541 C 345.922 86.541,345.556 86.633,345.556 86.745 C 345.556 86.856,345.373 86.948,345.150 86.948 C 344.926 86.948,344.744 87.039,344.744 87.151 C 344.744 87.263,344.596 87.354,344.415 87.354 C 343.967 87.354,342.817 88.648,342.313 89.719 C 341.861 90.683,341.702 94.318,342.103 94.566 C 342.214 94.635,342.306 94.869,342.306 95.086 C 342.306 95.303,342.397 95.480,342.509 95.480 C 342.621 95.480,342.712 95.619,342.712 95.790 C 342.712 96.193,344.437 97.918,344.840 97.918 C 345.010 97.918,345.150 97.989,345.150 98.077 C 345.150 98.376,346.878 98.702,349.074 98.817 C 351.314 98.933,351.668 99.062,351.901 99.848 C 352.046 100.334,352.461 101.518,352.685 102.082 C 353.156 103.268,353.507 118.100,353.084 118.944 C 352.972 119.167,352.837 120.173,352.783 121.178 C 352.729 122.184,352.590 123.784,352.475 124.733 C 352.359 125.683,352.157 127.671,352.026 129.152 C 351.895 130.632,351.711 131.844,351.617 131.844 C 351.524 131.844,351.447 132.392,351.447 133.062 C 351.447 133.740,351.357 134.281,351.244 134.281 C 351.133 134.281,351.041 134.738,351.041 135.297 C 351.041 135.856,350.950 136.313,350.838 136.313 C 350.726 136.313,350.635 136.765,350.635 137.317 C 350.635 137.869,350.543 138.377,350.432 138.446 C 350.320 138.515,350.229 138.977,350.229 139.474 C 350.229 139.970,350.137 140.376,350.025 140.376 C 349.914 140.376,349.822 140.741,349.822 141.188 C 349.822 141.635,349.731 142.001,349.619 142.001 C 349.507 142.001,349.416 142.407,349.416 142.903 C 349.416 143.399,349.325 143.862,349.213 143.931 C 349.101 144.000,349.010 144.366,349.010 144.744 C 349.010 145.121,348.918 145.487,348.807 145.556 C 348.695 145.625,348.603 145.996,348.603 146.381 C 348.603 146.765,348.512 147.080,348.400 147.080 C 348.288 147.080,348.197 147.394,348.197 147.779 C 348.197 148.163,348.106 148.534,347.994 148.603 C 347.882 148.672,347.791 148.998,347.791 149.326 C 347.791 149.655,347.709 149.924,347.610 149.924 C 347.510 149.924,347.380 150.221,347.319 150.584 C 347.072 152.073,346.710 153.377,346.545 153.377 C 346.448 153.377,346.369 153.652,346.369 153.987 C 346.369 154.322,346.277 154.596,346.166 154.596 C 346.054 154.596,345.962 154.779,345.962 155.003 C 345.962 155.226,345.871 155.409,345.759 155.409 C 345.648 155.409,345.556 155.574,345.556 155.777 C 345.556 155.979,345.373 156.341,345.150 156.581 C 344.926 156.821,344.744 157.116,344.744 157.237 C 344.744 157.358,344.561 157.654,344.337 157.893 C 343.882 158.382,343.693 164.957,344.134 164.957 C 344.255 164.957,344.337 165.740,344.337 166.901 C 344.337 168.904,344.151 169.426,343.438 169.426 C 343.262 169.426,343.118 169.518,343.118 169.629 C 343.118 169.741,342.936 169.832,342.712 169.832 C 342.489 169.832,342.306 169.924,342.306 170.036 C 342.306 170.147,342.178 170.239,342.022 170.239 C 341.622 170.239,340.477 171.353,340.477 171.742 C 340.477 171.921,340.386 172.067,340.274 172.067 C 340.163 172.067,340.071 172.250,340.071 172.473 C 340.071 172.697,339.980 172.880,339.868 172.880 C 339.756 172.880,339.665 173.062,339.665 173.286 C 339.665 173.509,339.593 173.692,339.506 173.692 C 339.419 173.692,339.226 174.104,339.077 174.606 C 338.929 175.109,338.726 175.521,338.627 175.521 C 338.527 175.521,338.446 175.703,338.446 175.927 C 338.446 176.150,338.354 176.333,338.243 176.333 C 338.131 176.333,338.040 176.516,338.040 176.739 C 338.040 176.963,337.957 177.146,337.857 177.146 C 337.641 177.146,337.405 178.659,337.397 180.091 C 337.390 181.364,337.621 182.631,337.859 182.631 C 337.958 182.631,338.040 182.814,338.040 183.037 C 338.040 183.261,338.131 183.443,338.243 183.443 C 338.354 183.443,338.446 183.606,338.446 183.805 C 338.446 184.004,338.629 184.298,338.852 184.459 C 339.076 184.620,339.259 184.849,339.259 184.967 C 339.259 185.085,339.441 185.314,339.665 185.475 C 340.348 185.967,340.133 186.084,338.547 186.084 C 337.667 186.084,337.024 186.170,337.024 186.287 C 337.024 186.399,336.840 186.491,336.615 186.491 C 336.212 186.491,336.207 186.593,336.260 194.769 L 336.313 203.047 367.852 203.099 L 399.391 203.150 399.391 198.692 C 399.391 195.939,399.313 194.186,399.187 194.109 C 399.064 194.032,398.984 192.515,398.984 190.237 C 398.984 186.626,398.970 186.491,398.578 186.491 C 398.354 186.491,398.172 186.399,398.172 186.287 C 398.172 186.174,397.624 186.084,396.935 186.084 L 395.699 186.084 396.428 185.092 C 396.828 184.546,397.156 183.971,397.156 183.812 C 397.156 183.654,397.270 183.410,397.410 183.271 C 397.588 183.093,397.664 182.201,397.664 180.295 C 397.664 178.388,397.588 177.496,397.410 177.318 C 397.270 177.179,397.156 176.814,397.156 176.508 C 397.156 176.201,397.064 175.894,396.953 175.825 C 396.841 175.756,396.750 175.339,396.750 174.899 C 396.750 174.459,396.658 174.099,396.546 174.099 C 396.435 174.099,396.343 173.824,396.343 173.489 C 396.343 173.154,396.252 172.880,396.140 172.880 C 396.028 172.880,395.937 172.697,395.937 172.473 C 395.937 172.250,395.846 172.067,395.734 172.067 C 395.622 172.067,395.531 171.941,395.531 171.786 C 395.531 171.382,394.301 170.239,393.867 170.239 C 393.665 170.239,393.499 170.147,393.499 170.036 C 393.499 169.924,393.316 169.832,393.093 169.832 C 392.869 169.832,392.687 169.741,392.687 169.629 C 392.687 169.518,392.504 169.426,392.280 169.426 C 392.057 169.426,391.874 169.335,391.874 169.223 C 391.874 169.111,391.554 169.020,391.163 169.020 L 390.452 169.020 390.452 167.508 C 390.452 166.677,390.361 165.940,390.249 165.871 C 390.126 165.795,390.046 164.339,390.046 162.182 L 390.046 158.619 389.436 158.050 C 389.101 157.737,388.827 157.397,388.827 157.296 C 388.827 157.194,388.664 156.933,388.465 156.717 C 388.034 156.247,386.998 154.101,386.998 153.677 C 386.998 153.512,386.907 153.377,386.795 153.377 C 386.684 153.377,386.592 153.154,386.592 152.881 C 386.592 152.609,386.501 152.329,386.389 152.260 C 386.277 152.191,386.186 151.917,386.186 151.651 C 386.186 151.384,386.094 151.110,385.983 151.041 C 385.871 150.972,385.780 150.692,385.780 150.420 C 385.780 150.147,385.688 149.924,385.576 149.924 C 385.465 149.924,385.373 149.609,385.373 149.225 C 385.373 148.840,385.282 148.469,385.170 148.400 C 385.058 148.331,384.967 148.011,384.967 147.689 C 384.967 147.367,384.876 147.047,384.764 146.978 C 384.652 146.909,384.561 146.492,384.561 146.052 C 384.561 145.612,384.469 145.251,384.358 145.251 C 384.246 145.251,384.154 144.845,384.154 144.349 C 384.154 143.853,384.063 143.391,383.951 143.321 C 383.840 143.252,383.748 142.744,383.748 142.192 C 383.748 141.640,383.657 141.188,383.545 141.188 C 383.433 141.188,383.342 140.686,383.342 140.071 C 383.342 139.457,383.250 138.954,383.139 138.954 C 383.025 138.954,382.936 138.389,382.936 137.667 C 382.936 136.960,382.867 136.313,382.783 136.230 C 382.644 136.092,382.501 134.584,381.899 126.866 C 381.597 123.011,381.456 111.516,381.704 111.021 C 381.816 110.797,381.950 109.837,382.001 108.888 C 382.139 106.323,382.555 103.200,382.758 103.200 C 382.855 103.200,382.936 102.880,382.936 102.489 C 382.936 102.098,383.027 101.778,383.139 101.778 C 383.250 101.778,383.342 101.595,383.342 101.371 C 383.342 101.148,383.433 100.965,383.545 100.965 C 383.657 100.965,383.748 100.782,383.748 100.559 C 383.748 100.335,383.840 100.152,383.951 100.152 C 384.063 100.152,384.154 100.009,384.154 99.833 C 384.154 99.126,384.662 98.972,387.479 98.822 C 389.008 98.741,390.308 98.596,390.368 98.499 C 390.427 98.403,390.662 98.324,390.890 98.324 C 391.622 98.324,393.498 96.754,393.499 96.140 C 393.499 96.001,393.591 95.886,393.702 95.886 C 393.814 95.886,393.906 95.703,393.906 95.480 C 393.906 95.256,393.997 95.074,394.109 95.074 C 394.220 95.074,394.312 94.759,394.312 94.375 C 394.312 93.990,394.403 93.619,394.515 93.550 C 394.627 93.481,394.718 93.024,394.718 92.534 C 394.718 92.045,394.627 91.588,394.515 91.519 C 394.403 91.449,394.312 91.078,394.312 90.694 C 394.312 90.309,394.220 89.995,394.109 89.995 C 393.997 89.995,393.906 89.812,393.906 89.589 C 393.906 89.365,393.814 89.182,393.702 89.182 C 393.591 89.182,393.499 89.087,393.499 88.970 C 393.499 88.694,392.565 87.760,392.290 87.760 C 392.173 87.760,392.076 87.692,392.076 87.608 C 392.074 87.425,391.090 86.948,390.716 86.948 C 390.571 86.948,390.452 86.856,390.452 86.745 C 390.452 86.633,390.155 86.538,389.792 86.535 C 388.563 86.523,388.249 86.052,389.001 85.350 C 389.400 84.977,389.639 84.555,389.639 84.225 C 389.639 83.935,389.731 83.697,389.843 83.697 C 390.385 83.697,390.023 79.001,389.436 78.415 C 389.380 78.360,389.204 78.062,389.046 77.755 C 388.888 77.448,388.624 77.197,388.461 77.197 C 388.297 77.197,388.016 77.032,387.835 76.831 C 387.654 76.629,387.158 76.303,386.732 76.104 C 385.886 75.710,385.598 75.266,385.956 74.908 C 386.097 74.766,386.186 73.873,386.186 72.585 C 386.186 70.705,386.223 70.493,386.552 70.493 C 387.179 70.493,388.011 70.001,388.013 69.629 C 388.014 69.434,388.106 69.274,388.217 69.274 C 388.329 69.274,388.421 68.954,388.421 68.563 C 388.421 68.172,388.512 67.852,388.624 67.852 C 388.735 67.852,388.827 67.577,388.827 67.242 C 388.827 66.907,388.918 66.633,389.030 66.633 C 389.142 66.633,389.233 66.359,389.233 66.023 C 389.233 65.688,389.325 65.414,389.436 65.414 C 389.548 65.414,389.639 65.048,389.639 64.601 C 389.639 64.154,389.731 63.789,389.843 63.789 C 389.954 63.789,390.046 63.566,390.046 63.293 C 390.046 63.020,390.137 62.740,390.249 62.671 C 390.361 62.602,390.452 62.282,390.452 61.960 C 390.452 61.638,390.543 61.318,390.655 61.249 C 390.767 61.180,390.858 60.855,390.858 60.526 C 390.858 60.198,390.950 59.929,391.061 59.929 C 391.173 59.929,391.265 59.730,391.265 59.486 C 391.265 59.085,391.476 58.288,391.874 57.186 C 392.266 56.103,392.476 55.266,392.602 54.292 C 392.677 53.705,392.819 53.225,392.916 53.225 C 393.013 53.225,393.093 52.905,393.093 52.514 C 393.093 52.123,393.184 51.803,393.296 51.803 C 393.408 51.803,393.499 51.529,393.499 51.193 C 393.499 50.858,393.591 50.584,393.702 50.584 C 393.814 50.584,393.906 50.269,393.906 49.885 C 393.906 49.501,393.997 49.129,394.109 49.060 C 394.220 48.991,394.312 48.666,394.312 48.337 C 394.312 48.009,394.403 47.740,394.515 47.740 C 394.627 47.740,394.718 47.471,394.718 47.143 C 394.718 46.814,394.810 46.489,394.921 46.420 C 395.033 46.350,395.124 46.025,395.124 45.696 C 395.124 45.368,395.216 45.099,395.328 45.099 C 395.439 45.099,395.531 44.784,395.531 44.400 C 395.531 44.016,395.622 43.644,395.734 43.575 C 395.846 43.506,395.937 43.232,395.937 42.966 C 395.937 42.700,396.028 42.426,396.140 42.357 C 396.252 42.287,396.343 41.916,396.343 41.532 C 396.343 41.147,396.435 40.833,396.546 40.833 C 396.658 40.833,396.750 40.564,396.750 40.235 C 396.750 39.907,396.841 39.581,396.953 39.512 C 397.064 39.443,397.156 39.123,397.156 38.801 C 397.156 38.479,397.243 38.162,397.350 38.096 C 397.456 38.030,397.605 37.429,397.681 36.759 C 397.757 36.090,397.898 35.493,397.995 35.433 C 398.092 35.373,398.172 35.055,398.172 34.726 C 398.172 34.398,398.263 34.129,398.375 34.129 C 398.487 34.129,398.578 33.809,398.578 33.418 C 398.578 33.027,398.669 32.707,398.781 32.707 C 398.893 32.707,398.984 32.438,398.984 32.110 C 398.984 31.781,399.076 31.456,399.187 31.386 C 399.299 31.317,399.391 30.954,399.391 30.579 C 399.391 30.204,399.478 29.866,399.586 29.829 C 399.693 29.792,399.843 29.007,399.919 28.085 L 400.058 26.409 388.247 26.409 L 376.435 26.409 376.435 23.464 L 376.435 20.518 379.888 20.518 C 383.206 20.518,383.342 20.502,383.342 20.112 C 383.342 19.888,383.433 19.705,383.545 19.705 C 383.863 19.705,383.815 8.961,383.494 8.270 L 383.240 7.723 379.837 7.721 L 376.435 7.720 376.435 4.368 C 376.435 2.268,376.359 1.016,376.232 1.016 C 376.120 1.016,376.028 0.787,376.028 0.508 L 376.028 0.000 368.256 0.000 C 360.721 0.000,360.476 0.012,360.232 0.404 M295.988 17.268 C 295.988 17.379,295.622 17.471,295.175 17.471 C 294.728 17.471,294.363 17.562,294.363 17.674 C 294.363 17.786,294.095 17.877,293.768 17.877 C 293.440 17.877,293.036 18.014,292.868 18.182 C 292.700 18.349,292.483 18.487,292.384 18.487 C 292.096 18.487,290.503 20.297,290.503 20.625 C 290.503 20.790,290.411 20.924,290.300 20.924 C 290.188 20.924,290.096 21.107,290.096 21.331 C 290.096 21.554,290.005 21.737,289.893 21.737 C 289.782 21.737,289.690 22.011,289.690 22.346 C 289.690 22.682,289.599 22.956,289.487 22.956 C 289.368 22.956,289.284 23.667,289.284 24.683 L 289.284 26.409 276.790 26.409 L 264.297 26.409 264.297 27.120 C 264.297 27.511,264.388 27.831,264.500 27.831 C 264.611 27.831,264.703 28.197,264.703 28.644 C 264.703 29.091,264.794 29.457,264.906 29.457 C 265.018 29.457,265.109 29.822,265.109 30.269 C 265.109 30.716,265.201 31.082,265.312 31.082 C 265.424 31.082,265.515 31.351,265.515 31.679 C 265.515 32.008,265.595 32.326,265.692 32.386 C 265.789 32.446,265.930 32.977,266.006 33.566 C 266.148 34.667,266.445 35.790,266.759 36.412 C 266.857 36.606,266.938 36.989,266.938 37.263 C 266.938 37.537,267.029 37.818,267.141 37.887 C 267.252 37.956,267.344 38.282,267.344 38.610 C 267.344 38.939,267.425 39.208,267.525 39.208 C 267.624 39.208,267.764 39.551,267.835 39.970 C 268.151 41.824,268.211 42.052,268.382 42.052 C 268.481 42.052,268.563 42.321,268.563 42.649 C 268.563 42.978,268.654 43.303,268.766 43.372 C 268.878 43.441,268.969 43.767,268.969 44.095 C 268.969 44.424,269.060 44.693,269.172 44.693 C 269.284 44.693,269.375 45.013,269.375 45.404 C 269.375 45.795,269.467 46.115,269.578 46.115 C 269.690 46.115,269.782 46.435,269.782 46.826 C 269.782 47.217,269.873 47.537,269.985 47.537 C 270.096 47.537,270.188 47.760,270.188 48.033 C 270.188 48.305,270.279 48.585,270.391 48.654 C 270.503 48.723,270.594 49.094,270.594 49.479 C 270.594 49.863,270.668 50.178,270.759 50.178 C 270.904 50.178,271.163 51.241,271.538 53.377 C 271.602 53.740,271.736 54.038,271.835 54.038 C 271.935 54.038,272.016 54.306,272.016 54.635 C 272.016 54.964,272.108 55.289,272.219 55.358 C 272.331 55.427,272.423 55.747,272.423 56.069 C 272.423 56.391,272.514 56.711,272.626 56.780 C 272.737 56.849,272.829 57.123,272.829 57.390 C 272.829 57.656,272.920 57.930,273.032 57.999 C 273.144 58.068,273.235 58.388,273.235 58.710 C 273.235 59.032,273.327 59.352,273.438 59.421 C 273.550 59.490,273.641 59.815,273.641 60.144 C 273.641 60.473,273.733 60.741,273.845 60.741 C 273.956 60.741,274.048 61.016,274.048 61.351 C 274.048 61.686,274.139 61.960,274.251 61.960 C 274.363 61.960,274.454 62.280,274.454 62.671 C 274.454 63.062,274.545 63.382,274.657 63.382 C 274.769 63.382,274.860 63.657,274.860 63.992 C 274.860 64.327,274.952 64.601,275.063 64.601 C 275.175 64.601,275.267 64.876,275.267 65.211 C 275.267 65.546,275.358 65.820,275.470 65.820 C 275.582 65.820,275.673 66.054,275.673 66.341 C 275.673 66.627,275.819 67.335,275.996 67.915 C 276.633 69.988,276.693 70.086,277.323 70.086 C 277.644 70.086,277.908 70.178,277.908 70.289 C 277.908 70.401,278.182 70.493,278.517 70.493 C 279.134 70.493,279.407 71.108,278.923 71.407 C 278.812 71.476,278.720 71.893,278.720 72.333 C 278.720 72.773,278.812 73.134,278.923 73.134 C 279.035 73.134,279.126 73.591,279.126 74.149 C 279.126 74.708,279.218 75.165,279.330 75.165 C 279.441 75.165,279.533 75.348,279.533 75.571 C 279.533 75.887,279.397 75.978,278.923 75.978 C 278.588 75.978,278.314 76.069,278.314 76.181 C 278.314 76.293,278.174 76.384,278.002 76.384 C 276.379 76.384,274.900 81.966,275.976 84.030 C 276.143 84.350,276.280 84.751,276.281 84.922 C 276.282 85.093,276.465 85.365,276.689 85.526 C 277.236 85.920,277.200 86.135,276.587 86.135 C 276.308 86.135,276.079 86.227,276.079 86.338 C 276.079 86.450,275.765 86.541,275.380 86.541 C 274.996 86.541,274.625 86.633,274.556 86.745 C 274.487 86.856,274.273 86.948,274.081 86.948 C 273.888 86.948,273.599 87.131,273.438 87.354 C 273.277 87.577,273.049 87.760,272.930 87.760 C 272.812 87.760,272.581 87.954,272.417 88.191 C 272.252 88.429,272.000 88.745,271.856 88.895 C 270.827 89.970,270.641 94.573,271.584 95.620 C 271.766 95.823,272.039 96.229,272.191 96.524 C 272.343 96.819,272.709 97.185,273.004 97.337 C 273.299 97.489,273.717 97.773,273.934 97.969 C 274.150 98.164,274.533 98.324,274.785 98.324 C 275.037 98.324,275.292 98.404,275.353 98.503 C 275.414 98.601,276.537 98.748,277.850 98.830 C 280.661 99.006,281.361 99.495,281.361 101.283 C 281.361 101.555,281.444 101.778,281.545 101.778 C 281.784 101.778,281.974 103.341,282.090 106.247 C 282.141 107.532,282.280 108.776,282.400 109.011 C 282.533 109.273,282.567 109.982,282.488 110.839 C 282.417 111.609,282.275 113.885,282.173 115.896 C 282.071 117.908,281.897 120.513,281.787 121.686 C 281.279 127.092,281.141 128.362,280.953 129.392 C 280.842 129.999,280.752 130.885,280.752 131.361 C 280.752 131.837,280.660 132.282,280.549 132.351 C 280.437 132.421,280.345 132.969,280.345 133.570 C 280.345 134.172,280.254 134.720,280.142 134.789 C 280.030 134.858,279.939 135.366,279.939 135.919 C 279.939 136.471,279.848 136.922,279.736 136.922 C 279.624 136.922,279.533 137.379,279.533 137.938 C 279.533 138.497,279.441 138.954,279.330 138.954 C 279.218 138.954,279.126 139.365,279.126 139.868 C 279.126 140.371,279.035 140.782,278.923 140.782 C 278.812 140.782,278.720 141.239,278.720 141.798 C 278.720 142.357,278.629 142.814,278.517 142.814 C 278.405 142.814,278.314 143.179,278.314 143.626 C 278.314 144.073,278.222 144.439,278.111 144.439 C 277.999 144.439,277.908 144.753,277.908 145.138 C 277.908 145.522,277.816 145.893,277.704 145.962 C 277.593 146.031,277.501 146.403,277.501 146.787 C 277.501 147.171,277.410 147.486,277.298 147.486 C 277.186 147.486,277.095 147.685,277.095 147.929 C 277.095 148.342,276.840 149.286,276.475 150.229 C 276.250 150.809,275.855 152.349,275.733 153.123 C 275.675 153.487,275.547 153.784,275.448 153.784 C 275.348 153.784,275.267 153.966,275.267 154.190 C 275.267 154.413,275.175 154.596,275.063 154.596 C 274.952 154.596,274.860 154.825,274.860 155.104 C 274.860 155.383,274.769 155.612,274.657 155.612 C 274.545 155.612,274.454 155.795,274.454 156.018 C 274.454 156.242,274.363 156.425,274.251 156.425 C 274.139 156.425,274.048 156.587,274.048 156.786 C 274.048 156.985,273.865 157.279,273.641 157.440 C 273.252 157.721,273.235 157.966,273.235 163.289 C 273.235 169.104,273.188 169.426,272.335 169.426 C 272.160 169.426,272.016 169.518,272.016 169.629 C 272.016 169.741,271.896 169.832,271.749 169.832 C 271.359 169.832,268.969 172.173,268.969 172.555 C 268.969 172.734,268.878 172.880,268.766 172.880 C 268.654 172.880,268.563 173.154,268.563 173.489 C 268.563 173.824,268.471 174.099,268.360 174.099 C 268.248 174.099,268.156 174.281,268.156 174.505 C 268.156 174.728,268.082 174.911,267.991 174.911 C 267.900 174.911,267.700 175.231,267.547 175.622 C 267.394 176.013,267.216 176.333,267.152 176.333 C 266.639 176.333,266.242 182.022,266.734 182.326 C 266.846 182.395,266.938 182.675,266.938 182.947 C 266.938 183.220,267.029 183.443,267.141 183.443 C 267.252 183.443,267.344 183.606,267.344 183.805 C 267.344 184.004,267.527 184.298,267.750 184.459 C 267.974 184.620,268.156 184.849,268.156 184.967 C 268.156 185.085,268.339 185.314,268.563 185.475 C 269.238 185.961,269.035 186.084,267.559 186.084 C 266.783 186.084,266.092 186.176,266.023 186.287 C 265.954 186.399,265.720 186.491,265.504 186.491 C 265.054 186.491,264.867 199.319,265.312 199.594 C 265.424 199.663,265.515 200.491,265.515 201.434 L 265.515 203.149 296.902 203.149 L 328.288 203.149 328.288 197.269 C 328.288 193.569,328.213 191.344,328.085 191.265 C 327.969 191.193,327.882 190.145,327.882 188.815 C 327.882 186.626,327.858 186.491,327.476 186.491 C 327.252 186.491,327.070 186.399,327.070 186.287 C 327.070 186.176,326.567 186.084,325.952 186.084 C 325.338 186.084,324.835 185.993,324.835 185.881 C 324.835 185.769,324.916 185.678,325.014 185.678 C 325.113 185.678,325.246 185.518,325.310 185.322 C 325.374 185.127,325.675 184.556,325.978 184.053 C 326.700 182.856,326.931 179.041,326.383 177.366 C 326.202 176.812,326.054 176.216,326.054 176.041 C 326.054 175.867,325.962 175.724,325.851 175.724 C 325.739 175.724,325.648 175.308,325.648 174.800 C 325.648 173.100,323.850 170.239,322.782 170.239 C 322.570 170.239,322.397 170.147,322.397 170.036 C 322.397 169.924,322.214 169.832,321.991 169.832 C 321.767 169.832,321.585 169.741,321.585 169.629 C 321.585 169.518,321.407 169.426,321.190 169.426 C 320.973 169.426,320.739 169.335,320.670 169.223 C 320.601 169.111,320.276 169.020,319.947 169.020 L 319.350 169.020 319.350 164.969 C 319.350 162.487,319.271 160.869,319.147 160.792 C 319.035 160.723,318.944 160.209,318.944 159.650 C 318.944 158.445,318.735 158.005,317.692 157.003 C 317.263 156.591,316.912 156.109,316.912 155.933 C 316.912 155.756,316.825 155.612,316.718 155.612 C 316.612 155.612,316.464 155.292,316.391 154.901 C 316.317 154.510,316.176 154.190,316.077 154.190 C 315.978 154.190,315.896 153.916,315.896 153.580 C 315.896 153.245,315.805 152.971,315.693 152.971 C 315.582 152.971,315.490 152.748,315.490 152.475 C 315.490 152.202,315.399 151.923,315.287 151.854 C 315.175 151.785,315.084 151.510,315.084 151.244 C 315.084 150.978,314.992 150.704,314.881 150.635 C 314.769 150.566,314.678 150.286,314.678 150.013 C 314.678 149.741,314.586 149.518,314.474 149.518 C 314.363 149.518,314.271 149.243,314.271 148.908 C 314.271 148.573,314.180 148.299,314.068 148.299 C 313.956 148.299,313.865 147.933,313.865 147.486 C 313.865 147.039,313.773 146.673,313.662 146.673 C 313.550 146.673,313.459 146.262,313.459 145.759 C 313.459 145.256,313.367 144.845,313.255 144.845 C 313.144 144.845,313.052 144.388,313.052 143.829 C 313.052 143.271,312.961 142.814,312.849 142.814 C 312.737 142.814,312.646 142.357,312.646 141.798 C 312.646 141.239,312.555 140.782,312.443 140.782 C 312.331 140.782,312.240 140.279,312.240 139.665 C 312.240 139.050,312.148 138.547,312.037 138.547 C 311.919 138.547,311.833 137.904,311.833 137.024 C 311.833 136.186,311.755 135.500,311.659 135.500 C 311.564 135.500,311.376 133.832,311.241 131.793 C 311.107 129.754,310.903 126.668,310.789 124.937 C 310.527 120.961,310.523 113.365,310.781 110.310 C 311.114 106.378,311.462 103.711,311.652 103.640 C 311.752 103.603,311.833 103.260,311.833 102.878 C 311.833 102.496,311.925 102.184,312.037 102.184 C 312.148 102.184,312.240 102.006,312.240 101.790 C 312.240 101.573,312.331 101.339,312.443 101.270 C 312.555 101.201,312.646 100.941,312.646 100.693 C 312.646 100.445,312.829 100.110,313.052 99.949 C 313.276 99.788,313.459 99.502,313.459 99.314 C 313.459 99.016,313.829 98.952,316.307 98.825 C 317.874 98.744,319.204 98.598,319.265 98.501 C 319.325 98.404,319.541 98.324,319.745 98.324 C 320.588 98.324,322.803 96.485,322.803 95.784 C 322.803 95.617,322.895 95.480,323.007 95.480 C 323.118 95.480,323.210 95.114,323.210 94.667 C 323.210 94.220,323.301 93.855,323.413 93.855 C 323.526 93.855,323.616 93.317,323.616 92.648 C 323.616 91.984,323.525 91.384,323.413 91.315 C 323.301 91.246,323.210 90.985,323.210 90.734 C 323.210 90.209,322.774 89.186,322.550 89.184 C 322.466 89.183,322.397 89.088,322.397 88.972 C 322.397 88.699,321.052 87.354,320.779 87.354 C 320.663 87.354,320.569 87.263,320.569 87.151 C 320.569 87.039,320.391 86.948,320.175 86.948 C 319.958 86.948,319.724 86.856,319.655 86.745 C 319.586 86.633,319.215 86.541,318.830 86.541 C 318.446 86.541,318.131 86.450,318.131 86.338 C 318.131 86.227,317.948 86.135,317.725 86.135 C 317.187 86.135,317.209 86.043,317.928 85.291 C 318.263 84.940,318.537 84.438,318.537 84.175 C 318.537 83.912,318.629 83.697,318.740 83.697 C 318.862 83.697,318.944 82.889,318.944 81.678 C 318.944 80.551,318.854 79.603,318.740 79.533 C 318.629 79.464,318.537 79.184,318.537 78.911 C 318.537 78.639,318.446 78.415,318.334 78.415 C 318.222 78.415,318.131 78.276,318.131 78.105 C 318.131 77.403,316.365 75.978,315.495 75.978 C 315.046 75.978,314.678 75.885,314.678 75.771 C 314.678 75.357,315.187 73.946,315.336 73.946 C 315.421 73.946,315.490 73.443,315.490 72.829 C 315.490 72.214,315.399 71.712,315.287 71.712 C 315.063 71.712,315.014 70.912,315.207 70.408 C 315.287 70.200,315.580 70.086,316.034 70.086 C 316.870 70.086,317.318 69.701,317.318 68.984 C 317.318 68.696,317.410 68.461,317.522 68.461 C 317.633 68.461,317.725 68.187,317.725 67.852 C 317.725 67.517,317.816 67.242,317.928 67.242 C 318.040 67.242,318.131 66.922,318.131 66.531 C 318.131 66.140,318.222 65.820,318.334 65.820 C 318.446 65.820,318.537 65.546,318.537 65.211 C 318.537 64.876,318.629 64.601,318.740 64.601 C 318.852 64.601,318.944 64.287,318.944 63.902 C 318.944 63.518,319.035 63.147,319.147 63.078 C 319.259 63.009,319.350 62.734,319.350 62.468 C 319.350 62.202,319.441 61.928,319.553 61.859 C 319.665 61.790,319.756 61.419,319.756 61.034 C 319.756 60.650,319.848 60.335,319.959 60.335 C 320.071 60.335,320.163 60.061,320.163 59.726 C 320.163 59.391,320.254 59.116,320.366 59.116 C 320.477 59.116,320.569 58.841,320.569 58.504 C 320.569 58.167,320.649 57.733,320.747 57.539 C 321.060 56.919,321.358 55.795,321.499 54.698 C 321.575 54.111,321.717 53.631,321.814 53.631 C 321.911 53.631,321.991 53.362,321.991 53.034 C 321.991 52.705,322.082 52.380,322.194 52.311 C 322.306 52.242,322.397 51.916,322.397 51.588 C 322.397 51.259,322.489 50.990,322.600 50.990 C 322.712 50.990,322.803 50.721,322.803 50.393 C 322.803 50.064,322.895 49.739,323.007 49.670 C 323.118 49.601,323.210 49.230,323.210 48.845 C 323.210 48.461,323.301 48.146,323.413 48.146 C 323.525 48.146,323.616 47.826,323.616 47.435 C 323.616 47.044,323.707 46.724,323.819 46.724 C 323.931 46.724,324.022 46.450,324.022 46.115 C 324.022 45.780,324.114 45.505,324.225 45.505 C 324.337 45.505,324.429 45.140,324.429 44.693 C 324.429 44.246,324.520 43.880,324.632 43.880 C 324.744 43.880,324.835 43.606,324.835 43.271 C 324.835 42.936,324.926 42.661,325.038 42.661 C 325.150 42.661,325.241 42.341,325.241 41.950 C 325.241 41.559,325.323 41.239,325.422 41.239 C 325.522 41.239,325.654 40.942,325.717 40.579 C 325.991 38.994,326.116 38.483,326.276 38.280 C 326.371 38.161,326.509 37.544,326.584 36.909 C 326.658 36.274,326.798 35.754,326.894 35.754 C 326.991 35.754,327.070 35.440,327.070 35.055 C 327.070 34.671,327.161 34.300,327.273 34.231 C 327.384 34.162,327.476 33.836,327.476 33.508 C 327.476 33.179,327.567 32.910,327.679 32.910 C 327.791 32.910,327.882 32.590,327.882 32.199 C 327.882 31.808,327.974 31.488,328.085 31.488 C 328.197 31.488,328.288 31.174,328.288 30.789 C 328.288 30.405,328.380 30.034,328.492 29.964 C 328.603 29.895,328.695 29.570,328.695 29.241 C 328.695 28.913,328.786 28.644,328.898 28.644 C 329.010 28.644,329.101 28.141,329.101 27.527 L 329.101 26.409 317.014 26.409 L 304.926 26.409 304.926 24.886 C 304.926 24.005,304.841 23.362,304.723 23.362 C 304.611 23.362,304.520 23.145,304.520 22.879 C 304.520 22.317,304.038 21.087,303.662 20.691 C 303.520 20.540,303.147 20.074,302.834 19.655 C 302.521 19.236,302.152 18.893,302.015 18.893 C 301.878 18.893,301.634 18.710,301.473 18.487 C 301.313 18.264,300.881 18.026,300.514 17.957 C 300.148 17.888,299.848 17.751,299.848 17.651 C 299.848 17.552,299.391 17.471,298.832 17.471 C 298.273 17.471,297.816 17.379,297.816 17.268 C 297.816 17.156,297.405 17.064,296.902 17.064 C 296.399 17.064,295.988 17.156,295.988 17.268 M218.994 37.176 C 218.994 37.288,218.629 37.379,218.182 37.379 C 217.735 37.379,217.369 37.471,217.369 37.583 C 217.369 37.694,217.217 37.786,217.031 37.786 C 216.575 37.786,215.135 38.432,215.135 38.637 C 215.135 38.728,214.972 38.801,214.773 38.801 C 214.574 38.801,214.280 38.984,214.119 39.208 C 213.958 39.431,213.703 39.614,213.553 39.614 C 213.258 39.614,211.275 41.559,211.275 41.848 C 211.275 41.944,211.159 42.144,211.018 42.291 C 210.563 42.768,210.056 43.654,210.056 43.975 C 210.056 44.146,209.964 44.286,209.853 44.286 C 209.741 44.286,209.650 44.469,209.650 44.693 C 209.650 44.916,209.558 45.099,209.446 45.099 C 209.335 45.099,209.243 45.465,209.243 45.912 C 209.243 46.359,209.152 46.724,209.040 46.724 C 208.913 46.724,208.837 47.943,208.837 49.975 C 208.837 52.006,208.913 53.225,209.040 53.225 C 209.152 53.225,209.243 53.591,209.243 54.038 C 209.243 54.485,209.335 54.850,209.446 54.850 C 209.558 54.850,209.650 55.124,209.650 55.460 C 209.650 55.795,209.741 56.069,209.853 56.069 C 209.964 56.069,210.056 56.208,210.056 56.378 C 210.056 56.639,210.670 57.694,211.357 58.610 C 211.480 58.774,211.333 59.084,210.915 59.544 C 209.749 60.829,209.244 61.452,209.244 61.607 C 209.243 61.692,208.969 62.048,208.634 62.399 C 208.299 62.749,208.024 63.160,208.024 63.311 C 208.024 63.462,207.933 63.586,207.821 63.586 C 207.709 63.586,207.618 63.681,207.618 63.797 C 207.618 63.914,207.435 64.205,207.212 64.445 C 206.988 64.685,206.805 65.001,206.805 65.147 C 206.805 65.294,206.714 65.414,206.602 65.414 C 206.491 65.414,206.399 65.597,206.399 65.820 C 206.399 66.044,206.308 66.227,206.196 66.227 C 206.084 66.227,205.993 66.409,205.993 66.633 C 205.993 66.856,205.901 67.039,205.790 67.039 C 205.678 67.039,205.587 67.166,205.587 67.321 C 205.587 67.475,205.450 67.864,205.283 68.184 C 205.116 68.504,204.979 68.972,204.978 69.223 C 204.978 69.474,204.886 69.680,204.774 69.680 C 204.662 69.680,204.571 69.954,204.571 70.289 C 204.571 70.625,204.479 70.899,204.368 70.899 C 204.256 70.899,204.165 71.173,204.165 71.508 C 204.165 71.844,204.073 72.118,203.961 72.118 C 203.850 72.118,203.758 72.483,203.758 72.930 C 203.758 73.377,203.667 73.743,203.555 73.743 C 203.443 73.743,203.352 74.154,203.352 74.657 C 203.352 75.160,203.261 75.571,203.149 75.571 C 203.036 75.571,202.946 76.109,202.946 76.778 C 202.946 77.442,202.854 78.042,202.743 78.111 C 202.623 78.185,202.539 79.395,202.539 81.056 C 202.539 82.717,202.456 83.928,202.336 84.002 C 202.224 84.071,202.133 84.437,202.133 84.815 C 202.133 85.193,202.224 85.558,202.336 85.627 C 202.456 85.702,202.539 86.946,202.539 88.674 C 202.539 90.403,202.622 91.647,202.743 91.722 C 202.854 91.791,202.946 92.390,202.946 93.054 C 202.946 93.723,203.036 94.261,203.149 94.261 C 203.261 94.261,203.352 94.621,203.352 95.062 C 203.352 95.502,203.443 95.919,203.555 95.988 C 203.667 96.057,203.758 96.428,203.758 96.812 C 203.758 97.197,203.850 97.511,203.961 97.511 C 204.073 97.511,204.165 97.831,204.165 98.222 C 204.165 98.614,204.256 98.933,204.368 98.933 C 204.479 98.933,204.571 99.111,204.571 99.328 C 204.571 99.545,204.650 99.771,204.747 99.831 C 204.844 99.891,204.984 100.320,205.059 100.784 C 205.175 101.509,205.938 103.401,206.641 104.706 C 206.815 105.028,206.734 105.194,206.168 105.676 C 204.883 106.768,204.571 107.102,204.571 107.385 C 204.571 107.541,204.479 107.669,204.368 107.669 C 204.256 107.669,204.165 107.943,204.165 108.278 C 204.165 108.614,204.073 108.888,203.961 108.888 C 203.837 108.888,203.758 109.836,203.758 111.326 C 203.758 112.815,203.837 113.763,203.961 113.763 C 204.244 113.763,204.216 114.443,203.921 114.738 C 203.787 114.873,203.520 114.982,203.328 114.982 C 203.136 114.982,202.949 115.051,202.912 115.135 C 202.875 115.218,202.501 115.543,202.082 115.856 C 201.663 116.169,201.320 116.557,201.320 116.719 C 201.320 116.881,201.229 117.014,201.117 117.014 C 201.006 117.014,200.914 117.197,200.914 117.420 C 200.914 117.643,200.834 117.826,200.737 117.826 C 200.174 117.826,200.175 122.879,200.738 123.226 C 200.835 123.286,200.914 123.499,200.914 123.699 C 200.914 123.900,201.188 124.351,201.524 124.701 C 202.310 125.524,202.302 125.546,201.219 125.546 C 200.716 125.546,200.305 125.637,200.305 125.749 C 200.305 125.861,200.030 125.952,199.695 125.952 C 199.360 125.952,199.086 126.044,199.086 126.155 C 199.086 126.267,198.903 126.359,198.680 126.359 C 198.456 126.359,198.273 126.430,198.273 126.518 C 198.273 126.606,197.999 126.839,197.664 127.037 C 197.329 127.235,197.054 127.509,197.054 127.646 C 197.054 127.782,196.872 128.026,196.648 128.187 C 196.425 128.348,196.242 128.642,196.242 128.841 C 196.242 129.040,196.150 129.203,196.039 129.203 C 195.927 129.203,195.835 129.517,195.835 129.902 C 195.835 130.286,195.744 130.657,195.632 130.726 C 195.521 130.795,195.429 131.390,195.429 132.047 C 195.429 132.704,195.521 133.298,195.632 133.367 C 195.744 133.436,195.835 133.716,195.835 133.989 C 195.835 134.261,195.927 134.485,196.039 134.485 C 196.150 134.485,196.242 134.628,196.242 134.802 C 196.242 135.188,198.110 137.046,198.679 137.227 C 198.903 137.298,199.086 137.441,199.086 137.545 C 199.086 137.650,199.360 137.735,199.695 137.735 C 200.030 137.735,200.305 137.826,200.305 137.938 C 200.305 138.062,201.219 138.141,202.641 138.141 C 204.063 138.141,204.977 138.221,204.977 138.344 C 204.977 138.456,205.099 138.547,205.248 138.547 C 205.396 138.547,205.640 138.776,205.790 139.055 C 205.939 139.335,206.138 139.563,206.230 139.563 C 206.323 139.563,206.399 139.746,206.399 139.970 C 206.399 140.193,206.491 140.376,206.602 140.376 C 206.714 140.376,206.805 140.650,206.805 140.985 C 206.805 141.320,206.897 141.595,207.009 141.595 C 207.131 141.595,207.212 142.437,207.212 143.716 C 207.212 144.911,207.123 145.892,207.009 145.962 C 206.897 146.031,206.805 146.311,206.805 146.584 C 206.805 146.857,206.714 147.080,206.602 147.080 C 206.491 147.080,206.399 147.263,206.399 147.486 C 206.399 147.709,206.308 147.892,206.196 147.892 C 206.084 147.892,205.993 148.026,205.993 148.190 C 205.993 148.546,204.988 150.403,204.743 150.499 C 204.648 150.537,204.571 150.706,204.571 150.875 C 204.571 151.044,204.297 151.439,203.961 151.752 C 203.626 152.065,203.352 152.425,203.352 152.552 C 203.352 152.679,202.118 154.012,200.609 155.514 L 197.867 158.246 197.867 162.211 C 197.867 164.719,197.942 166.176,198.070 166.176 C 198.617 166.176,198.293 168.942,197.715 169.212 C 197.407 169.356,196.973 169.571,196.750 169.690 C 196.526 169.810,196.111 170.025,195.827 170.168 C 195.255 170.457,194.413 171.347,194.413 171.662 C 194.413 171.773,194.322 171.864,194.210 171.864 C 194.099 171.864,194.007 172.001,194.007 172.169 C 194.007 172.336,193.916 172.473,193.804 172.473 C 193.692 172.473,193.601 172.748,193.601 173.083 C 193.601 173.418,193.509 173.692,193.398 173.692 C 193.286 173.692,193.195 173.875,193.195 174.099 C 193.195 174.322,193.103 174.505,192.991 174.505 C 192.880 174.505,192.788 174.688,192.788 174.911 C 192.788 175.135,192.697 175.317,192.585 175.317 C 192.473 175.317,192.382 175.455,192.382 175.622 C 192.382 175.790,192.291 175.927,192.179 175.927 C 192.067 175.927,191.976 176.150,191.976 176.423 C 191.976 176.695,191.884 176.975,191.772 177.044 C 191.661 177.113,191.569 177.439,191.569 177.767 C 191.569 178.096,191.478 178.365,191.366 178.365 C 191.248 178.365,191.163 179.038,191.163 179.978 C 191.163 180.865,191.254 181.648,191.366 181.717 C 191.478 181.786,191.569 182.111,191.569 182.440 C 191.569 182.768,191.661 183.037,191.772 183.037 C 191.884 183.037,191.976 183.220,191.976 183.443 C 191.976 183.667,192.067 183.850,192.179 183.850 C 192.291 183.850,192.382 183.987,192.382 184.154 C 192.382 184.322,192.473 184.459,192.585 184.459 C 192.697 184.459,192.788 184.596,192.788 184.764 C 192.788 184.931,192.866 185.069,192.960 185.069 C 193.171 185.069,194.007 185.777,194.007 185.956 C 194.007 186.026,193.381 186.084,192.616 186.084 C 191.758 186.084,190.980 186.207,190.585 186.404 L 189.944 186.724 189.944 194.615 C 189.944 198.955,190.000 202.651,190.067 202.827 C 190.179 203.119,193.142 203.149,221.556 203.149 L 252.920 203.149 252.920 195.110 C 252.920 186.652,252.903 186.491,252.021 186.491 C 251.845 186.491,251.701 186.399,251.701 186.287 C 251.701 186.176,251.199 186.084,250.584 186.084 C 249.429 186.084,249.329 186.034,249.667 185.619 C 250.648 184.416,250.889 184.053,250.889 183.782 C 250.889 183.609,250.980 183.411,251.092 183.342 C 251.204 183.273,251.295 182.770,251.295 182.224 C 251.295 181.679,251.386 181.176,251.498 181.107 C 251.610 181.038,251.701 180.576,251.701 180.079 C 251.701 179.583,251.610 179.177,251.498 179.177 C 251.386 179.177,251.295 178.720,251.295 178.162 C 251.295 177.603,251.213 177.146,251.113 177.146 C 251.012 177.146,250.863 176.483,250.782 175.674 C 250.596 173.817,249.917 172.315,248.761 171.203 C 247.502 169.991,247.291 169.832,246.936 169.832 C 246.764 169.832,246.623 169.741,246.623 169.629 C 246.623 169.518,246.440 169.426,246.216 169.426 C 245.993 169.426,245.810 169.335,245.810 169.223 C 245.810 169.111,245.490 169.020,245.099 169.020 L 244.388 169.020 244.388 167.914 C 244.388 167.307,244.297 166.753,244.185 166.684 C 244.061 166.607,243.982 165.028,243.982 162.625 C 243.982 158.710,243.917 158.050,243.534 158.050 C 243.423 158.050,243.076 157.776,242.763 157.440 C 242.450 157.105,242.098 156.831,241.981 156.831 C 241.741 156.831,238.091 153.257,238.090 153.022 C 238.090 152.938,237.816 152.550,237.481 152.158 C 237.146 151.767,236.872 151.333,236.872 151.193 C 236.872 151.054,236.780 150.940,236.668 150.940 C 236.557 150.940,236.465 150.762,236.465 150.545 C 236.465 150.328,236.374 150.094,236.262 150.025 C 236.150 149.956,236.059 149.730,236.059 149.522 C 236.059 149.315,235.950 149.109,235.817 149.064 C 235.462 148.946,235.451 142.576,235.805 142.458 C 235.945 142.412,236.059 142.107,236.059 141.781 C 236.059 141.455,236.150 141.188,236.262 141.188 C 236.374 141.188,236.465 141.026,236.465 140.827 C 236.465 140.628,236.648 140.334,236.872 140.173 C 237.095 140.012,237.278 139.804,237.278 139.712 C 237.278 139.427,238.258 138.547,238.577 138.547 C 238.743 138.547,238.936 138.456,239.005 138.344 C 239.076 138.229,240.090 138.141,241.353 138.141 C 242.699 138.141,243.575 138.061,243.575 137.938 C 243.575 137.826,243.786 137.735,244.043 137.735 C 244.578 137.735,245.603 137.302,245.605 137.075 C 245.606 136.991,245.701 136.922,245.817 136.922 C 246.144 136.922,247.435 135.550,247.435 135.202 C 247.435 135.031,247.504 134.890,247.588 134.889 C 247.812 134.887,248.248 133.864,248.248 133.339 C 248.248 133.088,248.339 132.827,248.451 132.758 C 248.563 132.689,248.654 132.272,248.654 131.832 C 248.654 131.391,248.563 131.031,248.451 131.031 C 248.339 131.031,248.248 130.711,248.248 130.320 C 248.248 129.929,248.156 129.609,248.045 129.609 C 247.933 129.609,247.842 129.426,247.842 129.203 C 247.842 128.979,247.750 128.796,247.638 128.796 C 247.527 128.796,247.435 128.656,247.435 128.485 C 247.435 128.137,246.144 126.765,245.817 126.765 C 245.701 126.765,245.607 126.673,245.607 126.562 C 245.607 126.450,245.470 126.359,245.302 126.359 C 245.135 126.359,244.997 126.267,244.997 126.155 C 244.997 126.044,244.774 125.952,244.502 125.952 C 244.229 125.952,243.949 125.861,243.880 125.749 C 243.811 125.637,243.440 125.546,243.056 125.546 C 242.671 125.546,242.357 125.499,242.357 125.442 C 242.357 125.263,242.848 124.468,243.220 124.045 C 243.415 123.823,243.575 123.344,243.575 122.980 C 243.575 122.617,243.667 122.263,243.779 122.194 C 243.890 122.125,243.982 121.388,243.982 120.557 C 243.982 119.685,243.896 119.045,243.779 119.045 C 243.667 119.045,243.575 118.680,243.575 118.233 C 243.575 117.786,243.484 117.420,243.372 117.420 C 243.261 117.420,243.169 117.274,243.169 117.095 C 243.169 116.733,241.408 114.982,241.044 114.982 C 240.111 114.982,239.278 113.855,239.919 113.459 C 240.038 113.385,240.122 112.200,240.122 110.591 L 240.122 107.850 238.903 106.653 C 237.557 105.331,237.502 105.161,238.090 104.114 C 238.314 103.716,238.497 103.210,238.497 102.990 C 238.497 102.770,238.588 102.590,238.700 102.590 C 238.812 102.590,238.903 102.452,238.903 102.283 C 238.903 102.114,238.983 101.816,239.081 101.622 C 239.381 101.030,239.716 99.844,239.716 99.376 C 239.716 99.133,239.807 98.933,239.919 98.933 C 240.030 98.933,240.122 98.632,240.122 98.263 C 240.122 97.894,240.209 97.505,240.316 97.398 C 240.423 97.292,240.573 96.451,240.650 95.529 C 240.727 94.608,240.868 93.855,240.964 93.855 C 241.059 93.855,241.138 90.747,241.138 86.948 C 241.138 83.149,241.059 80.041,240.964 80.041 C 240.868 80.041,240.725 79.109,240.647 77.970 C 240.487 75.648,240.463 75.571,239.893 75.571 C 239.494 75.571,235.449 79.479,235.449 79.865 C 235.449 79.965,234.695 80.819,233.773 81.762 C 232.852 82.706,231.732 83.902,231.285 84.420 C 230.838 84.938,230.135 85.720,229.723 86.158 L 228.973 86.955 227.417 85.449 L 225.861 83.942 226.491 83.341 C 226.837 83.010,227.120 82.675,227.120 82.596 C 227.120 82.517,227.557 82.024,228.091 81.500 C 228.625 80.977,229.283 80.229,229.554 79.837 C 229.824 79.446,230.418 78.761,230.874 78.314 C 231.330 77.867,231.922 77.189,232.191 76.808 C 232.460 76.427,233.349 75.433,234.166 74.599 C 234.984 73.766,235.653 72.998,235.653 72.894 C 235.653 72.790,236.201 72.166,236.872 71.508 C 238.051 70.351,238.653 68.664,237.887 68.664 C 237.776 68.664,237.684 68.481,237.684 68.258 C 237.684 68.035,237.593 67.852,237.481 67.852 C 237.369 67.852,237.278 67.732,237.278 67.585 C 237.278 67.439,237.095 67.123,236.872 66.883 C 236.648 66.643,236.465 66.306,236.465 66.133 C 236.465 65.961,236.374 65.820,236.262 65.820 C 236.150 65.820,236.059 65.637,236.059 65.414 C 236.059 65.190,235.984 65.008,235.893 65.008 C 235.802 65.008,235.575 64.688,235.389 64.297 C 235.202 63.906,234.957 63.586,234.843 63.586 C 234.730 63.586,234.637 63.448,234.637 63.279 C 234.637 63.110,234.363 62.685,234.027 62.335 C 233.692 61.984,233.418 61.610,233.418 61.504 C 233.418 61.398,233.144 61.055,232.809 60.741 C 232.473 60.428,232.199 59.971,232.199 59.726 C 232.199 59.480,232.473 59.023,232.809 58.710 C 233.144 58.397,233.418 58.040,233.418 57.917 C 233.418 57.795,233.492 57.694,233.583 57.694 C 233.820 57.694,234.637 56.104,234.637 55.644 C 234.637 55.431,234.720 55.256,234.823 55.256 C 235.428 55.256,235.425 46.660,234.820 46.023 C 234.719 45.917,234.637 45.666,234.637 45.465 C 234.637 45.264,234.545 45.099,234.434 45.099 C 234.322 45.099,234.231 44.916,234.231 44.693 C 234.231 44.469,234.161 44.286,234.077 44.286 C 233.993 44.286,233.793 43.989,233.634 43.626 C 233.474 43.263,233.086 42.724,232.771 42.427 C 232.457 42.131,232.199 41.795,232.199 41.681 C 232.199 41.567,231.922 41.261,231.583 41.001 C 231.243 40.741,230.680 40.231,230.331 39.868 C 229.982 39.505,229.574 39.208,229.424 39.208 C 229.274 39.208,229.152 39.130,229.152 39.035 C 229.152 38.941,228.763 38.703,228.288 38.507 C 227.814 38.311,227.266 38.068,227.072 37.968 C 226.878 37.868,226.536 37.786,226.311 37.786 C 226.086 37.786,225.901 37.694,225.901 37.583 C 225.901 37.471,225.490 37.379,224.987 37.379 C 224.485 37.379,224.073 37.288,224.073 37.176 C 224.073 37.052,223.091 36.973,221.534 36.973 C 219.976 36.973,218.994 37.052,218.994 37.176 M70.899 84.307 C 70.731 84.415,70.300 84.505,69.940 84.507 C 69.249 84.510,66.633 86.797,66.633 87.397 C 66.633 87.548,66.450 87.802,66.227 87.963 C 66.003 88.124,65.820 88.419,65.820 88.618 C 65.820 88.817,65.729 88.979,65.617 88.979 C 65.505 88.979,65.414 89.116,65.414 89.284 C 65.414 89.451,65.322 89.589,65.211 89.589 C 65.099 89.589,65.008 89.764,65.008 89.978 C 65.008 90.192,64.939 90.398,64.855 90.435 C 64.614 90.542,63.789 92.149,63.789 92.511 C 63.789 92.691,63.707 92.839,63.608 92.839 C 63.509 92.839,63.368 93.159,63.294 93.550 C 63.221 93.941,63.074 94.261,62.967 94.261 C 62.860 94.261,62.773 94.490,62.773 94.769 C 62.773 95.048,62.682 95.277,62.570 95.277 C 62.458 95.277,62.367 95.505,62.367 95.785 C 62.367 96.064,62.275 96.293,62.164 96.293 C 62.052 96.293,61.960 96.658,61.960 97.105 C 61.960 97.552,61.869 97.918,61.757 97.918 C 61.646 97.918,61.554 98.232,61.554 98.617 C 61.554 99.001,61.463 99.372,61.351 99.441 C 61.239 99.510,61.148 99.973,61.148 100.469 C 61.148 100.965,61.056 101.371,60.945 101.371 C 60.829 101.371,60.741 101.981,60.741 102.793 C 60.741 103.606,60.654 104.215,60.538 104.215 C 60.411 104.215,60.335 105.502,60.335 107.669 C 60.335 109.836,60.411 111.122,60.538 111.122 C 60.650 111.122,60.741 111.437,60.741 111.821 C 60.741 112.206,60.833 112.577,60.945 112.646 C 61.056 112.715,61.148 112.989,61.148 113.255 C 61.148 113.522,61.239 113.796,61.351 113.865 C 61.463 113.934,61.554 114.305,61.554 114.689 C 61.554 115.074,61.646 115.389,61.757 115.389 C 61.869 115.389,61.960 115.754,61.960 116.201 C 61.960 116.648,62.052 117.014,62.164 117.014 C 62.275 117.014,62.367 117.425,62.367 117.928 C 62.367 118.431,62.458 118.842,62.570 118.842 C 62.682 118.842,62.773 119.208,62.773 119.655 C 62.773 120.102,62.846 120.467,62.936 120.467 C 63.025 120.467,63.210 121.176,63.346 122.042 C 63.482 122.908,63.647 123.959,63.713 124.378 C 63.778 124.797,63.913 125.140,64.013 125.140 C 64.113 125.140,64.195 125.500,64.195 125.940 C 64.195 126.381,64.286 126.797,64.398 126.866 C 64.510 126.935,64.601 127.352,64.601 127.793 C 64.601 128.233,64.693 128.593,64.804 128.593 C 64.916 128.593,65.008 128.959,65.008 129.406 C 65.008 129.853,65.099 130.218,65.211 130.218 C 65.322 130.218,65.414 130.584,65.414 131.031 C 65.414 131.478,65.505 131.844,65.617 131.844 C 65.729 131.844,65.820 132.255,65.820 132.758 C 65.820 133.261,65.912 133.672,66.023 133.672 C 66.135 133.672,66.227 134.038,66.227 134.485 C 66.227 134.931,66.318 135.297,66.430 135.297 C 66.541 135.297,66.633 135.657,66.633 136.098 C 66.633 136.538,66.724 136.955,66.836 137.024 C 66.948 137.093,67.039 137.555,67.039 138.052 C 67.039 138.548,67.131 138.954,67.242 138.954 C 67.354 138.954,67.445 139.365,67.445 139.868 C 67.445 140.371,67.537 140.782,67.649 140.782 C 67.760 140.782,67.852 141.239,67.852 141.798 C 67.852 142.357,67.927 142.814,68.019 142.814 C 68.174 142.814,68.522 145.015,68.791 147.689 C 68.853 148.304,68.987 148.893,69.088 148.999 C 69.190 149.106,69.274 149.717,69.274 150.359 C 69.274 151.000,69.365 151.582,69.477 151.651 C 69.589 151.720,69.680 152.360,69.680 153.073 C 69.680 153.786,69.771 154.426,69.883 154.495 C 69.995 154.564,70.086 155.475,70.086 156.526 C 70.086 157.578,70.177 158.488,70.289 158.558 C 70.412 158.633,70.493 160.046,70.493 162.113 C 70.493 164.180,70.573 165.592,70.696 165.668 C 70.821 165.745,70.899 167.435,70.899 170.062 C 70.899 174.754,70.860 174.911,69.695 174.911 C 69.351 174.911,69.071 174.991,69.071 175.088 C 69.071 175.185,68.614 175.326,68.055 175.400 C 67.496 175.474,67.039 175.623,67.039 175.731 C 67.039 175.839,66.909 175.927,66.750 175.927 C 66.375 175.927,64.601 177.700,64.601 178.076 C 64.601 178.235,64.530 178.365,64.443 178.365 C 63.881 178.365,63.268 182.764,63.585 184.510 C 63.941 186.466,64.080 186.732,65.473 188.147 L 66.244 188.928 65.333 188.928 C 64.832 188.928,64.366 189.020,64.297 189.132 C 64.228 189.243,64.003 189.335,63.798 189.335 C 63.388 189.335,63.179 189.717,63.179 190.469 C 63.179 190.739,63.088 190.960,62.976 190.960 C 62.846 190.960,62.773 192.920,62.773 196.433 C 62.773 199.862,62.849 201.953,62.976 202.031 C 63.088 202.101,63.179 202.325,63.179 202.530 C 63.179 203.153,63.017 203.149,89.980 203.149 C 119.414 203.149,117.014 203.281,117.014 201.664 C 117.014 201.265,117.105 200.882,117.217 200.813 C 117.493 200.642,117.493 191.976,117.217 191.976 C 117.105 191.976,117.011 191.541,117.007 191.011 C 117.000 189.864,116.658 189.335,115.925 189.335 C 115.630 189.335,115.389 189.243,115.389 189.132 C 115.389 189.020,114.915 188.928,114.337 188.928 C 113.344 188.928,113.304 188.909,113.622 188.573 C 114.796 187.328,114.982 187.087,114.982 186.805 C 114.982 186.632,115.074 186.491,115.185 186.491 C 115.297 186.491,115.389 186.308,115.389 186.084 C 115.389 185.861,115.480 185.678,115.592 185.678 C 115.717 185.678,115.795 184.595,115.795 182.834 C 115.795 181.073,115.717 179.990,115.592 179.990 C 115.480 179.990,115.389 179.871,115.389 179.726 C 115.389 179.352,114.911 178.368,114.728 178.366 C 114.644 178.365,114.576 178.245,114.576 178.100 C 114.576 177.765,113.278 176.333,112.974 176.333 C 112.850 176.333,112.748 176.242,112.748 176.130 C 112.748 176.018,112.565 175.927,112.341 175.927 C 112.118 175.927,111.935 175.839,111.935 175.731 C 111.935 175.623,111.478 175.474,110.919 175.400 C 110.361 175.326,109.904 175.185,109.904 175.088 C 109.904 174.991,109.714 174.911,109.483 174.911 C 108.726 174.911,108.427 174.394,108.571 173.331 C 108.642 172.804,108.752 171.827,108.814 171.160 C 108.931 169.921,109.244 169.445,109.954 169.433 C 110.150 169.429,110.310 169.335,110.310 169.223 C 110.310 169.111,110.493 169.020,110.716 169.020 C 110.940 169.020,111.122 168.928,111.122 168.817 C 111.122 168.705,111.262 168.614,111.432 168.614 C 111.948 168.614,113.526 166.868,114.094 165.669 C 114.387 165.050,114.707 164.493,114.805 164.433 C 114.902 164.373,114.982 164.146,114.982 163.929 C 114.982 163.712,115.074 163.535,115.185 163.535 C 115.297 163.535,115.389 163.261,115.389 162.925 C 115.389 162.590,115.480 162.316,115.592 162.316 C 115.703 162.316,115.795 161.864,115.795 161.312 C 115.795 160.760,115.886 160.252,115.998 160.183 C 116.117 160.109,116.201 158.928,116.201 157.327 C 116.201 155.642,116.123 154.596,115.998 154.596 C 115.885 154.596,115.795 154.055,115.795 153.377 C 115.795 152.700,115.705 152.158,115.592 152.158 C 115.480 152.158,115.389 151.844,115.389 151.459 C 115.389 151.075,115.297 150.704,115.185 150.635 C 115.074 150.566,114.982 150.286,114.982 150.013 C 114.982 149.741,114.891 149.518,114.779 149.518 C 114.667 149.518,114.576 149.243,114.576 148.908 C 114.576 148.573,114.495 148.299,114.395 148.299 C 114.296 148.299,114.152 147.962,114.075 147.551 C 113.899 146.613,113.259 145.238,112.739 144.679 C 112.520 144.445,112.341 144.148,112.341 144.021 C 112.341 143.893,112.067 143.533,111.732 143.220 C 111.397 142.907,111.122 142.544,111.122 142.414 C 111.122 142.284,110.665 141.733,110.107 141.188 C 109.548 140.644,109.091 140.148,109.091 140.086 C 109.091 139.936,108.425 139.158,107.059 137.713 C 106.445 137.063,105.485 136.016,104.926 135.387 C 103.595 133.887,101.777 131.903,100.211 130.239 C 98.171 128.071,98.034 127.916,97.510 127.171 C 97.235 126.780,96.735 126.175,96.397 125.827 C 95.138 124.525,95.074 124.388,95.074 123.004 C 95.074 122.261,95.162 121.686,95.277 121.686 C 95.389 121.686,95.480 121.412,95.480 121.077 C 95.480 120.741,95.571 120.467,95.683 120.467 C 95.795 120.467,95.886 120.284,95.886 120.061 C 95.886 119.837,95.955 119.655,96.040 119.655 C 96.124 119.655,96.325 119.358,96.486 118.994 C 96.646 118.631,96.943 118.157,97.145 117.940 C 97.346 117.724,97.511 117.469,97.511 117.375 C 97.511 117.130,98.879 115.795,99.130 115.795 C 99.245 115.795,99.340 115.703,99.340 115.592 C 99.340 115.480,99.523 115.389,99.746 115.389 C 99.970 115.389,100.152 115.297,100.152 115.185 C 100.152 115.059,101.270 114.982,103.098 114.982 C 104.926 114.982,106.044 115.059,106.044 115.185 C 106.044 115.307,106.852 115.389,108.063 115.389 C 109.190 115.389,110.138 115.478,110.208 115.592 C 110.277 115.703,111.009 115.795,111.833 115.795 C 112.658 115.795,113.390 115.703,113.459 115.592 C 113.528 115.480,113.763 115.389,113.981 115.389 C 114.982 115.389,116.607 113.766,116.607 112.767 C 116.607 112.533,116.699 112.341,116.811 112.341 C 116.928 112.341,117.014 111.698,117.014 110.818 C 117.014 109.937,116.928 109.294,116.811 109.294 C 116.699 109.294,116.607 109.153,116.607 108.980 C 116.607 108.621,115.722 107.669,115.389 107.669 C 115.267 107.669,114.934 107.436,114.649 107.151 L 114.130 106.632 114.709 106.135 C 115.027 105.862,115.401 105.638,115.541 105.638 C 115.681 105.637,115.795 105.546,115.795 105.434 C 115.795 105.322,115.978 105.231,116.201 105.231 C 116.425 105.231,116.607 105.140,116.607 105.028 C 116.607 104.916,116.727 104.825,116.874 104.825 C 117.020 104.825,117.336 104.642,117.576 104.418 C 117.816 104.195,118.070 104.012,118.141 104.012 C 118.525 104.012,119.032 103.013,119.038 102.244 C 119.047 101.144,118.429 99.510,117.777 98.910 C 117.581 98.729,117.420 98.500,117.420 98.402 C 117.419 98.140,116.493 97.105,116.258 97.105 C 116.148 97.105,115.771 96.831,115.421 96.496 C 115.070 96.160,114.605 95.886,114.387 95.886 C 114.169 95.886,113.940 95.804,113.878 95.705 C 113.816 95.605,113.422 95.470,113.003 95.406 C 112.583 95.341,111.646 95.192,110.919 95.074 C 106.591 94.369,104.298 94.091,102.641 94.072 C 101.940 94.064,101.371 93.967,101.371 93.855 C 101.371 93.740,100.800 93.652,100.063 93.652 C 99.343 93.652,98.698 93.560,98.629 93.448 C 98.560 93.337,98.006 93.245,97.398 93.245 C 96.790 93.245,96.293 93.154,96.293 93.042 C 96.293 92.930,96.018 92.839,95.683 92.839 C 95.348 92.839,95.074 92.748,95.074 92.636 C 95.074 92.524,94.911 92.433,94.712 92.433 C 94.513 92.433,94.219 92.250,94.058 92.026 C 93.829 91.709,93.532 91.620,92.705 91.620 C 92.121 91.620,91.588 91.529,91.519 91.417 C 91.443 91.295,90.098 91.214,88.167 91.214 C 86.235 91.214,84.890 91.132,84.815 91.011 C 84.746 90.899,84.373 90.808,83.987 90.808 C 83.601 90.808,83.104 90.716,82.882 90.604 C 82.660 90.493,82.296 90.310,82.072 90.198 C 81.050 89.687,80.269 89.143,79.520 88.421 C 79.375 88.281,79.113 88.167,78.938 88.167 C 78.762 88.167,78.619 88.075,78.619 87.963 C 78.619 87.852,78.390 87.760,78.111 87.760 C 77.831 87.760,77.603 87.669,77.603 87.557 C 77.603 87.445,77.420 87.354,77.197 87.354 C 76.973 87.354,76.790 87.263,76.790 87.151 C 76.790 87.039,76.628 86.948,76.429 86.948 C 76.230 86.948,75.936 86.765,75.775 86.541 C 75.613 86.318,75.376 86.135,75.246 86.135 C 75.117 86.135,74.634 85.769,74.174 85.322 C 73.713 84.876,73.159 84.510,72.942 84.510 C 72.725 84.510,72.492 84.418,72.423 84.307 C 72.263 84.048,71.299 84.048,70.899 84.307 M132.707 87.867 L 132.250 88.355 132.250 101.027 L 132.250 113.698 132.767 113.934 C 133.052 114.064,133.418 114.170,133.580 114.170 C 133.742 114.170,133.875 114.307,133.875 114.474 C 133.875 114.642,133.784 114.779,133.672 114.779 C 133.560 114.779,133.469 114.916,133.469 115.084 C 133.469 115.251,133.377 115.389,133.266 115.389 C 133.154 115.389,133.062 115.571,133.062 115.795 C 133.062 116.018,132.971 116.201,132.859 116.201 C 132.748 116.201,132.656 116.567,132.656 117.014 C 132.656 117.461,132.565 117.826,132.453 117.826 C 132.328 117.826,132.250 118.808,132.250 120.366 C 132.250 121.923,132.328 122.905,132.453 122.905 C 132.565 122.905,132.656 123.179,132.656 123.514 C 132.656 123.850,132.748 124.124,132.859 124.124 C 132.971 124.124,133.062 124.261,133.062 124.429 C 133.062 124.596,133.154 124.733,133.266 124.733 C 133.377 124.733,133.469 124.874,133.469 125.045 C 133.469 125.524,135.388 127.577,135.835 127.577 C 135.986 127.577,136.110 127.669,136.110 127.781 C 136.110 127.892,136.293 127.984,136.516 127.984 C 136.739 127.984,136.922 128.075,136.922 128.187 C 136.922 128.299,137.105 128.390,137.329 128.390 C 137.770 128.390,137.934 129.462,137.532 129.711 C 137.415 129.782,137.329 130.830,137.329 132.160 C 137.329 133.574,137.408 134.485,137.532 134.485 C 137.643 134.485,137.735 134.667,137.735 134.891 C 137.735 135.114,137.826 135.297,137.938 135.297 C 138.050 135.297,138.141 135.443,138.141 135.622 C 138.141 135.801,138.418 136.205,138.756 136.521 C 139.111 136.852,139.282 137.149,139.162 137.224 C 139.048 137.295,138.954 137.987,138.954 138.763 C 138.954 139.567,138.867 140.173,138.751 140.173 C 138.636 140.173,138.547 140.748,138.547 141.493 C 138.547 142.238,138.459 142.814,138.344 142.814 C 138.233 142.814,138.141 143.311,138.141 143.919 C 138.141 144.527,138.050 145.081,137.938 145.150 C 137.826 145.219,137.735 145.773,137.735 146.381 C 137.735 146.989,137.643 147.486,137.532 147.486 C 137.420 147.486,137.329 147.943,137.329 148.502 C 137.329 149.060,137.237 149.518,137.125 149.518 C 137.014 149.518,136.922 150.020,136.922 150.635 C 136.922 151.249,136.831 151.752,136.719 151.752 C 136.607 151.752,136.516 152.158,136.516 152.654 C 136.516 153.151,136.425 153.613,136.313 153.682 C 136.201 153.751,136.110 154.163,136.110 154.596 C 136.110 155.030,136.018 155.441,135.907 155.510 C 135.795 155.579,135.703 155.996,135.703 156.437 C 135.703 156.877,135.612 157.237,135.500 157.237 C 135.389 157.237,135.297 157.603,135.297 158.050 C 135.297 158.497,135.206 158.862,135.094 158.862 C 134.982 158.862,134.891 159.177,134.891 159.561 C 134.891 159.946,134.807 160.312,134.704 160.376 C 134.601 160.440,134.453 161.085,134.375 161.810 C 134.298 162.535,134.153 163.128,134.055 163.128 C 133.956 163.128,133.875 163.403,133.875 163.738 C 133.875 164.073,133.784 164.347,133.672 164.347 C 133.560 164.347,133.469 164.616,133.469 164.945 C 133.469 165.273,133.377 165.599,133.266 165.668 C 133.154 165.737,133.062 166.011,133.062 166.277 C 133.062 166.543,132.971 166.818,132.859 166.887 C 132.748 166.956,132.656 167.190,132.656 167.407 C 132.656 167.623,132.565 167.801,132.453 167.801 C 132.341 167.801,132.250 168.075,132.250 168.410 C 132.250 168.746,132.158 169.020,132.047 169.020 C 131.935 169.020,131.844 169.203,131.844 169.426 C 131.844 169.650,131.752 169.832,131.640 169.832 C 131.529 169.832,131.437 170.061,131.437 170.340 C 131.437 170.620,131.346 170.848,131.234 170.848 C 131.122 170.848,131.031 171.031,131.031 171.254 C 131.031 171.478,130.940 171.661,130.828 171.661 C 130.716 171.661,130.625 171.799,130.625 171.968 C 130.625 172.137,130.533 172.457,130.422 172.679 C 130.310 172.901,130.127 173.264,130.015 173.486 C 129.904 173.708,129.812 174.028,129.812 174.197 C 129.812 174.366,129.732 174.505,129.635 174.505 C 129.537 174.505,129.402 174.848,129.334 175.267 C 129.206 176.047,128.429 177.146,128.004 177.146 C 127.234 177.146,126.359 178.547,126.359 179.780 C 126.359 180.462,126.449 181.006,126.562 181.006 C 126.673 181.006,126.765 181.229,126.765 181.501 C 126.765 181.774,126.856 182.054,126.968 182.123 C 127.080 182.192,127.171 182.649,127.171 183.139 C 127.171 183.628,127.263 184.085,127.374 184.154 C 127.486 184.223,127.577 184.498,127.577 184.764 C 127.577 185.030,127.669 185.304,127.781 185.373 C 127.892 185.442,127.984 185.702,127.984 185.950 C 127.984 186.198,128.167 186.533,128.390 186.694 C 129.211 187.285,128.910 187.709,127.670 187.709 C 126.359 187.709,125.710 188.187,125.442 189.348 C 125.185 190.462,125.092 200.541,125.336 200.786 C 125.452 200.901,125.546 201.424,125.546 201.949 C 125.546 202.631,125.637 202.937,125.867 203.025 C 126.676 203.336,177.146 203.157,177.146 202.844 C 177.146 202.676,177.237 202.539,177.349 202.539 C 177.480 202.539,177.552 200.135,177.552 195.734 C 177.552 191.332,177.480 188.928,177.349 188.928 C 177.237 188.928,177.146 188.785,177.146 188.609 C 177.146 188.080,176.608 187.709,175.840 187.709 C 175.441 187.709,175.114 187.618,175.114 187.506 C 175.114 187.395,175.206 187.303,175.317 187.303 C 175.429 187.303,175.521 187.162,175.521 186.990 C 175.521 186.818,175.703 186.481,175.927 186.241 C 176.150 186.001,176.333 185.644,176.333 185.449 C 176.333 185.253,176.425 185.036,176.536 184.967 C 176.656 184.893,176.739 183.678,176.739 182.009 C 176.739 180.257,176.662 179.177,176.536 179.177 C 176.425 179.177,176.333 178.994,176.333 178.771 C 176.333 178.547,176.242 178.365,176.130 178.365 C 176.018 178.365,175.927 178.202,175.927 178.003 C 175.927 177.804,175.744 177.510,175.521 177.349 C 175.297 177.188,175.114 176.969,175.114 176.863 C 175.114 176.757,174.963 176.503,174.778 176.298 C 174.465 175.953,174.465 175.927,174.778 175.927 C 175.027 175.927,175.114 175.742,175.114 175.216 C 175.114 174.825,175.037 174.505,174.942 174.505 C 174.847 174.505,174.605 174.139,174.403 173.692 C 174.202 173.245,173.959 172.880,173.865 172.880 C 173.770 172.880,173.692 172.760,173.692 172.613 C 173.692 172.467,173.532 172.170,173.337 171.953 C 173.141 171.736,172.851 171.308,172.693 171.001 C 172.534 170.693,172.329 170.442,172.236 170.442 C 172.143 170.442,172.067 170.305,172.067 170.137 C 172.067 169.970,171.976 169.832,171.864 169.832 C 171.752 169.832,171.661 169.691,171.661 169.519 C 171.661 169.347,171.478 169.010,171.254 168.770 C 171.031 168.530,170.848 168.168,170.848 167.966 C 170.848 167.763,170.757 167.598,170.645 167.598 C 170.533 167.598,170.442 167.420,170.442 167.203 C 170.442 166.987,170.350 166.753,170.239 166.684 C 170.127 166.615,170.036 166.381,170.036 166.164 C 170.036 165.947,169.952 165.769,169.850 165.769 C 169.748 165.769,169.603 165.404,169.528 164.958 C 169.452 164.512,169.307 164.095,169.205 164.032 C 169.103 163.969,169.020 163.699,169.020 163.433 C 169.020 163.167,168.928 162.893,168.817 162.824 C 168.705 162.755,168.614 162.520,168.614 162.301 C 168.614 162.083,168.522 161.722,168.410 161.501 C 168.299 161.279,168.116 160.915,168.004 160.693 C 167.892 160.472,167.801 160.060,167.801 159.779 C 167.801 159.498,167.709 159.269,167.598 159.269 C 167.486 159.269,167.395 158.994,167.395 158.659 C 167.395 158.324,167.303 158.050,167.191 158.050 C 167.080 158.050,166.988 157.776,166.988 157.440 C 166.988 157.105,166.897 156.831,166.785 156.831 C 166.673 156.831,166.582 156.511,166.582 156.120 C 166.582 155.729,166.491 155.409,166.379 155.409 C 166.267 155.409,166.176 155.135,166.176 154.799 C 166.176 154.464,166.084 154.190,165.973 154.190 C 165.861 154.190,165.769 153.824,165.769 153.377 C 165.769 152.930,165.678 152.565,165.566 152.565 C 165.455 152.565,165.363 152.199,165.363 151.752 C 165.363 151.305,165.272 150.940,165.160 150.940 C 165.048 150.940,164.957 150.620,164.957 150.229 C 164.957 149.837,164.882 149.518,164.792 149.518 C 164.647 149.518,164.505 148.606,164.029 144.642 C 163.969 144.139,163.837 143.545,163.735 143.321 C 163.633 143.098,163.504 142.275,163.448 141.493 C 163.393 140.711,163.289 139.588,163.218 138.997 C 163.052 137.620,163.186 137.121,163.939 136.315 C 164.275 135.955,164.551 135.487,164.551 135.276 C 164.551 135.064,164.642 134.891,164.754 134.891 C 164.865 134.891,164.957 134.617,164.957 134.281 C 164.957 133.946,165.048 133.672,165.160 133.672 C 165.278 133.672,165.363 132.999,165.363 132.059 C 165.363 131.171,165.272 130.389,165.160 130.320 C 165.048 130.251,164.957 129.971,164.957 129.699 C 164.957 129.426,164.865 129.203,164.754 129.203 C 164.642 129.203,164.551 129.111,164.551 128.999 C 164.551 128.888,164.733 128.796,164.957 128.796 C 165.180 128.796,165.363 128.705,165.363 128.593 C 165.363 128.481,165.637 128.390,165.973 128.390 C 166.308 128.390,166.582 128.314,166.582 128.221 C 166.582 128.128,166.833 127.923,167.141 127.764 C 167.970 127.336,169.629 125.577,169.629 125.126 C 169.629 124.910,169.721 124.733,169.832 124.733 C 169.944 124.733,170.036 124.596,170.036 124.429 C 170.036 124.261,170.127 124.124,170.239 124.124 C 170.350 124.124,170.442 123.946,170.442 123.730 C 170.442 123.513,170.533 123.279,170.645 123.210 C 170.765 123.136,170.848 121.921,170.848 120.252 C 170.848 118.499,170.771 117.420,170.645 117.420 C 170.533 117.420,170.442 117.146,170.442 116.811 C 170.442 116.475,170.350 116.201,170.239 116.201 C 170.127 116.201,170.036 116.018,170.036 115.795 C 170.036 115.571,169.964 115.389,169.877 115.389 C 169.790 115.389,169.615 115.114,169.488 114.779 L 169.258 114.170 170.022 114.170 C 171.266 114.170,171.661 113.665,171.661 112.076 C 171.661 111.341,171.752 110.684,171.864 110.615 C 171.995 110.533,172.067 106.578,172.067 99.415 C 172.067 87.719,172.070 87.760,171.167 87.760 C 170.992 87.760,170.848 87.669,170.848 87.557 C 170.848 87.423,164.440 87.358,152.006 87.366 L 133.164 87.379 132.707 87.867 M24.175 114.499 C 23.683 114.590,23.029 114.837,22.298 115.209 C 22.104 115.308,21.807 115.389,21.638 115.389 C 21.469 115.389,21.331 115.480,21.331 115.592 C 21.331 115.703,21.148 115.795,20.924 115.795 C 20.701 115.795,20.518 115.886,20.518 115.998 C 20.518 116.110,20.398 116.201,20.252 116.201 C 20.105 116.201,19.789 116.384,19.549 116.607 C 19.309 116.831,19.055 117.014,18.984 117.014 C 18.627 117.014,15.314 120.636,14.846 121.537 C 14.688 121.842,14.482 122.092,14.389 122.092 C 14.296 122.092,14.220 122.270,14.220 122.487 C 14.220 122.704,14.129 122.938,14.017 123.007 C 13.906 123.076,13.814 123.355,13.814 123.628 C 13.814 123.901,13.743 124.124,13.655 124.124 C 12.636 124.124,12.257 133.699,13.233 134.779 C 13.329 134.885,13.408 135.124,13.408 135.309 C 13.408 135.743,14.641 138.141,14.864 138.141 C 14.957 138.141,15.035 138.255,15.037 138.395 C 15.041 138.681,15.815 139.687,16.821 140.714 C 17.577 141.486,17.396 142.001,16.368 142.001 C 16.081 142.001,15.846 142.092,15.846 142.204 C 15.846 142.316,15.683 142.407,15.484 142.407 C 15.285 142.407,14.991 142.590,14.830 142.814 C 14.669 143.037,14.428 143.220,14.295 143.220 C 14.162 143.220,13.820 143.517,13.535 143.880 C 13.250 144.243,12.876 144.700,12.704 144.896 C 12.533 145.091,12.392 145.389,12.392 145.556 C 12.392 145.724,12.301 145.861,12.189 145.861 C 12.077 145.861,11.986 146.044,11.986 146.267 C 11.986 146.491,11.894 146.673,11.783 146.673 C 11.671 146.673,11.579 146.948,11.579 147.283 C 11.579 147.618,11.488 147.892,11.376 147.892 C 11.265 147.892,11.173 148.258,11.173 148.705 C 11.173 149.152,11.082 149.518,10.970 149.518 C 10.662 149.518,10.701 155.871,11.011 156.181 C 11.179 156.349,12.216 156.425,14.363 156.425 L 17.471 156.425 17.471 157.034 C 17.471 157.369,17.379 157.643,17.268 157.643 C 17.149 157.643,17.064 158.321,17.064 159.269 C 17.064 160.217,16.980 160.894,16.861 160.894 C 16.750 160.894,16.658 161.305,16.658 161.808 C 16.658 162.311,16.567 162.722,16.455 162.722 C 16.343 162.722,16.252 163.088,16.252 163.535 C 16.252 163.982,16.160 164.347,16.049 164.347 C 15.937 164.347,15.846 164.576,15.846 164.855 C 15.846 165.135,15.754 165.363,15.642 165.363 C 15.531 165.363,15.439 165.546,15.439 165.769 C 15.439 165.993,15.348 166.176,15.236 166.176 C 15.124 166.176,15.033 166.359,15.033 166.582 C 15.033 166.805,14.942 166.988,14.830 166.988 C 14.718 166.988,14.627 167.171,14.627 167.395 C 14.627 167.618,14.535 167.801,14.424 167.801 C 14.312 167.801,14.220 167.984,14.220 168.207 C 14.220 168.431,14.129 168.614,14.017 168.614 C 13.906 168.614,13.814 168.796,13.814 169.020 C 13.814 169.243,13.739 169.426,13.647 169.426 C 13.555 169.426,13.272 169.842,13.018 170.350 C 12.764 170.859,12.337 171.494,12.068 171.763 C 11.799 172.032,11.579 172.349,11.579 172.469 C 11.579 172.588,11.100 173.183,10.513 173.790 C 9.926 174.398,9.117 175.242,8.715 175.665 C 7.198 177.260,6.703 177.544,5.434 177.548 C 4.792 177.550,4.266 177.643,4.266 177.755 C 4.266 177.867,4.038 177.958,3.758 177.958 C 3.479 177.958,3.250 178.050,3.250 178.162 C 3.250 178.273,3.157 178.365,3.043 178.365 C 2.782 178.365,0.609 180.522,0.609 180.781 C 0.609 180.886,0.495 181.010,0.356 181.056 C -0.170 181.232,0.014 187.396,0.559 187.869 C 0.810 188.087,1.016 188.373,1.016 188.504 C 1.016 188.840,1.768 189.545,2.857 190.230 L 3.785 190.813 3.315 191.284 C 2.698 191.900,2.563 202.229,3.163 202.830 C 3.555 203.221,50.684 203.327,51.410 202.939 C 52.476 202.368,51.875 190.757,50.779 190.757 C 50.672 190.757,50.584 190.574,50.584 190.350 C 50.584 190.127,50.675 189.944,50.787 189.944 C 50.899 189.944,50.990 189.734,50.990 189.477 C 50.990 189.220,51.074 188.923,51.176 188.817 C 51.518 188.460,51.930 183.443,51.616 183.443 C 51.495 183.443,51.397 183.077,51.397 182.628 C 51.397 181.584,51.192 181.249,49.467 179.461 C 48.685 178.650,47.490 177.409,46.812 176.703 C 46.134 175.997,45.388 175.290,45.153 175.132 C 44.918 174.975,44.605 174.609,44.456 174.320 C 44.307 174.030,43.956 173.565,43.677 173.285 C 43.398 173.005,42.995 172.434,42.782 172.015 C 42.568 171.597,42.334 171.254,42.261 171.254 C 42.188 171.254,42.002 170.934,41.849 170.543 C 41.695 170.152,41.495 169.832,41.404 169.832 C 41.314 169.832,41.239 169.650,41.239 169.426 C 41.239 169.203,41.148 169.020,41.036 169.020 C 40.924 169.020,40.833 168.837,40.833 168.614 C 40.833 168.390,40.741 168.207,40.630 168.207 C 40.518 168.207,40.427 168.024,40.427 167.801 C 40.427 167.577,40.335 167.395,40.223 167.395 C 40.112 167.395,40.020 167.212,40.020 166.988 C 40.020 166.765,39.929 166.582,39.817 166.582 C 39.705 166.582,39.614 166.359,39.614 166.086 C 39.614 165.813,39.523 165.534,39.411 165.465 C 39.299 165.396,39.208 165.025,39.208 164.640 C 39.208 164.256,39.116 163.941,39.005 163.941 C 38.879 163.941,38.801 162.862,38.801 161.109 C 38.801 159.440,38.718 158.225,38.598 158.151 C 38.487 158.082,38.395 157.666,38.395 157.225 L 38.395 156.425 42.357 156.425 C 46.182 156.425,46.318 156.411,46.318 156.018 C 46.318 155.795,46.409 155.612,46.521 155.612 C 46.643 155.612,46.724 154.803,46.724 153.592 C 46.724 152.465,46.634 151.518,46.521 151.447 C 46.409 151.378,46.318 150.733,46.318 150.013 C 46.318 149.277,46.229 148.705,46.115 148.705 C 46.003 148.705,45.912 148.339,45.912 147.892 C 45.912 147.445,45.820 147.080,45.708 147.080 C 45.597 147.080,45.505 146.897,45.505 146.673 C 45.505 146.450,45.414 146.267,45.302 146.267 C 45.190 146.267,45.099 146.084,45.099 145.861 C 45.099 145.637,45.008 145.455,44.896 145.455 C 44.784 145.455,44.693 145.361,44.693 145.247 C 44.693 144.976,42.530 142.814,42.259 142.814 C 42.145 142.814,42.052 142.722,42.052 142.610 C 42.052 142.499,41.869 142.407,41.646 142.407 C 41.422 142.407,41.239 142.316,41.239 142.204 C 41.239 142.092,41.016 142.001,40.743 142.001 C 40.471 142.001,40.191 141.910,40.122 141.798 C 40.053 141.686,39.819 141.595,39.602 141.595 C 39.050 141.595,39.101 141.463,39.981 140.614 C 41.418 139.227,43.068 136.451,43.068 135.419 C 43.068 135.128,43.159 134.891,43.271 134.891 C 43.382 134.891,43.474 134.571,43.474 134.180 C 43.474 133.789,43.565 133.469,43.677 133.469 C 43.804 133.469,43.880 132.220,43.880 130.129 C 43.880 128.121,43.799 126.739,43.677 126.663 C 43.565 126.594,43.474 126.229,43.474 125.851 C 43.474 125.473,43.393 125.114,43.294 125.052 C 43.195 124.991,43.050 124.597,42.972 124.177 C 42.807 123.286,41.717 121.123,41.194 120.647 C 40.995 120.466,40.833 120.256,40.833 120.180 C 40.833 119.791,36.854 116.211,36.414 116.205 C 36.275 116.203,36.160 116.110,36.160 115.998 C 36.160 115.886,35.983 115.795,35.766 115.795 C 35.549 115.795,35.315 115.703,35.246 115.592 C 35.177 115.480,34.898 115.389,34.625 115.389 C 34.352 115.389,34.129 115.297,34.129 115.185 C 34.129 115.074,33.862 114.982,33.536 114.982 C 33.211 114.982,32.907 114.871,32.861 114.734 C 32.778 114.485,25.340 114.284,24.175 114.499 " stroke="none" fill="#040404" fill-rule="evenodd"></path><path id="path1" d="" stroke="none" fill="#080404" fill-rule="evenodd"></path><path id="path2" d="" stroke="none" fill="#080404" fill-rule="evenodd"></path><path id="path3" d="" stroke="none" fill="#080404" fill-rule="evenodd"></path><path id="path4" d="" stroke="none" fill="#080404" fill-rule="evenodd"></path><path id="path5" d="" stroke="none" fill="#080404" fill-rule="evenodd"></path><path id="path6" d="" stroke="none" fill="#080404" fill-rule="evenodd"></path><path id="path7" d="" stroke="none" fill="#080404" fill-rule="evenodd"></path></g></svg>