<!--?xml version="1.0" standalone="no"?-->

<svg version="1.0" xmlns="http://www.w3.org/2000/svg" width="281.000000pt" height="300.000000pt" viewBox="0 0 281.000000 300.000000" preserveAspectRatio="xMidYMid meet">
<g transform="translate(0.000000,300.000000) scale(0.100000,-0.100000)" fill="#0B0B0A" stroke="none">
<path class="node" id="node1" d="M1874 2585 c-43 -19 -82 -68 -90 -113 -13 -75 -28 -90 -91 -97 -32
-3 -67 -10 -78 -15 -29 -13 -132 -30 -182 -30 -24 0 -70 -11 -102 -24 -61 -24
-73 -23 -84 7 -4 10 -24 25 -44 34 -46 19 -101 8 -162 -33 -21 -14 -49 -26
-62 -26 -34 -2 -99 -56 -115 -94 -8 -18 -23 -34 -36 -37 -13 -3 -61 -17 -108
-32 -98 -29 -217 -63 -275 -76 -22 -5 -47 -12 -55 -16 -8 -3 -25 -5 -37 -4
-13 1 -23 -3 -23 -9 0 -6 -8 -10 -18 -9 -28 5 -92 -21 -92 -37 0 -9 11 -14 28
-14 15 -1 65 -2 112 -4 108 -5 216 19 330 72 136 63 182 82 190 77 4 -2 13
-18 20 -34 10 -25 19 -31 57 -37 38 -5 47 -3 64 15 15 16 27 20 42 15 33 -10
107 -51 152 -84 22 -16 63 -37 90 -46 28 -9 56 -22 64 -28 7 -5 58 -12 112
-14 115 -5 113 -3 73 -101 -14 -35 -26 -82 -27 -105 -4 -55 -10 -63 -56 -71
-55 -9 -72 -25 -75 -70 -3 -34 -13 -48 -77 -107 -53 -49 -80 -67 -94 -64 -11
3 -42 11 -70 19 -28 8 -59 11 -70 7 -22 -8 -22 -18 -5 -95 7 -31 8 -75 3 -115
-11 -95 -7 -122 27 -191 31 -61 150 -443 150 -480 0 -8 -16 -23 -35 -32 -25
-12 -35 -23 -35 -40 0 -23 3 -24 99 -31 54 -4 134 -4 177 0 l79 6 0 72 c-1 51
-6 79 -20 99 -18 28 -18 28 4 34 24 6 36 41 27 78 -7 29 -49 44 -71 25 -28
-23 -38 -1 -31 70 7 81 0 122 -25 149 -11 11 -19 28 -19 38 0 10 -12 41 -25
68 l-25 50 38 6 c20 4 41 5 45 2 5 -3 16 2 25 10 9 8 31 17 47 21 17 4 39 9
51 12 25 7 21 14 74 -151 22 -66 47 -141 57 -166 17 -46 17 -46 -8 -76 -13
-17 -36 -38 -51 -47 -39 -24 -36 -49 7 -65 19 -7 35 -17 35 -22 0 -5 9 -9 20
-9 11 0 29 -11 41 -24 11 -13 45 -31 75 -42 45 -15 60 -16 85 -7 25 10 54 9
138 -3 174 -24 285 -61 294 -96 4 -15 16 -18 62 -18 46 0 60 4 80 25 30 29 32
74 6 106 -15 19 -18 34 -14 70 5 40 2 50 -18 68 -13 12 -34 32 -47 44 -19 19
-34 22 -100 23 -61 1 -98 8 -180 38 -56 20 -118 36 -137 36 -19 0 -35 3 -36 8
-12 84 -15 285 -6 352 9 60 44 190 57 204 5 7 7 38 4 70 -3 37 -1 63 7 72 6 8
12 41 13 73 1 41 6 65 19 78 9 11 17 31 17 45 0 14 11 46 25 73 35 65 40 139
19 260 -23 134 -27 262 -9 298 10 19 11 34 5 45 -5 9 -14 36 -20 58 -24 99
-117 148 -206 109z m-224 -386 c0 -8 12 -10 35 -6 46 7 46 -10 2 -83 -33 -55
-34 -55 -93 -62 -32 -4 -69 -12 -82 -18 -35 -15 -71 -12 -152 14 -41 13 -100
29 -130 35 -44 9 -61 18 -83 46 l-28 35 44 0 c27 0 49 -6 57 -15 14 -17 50 -3
50 19 0 18 22 26 73 27 23 0 60 4 82 8 63 14 225 13 225 0z"></path>
</g>
<g transform="translate(0.000000,300.000000) scale(0.100000,-0.100000)" fill="#AAACA2" stroke="none">


</g>
</svg>