<svg id="svg" xmlns="http://www.w3.org/2000/svg" xmlns:xlink="http://www.w3.org/1999/xlink" width="400" height="526.3157894736842" viewBox="0, 0, 400,526.3157894736842"><g id="svgg"><path id="path0" d="M216.842 3.509 C 214.719 4.630,212.466 5.563,211.834 5.581 C 202.246 5.857,181.775 33.237,176.657 52.632 C 172.559 68.157,172.490 72.036,176.078 84.912 C 182.839 109.171,193.429 119.175,224.211 130.378 C 238.915 135.730,265.970 132.617,279.298 124.040 C 292.656 115.443,307.458 94.430,309.430 81.264 C 312.313 62.008,312.457 60.475,311.951 54.395 C 311.404 47.830,308.356 40.665,302.097 31.228 C 295.831 21.781,276.052 9.184,260.759 4.901 C 245.410 0.603,223.648 -0.087,216.842 3.509 M255.088 8.980 C 278.088 14.926,294.183 24.974,300.383 37.257 C 302.650 41.748,302.571 42.148,299.841 40.000 C 298.859 39.228,297.388 38.592,296.572 38.587 C 293.206 38.565,291.930 37.787,291.930 35.755 C 291.930 32.110,287.407 32.344,286.884 36.016 C 286.456 39.023,276.122 39.112,275.369 36.115 C 274.618 33.121,272.536 31.832,270.877 33.333 C 269.100 34.941,269.114 35.667,270.960 37.632 L 272.446 39.213 268.219 43.993 C 265.895 46.621,263.200 49.719,262.232 50.877 L 260.471 52.982 258.228 51.325 L 255.985 49.668 254.517 51.136 L 253.049 52.604 254.595 54.695 C 257.460 58.570,256.596 61.238,250.345 67.813 L 247.588 70.713 245.354 68.275 L 243.120 65.838 241.443 67.195 C 239.840 68.493,239.818 68.625,240.936 70.222 C 243.835 74.361,241.831 77.466,235.342 78.891 L 233.146 79.374 233.496 76.270 C 233.711 74.365,233.541 72.977,233.057 72.678 C 231.807 71.905,229.474 72.957,229.474 74.293 C 229.474 80.139,222.731 81.050,215.396 76.195 L 212.782 74.466 214.456 71.159 C 215.723 68.658,215.940 67.621,215.348 66.908 C 214.229 65.560,213.676 65.707,210.995 68.061 L 208.607 70.158 205.820 68.139 C 202.812 65.960,198.906 58.259,200.534 57.717 C 202.430 57.085,205.973 54.244,206.175 53.193 C 206.512 51.446,203.961 51.035,201.135 52.383 C 198.045 53.856,197.906 53.728,197.409 48.908 C 196.860 43.586,197.490 41.404,199.577 41.404 C 203.080 41.404,204.016 37.025,200.597 36.627 L 198.751 36.413 201.119 29.786 C 205.980 16.185,208.223 12.776,214.386 9.620 C 224.056 4.668,237.589 4.455,255.088 8.980 M194.836 30.390 C 193.882 33.680,192.443 37.031,191.638 37.835 C 190.075 39.399,189.795 40.712,190.794 41.789 C 192.030 43.122,192.470 57.215,191.306 58.181 C 190.472 58.873,190.415 59.407,191.029 60.755 C 191.883 62.629,192.154 62.736,193.651 61.790 C 194.431 61.296,195.118 61.930,196.585 64.498 C 197.638 66.343,200.127 69.632,202.116 71.808 C 205.294 75.285,205.675 76.020,205.266 77.882 C 204.732 80.312,206.292 81.476,208.086 79.987 C 209.642 78.695,214.371 79.571,217.687 81.766 C 219.254 82.803,221.995 83.859,223.777 84.113 C 226.428 84.490,227.058 84.860,227.242 86.147 C 227.594 88.615,232.281 88.078,232.281 85.569 C 232.281 84.569,233.404 83.935,237.165 82.815 C 239.851 82.015,242.238 81.055,242.469 80.680 C 243.196 79.505,244.211 79.939,244.211 81.426 C 244.211 83.207,245.761 83.855,247.631 82.854 C 248.848 82.203,249.001 81.609,248.681 78.765 L 248.307 75.439 254.680 68.982 C 258.185 65.432,261.053 62.792,261.053 63.118 C 261.053 64.286,263.423 64.597,264.455 63.565 C 265.367 62.653,265.378 62.001,264.544 58.523 L 263.586 54.529 268.290 50.071 C 273.080 45.534,274.386 44.801,274.386 46.650 C 274.386 48.211,277.568 50.023,279.328 49.464 C 280.458 49.106,280.726 48.613,280.410 47.476 C 279.158 42.980,279.156 43.008,280.825 42.561 C 284.583 41.555,285.611 41.944,285.160 44.200 C 284.658 46.710,286.170 47.629,288.817 46.423 C 289.997 45.885,290.526 45.073,290.526 43.799 C 290.526 39.149,301.424 45.723,303.877 51.852 C 304.852 54.287,306.216 56.694,306.909 57.200 C 310.932 60.142,304.061 88.309,296.126 101.404 C 291.784 108.569,280.869 119.034,276.366 120.349 C 275.470 120.611,271.421 122.455,267.368 124.448 L 260.000 128.070 249.474 128.292 C 233.525 128.629,219.408 124.491,202.180 114.429 C 190.261 107.469,185.540 99.374,180.758 77.703 C 177.646 63.596,183.331 40.860,193.404 27.129 C 196.679 22.665,196.918 23.208,194.836 30.390 M72.632 29.029 C 71.860 29.634,68.702 30.977,65.614 32.013 C 55.803 35.305,54.112 38.044,58.246 43.945 C 63.490 51.432,60.303 55.537,50.933 53.363 C 46.174 52.260,41.134 55.913,36.448 63.860 C 29.133 76.266,30.495 105.406,38.705 112.151 C 40.855 113.916,54.350 115.625,55.754 114.309 C 56.121 113.965,57.087 113.684,57.901 113.684 C 58.715 113.684,59.994 113.235,60.743 112.687 C 61.666 112.010,63.131 111.810,65.286 112.064 C 67.693 112.349,68.697 112.164,69.408 111.308 C 71.021 109.364,72.281 109.943,72.281 112.627 C 72.281 115.069,72.303 115.086,77.441 116.597 C 82.557 118.102,82.596 118.132,81.896 119.987 C 80.077 124.803,83.713 129.397,89.456 129.539 C 94.802 129.672,95.826 130.693,94.722 134.793 C 93.741 138.436,95.019 140.008,100.378 141.745 C 104.091 142.949,105.211 144.168,105.241 147.037 C 105.282 150.917,106.911 152.281,111.506 152.281 C 115.142 152.281,115.647 152.461,116.355 154.016 C 117.307 156.106,121.281 157.895,124.971 157.895 C 128.301 157.895,129.983 153.893,128.444 149.629 C 127.686 147.527,127.801 147.046,129.772 144.070 C 132.346 140.183,132.685 136.475,130.528 135.790 C 128.195 135.049,128.035 132.253,130.087 128.063 C 132.476 123.184,132.442 122.890,129.123 119.649 C 125.763 116.368,125.774 116.479,128.421 112.632 C 132.096 107.291,131.151 102.921,125.965 101.266 C 123.193 100.381,122.767 97.163,124.935 93.488 C 127.412 89.290,126.991 86.698,123.206 82.856 L 119.956 79.556 121.471 78.199 C 123.011 76.820,130.337 66.518,133.091 61.857 C 138.357 52.948,134.553 45.094,121.754 38.455 C 117.945 36.478,109.163 32.341,107.018 31.512 C 100.058 28.822,75.187 27.027,72.632 29.029 M96.140 34.122 C 102.472 35.554,108.076 37.994,117.100 43.251 C 128.412 49.840,131.372 53.612,128.868 58.246 C 123.976 67.296,119.698 74.065,118.086 75.304 C 117.016 76.127,113.456 79.352,110.175 82.471 C 100.273 91.884,85.411 100.563,73.576 103.842 L 68.776 105.173 68.331 103.400 C 68.083 102.413,68.433 99.821,69.122 97.548 C 70.495 93.012,70.186 89.456,68.206 87.011 L 66.982 85.500 61.046 86.977 C 48.737 90.041,48.132 86.167,57.507 64.296 L 58.829 61.213 63.274 62.232 C 69.432 63.643,80.052 68.409,84.803 71.894 C 86.986 73.496,89.166 75.046,89.648 75.339 C 91.074 76.205,105.097 64.526,110.000 58.388 C 117.453 49.059,102.531 37.352,79.829 34.717 C 75.834 34.253,75.616 34.140,76.881 33.180 C 78.595 31.878,88.320 32.353,96.140 34.122 M85.614 41.126 C 97.406 43.859,105.323 48.077,106.351 52.172 C 107.396 56.333,105.031 57.321,101.053 54.386 C 99.745 53.421,98.325 52.632,97.897 52.632 C 97.469 52.632,94.609 51.424,91.542 49.949 C 86.431 47.491,85.173 47.198,76.491 46.443 C 67.055 45.624,67.010 45.611,65.142 43.342 L 63.267 41.063 67.943 39.997 C 72.943 38.856,76.922 39.110,85.614 41.126 M49.805 68.899 C 45.546 81.215,45.082 83.964,46.617 87.799 C 49.121 94.057,52.901 95.502,59.283 92.639 C 65.044 90.053,65.511 90.353,64.211 95.800 C 63.659 98.110,63.197 101.489,63.183 103.309 C 63.165 105.726,62.827 106.793,61.930 107.270 C 60.552 108.002,48.997 109.201,46.368 108.885 C 31.407 107.086,34.366 58.947,49.437 58.947 L 53.246 58.947 49.805 68.899 M229.650 98.969 C 227.634 99.779,221.053 109.808,221.053 112.069 C 221.053 115.463,223.977 113.805,226.316 109.084 C 227.474 106.747,229.447 103.544,230.702 101.966 C 233.777 98.097,233.534 97.407,229.650 98.969 M234.704 105.187 C 232.685 108.237,231.526 115.240,232.899 116.089 C 233.349 116.367,233.877 116.029,234.116 115.308 C 234.347 114.608,235.608 111.801,236.918 109.070 C 240.350 101.913,238.740 99.088,234.704 105.187 M293.192 153.936 C 276.927 160.160,268.865 173.037,279.020 176.570 C 286.993 179.344,307.385 176.214,318.664 170.486 C 321.376 169.109,328.421 161.849,328.421 160.432 C 328.421 156.441,317.171 153.173,312.336 155.760 C 311.646 156.129,308.946 156.773,306.338 157.189 C 293.237 159.282,286.121 169.836,297.441 170.384 C 303.141 170.660,302.889 171.465,296.667 172.862 C 289.802 174.403,289.975 174.389,285.761 173.798 C 281.294 173.172,278.596 172.035,278.596 170.779 C 278.596 168.091,293.253 157.326,298.530 156.138 C 301.625 155.441,302.105 155.104,302.105 153.631 C 302.105 151.164,300.271 151.226,293.192 153.936 M321.256 162.112 C 320.346 163.274,317.402 165.510,314.713 167.082 C 310.962 169.274,310.192 169.547,311.404 168.257 C 313.258 166.283,313.490 163.152,311.829 162.515 C 309.413 161.588,313.806 160.193,319.525 160.072 L 322.909 160.000 321.256 162.112 M235.104 164.036 C 231.065 165.793,228.248 167.570,226.328 169.574 L 223.502 172.524 220.716 170.843 C 215.450 167.664,203.703 169.063,202.920 172.962 C 202.285 176.128,203.448 177.711,206.050 177.223 C 208.587 176.747,210.031 177.412,211.197 179.591 C 211.722 180.572,210.916 180.702,204.317 180.702 C 192.026 180.702,171.767 182.373,165.470 183.906 C 146.074 188.628,120.183 198.643,112.982 204.209 C 111.632 205.253,109.684 206.312,108.654 206.561 C 106.541 207.074,98.947 213.711,98.947 215.045 C 98.947 216.236,95.915 217.518,92.016 217.977 C 90.232 218.186,86.502 218.834,83.727 219.415 C 77.250 220.773,76.075 220.396,75.593 216.810 C 75.125 213.315,77.827 205.933,81.186 201.532 C 83.840 198.056,83.810 198.237,82.180 195.439 C 79.742 191.255,68.697 190.593,66.603 194.505 C 66.205 195.249,65.140 195.789,64.072 195.789 C 58.388 195.789,43.509 211.594,43.509 217.631 C 43.509 219.253,47.058 217.990,49.781 215.399 C 54.331 211.071,55.738 211.637,55.978 217.895 C 56.291 226.074,53.990 231.351,48.944 234.020 L 44.993 236.110 43.236 234.459 C 42.122 233.413,41.400 231.875,41.265 230.263 C 40.695 223.436,35.246 229.527,30.986 241.754 C 26.960 253.314,26.623 259.383,29.559 267.500 C 32.343 275.195,33.420 274.635,38.133 263.039 C 40.211 257.925,43.371 258.678,46.587 265.053 C 49.014 269.865,46.180 280.401,42.926 278.660 C 40.222 277.213,38.234 280.060,39.298 283.858 C 42.953 296.915,57.203 302.035,70.121 294.933 C 73.432 293.113,77.754 290.821,79.727 289.839 C 81.699 288.857,83.789 287.658,84.372 287.175 C 85.259 286.438,85.744 286.704,87.348 288.808 C 88.402 290.190,89.154 291.407,89.018 291.514 C 88.883 291.620,84.825 293.851,80.000 296.471 C 50.681 312.391,40.673 318.501,32.526 325.454 C 29.882 327.710,25.725 331.071,23.288 332.924 C 12.213 341.342,2.489 355.486,4.204 360.682 C 6.065 366.321,17.247 380.563,30.778 394.528 L 35.335 399.232 35.168 403.325 C 35.036 406.557,35.303 407.804,36.436 409.244 L 37.871 411.068 36.279 413.429 C 35.403 414.727,33.479 418.632,32.003 422.105 C 30.527 425.579,28.651 429.629,27.834 431.105 L 26.349 433.789 28.087 435.154 C 42.616 446.561,75.035 459.389,93.608 461.081 C 105.909 462.201,111.843 464.802,113.602 469.847 C 114.389 472.103,115.621 473.352,120.094 476.425 C 126.698 480.963,126.672 480.891,121.505 480.307 C 119.221 480.048,116.806 480.142,116.067 480.519 C 115.152 480.985,112.764 480.799,108.421 479.924 C 100.470 478.321,94.354 478.249,91.579 479.725 C 90.421 480.341,85.346 482.347,80.301 484.184 C 70.046 487.916,69.807 488.031,61.640 493.118 C 53.963 497.899,40.730 510.975,42.009 512.515 C 42.474 513.076,43.046 515.146,43.279 517.113 C 43.859 522.007,44.117 522.124,52.654 521.397 C 64.981 520.347,104.693 519.288,135.789 519.181 C 160.625 519.095,165.381 518.919,166.009 518.063 C 166.651 517.188,175.539 517.058,230.036 517.128 C 302.261 517.221,295.011 517.929,297.149 510.573 C 298.408 506.244,298.377 506.135,294.769 502.193 C 290.332 497.345,270.956 485.611,262.692 482.767 C 257.923 481.127,250.361 480.975,244.853 482.410 C 235.127 484.943,229.032 485.274,225.196 483.477 C 222.294 482.118,221.425 481.974,220.316 482.666 C 219.574 483.130,218.462 483.509,217.846 483.509 C 217.230 483.509,214.568 484.456,211.930 485.614 C 204.393 488.922,203.001 488.049,210.301 484.593 C 215.752 482.012,233.009 470.307,246.788 459.845 C 258.911 450.640,259.017 450.597,265.144 452.378 C 269.994 453.788,285.717 453.347,292.140 451.620 C 294.378 451.019,297.292 450.526,298.617 450.526 C 300.450 450.526,306.245 448.845,306.739 448.169 C 306.867 447.995,308.195 422.213,308.226 419.298 C 308.284 413.872,306.668 391.193,306.000 388.070 C 305.629 386.333,304.806 383.018,304.171 380.702 C 303.537 378.386,302.597 374.754,302.082 372.632 C 301.568 370.509,300.956 368.277,300.723 367.673 C 300.269 366.493,302.108 366.012,315.439 363.822 C 318.912 363.251,326.333 361.537,331.930 360.012 C 337.526 358.487,345.464 356.463,349.570 355.514 C 353.676 354.564,360.465 352.324,364.658 350.536 C 368.850 348.748,373.386 346.813,374.737 346.236 C 379.944 344.012,383.925 339.077,384.861 333.684 C 386.122 326.423,387.452 323.684,390.351 322.377 C 400.446 317.825,402.912 308.483,396.357 299.618 C 394.844 297.571,394.818 297.372,395.952 296.542 C 403.973 290.677,398.026 271.703,389.216 275.052 C 388.058 275.493,386.946 275.369,385.550 274.645 C 382.972 273.307,383.264 273.824,382.398 269.062 C 380.672 259.578,376.011 256.185,370.402 260.331 C 369.344 261.114,368.322 261.754,368.132 261.754 C 367.437 261.754,366.323 256.400,366.308 252.982 C 366.239 238.129,354.525 221.093,344.356 221.059 C 343.179 221.055,340.881 219.933,338.601 218.249 C 336.514 216.707,333.290 214.932,331.438 214.305 C 325.259 212.213,315.088 198.750,315.088 192.664 C 315.088 192.145,313.848 191.560,312.183 191.294 C 302.424 189.733,293.333 198.546,293.333 209.566 C 293.333 217.593,294.493 219.606,302.761 225.930 C 310.699 232.001,310.500 231.294,305.319 235.047 C 297.795 240.498,296.911 243.307,300.754 249.559 C 301.569 250.885,301.444 251.263,299.606 253.024 C 298.472 254.110,297.544 255.408,297.544 255.907 C 297.544 256.407,296.754 257.014,295.789 257.256 C 293.681 257.785,293.695 257.635,295.441 261.056 C 297.261 264.624,301.862 269.071,306.437 271.684 C 309.856 273.636,316.491 280.435,316.491 281.986 C 316.491 282.376,318.089 285.009,320.042 287.839 L 323.594 292.982 320.218 294.526 L 316.842 296.069 303.860 294.396 C 289.558 292.552,283.178 291.321,274.737 288.776 C 271.649 287.845,266.347 286.437,262.954 285.646 C 259.561 284.856,255.525 283.567,253.985 282.782 L 251.186 281.353 253.324 278.396 C 265.931 260.961,271.579 249.429,271.579 241.125 L 271.579 238.596 275.748 238.596 C 278.041 238.596,280.090 238.317,280.302 237.974 C 280.513 237.632,281.765 237.150,283.082 236.903 C 286.131 236.331,286.316 235.769,286.316 227.046 C 286.316 216.385,282.734 208.749,275.357 203.684 C 272.462 201.697,271.658 201.709,268.604 203.781 L 266.134 205.457 265.693 202.202 C 263.285 184.420,256.577 176.215,248.122 180.710 L 244.808 182.472 242.266 180.377 C 236.970 176.012,237.091 171.177,242.576 167.963 C 245.215 166.416,245.614 165.869,245.614 163.793 C 245.614 160.530,243.026 160.589,235.104 164.036 M307.411 163.107 C 306.280 164.470,300.742 166.290,299.695 165.642 C 298.496 164.901,303.811 162.480,307.279 162.187 C 308.035 162.123,308.063 162.321,307.411 163.107 M207.368 186.657 C 218.230 187.300,223.899 188.497,232.982 192.067 C 240.240 194.920,256.842 208.009,256.842 210.879 C 256.842 211.698,257.789 213.277,258.947 214.386 C 260.105 215.495,261.053 216.969,261.053 217.662 C 261.053 218.404,261.741 219.093,262.731 219.342 C 263.872 219.628,264.540 220.418,264.818 221.811 C 265.420 224.818,267.623 224.505,269.881 221.093 C 270.893 219.564,272.389 218.229,273.225 218.110 C 275.263 217.820,275.840 213.599,273.900 213.175 C 272.434 212.855,269.671 213.849,267.890 215.336 C 267.213 215.902,266.460 216.167,266.217 215.925 C 265.363 215.070,267.602 211.121,269.961 209.322 L 272.349 207.501 275.130 210.217 C 278.051 213.069,278.821 214.974,280.082 222.462 C 281.743 232.324,279.224 235.344,271.309 232.982 C 267.709 231.907,267.077 232.648,266.049 239.154 C 259.865 278.275,223.858 307.081,176.842 310.521 C 165.156 311.376,143.397 309.009,132.398 305.687 C 129.246 304.735,124.614 303.434,122.105 302.797 C 112.588 300.378,93.707 289.151,90.229 283.843 C 88.333 280.950,85.148 280.243,83.247 282.293 C 82.212 283.411,80.181 284.383,77.744 284.929 C 62.646 288.308,56.353 268.877,68.353 255.929 C 71.582 252.446,76.579 254.556,80.089 260.886 C 83.809 267.593,86.576 265.560,94.503 250.296 C 99.645 240.393,101.459 229.816,99.255 222.587 C 98.151 218.963,111.008 209.747,129.268 201.074 C 141.305 195.356,157.595 190.469,177.193 186.695 C 184.483 185.291,184.287 185.292,207.368 186.657 M209.249 195.787 C 205.504 197.387,207.545 199.648,212.741 199.656 C 219.099 199.665,224.226 205.678,225.712 214.869 C 226.339 218.748,230.175 219.365,230.175 215.587 C 230.175 202.402,218.848 191.685,209.249 195.787 M173.233 197.636 C 166.704 199.827,163.959 203.569,166.797 206.407 L 168.223 207.833 169.315 205.105 C 170.767 201.475,171.728 200.792,176.588 199.936 C 186.621 198.169,188.382 197.561,186.646 196.464 C 184.769 195.276,178.676 195.809,173.233 197.636 M312.389 198.772 C 313.442 202.396,315.400 205.639,320.937 212.929 L 325.161 218.489 321.001 222.193 C 314.385 228.084,314.548 228.055,309.263 224.284 C 297.965 216.223,296.248 211.091,301.558 201.267 C 304.746 195.368,310.983 193.932,312.389 198.772 M129.355 217.052 C 124.467 219.588,117.965 224.509,117.923 225.704 C 117.829 228.351,120.113 228.253,123.016 225.486 C 130.428 218.420,136.352 218.335,143.358 225.195 C 143.662 225.491,142.007 226.909,139.681 228.345 C 134.736 231.397,132.498 234.726,130.891 241.421 C 130.292 243.920,129.500 247.056,129.133 248.390 C 128.609 250.289,128.700 251.075,129.553 252.018 C 130.732 253.320,129.252 254.737,126.713 254.737 C 125.487 254.737,125.215 256.512,126.335 257.205 C 126.731 257.450,129.968 256.624,133.528 255.370 C 139.785 253.166,140.451 253.080,153.548 252.777 C 167.086 252.464,167.096 252.462,168.249 250.703 C 169.348 249.025,169.328 248.881,167.819 247.659 C 166.532 246.617,166.374 246.115,166.977 244.988 C 167.385 244.225,167.719 242.159,167.719 240.397 C 167.719 237.251,167.760 237.193,170.000 237.189 C 173.325 237.183,177.561 235.859,178.012 234.684 C 178.853 232.493,176.939 231.675,171.007 231.690 C 163.878 231.707,161.276 230.792,152.072 225.030 C 148.134 222.564,143.807 219.992,142.456 219.313 C 141.105 218.635,138.995 217.328,137.766 216.408 C 134.950 214.301,134.605 214.327,129.355 217.052 M209.360 219.123 C 198.404 231.384,201.102 249.559,214.202 251.744 C 225.299 253.595,230.281 239.644,223.857 224.710 C 221.058 218.204,212.968 215.085,209.360 219.123 M335.932 224.314 C 335.021 224.791,333.381 226.543,332.288 228.205 C 326.406 237.155,311.753 250.318,309.157 248.984 C 305.342 247.025,303.920 244.594,304.977 241.840 C 305.205 241.244,309.784 237.383,315.152 233.259 C 320.972 228.788,324.912 225.276,324.912 224.560 C 324.912 223.684,326.190 222.984,329.649 221.966 L 334.386 220.572 335.988 222.009 L 337.590 223.446 335.932 224.314 M350.526 227.699 C 353.890 229.092,360.643 243.694,361.027 250.402 C 361.130 252.207,361.632 255.790,362.143 258.365 C 363.213 263.750,362.593 265.263,359.321 265.263 C 358.270 265.263,356.861 265.870,356.190 266.612 C 353.797 269.256,340.159 273.684,334.408 273.684 C 332.426 273.684,329.894 269.604,331.316 268.702 C 331.847 268.367,332.818 268.087,333.474 268.081 C 338.295 268.037,343.347 260.421,342.237 254.871 C 341.982 253.596,342.412 252.067,343.558 250.174 C 345.655 246.710,345.655 246.605,343.565 245.235 C 341.895 244.141,329.123 255.312,329.123 257.866 C 329.123 259.519,331.661 260.289,333.671 259.246 C 336.122 257.974,336.140 257.977,336.140 259.633 C 336.140 263.642,330.366 263.585,322.308 259.496 C 314.701 255.636,315.886 250.369,326.219 242.105 C 329.356 239.596,333.290 235.649,334.962 233.333 C 340.308 225.928,343.480 224.780,350.526 227.699 M182.072 247.916 C 177.072 249.917,171.228 255.080,171.228 257.497 C 171.228 258.872,174.660 258.266,176.287 256.604 C 181.660 251.116,189.795 249.285,196.062 252.154 C 200.531 254.200,200.717 254.760,198.174 258.502 C 196.101 261.553,196.614 262.804,199.630 262.047 C 202.147 261.416,204.715 256.090,203.774 253.452 C 201.886 248.160,189.415 244.978,182.072 247.916 M312.117 257.427 C 312.992 258.456,314.180 260.157,314.756 261.207 C 315.332 262.257,316.462 263.468,317.266 263.899 L 318.728 264.681 317.137 266.376 C 313.117 270.654,303.581 266.509,301.362 259.518 C 299.917 254.965,308.590 253.279,312.117 257.427 M69.019 264.516 C 66.516 265.593,66.294 266.764,68.314 268.235 C 70.036 269.489,70.175 269.977,70.175 274.744 C 70.175 279.842,70.204 279.921,72.796 282.058 C 76.198 284.862,79.203 282.916,76.499 279.659 C 75.083 277.952,74.759 271.322,76.041 270.258 C 77.000 269.462,77.273 269.583,77.972 271.118 C 79.040 273.462,80.777 274.087,81.911 272.536 C 84.990 268.325,74.840 262.012,69.019 264.516 M332.632 275.445 C 332.632 275.634,332.158 275.789,331.579 275.789 C 331.000 275.789,330.526 275.179,330.526 274.433 C 330.526 273.687,329.895 272.877,329.123 272.632 C 328.211 272.342,327.719 271.570,327.719 270.425 C 327.719 268.823,327.940 268.954,330.175 271.882 C 331.526 273.652,332.632 275.255,332.632 275.445 M147.193 270.925 C 145.519 271.809,144.561 272.815,144.561 273.690 C 144.561 275.483,152.555 274.953,154.589 273.026 C 157.968 269.824,152.319 268.219,147.193 270.925 M323.677 275.407 L 325.225 276.491 323.247 276.491 C 322.159 276.491,320.322 275.817,319.164 274.992 L 317.059 273.493 319.056 271.894 L 321.053 270.295 321.591 272.309 C 321.887 273.417,322.826 274.811,323.677 275.407 M181.053 277.784 C 174.403 280.318,172.987 292.632,179.345 292.632 C 185.672 292.632,189.769 288.478,189.260 282.579 C 188.801 277.261,186.284 275.790,181.053 277.784 M392.446 280.940 C 395.891 284.808,393.981 296.140,389.883 296.140 C 388.157 296.140,386.302 281.300,387.836 279.766 C 388.810 278.792,391.038 279.359,392.446 280.940 M240.440 294.677 C 245.075 297.503,255.250 310.121,253.393 310.740 C 253.001 310.871,248.169 310.038,242.656 308.889 C 237.142 307.739,230.263 306.417,227.368 305.951 C 219.841 304.738,219.621 304.446,224.340 301.917 C 226.585 300.714,230.456 298.291,232.944 296.532 C 238.185 292.826,237.630 292.963,240.440 294.677 M392.574 303.796 C 395.195 306.692,394.468 313.456,391.245 316.166 C 387.776 319.082,388.007 319.581,388.537 310.302 C 389.019 301.886,389.762 300.688,392.574 303.796 M251.579 315.309 C 258.401 317.478,259.432 317.644,260.447 316.740 C 261.821 315.515,264.087 317.876,265.170 321.660 C 265.516 322.870,266.480 325.559,267.311 327.635 C 268.143 329.712,268.724 331.510,268.603 331.631 C 268.075 332.158,261.620 333.317,255.905 333.909 C 247.663 334.764,246.032 335.926,245.783 341.124 C 245.525 346.515,246.687 348.427,250.204 348.399 C 253.754 348.370,254.011 348.801,254.024 354.805 L 254.035 359.784 246.140 351.768 C 241.798 347.359,233.908 339.779,228.605 334.924 L 218.965 326.095 225.798 319.224 L 232.632 312.354 238.246 312.605 C 242.172 312.780,246.180 313.593,251.579 315.309 M174.855 320.342 C 172.616 322.663,169.785 325.749,168.565 327.200 C 166.469 329.693,166.330 329.751,166.053 328.253 C 163.467 314.239,162.816 315.694,171.569 315.927 L 178.927 316.123 174.855 320.342 M191.228 328.215 C 195.088 329.546,199.272 330.980,200.526 331.401 C 201.781 331.821,202.807 332.404,202.807 332.695 C 202.807 335.112,171.053 377.054,168.438 378.091 C 167.889 378.309,167.016 357.501,167.020 344.273 L 167.022 335.789 172.003 330.336 L 176.983 324.883 180.597 325.338 C 182.584 325.588,187.368 326.883,191.228 328.215 M270.729 338.712 C 271.775 342.121,271.819 342.087,265.119 343.103 C 256.044 344.479,250.932 343.980,250.666 341.694 C 250.362 339.072,251.546 338.446,258.971 337.302 C 269.543 335.673,269.806 335.704,270.729 338.712 M276.738 354.912 C 279.846 367.863,282.033 403.108,279.862 405.283 C 279.047 406.100,270.876 407.651,264.737 408.154 C 257.508 408.746,257.260 407.975,262.641 401.639 C 264.662 399.259,267.506 395.105,268.961 392.406 L 271.607 387.500 265.879 378.548 C 259.332 368.315,258.983 367.236,258.975 357.193 C 258.967 347.285,258.660 347.587,268.867 347.450 L 274.927 347.368 276.738 354.912 M218.947 372.401 C 218.947 372.660,218.467 373.403,217.879 374.052 C 215.392 376.800,214.986 382.782,217.097 385.551 L 219.019 388.070 216.902 388.070 C 210.035 388.070,207.887 380.959,213.078 375.409 C 215.868 372.426,218.947 370.848,218.947 372.401 M121.183 374.157 C 122.076 374.997,122.807 376.193,122.807 376.815 C 122.807 379.195,82.022 421.053,79.704 421.053 C 78.592 421.053,75.789 418.412,75.789 417.364 C 75.789 416.701,118.531 372.632,119.174 372.632 C 119.386 372.632,120.290 373.318,121.183 374.157 M230.912 375.106 C 233.189 376.283,233.444 377.606,232.234 381.964 C 230.907 386.743,223.063 386.798,220.897 382.043 C 218.418 376.603,224.996 372.047,230.912 375.106 M128.400 389.460 C 141.866 398.101,140.012 421.824,126.148 418.270 C 122.105 417.234,120.702 417.992,120.702 421.210 C 120.702 430.773,106.712 438.571,102.751 431.216 C 101.149 428.240,101.115 428.238,98.552 430.964 C 96.144 433.525,92.845 435.088,89.847 435.088 C 87.304 435.088,87.035 433.675,89.194 431.663 C 92.154 428.905,92.846 426.634,91.245 424.930 C 88.211 421.701,89.808 417.891,96.925 411.379 C 98.707 409.748,101.032 407.163,102.090 405.636 C 103.149 404.108,105.638 401.632,107.621 400.132 C 109.605 398.633,113.439 395.155,116.140 392.403 C 121.869 386.569,123.343 386.215,128.400 389.460 M59.973 392.953 C 61.438 394.571,58.856 398.722,53.064 404.061 C 47.696 409.008,40.702 408.541,40.702 403.235 C 40.702 396.266,55.720 388.253,59.973 392.953 M67.350 402.204 C 72.391 403.961,67.183 416.157,60.941 417.212 C 50.963 418.898,50.161 414.379,58.828 405.315 C 62.750 401.213,63.609 400.900,67.350 402.204 M190.559 427.415 C 192.085 428.985,195.782 432.037,198.774 434.197 C 205.289 438.899,205.300 438.871,197.453 437.858 C 187.071 436.517,186.654 436.152,184.884 426.842 C 184.235 423.432,186.954 423.706,190.559 427.415 M124.109 485.912 C 127.861 487.852,129.281 494.737,125.929 494.737 C 123.996 494.737,122.352 491.891,121.596 487.233 C 121.172 484.618,121.388 484.505,124.109 485.912 M221.632 490.640 C 218.722 495.848,211.228 499.219,211.228 495.320 C 211.228 493.374,212.406 491.932,214.000 491.925 C 214.598 491.923,215.626 490.976,216.283 489.820 C 217.307 488.020,217.893 487.719,220.371 487.719 L 223.263 487.719 221.632 490.640 M263.063 510.877 C 286.381 510.877,292.035 511.053,291.333 511.754 C 290.476 512.612,236.319 513.037,209.474 512.398 C 204.070 512.269,192.623 512.370,184.035 512.622 L 168.421 513.081 168.421 511.514 L 168.421 509.946 201.168 510.412 C 219.179 510.668,247.031 510.877,263.063 510.877 M140.702 512.402 C 168.273 513.621,162.415 514.123,109.153 515.103 C 74.354 515.744,62.667 516.177,59.758 516.935 C 54.792 518.228,47.719 517.097,47.719 515.010 C 47.719 512.980,67.253 511.738,80.702 512.912 C 84.483 513.242,87.500 513.157,88.943 512.681 C 92.344 511.559,118.450 511.418,140.702 512.402 " stroke="none" fill="#000000" fill-rule="evenodd"></path></g></svg>