<svg id="svg" version="1.1" xmlns="http://www.w3.org/2000/svg" xmlns:xlink="http://www.w3.org/1999/xlink" width="400" height="400" viewBox="0, 0, 400,400"><g id="svgg"><path id="path0" d="M165.911 39.100 C 165.806 53.565,165.874 65.571,166.061 65.780 C 166.247 65.989,166.400 54.244,166.400 39.680 L 166.400 13.200 199.995 13.200 L 233.590 13.200 233.700 28.500 L 233.810 43.800 233.905 28.300 L 234.000 12.800 200.050 12.800 L 166.100 12.800 165.911 39.100 M15.785 16.100 C 15.680 16.375,15.641 46.660,15.698 83.400 L 15.802 150.200 15.901 83.101 L 16.000 16.002 83.100 15.900 L 150.200 15.798 83.087 15.699 C 29.693 15.620,15.936 15.702,15.785 16.100 M317.099 15.899 L 383.998 16.002 384.101 82.901 L 384.203 149.800 384.202 82.800 L 384.200 15.800 317.200 15.798 L 250.200 15.797 317.099 15.899 M140.400 82.800 L 140.400 140.400 82.800 140.400 C 44.667 140.400,25.200 140.535,25.200 140.800 C 25.200 141.065,44.800 141.200,83.200 141.200 L 141.200 141.200 141.200 83.200 C 141.200 44.800,141.065 25.200,140.800 25.200 C 140.535 25.200,140.400 44.667,140.400 82.800 M258.800 83.200 L 258.800 141.200 316.800 141.200 C 355.200 141.200,374.800 141.065,374.800 140.800 C 374.800 140.535,355.333 140.400,317.200 140.400 L 259.600 140.400 259.600 82.800 C 259.600 44.667,259.465 25.200,259.200 25.200 C 258.935 25.200,258.800 44.800,258.800 83.200 M149.788 54.600 C 149.788 68.460,149.839 74.072,149.900 67.071 C 149.961 60.070,149.961 48.730,149.900 41.871 C 149.838 35.012,149.788 40.740,149.788 54.600 M250.188 54.800 C 250.188 68.330,250.238 73.865,250.300 67.100 C 250.361 60.335,250.361 49.265,250.300 42.500 C 250.238 35.735,250.188 41.270,250.188 54.800 M124.400 82.798 L 124.400 124.396 82.700 124.500 L 41.000 124.604 82.900 124.702 L 124.800 124.800 124.800 83.000 C 124.800 60.010,124.710 41.200,124.600 41.200 C 124.490 41.200,124.400 59.919,124.400 82.798 M275.298 82.900 L 275.200 124.800 317.100 124.702 L 359.000 124.604 317.302 124.500 L 275.604 124.396 275.500 82.698 L 275.396 41.000 275.298 82.900 M203.300 43.894 C 204.345 43.976,206.055 43.976,207.100 43.894 C 208.145 43.812,207.290 43.744,205.200 43.744 C 203.110 43.744,202.255 43.812,203.300 43.894 M194.855 45.223 C 194.115 45.674,193.599 46.132,193.708 46.241 C 193.817 46.350,194.582 45.981,195.409 45.420 C 197.200 44.204,196.774 44.053,194.855 45.223 M192.080 47.280 C 191.710 47.650,191.623 62.898,191.699 113.980 L 191.798 180.200 191.900 114.230 C 191.994 53.542,192.055 48.202,192.663 47.530 C 193.386 46.731,192.856 46.504,192.080 47.280 M78.175 68.600 C 78.175 74.540,78.231 77.026,78.299 74.124 C 78.367 71.222,78.367 66.362,78.299 63.324 C 78.231 60.286,78.175 62.660,78.175 68.600 M90.000 58.400 C 90.000 58.620,90.439 58.800,90.976 58.800 C 91.513 58.800,92.064 58.620,92.200 58.400 C 92.344 58.167,91.937 58.000,91.224 58.000 C 90.551 58.000,90.000 58.180,90.000 58.400 M299.600 58.400 C 300.393 58.913,304.400 58.913,304.400 58.400 C 304.400 58.172,303.237 58.003,301.700 58.006 C 299.809 58.010,299.180 58.128,299.600 58.400 M321.775 68.600 C 321.775 74.540,321.831 77.026,321.899 74.124 C 321.967 71.222,321.967 66.362,321.899 63.324 C 321.831 60.286,321.775 62.660,321.775 68.600 M312.600 68.600 C 312.600 74.210,312.735 78.800,312.900 78.800 C 313.065 78.800,313.200 74.210,313.200 68.600 C 313.200 62.990,313.065 58.400,312.900 58.400 C 312.735 58.400,312.600 62.990,312.600 68.600 M208.195 119.800 C 208.195 153.020,208.242 166.669,208.300 150.131 C 208.358 133.594,208.358 106.414,208.300 89.731 C 208.242 73.049,208.195 86.580,208.195 119.800 M233.600 77.933 C 233.600 90.784,233.730 96.400,234.028 96.400 C 234.426 96.400,234.149 60.088,233.747 59.633 C 233.666 59.542,233.600 67.777,233.600 77.933 M86.520 65.200 C 86.520 66.410,86.595 66.905,86.687 66.300 C 86.778 65.695,86.778 64.705,86.687 64.100 C 86.595 63.495,86.520 63.990,86.520 65.200 M86.832 76.900 C 86.814 77.945,86.944 78.800,87.120 78.800 C 87.296 78.800,87.372 78.125,87.291 77.300 C 87.061 74.978,86.866 74.809,86.832 76.900 M96.700 79.089 C 97.415 79.178,98.585 79.178,99.300 79.089 C 100.015 79.001,99.430 78.928,98.000 78.928 C 96.570 78.928,95.985 79.001,96.700 79.089 M300.700 79.089 C 301.415 79.178,302.585 79.178,303.300 79.089 C 304.015 79.001,303.430 78.928,302.000 78.928 C 300.570 78.928,299.985 79.001,300.700 79.089 M67.893 86.700 L 77.986 86.814 78.100 96.907 L 78.214 107.000 78.307 96.700 L 78.400 86.400 68.100 86.493 L 57.800 86.586 67.893 86.700 M86.493 96.700 L 86.586 107.000 86.700 96.907 L 86.814 86.813 97.307 86.700 L 107.800 86.586 97.100 86.493 L 86.400 86.400 86.493 96.700 M302.693 86.700 L 313.186 86.813 313.300 96.907 L 313.414 107.000 313.507 96.700 L 313.600 86.400 302.900 86.493 L 292.200 86.586 302.693 86.700 M321.693 96.700 L 321.786 107.000 321.900 96.907 L 322.014 86.814 332.107 86.700 L 342.200 86.586 331.900 86.493 L 321.600 86.400 321.693 96.700 M149.200 144.783 L 149.200 149.166 146.100 149.303 L 143.000 149.439 146.300 149.520 L 149.600 149.600 149.600 145.000 C 149.600 142.470,149.510 140.400,149.400 140.400 C 149.290 140.400,149.200 142.372,149.200 144.783 M250.485 145.100 L 250.400 149.600 253.700 149.520 L 257.000 149.439 253.913 149.303 L 250.827 149.167 250.698 144.883 L 250.570 140.600 250.485 145.100 M165.506 153.900 L 165.400 165.400 156.600 165.612 L 147.800 165.824 156.900 165.912 L 166.000 166.000 166.000 154.200 C 166.000 147.710,165.913 142.400,165.806 142.400 C 165.700 142.400,165.565 147.575,165.506 153.900 M45.729 149.900 C 52.289 149.962,62.909 149.961,69.329 149.900 C 75.748 149.838,70.380 149.787,57.400 149.788 C 44.420 149.788,39.168 149.838,45.729 149.900 M234.087 157.700 L 234.000 166.000 245.900 165.909 L 257.800 165.818 246.200 165.609 L 234.600 165.400 234.387 157.400 L 234.174 149.400 234.087 157.700 M330.929 149.900 C 337.489 149.962,348.109 149.961,354.529 149.900 C 360.948 149.838,355.580 149.787,342.600 149.788 C 329.620 149.788,324.368 149.838,330.929 149.900 M75.800 166.000 L 59.400 166.213 76.124 166.307 C 87.194 166.368,92.764 166.265,92.600 166.000 C 92.464 165.780,92.318 165.642,92.276 165.693 C 92.234 165.745,84.820 165.883,75.800 166.000 M12.800 199.940 L 12.800 233.880 37.048 234.173 C 54.255 234.380,61.421 234.339,61.728 234.032 C 62.037 233.723,55.225 233.600,37.680 233.600 L 13.200 233.600 13.200 200.005 L 13.200 166.410 28.500 166.300 L 43.800 166.190 28.300 166.095 L 12.800 166.000 12.800 199.940 M361.500 166.300 L 386.800 166.406 386.800 199.998 L 386.800 233.590 371.500 233.700 L 356.200 233.810 371.700 233.905 L 387.200 234.000 387.200 200.000 L 387.200 166.000 361.700 166.097 L 336.200 166.194 361.500 166.300 M183.200 176.400 C 183.200 176.620,183.639 176.800,184.176 176.800 C 184.713 176.800,185.264 176.620,185.400 176.400 C 185.544 176.167,185.137 176.000,184.424 176.000 C 183.751 176.000,183.200 176.180,183.200 176.400 M214.600 176.400 C 214.736 176.620,215.287 176.800,215.824 176.800 C 216.361 176.800,216.800 176.620,216.800 176.400 C 216.800 176.180,216.249 176.000,215.576 176.000 C 214.863 176.000,214.456 176.167,214.600 176.400 M186.482 176.615 C 187.169 177.302,191.200 179.478,191.200 179.162 C 191.200 178.672,187.626 176.400,186.855 176.400 C 186.531 176.400,186.363 176.497,186.482 176.615 M210.678 177.591 C 208.007 179.286,208.341 179.818,211.052 178.186 C 213.705 176.588,213.925 176.400,213.145 176.400 C 212.821 176.400,211.711 176.936,210.678 177.591 M178.560 178.560 C 177.753 179.367,177.213 180.147,177.360 180.293 C 177.507 180.440,178.287 179.900,179.093 179.093 C 179.900 178.287,180.440 177.507,180.293 177.360 C 180.147 177.213,179.367 177.753,178.560 178.560 M219.600 177.522 C 219.600 178.021,222.359 180.574,222.619 180.315 C 222.746 180.188,222.280 179.435,221.583 178.642 C 220.375 177.265,219.600 176.828,219.600 177.522 M176.000 184.800 C 176.000 185.680,176.180 186.400,176.400 186.400 C 176.620 186.400,176.800 185.680,176.800 184.800 C 176.800 183.920,176.620 183.200,176.400 183.200 C 176.180 183.200,176.000 183.920,176.000 184.800 M223.200 184.800 C 223.200 185.680,223.380 186.400,223.600 186.400 C 223.820 186.400,224.000 185.680,224.000 184.800 C 224.000 183.920,223.820 183.200,223.600 183.200 C 223.380 183.200,223.200 183.920,223.200 184.800 M177.503 189.234 C 177.974 189.978,178.583 190.661,178.856 190.752 C 179.132 190.844,178.973 190.318,178.497 189.566 C 178.026 188.822,177.417 188.139,177.144 188.048 C 176.868 187.956,177.027 188.482,177.503 189.234 M221.863 189.271 C 221.283 189.971,220.912 190.645,221.037 190.771 C 221.265 190.998,222.117 190.022,222.843 188.700 C 223.432 187.628,223.029 187.863,221.863 189.271 M171.511 191.493 C 172.451 191.578,173.891 191.577,174.711 191.491 C 175.530 191.405,174.760 191.336,173.000 191.337 C 171.240 191.339,170.570 191.409,171.511 191.493 M225.900 191.493 C 226.835 191.577,228.365 191.577,229.300 191.493 C 230.235 191.409,229.470 191.340,227.600 191.340 C 225.730 191.340,224.965 191.409,225.900 191.493 M43.740 194.800 C 43.740 196.670,43.809 197.435,43.893 196.500 C 43.977 195.565,43.977 194.035,43.893 193.100 C 43.809 192.165,43.740 192.930,43.740 194.800 M81.731 191.900 C 94.013 191.959,113.993 191.959,126.131 191.900 C 138.269 191.841,128.220 191.793,103.800 191.793 C 79.380 191.793,69.449 191.841,81.731 191.900 M303.468 191.900 L 352.336 192.003 353.968 194.447 C 354.866 195.791,355.600 196.769,355.600 196.619 C 355.600 196.131,354.708 194.630,353.509 193.100 L 352.333 191.600 303.466 191.698 L 254.600 191.797 303.468 191.900 M356.131 203.800 C 356.133 205.340,356.205 205.921,356.292 205.091 C 356.379 204.261,356.377 203.001,356.289 202.291 C 356.200 201.581,356.129 202.260,356.131 203.800 M44.406 202.656 C 44.403 202.906,44.770 203.536,45.223 204.056 C 45.869 204.798,45.958 204.829,45.636 204.200 C 44.942 202.843,44.413 202.178,44.406 202.656 M46.400 205.530 C 46.400 205.712,46.882 206.297,47.471 206.830 L 48.542 207.800 47.644 206.500 C 46.737 205.188,46.400 204.925,46.400 205.530 M65.874 207.899 C 70.094 207.964,77.114 207.964,81.474 207.900 C 85.833 207.835,82.380 207.782,73.800 207.782 C 65.220 207.782,61.653 207.835,65.874 207.899 M173.671 208.299 L 179.542 208.421 178.567 209.473 C 178.031 210.052,177.683 210.616,177.794 210.727 C 178.019 210.952,179.999 208.773,180.000 208.300 C 180.000 208.135,177.255 208.040,173.900 208.088 L 167.800 208.177 173.671 208.299 M250.131 208.300 C 266.814 208.358,293.994 208.358,310.531 208.300 C 327.069 208.242,313.420 208.195,280.200 208.195 C 246.980 208.195,233.449 208.242,250.131 208.300 M221.478 210.500 C 222.077 211.435,222.619 212.275,222.683 212.367 C 222.748 212.458,222.916 212.417,223.059 212.275 C 223.385 211.948,221.328 208.800,220.789 208.800 C 220.569 208.800,220.879 209.565,221.478 210.500 M176.000 215.576 C 176.000 216.249,176.180 216.800,176.400 216.800 C 176.620 216.800,176.800 216.361,176.800 215.824 C 176.800 215.287,176.620 214.736,176.400 214.600 C 176.167 214.456,176.000 214.863,176.000 215.576 M223.467 214.667 C 223.048 215.085,223.155 216.800,223.600 216.800 C 223.820 216.800,224.000 216.260,224.000 215.600 C 224.000 214.357,223.919 214.215,223.467 214.667 M177.200 219.959 C 177.200 220.471,180.038 222.895,180.315 222.619 C 180.574 222.359,178.021 219.600,177.522 219.600 C 177.345 219.600,177.200 219.761,177.200 219.959 M220.861 221.055 C 220.125 221.825,219.632 222.566,219.767 222.700 C 220.036 222.970,222.800 220.438,222.800 219.922 C 222.800 219.308,222.193 219.663,220.861 221.055 M191.795 280.200 C 191.795 313.420,191.842 327.069,191.900 310.531 C 191.958 293.994,191.958 266.814,191.900 250.131 C 191.842 233.449,191.795 246.980,191.795 280.200 M208.099 285.232 L 208.000 350.665 205.043 353.532 C 203.416 355.110,202.206 356.400,202.353 356.400 C 202.500 356.400,203.921 355.090,205.511 353.489 L 208.402 350.579 208.300 285.189 L 208.198 219.800 208.099 285.232 M189.622 221.412 C 188.864 221.947,188.054 222.454,187.822 222.538 C 187.590 222.622,187.531 222.831,187.692 223.004 C 188.033 223.370,191.200 221.376,191.200 220.794 C 191.200 220.287,191.236 220.272,189.622 221.412 M208.880 220.845 C 209.137 221.621,212.636 223.726,213.275 223.488 C 213.633 223.355,213.546 223.194,213.000 222.979 C 212.560 222.807,211.412 222.131,210.448 221.478 C 209.477 220.819,208.779 220.538,208.880 220.845 M183.200 223.600 C 183.200 223.820,183.751 224.000,184.424 224.000 C 185.137 224.000,185.544 223.833,185.400 223.600 C 185.264 223.380,184.713 223.200,184.176 223.200 C 183.639 223.200,183.200 223.380,183.200 223.600 M214.600 223.600 C 214.456 223.833,214.863 224.000,215.576 224.000 C 216.249 224.000,216.800 223.820,216.800 223.600 C 216.800 223.380,216.361 223.200,215.824 223.200 C 215.287 223.200,214.736 223.380,214.600 223.600 M306.673 234.033 C 306.982 234.342,311.917 234.361,323.853 234.099 L 340.600 233.732 323.420 233.666 C 311.094 233.619,306.362 233.722,306.673 234.033 M153.400 234.416 C 160.000 234.559,165.441 234.703,165.492 234.738 C 165.542 234.772,165.636 238.355,165.700 242.700 L 165.818 250.600 165.909 242.300 L 166.000 234.000 153.700 234.079 L 141.400 234.157 153.400 234.416 M234.094 245.700 L 234.187 257.400 234.300 246.100 C 234.362 239.885,234.455 234.771,234.506 234.736 C 234.558 234.701,238.380 234.556,243.000 234.414 L 251.400 234.155 242.700 234.077 L 234.000 234.000 234.094 245.700 M15.798 317.200 L 15.800 384.200 82.800 384.202 L 149.800 384.203 82.901 384.101 L 16.002 383.998 15.899 317.099 L 15.797 250.200 15.798 317.200 M45.729 250.300 C 52.289 250.362,62.909 250.361,69.329 250.300 C 75.748 250.238,70.380 250.187,57.400 250.188 C 44.420 250.188,39.168 250.238,45.729 250.300 M275.676 250.299 C 278.468 250.367,283.148 250.368,286.076 250.299 C 289.004 250.231,286.720 250.175,281.000 250.174 C 275.280 250.174,272.884 250.230,275.676 250.299 M384.099 316.899 L 384.000 383.998 316.900 384.100 L 249.800 384.202 316.913 384.301 C 370.307 384.380,384.064 384.298,384.215 383.900 C 384.320 383.625,384.359 353.340,384.302 316.600 L 384.198 249.800 384.099 316.899 M146.087 250.697 L 149.174 250.833 149.302 255.317 L 149.429 259.800 149.514 255.100 L 149.600 250.400 146.300 250.480 L 143.000 250.561 146.087 250.697 M251.900 250.682 C 252.395 250.778,253.205 250.778,253.700 250.682 C 254.195 250.587,253.790 250.509,252.800 250.509 C 251.810 250.509,251.405 250.587,251.900 250.682 M250.514 253.000 C 250.517 254.100,250.595 254.503,250.687 253.895 C 250.779 253.286,250.777 252.386,250.682 251.895 C 250.587 251.403,250.511 251.900,250.514 253.000 M25.200 259.200 C 25.200 259.465,44.667 259.600,82.800 259.600 L 140.400 259.600 140.400 317.200 C 140.400 355.333,140.535 374.800,140.800 374.800 C 141.065 374.800,141.200 355.200,141.200 316.800 L 141.200 258.800 83.200 258.800 C 44.800 258.800,25.200 258.935,25.200 259.200 M258.800 316.800 C 258.800 355.200,258.935 374.800,259.200 374.800 C 259.465 374.800,259.600 355.333,259.600 317.200 L 259.600 259.600 317.200 259.600 C 355.333 259.600,374.800 259.465,374.800 259.200 C 374.800 258.935,355.200 258.800,316.800 258.800 L 258.800 258.800 258.800 316.800 M250.178 283.600 C 250.178 290.310,250.232 293.055,250.299 289.700 C 250.366 286.345,250.366 280.855,250.299 277.500 C 250.232 274.145,250.178 276.890,250.178 283.600 M82.698 275.500 L 124.396 275.604 124.500 317.302 L 124.604 359.000 124.702 317.100 L 124.800 275.200 82.900 275.298 L 41.000 275.396 82.698 275.500 M275.298 317.100 L 275.396 359.000 275.500 317.302 L 275.604 275.604 317.302 275.500 L 359.000 275.396 317.100 275.298 L 275.200 275.200 275.298 317.100 M78.000 303.193 L 78.000 313.186 67.900 313.300 L 57.800 313.414 68.100 313.507 L 78.400 313.600 78.400 303.400 C 78.400 297.790,78.310 293.200,78.200 293.200 C 78.090 293.200,78.000 297.697,78.000 303.193 M86.493 303.300 L 86.400 313.600 97.100 313.507 L 107.800 313.414 97.307 313.300 L 86.814 313.187 86.700 303.093 L 86.586 293.000 86.493 303.300 M313.200 303.193 L 313.200 313.187 302.700 313.300 L 292.200 313.414 302.900 313.507 L 313.600 313.600 313.600 303.400 C 313.600 297.790,313.510 293.200,313.400 293.200 C 313.290 293.200,313.200 297.697,313.200 303.193 M321.693 303.300 L 321.600 313.600 331.900 313.507 L 342.200 313.414 332.107 313.300 L 322.014 313.186 321.900 303.093 L 321.786 293.000 321.693 303.300 M165.889 303.900 C 165.801 304.065,165.848 312.390,165.992 322.400 L 166.255 340.600 166.328 322.100 C 166.367 311.925,166.321 303.600,166.224 303.600 C 166.127 303.600,165.976 303.735,165.889 303.900 M78.175 331.400 C 78.175 337.340,78.231 339.826,78.299 336.924 C 78.367 334.022,78.367 329.162,78.299 326.124 C 78.231 323.086,78.175 325.460,78.175 331.400 M90.100 321.076 C 90.485 321.176,91.115 321.176,91.500 321.076 C 91.885 320.975,91.570 320.893,90.800 320.893 C 90.030 320.893,89.715 320.975,90.100 321.076 M149.788 345.400 C 149.788 359.040,149.838 364.678,149.900 357.929 C 149.961 351.180,149.961 340.020,149.900 333.129 C 149.838 326.238,149.788 331.760,149.788 345.400 M300.691 321.089 C 301.401 321.177,302.661 321.179,303.491 321.092 C 304.321 321.005,303.740 320.933,302.200 320.931 C 300.660 320.929,299.981 321.000,300.691 321.089 M321.775 331.400 C 321.775 337.340,321.831 339.826,321.899 336.924 C 321.967 334.022,321.967 329.162,321.899 326.124 C 321.831 323.086,321.775 325.460,321.775 331.400 M312.600 331.400 C 312.600 337.010,312.735 341.600,312.900 341.600 C 313.065 341.600,313.200 337.010,313.200 331.400 C 313.200 325.790,313.065 321.200,312.900 321.200 C 312.735 321.200,312.600 325.790,312.600 331.400 M86.520 327.600 C 86.520 328.810,86.595 329.305,86.687 328.700 C 86.778 328.095,86.778 327.105,86.687 326.500 C 86.595 325.895,86.520 326.390,86.520 327.600 M233.600 359.920 L 233.600 386.800 200.005 386.800 L 166.410 386.800 166.300 371.500 L 166.190 356.200 166.095 371.700 L 166.000 387.200 199.936 387.200 L 233.873 387.200 234.157 360.541 C 234.354 342.061,234.312 333.752,234.021 333.461 C 233.726 333.166,233.600 341.115,233.600 359.920 M86.800 339.533 C 86.800 340.670,86.958 341.600,87.151 341.600 C 87.471 341.600,87.287 338.020,86.947 337.633 C 86.866 337.542,86.800 338.397,86.800 339.533 M95.800 341.600 C 95.644 341.853,96.553 341.985,98.276 341.960 C 100.249 341.931,100.724 341.832,100.000 341.600 C 98.548 341.135,96.087 341.135,95.800 341.600 M300.000 341.600 C 299.259 341.837,299.654 341.931,301.524 341.960 C 303.113 341.985,303.956 341.852,303.800 341.600 C 303.513 341.136,301.449 341.136,300.000 341.600 " stroke="none" fill="#c6c6c6" fill-rule="evenodd"></path><path id="path1" d="M0.000 200.000 L 0.000 400.000 200.000 400.000 L 400.000 400.000 400.000 200.000 L 400.000 0.000 200.000 0.000 L 0.000 0.000 0.000 200.000 M234.305 28.300 L 234.200 44.200 217.515 44.279 C 197.497 44.374,197.239 44.404,193.753 47.063 L 192.402 48.093 192.301 114.467 L 192.200 180.841 190.019 179.214 C 182.199 173.379,173.330 180.767,178.388 188.904 C 180.308 191.992,180.163 192.082,173.297 192.077 C 170.054 192.075,143.053 192.149,113.295 192.242 L 59.189 192.411 59.295 179.106 L 59.400 165.800 83.400 165.726 C 96.600 165.685,120.394 165.534,136.275 165.390 L 165.149 165.129 165.377 124.064 C 165.502 101.479,165.578 67.115,165.545 47.700 L 165.485 12.400 199.947 12.400 L 234.409 12.400 234.305 28.300 M150.163 70.000 C 150.143 100.030,150.077 130.276,150.016 137.213 L 149.907 149.827 137.453 149.982 C 130.604 150.068,100.340 150.146,70.200 150.157 L 15.400 150.176 15.297 83.188 C 15.241 46.345,15.280 15.974,15.385 15.699 C 15.537 15.299,29.248 15.218,82.888 15.299 L 150.200 15.400 150.163 70.000 M384.701 82.812 L 384.802 150.224 326.901 150.100 C 295.056 150.032,264.714 149.977,259.475 149.979 L 249.950 149.982 249.991 140.291 C 250.014 134.961,249.960 104.770,249.870 73.200 C 249.781 41.630,249.785 15.664,249.878 15.499 C 249.972 15.333,280.323 15.243,317.324 15.299 L 384.600 15.400 384.701 82.812 M25.600 83.000 L 25.600 140.400 83.000 140.400 L 140.400 140.400 140.400 83.000 L 140.400 25.600 83.000 25.600 L 25.600 25.600 25.600 83.000 M259.600 83.000 L 259.600 140.400 317.000 140.400 L 374.400 140.400 374.400 83.000 L 374.400 25.600 317.000 25.600 L 259.600 25.600 259.600 83.000 M125.102 82.900 L 125.000 125.000 82.900 125.102 L 40.800 125.204 40.800 83.002 L 40.800 40.800 83.002 40.800 L 125.204 40.800 125.102 82.900 M359.200 83.002 L 359.200 125.204 317.100 125.102 L 275.000 125.000 274.898 82.900 L 274.796 40.800 316.998 40.800 L 359.200 40.800 359.200 83.002 M89.600 58.900 C 89.600 59.065,89.236 59.200,88.790 59.200 C 87.143 59.200,86.861 62.184,87.444 73.441 L 87.694 78.281 92.747 78.539 C 95.526 78.681,100.005 78.797,102.700 78.798 L 107.600 78.800 107.600 68.815 L 107.600 58.829 98.600 58.715 C 93.649 58.652,89.599 58.735,89.600 58.900 M298.500 58.699 L 292.400 58.821 292.400 68.810 L 292.400 78.800 297.537 78.800 C 300.363 78.800,304.863 78.682,307.537 78.539 L 312.400 78.277 312.400 68.739 L 312.400 59.200 308.976 59.200 C 306.796 59.200,305.643 59.055,305.800 58.800 C 305.936 58.580,305.722 58.440,305.324 58.489 C 304.926 58.538,301.855 58.632,298.500 58.699 M58.800 68.800 L 58.800 78.800 68.400 78.800 L 78.000 78.800 78.000 68.800 L 78.000 58.800 68.400 58.800 L 58.800 58.800 58.800 68.800 M322.093 68.700 L 322.200 78.600 331.700 78.707 L 341.200 78.814 341.200 68.807 L 341.200 58.800 331.593 58.800 L 321.986 58.800 322.093 68.700 M234.460 83.900 C 234.431 97.485,234.504 121.320,234.623 136.866 L 234.840 165.131 275.120 165.390 C 297.274 165.533,331.645 165.611,351.500 165.564 L 387.600 165.478 387.600 199.939 L 387.600 234.400 371.843 234.400 C 357.650 234.400,356.061 234.335,355.836 233.748 C 355.698 233.390,355.596 225.561,355.609 216.351 C 355.634 197.982,355.570 197.363,353.329 194.305 L 351.939 192.410 292.870 192.239 C 260.381 192.144,230.877 192.071,227.304 192.076 C 219.738 192.087,219.661 192.042,221.680 188.794 C 226.383 181.229,218.171 173.617,210.795 178.707 C 209.446 179.638,208.175 180.400,207.971 180.400 C 207.546 180.400,207.442 59.891,207.867 59.467 C 208.013 59.320,214.069 59.200,221.323 59.200 L 234.513 59.200 234.460 83.900 M58.800 96.600 L 58.800 106.000 68.400 106.000 L 78.000 106.000 78.000 96.600 L 78.000 87.200 68.400 87.200 L 58.800 87.200 58.800 96.600 M87.200 96.600 L 87.200 106.000 97.400 106.000 L 107.600 106.000 107.600 96.600 L 107.600 87.200 97.400 87.200 L 87.200 87.200 87.200 96.600 M292.400 96.600 L 292.400 106.000 302.600 106.000 L 312.800 106.000 312.800 96.600 L 312.800 87.200 302.600 87.200 L 292.400 87.200 292.400 96.600 M322.000 96.600 L 322.000 106.000 331.600 106.000 L 341.200 106.000 341.200 96.600 L 341.200 87.200 331.600 87.200 L 322.000 87.200 322.000 96.600 M44.284 182.200 C 44.388 202.419,44.274 201.559,47.370 205.435 L 48.939 207.400 95.370 207.445 C 160.929 207.508,180.400 207.661,180.400 208.111 C 180.400 208.321,179.794 209.327,179.054 210.346 C 173.113 218.526,181.711 227.115,189.718 221.000 C 190.727 220.230,191.743 219.600,191.976 219.600 C 192.273 219.600,192.400 237.780,192.400 280.200 L 192.400 340.800 178.944 340.800 L 165.488 340.800 165.546 316.300 C 165.578 302.825,165.502 278.975,165.376 263.300 L 165.147 234.800 124.197 234.800 C 98.498 234.800,83.159 234.657,83.010 234.416 C 82.860 234.173,69.889 234.124,47.587 234.282 L 12.400 234.530 12.400 200.061 L 12.400 165.591 28.300 165.695 L 44.200 165.800 44.284 182.200 M340.800 221.065 L 340.800 234.530 316.413 234.282 C 301.018 234.125,291.939 234.175,291.790 234.417 C 291.642 234.655,280.843 234.800,263.199 234.800 L 234.845 234.800 234.626 275.900 C 234.506 298.505,234.431 332.885,234.460 352.300 L 234.513 387.600 200.056 387.600 L 165.600 387.600 165.600 371.843 C 165.600 357.843,165.671 356.059,166.233 355.843 C 166.581 355.709,174.811 355.600,184.523 355.600 L 202.180 355.600 204.890 352.911 L 207.600 350.221 207.600 284.911 C 207.600 239.173,207.727 219.600,208.024 219.600 C 208.257 219.600,209.273 220.230,210.282 221.000 C 218.000 226.893,226.784 218.752,221.293 210.795 C 220.362 209.446,219.600 208.175,219.600 207.971 C 219.600 207.745,243.260 207.600,280.200 207.600 L 340.800 207.600 340.800 221.065 M140.528 250.021 L 150.055 250.018 150.016 259.909 C 149.994 265.349,150.042 295.676,150.122 327.301 L 150.267 384.802 82.834 384.701 L 15.400 384.600 15.297 317.600 C 15.241 280.750,15.265 250.415,15.351 250.189 C 15.457 249.910,33.991 249.817,73.253 249.901 C 105.014 249.968,135.287 250.022,140.528 250.021 M384.701 317.108 L 384.600 384.600 317.105 384.701 L 249.611 384.802 249.785 320.501 C 249.881 285.136,250.014 254.850,250.080 253.200 L 250.200 250.200 253.894 250.173 C 255.925 250.158,257.676 250.057,257.785 249.948 C 257.894 249.839,286.517 249.720,321.393 249.684 L 384.802 249.617 384.701 317.108 M25.600 317.000 L 25.600 374.400 83.000 374.400 L 140.400 374.400 140.400 317.000 L 140.400 259.600 83.000 259.600 L 25.600 259.600 25.600 317.000 M259.600 317.000 L 259.600 374.400 317.000 374.400 L 374.400 374.400 374.400 317.000 L 374.400 259.600 317.000 259.600 L 259.600 259.600 259.600 317.000 M125.102 317.100 L 125.204 359.200 83.002 359.200 L 40.800 359.200 40.800 316.998 L 40.800 274.796 82.900 274.898 L 125.000 275.000 125.102 317.100 M359.200 317.000 L 359.200 359.200 317.000 359.200 L 274.800 359.200 274.800 317.267 C 274.800 294.203,274.920 275.213,275.067 275.067 C 275.213 274.920,294.203 274.800,317.267 274.800 L 359.200 274.800 359.200 317.000 M58.800 303.400 L 58.800 312.800 68.400 312.800 L 78.000 312.800 78.000 303.400 L 78.000 294.000 68.400 294.000 L 58.800 294.000 58.800 303.400 M87.200 303.400 L 87.200 312.800 97.400 312.800 L 107.600 312.800 107.600 303.400 L 107.600 294.000 97.400 294.000 L 87.200 294.000 87.200 303.400 M292.400 303.400 L 292.400 312.800 302.600 312.800 L 312.800 312.800 312.800 303.400 L 312.800 294.000 302.600 294.000 L 292.400 294.000 292.400 303.400 M322.000 303.400 L 322.000 312.800 331.600 312.800 L 341.200 312.800 341.200 303.400 L 341.200 294.000 331.600 294.000 L 322.000 294.000 322.000 303.400 M58.800 331.200 L 58.800 341.200 68.400 341.200 L 78.000 341.200 78.000 331.200 L 78.000 321.200 68.400 321.200 L 58.800 321.200 58.800 331.200 M90.400 321.462 C 87.835 321.877,87.694 321.972,87.396 323.496 C 87.067 325.175,87.082 328.624,87.451 335.900 L 87.699 340.800 91.073 340.800 C 93.524 340.800,94.369 340.926,94.161 341.262 C 93.956 341.595,94.245 341.651,95.188 341.462 C 95.910 341.318,99.001 341.200,102.057 341.200 L 107.614 341.200 107.507 331.300 L 107.400 321.400 99.400 321.350 C 95.000 321.323,90.950 321.374,90.400 321.462 M292.400 331.157 L 292.400 341.200 297.700 341.204 C 300.615 341.207,303.703 341.325,304.562 341.467 C 305.694 341.654,306.046 341.597,305.839 341.262 C 305.631 340.926,306.488 340.800,308.976 340.800 L 312.400 340.800 312.400 331.200 L 312.400 321.600 310.500 321.588 C 309.455 321.581,304.955 321.471,300.500 321.345 L 292.400 321.115 292.400 331.157 M322.267 321.467 C 322.120 321.613,322.000 326.113,322.000 331.467 L 322.000 341.200 331.600 341.200 L 341.200 341.200 341.200 331.200 L 341.200 321.200 331.867 321.200 C 326.733 321.200,322.413 321.320,322.267 321.467 " stroke="none" fill="#040404" fill-rule="evenodd"></path><path id="path2" d="M165.720 14.800 C 165.720 16.010,165.795 16.505,165.887 15.900 C 165.978 15.295,165.978 14.305,165.887 13.700 C 165.795 13.095,165.720 13.590,165.720 14.800 M249.773 46.600 C 249.773 51.880,249.830 53.985,249.899 51.277 C 249.968 48.569,249.968 44.249,249.899 41.677 C 249.829 39.105,249.772 41.320,249.773 46.600 M150.169 59.800 C 150.170 64.420,150.228 66.255,150.299 63.878 C 150.370 61.501,150.369 57.721,150.298 55.478 C 150.227 53.235,150.169 55.180,150.169 59.800 M94.800 58.400 C 94.800 58.620,95.250 58.800,95.800 58.800 C 96.350 58.800,96.800 58.620,96.800 58.400 C 96.800 58.180,96.350 58.000,95.800 58.000 C 95.250 58.000,94.800 58.180,94.800 58.400 M341.774 68.800 C 341.774 74.410,341.830 76.705,341.899 73.900 C 341.968 71.095,341.968 66.505,341.899 63.700 C 341.830 60.895,341.774 63.190,341.774 68.800 M341.773 96.600 C 341.773 101.880,341.830 103.985,341.899 101.277 C 341.968 98.569,341.968 94.249,341.899 91.677 C 341.829 89.105,341.772 91.320,341.773 96.600 M149.737 99.400 C 149.739 101.160,149.809 101.830,149.893 100.889 C 149.978 99.949,149.977 98.509,149.891 97.689 C 149.805 96.870,149.736 97.640,149.737 99.400 M250.137 99.400 C 250.139 101.160,250.209 101.830,250.293 100.889 C 250.378 99.949,250.377 98.509,250.291 97.689 C 250.205 96.870,250.136 97.640,250.137 99.400 M63.523 106.699 C 66.231 106.768,70.551 106.768,73.123 106.699 C 75.695 106.629,73.480 106.572,68.200 106.573 C 62.920 106.573,60.815 106.630,63.523 106.699 M92.123 106.699 C 94.941 106.768,99.441 106.768,102.123 106.699 C 104.805 106.630,102.500 106.573,97.000 106.573 C 91.500 106.574,89.305 106.630,92.123 106.699 M298.123 106.699 C 300.941 106.768,305.441 106.768,308.123 106.699 C 310.805 106.630,308.500 106.573,303.000 106.573 C 297.500 106.574,295.305 106.630,298.123 106.699 M327.123 106.699 C 329.831 106.768,334.151 106.768,336.723 106.699 C 339.295 106.629,337.080 106.572,331.800 106.573 C 326.520 106.573,324.415 106.630,327.123 106.699 M165.740 121.200 C 165.740 123.070,165.809 123.835,165.893 122.900 C 165.977 121.965,165.977 120.435,165.893 119.500 C 165.809 118.565,165.740 119.330,165.740 121.200 M234.124 134.600 C 234.126 135.920,234.201 136.412,234.290 135.693 C 234.379 134.974,234.377 133.894,234.286 133.293 C 234.195 132.692,234.122 133.280,234.124 134.600 M165.357 142.000 C 165.357 144.970,165.420 146.185,165.497 144.700 C 165.574 143.215,165.574 140.785,165.497 139.300 C 165.420 137.815,165.357 139.030,165.357 142.000 M250.137 143.800 C 250.139 145.560,250.209 146.230,250.293 145.289 C 250.378 144.349,250.377 142.909,250.291 142.089 C 250.205 141.270,250.136 142.040,250.137 143.800 M234.540 145.600 C 234.540 147.470,234.609 148.235,234.693 147.300 C 234.777 146.365,234.777 144.835,234.693 143.900 C 234.609 142.965,234.540 143.730,234.540 145.600 M149.672 147.284 L 149.600 149.568 146.300 149.702 L 143.000 149.837 146.313 149.919 C 150.081 150.011,150.131 149.969,149.896 146.949 L 149.744 145.000 149.672 147.284 M95.911 149.893 C 96.851 149.978,98.291 149.977,99.111 149.891 C 99.930 149.805,99.160 149.736,97.400 149.737 C 95.640 149.739,94.970 149.809,95.911 149.893 M251.900 149.893 C 252.835 149.977,254.365 149.977,255.300 149.893 C 256.235 149.809,255.470 149.740,253.600 149.740 C 251.730 149.740,250.965 149.809,251.900 149.893 M301.100 149.893 C 302.035 149.977,303.565 149.977,304.500 149.893 C 305.435 149.809,304.670 149.740,302.800 149.740 C 300.930 149.740,300.165 149.809,301.100 149.893 M57.700 150.299 C 60.285 150.368,64.515 150.368,67.100 150.299 C 69.685 150.229,67.570 150.172,62.400 150.172 C 57.230 150.172,55.115 150.229,57.700 150.299 M333.300 150.299 C 335.885 150.368,340.115 150.368,342.700 150.299 C 345.285 150.229,343.170 150.172,338.000 150.172 C 332.830 150.172,330.715 150.229,333.300 150.299 M145.916 165.497 C 147.299 165.575,149.459 165.574,150.716 165.495 C 151.972 165.416,150.840 165.352,148.200 165.353 C 145.560 165.353,144.532 165.418,145.916 165.497 M254.100 165.498 C 256.025 165.571,259.175 165.571,261.100 165.498 C 263.025 165.425,261.450 165.365,257.600 165.365 C 253.750 165.365,252.175 165.425,254.100 165.498 M20.274 165.899 C 24.494 165.964,31.514 165.964,35.874 165.900 C 40.233 165.835,36.780 165.782,28.200 165.782 C 19.620 165.782,16.053 165.835,20.274 165.899 M60.305 165.883 C 60.802 165.979,61.522 165.975,61.905 165.875 C 62.287 165.775,61.880 165.696,61.000 165.701 C 60.120 165.705,59.807 165.787,60.305 165.883 M134.300 165.889 C 135.015 165.978,136.185 165.978,136.900 165.889 C 137.615 165.801,137.030 165.728,135.600 165.728 C 134.170 165.728,133.585 165.801,134.300 165.889 M273.712 165.895 C 274.764 165.977,276.384 165.976,277.312 165.892 C 278.240 165.808,277.380 165.741,275.400 165.742 C 273.420 165.743,272.660 165.812,273.712 165.895 M381.100 165.895 C 382.255 165.976,384.145 165.976,385.300 165.895 C 386.455 165.814,385.510 165.748,383.200 165.748 C 380.890 165.748,379.945 165.814,381.100 165.895 M155.900 191.882 C 156.395 191.978,157.205 191.978,157.700 191.882 C 158.195 191.787,157.790 191.709,156.800 191.709 C 155.810 191.709,155.405 191.787,155.900 191.882 M244.105 191.887 C 244.714 191.979,245.614 191.977,246.105 191.882 C 246.597 191.787,246.100 191.711,245.000 191.714 C 243.900 191.717,243.497 191.795,244.105 191.887 M140.517 192.297 C 142.011 192.374,144.351 192.374,145.717 192.296 C 147.082 192.218,145.860 192.155,143.000 192.155 C 140.140 192.156,139.022 192.220,140.517 192.297 M257.100 192.296 C 258.475 192.374,260.725 192.374,262.100 192.296 C 263.475 192.218,262.350 192.154,259.600 192.154 C 256.850 192.154,255.725 192.218,257.100 192.296 M80.100 207.497 C 81.805 207.572,84.595 207.572,86.300 207.497 C 88.005 207.422,86.610 207.361,83.200 207.361 C 79.790 207.361,78.395 207.422,80.100 207.497 M103.511 207.893 C 104.451 207.978,105.891 207.977,106.711 207.891 C 107.530 207.805,106.760 207.736,105.000 207.737 C 103.240 207.739,102.570 207.809,103.511 207.893 M121.712 234.295 C 122.764 234.377,124.384 234.376,125.312 234.292 C 126.240 234.208,125.380 234.141,123.400 234.142 C 121.420 234.143,120.660 234.212,121.712 234.295 M262.700 234.289 C 263.415 234.378,264.585 234.378,265.300 234.289 C 266.015 234.201,265.430 234.128,264.000 234.128 C 262.570 234.128,261.985 234.201,262.700 234.289 M135.700 234.694 C 136.745 234.776,138.455 234.776,139.500 234.694 C 140.545 234.612,139.690 234.544,137.600 234.544 C 135.510 234.544,134.655 234.612,135.700 234.694 M252.291 234.689 C 253.001 234.777,254.261 234.779,255.091 234.692 C 255.921 234.605,255.340 234.533,253.800 234.531 C 252.260 234.529,251.581 234.600,252.291 234.689 M165.344 250.800 C 165.344 252.890,165.412 253.745,165.494 252.700 C 165.576 251.655,165.576 249.945,165.494 248.900 C 165.412 247.855,165.344 248.710,165.344 250.800 M39.300 249.899 C 41.885 249.968,46.115 249.968,48.700 249.899 C 51.285 249.829,49.170 249.772,44.000 249.772 C 38.830 249.772,36.715 249.829,39.300 249.899 M284.700 249.895 C 285.855 249.976,287.745 249.976,288.900 249.895 C 290.055 249.814,289.110 249.748,286.800 249.748 C 284.490 249.748,283.545 249.814,284.700 249.895 M95.911 250.293 C 96.851 250.378,98.291 250.377,99.111 250.291 C 99.930 250.205,99.160 250.136,97.400 250.137 C 95.640 250.139,94.970 250.209,95.911 250.293 M144.900 250.291 C 145.725 250.378,147.075 250.378,147.900 250.291 C 148.725 250.205,148.050 250.134,146.400 250.134 C 144.750 250.134,144.075 250.205,144.900 250.291 M149.724 252.600 C 149.726 253.920,149.801 254.412,149.890 253.693 C 149.979 252.974,149.977 251.894,149.886 251.293 C 149.795 250.692,149.722 251.280,149.724 252.600 M234.554 263.200 C 234.554 265.950,234.618 267.075,234.696 265.700 C 234.774 264.325,234.774 262.075,234.696 260.700 C 234.618 259.325,234.554 260.450,234.554 263.200 M165.728 265.200 C 165.728 266.630,165.801 267.215,165.889 266.500 C 165.978 265.785,165.978 264.615,165.889 263.900 C 165.801 263.185,165.728 263.770,165.728 265.200 M234.142 279.000 C 234.141 280.980,234.208 281.840,234.292 280.912 C 234.376 279.984,234.377 278.364,234.295 277.312 C 234.212 276.260,234.143 277.020,234.142 279.000 M249.748 286.000 C 249.748 288.310,249.814 289.255,249.895 288.100 C 249.976 286.945,249.976 285.055,249.895 283.900 C 249.814 282.745,249.748 283.690,249.748 286.000 M63.523 293.499 C 66.231 293.568,70.551 293.568,73.123 293.499 C 75.695 293.429,73.480 293.372,68.200 293.373 C 62.920 293.373,60.815 293.430,63.523 293.499 M92.123 293.499 C 94.941 293.568,99.441 293.568,102.123 293.499 C 104.805 293.430,102.500 293.373,97.000 293.373 C 91.500 293.374,89.305 293.430,92.123 293.499 M298.123 293.499 C 300.941 293.568,305.441 293.568,308.123 293.499 C 310.805 293.430,308.500 293.373,303.000 293.373 C 297.500 293.374,295.305 293.430,298.123 293.499 M322.261 293.500 C 322.159 293.665,324.893 293.754,328.337 293.697 C 340.192 293.501,341.378 293.364,331.924 293.282 C 326.712 293.237,322.363 293.335,322.261 293.500 M341.773 303.400 C 341.773 308.680,341.830 310.785,341.899 308.077 C 341.968 305.369,341.968 301.049,341.899 298.477 C 341.829 295.905,341.772 298.120,341.773 303.400 M149.737 300.600 C 149.739 302.360,149.809 303.030,149.893 302.089 C 149.978 301.149,149.977 299.709,149.891 298.889 C 149.805 298.070,149.736 298.840,149.737 300.600 M94.900 321.076 C 95.285 321.176,95.915 321.176,96.300 321.076 C 96.685 320.975,96.370 320.893,95.600 320.893 C 94.830 320.893,94.515 320.975,94.900 321.076 M341.774 331.200 C 341.774 336.810,341.830 339.105,341.899 336.300 C 341.968 333.495,341.968 328.905,341.899 326.100 C 341.830 323.295,341.774 325.590,341.774 331.200 M150.169 340.200 C 150.170 344.820,150.228 346.655,150.299 344.278 C 150.370 341.901,150.369 338.121,150.298 335.878 C 150.227 333.635,150.169 335.580,150.169 340.200 M165.709 338.800 C 165.709 339.790,165.787 340.195,165.882 339.700 C 165.978 339.205,165.978 338.395,165.882 337.900 C 165.787 337.405,165.709 337.810,165.709 338.800 M309.800 341.200 C 309.664 341.420,309.823 341.600,310.153 341.600 C 310.483 341.600,310.864 341.420,311.000 341.200 C 311.136 340.980,310.977 340.800,310.647 340.800 C 310.317 340.800,309.936 340.980,309.800 341.200 M102.400 341.600 C 103.188 342.109,104.115 342.109,103.800 341.600 C 103.664 341.380,103.158 341.203,102.676 341.206 C 101.964 341.211,101.912 341.285,102.400 341.600 M296.200 341.600 C 295.885 342.109,296.812 342.109,297.600 341.600 C 298.088 341.285,298.036 341.211,297.324 341.206 C 296.842 341.203,296.336 341.380,296.200 341.600 M165.782 371.800 C 165.782 380.380,165.835 383.833,165.900 379.474 C 165.964 375.114,165.964 368.094,165.899 363.874 C 165.835 359.653,165.782 363.220,165.782 371.800 " stroke="none" fill="#747474" fill-rule="evenodd"></path><path id="path3" d="M183.100 12.700 C 192.395 12.760,207.605 12.760,216.900 12.700 C 226.195 12.640,218.590 12.591,200.000 12.591 C 181.410 12.591,173.805 12.640,183.100 12.700 M249.782 72.000 C 249.782 80.910,249.835 84.555,249.900 80.100 C 249.964 75.645,249.964 68.355,249.900 63.900 C 249.835 59.445,249.782 63.090,249.782 72.000 M58.500 58.598 C 57.741 59.461,57.787 78.125,58.550 78.759 C 58.937 79.079,61.879 79.181,68.450 79.100 L 77.800 78.985 68.300 78.892 L 58.800 78.800 58.800 68.800 L 58.800 58.800 68.200 58.800 C 74.200 58.800,77.600 58.655,77.600 58.400 C 77.600 57.711,59.113 57.903,58.500 58.598 M96.800 58.383 C 96.800 58.905,107.054 58.961,107.375 58.440 C 107.502 58.236,105.275 58.056,102.199 58.023 C 98.680 57.986,96.800 58.111,96.800 58.383 M294.600 58.400 C 294.460 58.627,294.796 58.800,295.376 58.800 C 295.939 58.800,296.400 58.620,296.400 58.400 C 296.400 58.180,296.051 58.000,295.624 58.000 C 295.197 58.000,294.736 58.180,294.600 58.400 M322.400 58.400 C 322.400 58.655,325.800 58.800,331.800 58.800 L 341.200 58.800 341.200 68.793 L 341.200 78.786 331.700 78.904 L 322.200 79.023 331.800 79.011 L 341.400 79.000 341.513 69.400 C 341.575 64.120,341.526 59.395,341.405 58.900 L 341.185 58.000 331.792 58.000 C 325.797 58.000,322.400 58.145,322.400 58.400 M308.400 58.800 C 308.400 59.020,308.760 59.200,309.200 59.200 C 309.640 59.200,310.000 59.020,310.000 58.800 C 310.000 58.580,309.640 58.400,309.200 58.400 C 308.760 58.400,308.400 58.580,308.400 58.800 M312.573 68.800 C 312.573 74.190,312.630 76.395,312.699 73.700 C 312.768 71.005,312.768 66.595,312.699 63.900 C 312.630 61.205,312.573 63.410,312.573 68.800 M86.914 65.000 C 86.917 66.100,86.995 66.503,87.087 65.895 C 87.179 65.286,87.177 64.386,87.082 63.895 C 86.987 63.403,86.911 63.900,86.914 65.000 M150.179 80.800 C 150.179 87.950,150.233 90.875,150.299 87.300 C 150.366 83.725,150.366 77.875,150.299 74.300 C 150.233 70.725,150.179 73.650,150.179 80.800 M58.000 96.592 L 58.000 105.985 58.900 106.205 C 59.395 106.326,63.940 106.371,69.000 106.305 L 78.200 106.184 68.500 106.092 L 58.800 106.000 58.800 96.600 C 58.800 90.600,58.655 87.200,58.400 87.200 C 58.145 87.200,58.000 90.597,58.000 96.592 M341.292 96.493 L 341.200 105.986 331.500 106.100 L 321.800 106.215 331.513 106.307 C 339.070 106.379,341.268 106.287,341.420 105.891 C 341.528 105.612,341.563 101.247,341.500 96.191 L 341.384 87.000 341.292 96.493 M149.760 108.200 C 149.761 111.500,149.822 112.797,149.898 111.082 C 149.973 109.367,149.972 106.667,149.897 105.082 C 149.821 103.497,149.759 104.900,149.760 108.200 M250.160 108.200 C 250.161 111.500,250.222 112.797,250.298 111.082 C 250.373 109.367,250.372 106.667,250.297 105.082 C 250.221 103.497,250.159 104.900,250.160 108.200 M165.413 117.680 C 165.259 125.006,165.193 132.350,165.267 134.000 C 165.340 135.650,165.547 129.737,165.727 120.860 C 165.907 111.984,165.973 104.640,165.874 104.540 C 165.775 104.441,165.567 110.354,165.413 117.680 M92.076 106.299 C 94.868 106.367,99.548 106.368,102.476 106.299 C 105.404 106.231,103.120 106.175,97.400 106.174 C 91.680 106.174,89.284 106.230,92.076 106.299 M297.276 106.299 C 300.068 106.367,304.748 106.368,307.676 106.299 C 310.604 106.231,308.320 106.175,302.600 106.174 C 296.880 106.174,294.484 106.230,297.276 106.299 M234.289 132.800 C 234.402 137.970,234.563 142.275,234.647 142.367 C 234.913 142.657,234.724 131.162,234.397 127.200 C 234.200 124.805,234.160 126.876,234.289 132.800 M250.101 148.200 C 250.105 149.080,250.187 149.393,250.283 148.895 C 250.379 148.398,250.375 147.678,250.275 147.295 C 250.175 146.913,250.096 147.320,250.101 148.200 M103.519 149.898 C 105.344 149.972,108.224 149.972,109.919 149.897 C 111.614 149.822,110.120 149.761,106.600 149.762 C 103.080 149.762,101.694 149.824,103.519 149.898 M290.319 149.898 C 292.144 149.972,295.024 149.972,296.719 149.897 C 298.414 149.822,296.920 149.761,293.400 149.762 C 289.880 149.762,288.494 149.824,290.319 149.898 M77.100 150.299 C 80.235 150.367,85.365 150.367,88.500 150.299 C 91.635 150.232,89.070 150.176,82.800 150.176 C 76.530 150.176,73.965 150.232,77.100 150.299 M311.724 150.299 C 314.983 150.367,320.203 150.366,323.324 150.299 C 326.446 150.231,323.780 150.176,317.400 150.177 C 311.020 150.177,308.466 150.232,311.724 150.299 M128.400 165.600 L 123.400 165.838 127.600 165.867 C 129.910 165.883,134.500 165.772,137.800 165.619 L 143.800 165.342 138.600 165.352 C 135.740 165.358,131.150 165.469,128.400 165.600 M272.400 165.619 C 276.910 165.768,283.480 165.881,287.000 165.871 L 293.400 165.853 285.400 165.581 C 281.000 165.431,274.430 165.317,270.800 165.328 L 264.200 165.348 272.400 165.619 M387.391 200.000 C 387.391 218.810,387.440 226.505,387.500 217.100 C 387.560 207.695,387.560 192.305,387.500 182.900 C 387.440 173.495,387.391 181.190,387.391 200.000 M12.591 200.000 C 12.591 218.590,12.640 226.195,12.700 216.900 C 12.760 207.605,12.760 192.395,12.700 183.100 C 12.640 173.805,12.591 181.410,12.591 200.000 M153.200 192.000 L 147.800 192.236 152.800 192.268 C 155.550 192.286,159.060 192.171,160.600 192.013 L 163.400 191.726 161.000 191.745 C 159.680 191.756,156.170 191.870,153.200 192.000 M239.091 191.889 C 239.801 191.977,241.061 191.979,241.891 191.892 C 242.721 191.805,242.140 191.733,240.600 191.731 C 239.060 191.729,238.381 191.800,239.091 191.889 M246.300 192.297 C 247.895 192.373,250.505 192.373,252.100 192.297 C 253.695 192.221,252.390 192.159,249.200 192.159 C 246.010 192.159,244.705 192.221,246.300 192.297 M93.700 207.499 C 96.285 207.568,100.515 207.568,103.100 207.499 C 105.685 207.429,103.570 207.372,98.400 207.372 C 93.230 207.372,91.115 207.429,93.700 207.499 M111.721 207.898 C 113.877 207.971,117.297 207.970,119.321 207.898 C 121.344 207.825,119.580 207.766,115.400 207.767 C 111.220 207.767,109.564 207.826,111.721 207.898 M110.000 234.418 C 112.310 234.574,118.700 234.691,124.200 234.677 L 134.200 234.653 126.200 234.381 C 114.788 233.992,104.067 234.017,110.000 234.418 M261.400 234.400 L 256.200 234.637 263.200 234.666 C 267.050 234.682,271.550 234.568,273.200 234.412 C 277.106 234.044,269.402 234.036,261.400 234.400 M61.927 249.900 C 66.837 249.963,74.757 249.963,79.527 249.900 C 84.297 249.836,80.280 249.784,70.600 249.784 C 60.920 249.784,57.017 249.836,61.927 249.900 M272.080 249.898 C 273.994 249.971,277.234 249.971,279.280 249.898 C 281.326 249.826,279.760 249.766,275.800 249.765 C 271.840 249.765,270.166 249.824,272.080 249.898 M103.519 250.298 C 105.344 250.372,108.224 250.372,109.919 250.297 C 111.614 250.222,110.120 250.161,106.600 250.162 C 103.080 250.162,101.694 250.224,103.519 250.298 M251.700 250.276 C 252.085 250.376,252.715 250.376,253.100 250.276 C 253.485 250.175,253.170 250.093,252.400 250.093 C 251.630 250.093,251.315 250.175,251.700 250.276 M262.105 250.287 C 262.714 250.379,263.614 250.377,264.105 250.282 C 264.597 250.187,264.100 250.111,263.000 250.114 C 261.900 250.117,261.497 250.195,262.105 250.287 M250.101 252.600 C 250.105 253.480,250.187 253.793,250.283 253.295 C 250.379 252.798,250.375 252.078,250.275 251.695 C 250.175 251.313,250.096 251.720,250.101 252.600 M165.246 260.433 C 165.271 263.825,165.427 268.940,165.593 271.800 C 165.785 275.115,165.822 272.941,165.695 265.800 C 165.585 259.640,165.428 254.525,165.347 254.433 C 165.266 254.342,165.221 257.042,165.246 260.433 M250.109 262.800 C 250.109 263.790,250.187 264.195,250.282 263.700 C 250.378 263.205,250.378 262.395,250.282 261.900 C 250.187 261.405,250.109 261.810,250.109 262.800 M234.262 281.128 C 234.076 288.459,234.010 294.544,234.116 294.650 C 234.396 294.930,234.884 276.944,234.730 272.000 C 234.659 269.690,234.448 273.798,234.262 281.128 M249.764 275.400 C 249.763 279.140,249.823 280.724,249.897 278.920 C 249.971 277.115,249.972 274.055,249.898 272.120 C 249.825 270.184,249.764 271.660,249.764 275.400 M149.760 291.800 C 149.761 295.100,149.822 296.397,149.898 294.682 C 149.973 292.967,149.972 290.267,149.897 288.682 C 149.821 287.097,149.759 288.500,149.760 291.800 M58.500 293.865 C 57.864 294.122,57.765 312.800,58.400 312.800 C 58.655 312.800,58.800 309.402,58.800 303.407 L 58.800 294.014 68.500 293.900 L 78.200 293.785 68.600 293.724 C 63.320 293.691,58.775 293.754,58.500 293.865 M92.076 293.899 C 94.868 293.967,99.548 293.968,102.476 293.899 C 105.404 293.831,103.120 293.775,97.400 293.774 C 91.680 293.774,89.284 293.830,92.076 293.899 M297.276 293.899 C 300.068 293.967,304.748 293.968,307.676 293.899 C 310.604 293.831,308.320 293.775,302.600 293.774 C 296.880 293.774,294.484 293.830,297.276 293.899 M331.793 293.896 L 341.186 294.014 341.304 303.307 L 341.422 312.600 341.411 303.200 L 341.400 293.800 331.900 293.789 L 322.400 293.778 331.793 293.896 M150.179 319.200 C 150.179 326.350,150.233 329.275,150.299 325.700 C 150.366 322.125,150.366 316.275,150.299 312.700 C 150.233 309.125,150.179 312.050,150.179 319.200 M63.523 321.099 C 66.231 321.168,70.551 321.168,73.123 321.099 C 75.695 321.029,73.480 320.972,68.200 320.973 C 62.920 320.973,60.815 321.030,63.523 321.099 M99.317 321.097 C 100.811 321.174,103.151 321.174,104.517 321.096 C 105.882 321.018,104.660 320.955,101.800 320.955 C 98.940 320.956,97.822 321.020,99.317 321.097 M331.800 321.096 L 341.200 321.214 341.200 331.207 L 341.200 341.200 331.800 341.200 C 325.800 341.200,322.400 341.345,322.400 341.600 C 322.400 341.855,325.797 342.000,331.792 342.000 L 341.185 342.000 341.405 341.100 C 341.526 340.605,341.575 335.880,341.513 330.600 L 341.400 321.000 331.900 320.989 L 322.400 320.978 331.800 321.096 M58.000 331.229 C 58.000 339.040,58.108 340.965,58.571 341.429 C 59.268 342.125,77.376 342.287,77.800 341.600 C 77.962 341.338,74.737 341.200,68.424 341.200 L 58.800 341.200 58.800 331.400 C 58.800 325.133,58.656 321.600,58.400 321.600 C 58.144 321.600,58.000 325.076,58.000 331.229 M312.573 331.200 C 312.573 336.590,312.630 338.795,312.699 336.100 C 312.768 333.405,312.768 328.995,312.699 326.300 C 312.630 323.605,312.573 325.810,312.573 331.200 M86.914 327.400 C 86.917 328.500,86.995 328.903,87.087 328.295 C 87.179 327.686,87.177 326.786,87.082 326.295 C 86.987 325.803,86.911 326.300,86.914 327.400 M89.800 341.200 C 89.936 341.420,90.497 341.600,91.047 341.600 C 91.612 341.600,91.940 341.426,91.800 341.200 C 91.664 340.980,91.103 340.800,90.553 340.800 C 89.988 340.800,89.660 340.974,89.800 341.200 M308.200 341.200 C 308.064 341.420,308.313 341.600,308.753 341.600 C 309.193 341.600,309.664 341.420,309.800 341.200 C 309.936 340.980,309.687 340.800,309.247 340.800 C 308.807 340.800,308.336 340.980,308.200 341.200 M103.800 341.600 C 103.936 341.820,104.407 342.000,104.847 342.000 C 105.287 342.000,105.536 341.820,105.400 341.600 C 105.264 341.380,104.793 341.200,104.353 341.200 C 103.913 341.200,103.664 341.380,103.800 341.600 M294.400 341.600 C 294.400 341.820,294.749 342.000,295.176 342.000 C 295.603 342.000,296.064 341.820,296.200 341.600 C 296.340 341.373,296.004 341.200,295.424 341.200 C 294.861 341.200,294.400 341.380,294.400 341.600 M182.900 387.500 C 192.305 387.560,207.695 387.560,217.100 387.500 C 226.505 387.440,218.810 387.391,200.000 387.391 C 181.190 387.391,173.495 387.440,182.900 387.500 " stroke="none" fill="#5c5c5c" fill-rule="evenodd"></path><path id="path4" d="M384.595 83.000 C 384.595 119.960,384.642 135.021,384.700 116.468 C 384.757 97.916,384.757 67.676,384.700 49.268 C 384.642 30.861,384.595 46.040,384.595 83.000 M124.898 82.898 L 124.800 124.796 82.900 124.900 L 41.000 125.004 82.913 125.102 C 116.147 125.180,124.865 125.096,125.016 124.700 C 125.120 124.425,125.159 105.480,125.101 82.600 L 124.996 41.000 124.898 82.898 M274.997 83.000 L 275.000 125.000 316.900 125.003 L 358.800 125.006 317.002 124.901 L 275.204 124.796 275.099 82.898 L 274.994 41.000 274.997 83.000 M202.100 44.276 C 202.485 44.376,203.115 44.376,203.500 44.276 C 203.885 44.175,203.570 44.093,202.800 44.093 C 202.030 44.093,201.715 44.175,202.100 44.276 M292.600 58.400 C 292.460 58.626,292.788 58.800,293.353 58.800 C 293.903 58.800,294.464 58.620,294.600 58.400 C 294.740 58.174,294.412 58.000,293.847 58.000 C 293.297 58.000,292.736 58.180,292.600 58.400 M306.800 58.800 C 306.800 59.020,307.160 59.200,307.600 59.200 C 308.040 59.200,308.400 59.020,308.400 58.800 C 308.400 58.580,308.040 58.400,307.600 58.400 C 307.160 58.400,306.800 58.580,306.800 58.800 M214.725 59.499 C 218.314 59.566,224.074 59.566,227.525 59.499 C 230.976 59.433,228.040 59.378,221.000 59.378 C 213.960 59.379,211.136 59.433,214.725 59.499 M87.301 75.000 C 87.305 75.880,87.387 76.193,87.483 75.695 C 87.579 75.198,87.575 74.478,87.475 74.095 C 87.375 73.713,87.296 74.120,87.301 75.000 M292.900 79.076 C 293.285 79.176,293.915 79.176,294.300 79.076 C 294.685 78.975,294.370 78.893,293.600 78.893 C 292.830 78.893,292.515 78.975,292.900 79.076 M63.523 87.099 C 66.231 87.168,70.551 87.168,73.123 87.099 C 75.695 87.029,73.480 86.972,68.200 86.973 C 62.920 86.973,60.815 87.030,63.523 87.099 M86.980 87.309 C 86.872 87.588,86.837 91.953,86.900 97.009 L 87.016 106.200 87.108 96.707 L 87.200 87.214 97.100 87.100 L 107.000 86.985 97.087 86.893 C 89.368 86.821,87.132 86.913,86.980 87.309 M302.993 87.096 L 312.786 87.214 312.904 96.507 L 313.022 105.800 313.011 96.400 L 313.000 87.000 303.100 86.989 L 293.200 86.979 302.993 87.096 M327.123 87.099 C 329.831 87.168,334.151 87.168,336.723 87.099 C 339.295 87.029,337.080 86.972,331.800 86.973 C 326.520 86.973,324.415 87.030,327.123 87.099 M249.771 96.800 C 249.771 101.750,249.828 103.775,249.899 101.300 C 249.969 98.825,249.969 94.775,249.899 92.300 C 249.828 89.825,249.771 91.850,249.771 96.800 M150.168 101.400 C 150.168 105.800,150.226 107.655,150.298 105.521 C 150.370 103.388,150.370 99.788,150.299 97.521 C 150.227 95.255,150.168 97.000,150.168 101.400 M165.501 101.000 C 165.337 104.520,165.230 109.740,165.263 112.600 C 165.312 116.800,165.389 115.991,165.663 108.400 C 165.849 103.230,165.957 98.010,165.901 96.800 C 165.845 95.590,165.666 97.480,165.501 101.000 M149.751 118.400 C 149.751 120.930,149.816 121.965,149.896 120.700 C 149.975 119.435,149.975 117.365,149.896 116.100 C 149.816 114.835,149.751 115.870,149.751 118.400 M250.153 118.600 C 250.153 121.240,250.218 122.268,250.297 120.884 C 250.375 119.501,250.374 117.341,250.295 116.084 C 250.216 114.828,250.152 115.960,250.153 118.600 M234.108 119.200 C 234.098 121.070,234.220 124.310,234.380 126.400 L 234.671 130.200 234.686 125.800 C 234.694 123.380,234.571 120.140,234.413 118.600 L 234.126 115.800 234.108 119.200 M115.700 149.897 C 117.405 149.972,120.195 149.972,121.900 149.897 C 123.605 149.822,122.210 149.761,118.800 149.761 C 115.390 149.761,113.995 149.822,115.700 149.897 M278.100 149.897 C 279.805 149.972,282.595 149.972,284.300 149.897 C 286.005 149.822,284.610 149.761,281.200 149.761 C 277.790 149.761,276.395 149.822,278.100 149.897 M97.100 150.298 C 98.915 150.372,101.885 150.372,103.700 150.298 C 105.515 150.223,104.030 150.163,100.400 150.163 C 96.770 150.163,95.285 150.223,97.100 150.298 M296.300 150.298 C 298.115 150.372,301.085 150.372,302.900 150.298 C 304.715 150.223,303.230 150.163,299.600 150.163 C 295.970 150.163,294.485 150.223,296.300 150.298 M118.600 165.600 L 113.800 165.839 118.000 165.871 C 120.310 165.888,124.720 165.776,127.800 165.621 L 133.400 165.339 128.400 165.350 C 125.650 165.356,121.240 165.469,118.600 165.600 M287.000 165.619 C 291.400 165.769,297.700 165.883,301.000 165.873 L 307.000 165.854 299.200 165.580 C 294.910 165.430,288.610 165.316,285.200 165.327 L 279.000 165.347 287.000 165.619 M59.379 179.200 C 59.379 186.350,59.433 189.275,59.499 185.700 C 59.566 182.125,59.566 176.275,59.499 172.700 C 59.433 169.125,59.379 172.050,59.379 179.200 M160.800 192.000 L 158.200 192.262 160.400 192.301 C 161.610 192.323,163.410 192.197,164.400 192.020 C 166.704 191.610,164.775 191.600,160.800 192.000 M235.905 191.883 C 236.402 191.979,237.122 191.975,237.505 191.875 C 237.887 191.775,237.480 191.696,236.600 191.701 C 235.720 191.705,235.407 191.787,235.905 191.883 M239.491 192.289 C 240.201 192.377,241.461 192.379,242.291 192.292 C 243.121 192.205,242.540 192.133,241.000 192.131 C 239.460 192.129,238.781 192.200,239.491 192.289 M44.101 196.600 C 44.105 197.480,44.187 197.793,44.283 197.295 C 44.379 196.798,44.375 196.078,44.275 195.695 C 44.175 195.313,44.096 195.720,44.101 196.600 M116.400 207.605 C 125.978 207.932,141.025 208.083,140.767 207.849 C 140.675 207.766,133.220 207.611,124.200 207.504 C 113.276 207.375,110.672 207.409,116.400 207.605 M340.579 221.000 C 340.579 228.260,340.633 231.286,340.699 227.725 C 340.765 224.164,340.766 218.224,340.699 214.525 C 340.633 210.826,340.579 213.740,340.579 221.000 M96.000 234.418 C 98.310 234.574,103.170 234.694,106.800 234.684 C 113.161 234.666,113.248 234.656,109.200 234.382 C 106.890 234.226,102.030 234.106,98.400 234.116 C 92.039 234.134,91.952 234.144,96.000 234.418 M273.400 234.400 C 270.975 234.624,271.244 234.662,275.400 234.680 C 278.040 234.691,281.460 234.571,283.000 234.413 C 285.480 234.159,285.251 234.127,281.000 234.134 C 278.360 234.138,274.940 234.258,273.400 234.400 M92.500 249.899 C 95.085 249.968,99.315 249.968,101.900 249.899 C 104.485 249.829,102.370 249.772,97.200 249.772 C 92.030 249.772,89.915 249.829,92.500 249.899 M264.500 249.891 C 265.325 249.978,266.675 249.978,267.500 249.891 C 268.325 249.805,267.650 249.734,266.000 249.734 C 264.350 249.734,263.675 249.805,264.500 249.891 M115.700 250.297 C 117.405 250.372,120.195 250.372,121.900 250.297 C 123.605 250.222,122.210 250.161,118.800 250.161 C 115.390 250.161,113.995 250.222,115.700 250.297 M258.700 250.282 C 259.195 250.378,260.005 250.378,260.500 250.282 C 260.995 250.187,260.590 250.109,259.600 250.109 C 258.610 250.109,258.205 250.187,258.700 250.282 M250.101 259.800 C 250.105 260.680,250.187 260.993,250.283 260.495 C 250.379 259.998,250.375 259.278,250.275 258.895 C 250.175 258.513,250.096 258.920,250.101 259.800 M249.731 266.200 C 249.733 267.740,249.805 268.321,249.892 267.491 C 249.979 266.661,249.977 265.401,249.889 264.691 C 249.800 263.981,249.729 264.660,249.731 266.200 M165.240 272.433 C 165.262 274.945,165.422 278.530,165.597 280.400 C 165.804 282.624,165.842 281.101,165.707 276.000 C 165.480 267.467,165.176 265.150,165.240 272.433 M82.898 275.099 L 124.796 275.204 124.901 317.002 L 125.006 358.800 125.003 316.900 L 125.000 275.000 83.000 274.997 L 41.000 274.994 82.898 275.099 M274.984 275.300 C 274.880 275.575,274.841 294.520,274.899 317.400 L 275.004 359.000 275.102 317.102 L 275.200 275.204 317.100 275.100 L 359.000 274.996 317.087 274.898 C 283.853 274.820,275.135 274.904,274.984 275.300 M149.751 281.600 C 149.751 284.130,149.816 285.165,149.896 283.900 C 149.975 282.635,149.975 280.565,149.896 279.300 C 149.816 278.035,149.751 279.070,149.751 281.600 M234.254 294.812 C 234.063 299.989,233.987 304.579,234.083 305.012 C 234.350 306.207,234.880 293.107,234.731 289.000 C 234.645 286.639,234.481 288.639,234.254 294.812 M150.168 298.600 C 150.168 303.000,150.226 304.855,150.298 302.721 C 150.370 300.588,150.370 296.988,150.299 294.721 C 150.227 292.455,150.168 294.200,150.168 298.600 M86.989 303.500 L 87.000 313.000 97.100 313.011 L 107.200 313.021 97.207 312.904 L 87.214 312.786 87.096 303.393 L 86.978 294.000 86.989 303.500 M312.892 303.293 L 312.800 312.786 302.700 312.900 L 292.600 313.014 302.713 313.107 C 310.594 313.180,312.868 313.088,313.020 312.691 C 313.128 312.412,313.163 308.047,313.100 302.991 L 312.984 293.800 312.892 303.293 M63.500 313.099 C 66.195 313.168,70.605 313.168,73.300 313.099 C 75.995 313.030,73.790 312.973,68.400 312.973 C 63.010 312.973,60.805 313.030,63.500 313.099 M327.123 313.099 C 329.831 313.168,334.151 313.168,336.723 313.099 C 339.295 313.029,337.080 312.972,331.800 312.973 C 326.520 312.973,324.415 313.030,327.123 313.099 M384.591 350.400 C 384.591 368.990,384.640 376.595,384.700 367.300 C 384.760 358.005,384.760 342.795,384.700 333.500 C 384.640 324.205,384.591 331.810,384.591 350.400 M292.900 321.076 C 293.285 321.176,293.915 321.176,294.300 321.076 C 294.685 320.975,294.370 320.893,293.600 320.893 C 292.830 320.893,292.515 320.975,292.900 321.076 M87.301 337.400 C 87.305 338.280,87.387 338.593,87.483 338.095 C 87.579 337.598,87.575 336.878,87.475 336.495 C 87.375 336.113,87.296 336.520,87.301 337.400 M172.525 340.699 C 176.224 340.766,182.164 340.765,185.725 340.699 C 189.286 340.633,186.260 340.579,179.000 340.579 C 171.740 340.579,168.826 340.633,172.525 340.699 M91.800 341.200 C 91.936 341.420,92.317 341.600,92.647 341.600 C 92.977 341.600,93.136 341.420,93.000 341.200 C 92.864 340.980,92.483 340.800,92.153 340.800 C 91.823 340.800,91.664 340.980,91.800 341.200 M307.000 341.200 C 306.864 341.420,307.023 341.600,307.353 341.600 C 307.683 341.600,308.064 341.420,308.200 341.200 C 308.336 340.980,308.177 340.800,307.847 340.800 C 307.517 340.800,307.136 340.980,307.000 341.200 M105.400 341.600 C 105.536 341.820,106.087 342.000,106.624 342.000 C 107.161 342.000,107.600 341.820,107.600 341.600 C 107.600 341.380,107.049 341.200,106.376 341.200 C 105.663 341.200,105.256 341.367,105.400 341.600 M292.600 341.600 C 292.736 341.820,293.197 342.000,293.624 342.000 C 294.051 342.000,294.400 341.820,294.400 341.600 C 294.400 341.380,293.939 341.200,293.376 341.200 C 292.796 341.200,292.460 341.373,292.600 341.600 " stroke="none" fill="#343434" fill-rule="evenodd"></path><path id="path5" d="M15.385 15.700 C 15.280 15.975,15.241 46.350,15.298 83.200 L 15.402 150.200 15.501 82.901 L 15.600 15.602 82.900 15.500 L 150.200 15.398 82.887 15.299 C 29.333 15.220,15.536 15.302,15.385 15.700 M274.000 15.497 C 338.239 15.770,384.706 15.771,384.538 15.500 C 384.436 15.335,354.078 15.244,317.076 15.297 C 280.074 15.350,260.690 15.440,274.000 15.497 M54.500 25.500 C 70.285 25.558,96.115 25.558,111.900 25.500 C 127.685 25.442,114.770 25.395,83.200 25.395 C 51.630 25.395,38.715 25.442,54.500 25.500 M288.100 25.500 C 303.885 25.558,329.715 25.558,345.500 25.500 C 361.285 25.442,348.370 25.395,316.800 25.395 C 285.230 25.395,272.315 25.442,288.100 25.500 M25.395 83.000 C 25.395 114.680,25.442 127.581,25.500 111.669 C 25.558 95.756,25.558 69.836,25.500 54.069 C 25.442 38.301,25.395 51.320,25.395 83.000 M374.595 83.200 C 374.595 114.770,374.642 127.685,374.700 111.900 C 374.758 96.115,374.758 70.285,374.700 54.500 C 374.642 38.715,374.595 51.630,374.595 83.200 M211.526 44.300 C 215.776 44.364,222.616 44.364,226.726 44.299 C 230.837 44.234,227.360 44.181,219.000 44.181 C 210.640 44.182,207.277 44.235,211.526 44.300 M87.309 72.000 C 87.309 72.990,87.387 73.395,87.482 72.900 C 87.578 72.405,87.578 71.595,87.482 71.100 C 87.387 70.605,87.309 71.010,87.309 72.000 M165.502 87.200 C 165.338 89.730,165.229 94.410,165.261 97.600 L 165.318 103.400 165.663 97.200 C 165.853 93.790,165.961 89.110,165.904 86.800 L 165.800 82.600 165.502 87.200 M249.770 114.000 C 249.770 118.730,249.828 120.665,249.898 118.300 C 249.969 115.935,249.969 112.065,249.898 109.700 C 249.828 107.335,249.770 109.270,249.770 114.000 M234.103 111.800 C 234.101 113.780,234.229 116.660,234.387 118.200 C 234.661 120.868,234.675 120.793,234.702 116.600 C 234.717 114.180,234.590 111.300,234.418 110.200 C 234.144 108.438,234.106 108.629,234.103 111.800 M150.087 114.000 C 150.038 116.750,149.918 121.610,149.822 124.800 L 149.647 130.600 150.029 125.800 C 150.238 123.160,150.358 118.300,150.294 115.000 L 150.178 109.000 150.087 114.000 M250.146 127.000 C 250.147 129.200,250.214 130.049,250.295 128.887 C 250.376 127.724,250.376 125.924,250.293 124.887 C 250.211 123.849,250.145 124.800,250.146 127.000 M115.800 150.000 L 106.600 150.223 115.200 150.267 C 119.930 150.291,125.510 150.180,127.600 150.020 L 131.400 149.729 128.200 149.753 C 126.440 149.767,120.860 149.878,115.800 150.000 M272.400 150.034 C 276.393 150.324,293.454 150.505,293.167 150.254 C 293.075 150.174,287.510 150.029,280.800 149.933 C 274.090 149.836,270.310 149.882,272.400 150.034 M110.600 165.611 C 108.840 165.755,110.910 165.788,115.200 165.685 C 119.490 165.582,123.075 165.430,123.167 165.349 C 123.420 165.122,114.226 165.314,110.600 165.611 M293.233 165.346 C 293.325 165.427,298.440 165.581,304.600 165.688 C 311.043 165.801,313.761 165.762,311.000 165.596 C 305.836 165.287,292.959 165.105,293.233 165.346 M44.181 180.600 C 44.181 188.740,44.234 192.013,44.300 187.874 C 44.365 183.734,44.365 177.074,44.299 173.074 C 44.234 169.073,44.181 172.460,44.181 180.600 M164.600 192.000 L 163.000 192.286 164.400 192.303 C 165.170 192.313,166.250 192.176,166.800 192.000 C 168.085 191.588,166.899 191.588,164.600 192.000 M234.400 191.993 C 235.388 192.316,238.689 192.535,238.367 192.256 C 238.275 192.176,237.120 192.011,235.800 191.888 C 234.309 191.749,233.779 191.789,234.400 191.993 M355.783 217.400 C 355.783 226.420,355.835 230.167,355.899 225.727 C 355.964 221.287,355.964 213.907,355.900 209.327 C 355.835 204.747,355.783 208.380,355.783 217.400 M122.833 207.344 C 122.925 207.424,129.120 207.574,136.600 207.679 C 144.253 207.786,147.926 207.743,145.000 207.580 C 139.539 207.277,122.547 207.096,122.833 207.344 M83.000 234.400 C 83.154 234.649,86.297 234.775,91.324 234.733 C 98.556 234.673,98.961 234.636,95.200 234.382 C 88.582 233.935,82.718 233.943,83.000 234.400 M283.200 234.400 C 281.111 234.610,281.677 234.675,286.076 234.731 C 289.373 234.773,291.651 234.641,291.800 234.400 C 292.072 233.959,287.573 233.959,283.200 234.400 M106.433 249.746 C 106.525 249.827,112.180 249.971,119.000 250.067 C 125.820 250.162,129.690 250.117,127.600 249.965 C 123.604 249.675,106.147 249.495,106.433 249.746 M257.000 249.994 C 256.340 250.158,257.420 250.202,259.400 250.091 C 261.380 249.980,263.075 249.824,263.167 249.745 C 263.473 249.478,258.216 249.691,257.000 249.994 M334.100 249.900 C 343.285 249.960,358.315 249.960,367.500 249.900 C 376.685 249.840,369.170 249.791,350.800 249.791 C 332.430 249.791,324.915 249.840,334.100 249.900 M384.591 283.200 C 384.591 301.790,384.640 309.395,384.700 300.100 C 384.760 290.805,384.760 275.595,384.700 266.300 C 384.640 257.005,384.591 264.610,384.591 283.200 M15.398 317.200 L 15.400 384.600 82.800 384.602 L 150.200 384.603 82.901 384.501 L 15.602 384.398 15.499 317.099 L 15.396 249.800 15.398 317.200 M249.856 257.845 C 249.715 258.872,249.625 260.632,249.655 261.756 C 249.693 263.186,249.811 262.665,250.045 260.024 C 250.400 256.025,250.286 254.708,249.856 257.845 M25.398 317.100 L 25.400 374.600 82.800 374.602 L 140.200 374.604 82.901 374.501 L 25.603 374.397 25.499 316.999 L 25.396 259.600 25.398 317.100 M374.595 316.800 C 374.595 348.370,374.642 361.285,374.700 345.500 C 374.758 329.715,374.758 303.885,374.700 288.100 C 374.642 272.315,374.595 285.230,374.595 316.800 M149.915 280.000 C 150.022 285.830,150.175 290.675,150.255 290.767 C 150.507 291.057,150.319 277.574,150.013 273.400 C 149.846 271.135,149.804 273.998,149.915 280.000 M165.309 282.400 C 165.300 284.930,165.425 288.170,165.586 289.600 C 166.011 293.382,166.043 285.995,165.622 281.200 L 165.324 277.800 165.309 282.400 M234.300 303.963 C 234.135 306.692,234.025 310.832,234.055 313.163 L 234.110 317.400 234.456 313.600 C 234.647 311.510,234.757 307.370,234.701 304.400 L 234.600 299.000 234.300 303.963 M249.791 350.800 C 249.791 369.170,249.840 376.685,249.900 367.500 C 249.960 358.315,249.960 343.285,249.900 334.100 C 249.840 324.915,249.791 332.430,249.791 350.800 M302.305 321.483 C 302.802 321.579,303.522 321.575,303.905 321.475 C 304.287 321.375,303.880 321.296,303.000 321.301 C 302.120 321.305,301.807 321.387,302.305 321.483 M87.309 334.400 C 87.309 335.390,87.387 335.795,87.482 335.300 C 87.578 334.805,87.578 333.995,87.482 333.500 C 87.387 333.005,87.309 333.410,87.309 334.400 M93.120 341.280 C 93.493 341.653,93.707 341.653,94.080 341.280 C 94.453 340.907,94.347 340.800,93.600 340.800 C 92.853 340.800,92.747 340.907,93.120 341.280 M305.920 341.280 C 306.293 341.653,306.507 341.653,306.880 341.280 C 307.253 340.907,307.147 340.800,306.400 340.800 C 305.653 340.800,305.547 340.907,305.920 341.280 M203.204 354.596 L 202.268 355.592 184.234 355.700 L 166.200 355.808 184.225 355.904 L 202.250 356.000 203.400 354.800 C 204.032 354.140,204.457 353.600,204.345 353.600 C 204.232 353.600,203.718 354.048,203.204 354.596 M288.331 374.700 C 304.244 374.758,330.164 374.758,345.931 374.700 C 361.699 374.642,348.680 374.595,317.000 374.595 C 285.320 374.595,272.419 374.642,288.331 374.700 M317.000 384.400 L 249.400 384.603 316.876 384.702 C 361.535 384.767,384.436 384.665,384.600 384.400 C 384.736 384.180,384.792 384.044,384.724 384.098 C 384.656 384.152,354.180 384.288,317.000 384.400 " stroke="none" fill="#2c2c2c" fill-rule="evenodd"></path><path id="path6" d="M165.783 40.000 C 165.783 49.130,165.835 52.865,165.900 48.300 C 165.964 43.735,165.964 36.265,165.900 31.700 C 165.835 27.135,165.783 30.870,165.783 40.000 M150.167 37.400 C 150.167 41.580,150.226 43.236,150.298 41.079 C 150.371 38.923,150.370 35.503,150.298 33.479 C 150.225 31.456,150.166 33.220,150.167 37.400 M41.067 41.067 C 40.615 41.518,40.748 124.879,41.200 124.600 C 41.462 124.438,41.600 110.129,41.600 82.976 L 41.600 41.600 82.976 41.600 C 110.129 41.600,124.438 41.462,124.600 41.200 C 124.879 40.748,41.518 40.615,41.067 41.067 M275.399 41.198 C 275.563 41.463,289.744 41.600,317.024 41.600 L 358.400 41.600 358.400 82.976 C 358.400 110.256,358.537 124.437,358.802 124.601 C 359.070 124.767,359.170 110.927,359.102 82.925 L 359.000 41.000 317.075 40.898 C 289.073 40.830,275.233 40.930,275.399 41.198 M214.900 43.899 C 218.365 43.966,224.035 43.966,227.500 43.899 C 230.965 43.833,228.130 43.778,221.200 43.778 C 214.270 43.778,211.435 43.833,214.900 43.899 M191.994 114.100 C 191.990 160.805,191.863 180.024,191.563 179.600 C 191.218 179.112,191.168 179.107,191.295 179.575 C 192.320 183.366,192.400 178.611,192.400 114.233 C 192.400 77.805,192.310 48.000,192.200 48.000 C 192.090 48.000,191.997 77.745,191.994 114.100 M92.200 58.400 C 91.916 58.860,92.564 58.860,94.000 58.400 C 94.955 58.094,94.943 58.078,93.724 58.040 C 93.022 58.018,92.336 58.180,92.200 58.400 M297.600 58.400 C 297.930 58.613,298.650 58.788,299.200 58.788 C 299.992 58.788,300.075 58.707,299.600 58.400 C 299.270 58.187,298.550 58.012,298.000 58.012 C 297.208 58.012,297.125 58.093,297.600 58.400 M311.200 58.800 C 311.200 59.020,311.470 59.200,311.800 59.200 C 312.130 59.200,312.400 59.020,312.400 58.800 C 312.400 58.580,312.130 58.400,311.800 58.400 C 311.470 58.400,311.200 58.580,311.200 58.800 M234.175 70.400 C 234.175 76.450,234.231 78.925,234.299 75.900 C 234.367 72.875,234.367 67.925,234.299 64.900 C 234.231 61.875,234.175 64.350,234.175 70.400 M250.167 86.600 C 250.167 90.780,250.226 92.436,250.298 90.279 C 250.371 88.123,250.370 84.703,250.298 82.679 C 250.225 80.656,250.166 82.420,250.167 86.600 M149.765 86.600 C 149.766 90.560,149.826 92.126,149.898 90.080 C 149.971 88.034,149.971 84.794,149.898 82.880 C 149.824 80.966,149.765 82.640,149.765 86.600 M165.767 134.800 C 165.767 139.090,165.826 140.845,165.898 138.700 C 165.970 136.555,165.970 133.045,165.898 130.900 C 165.826 128.755,165.767 130.510,165.767 134.800 M234.155 144.600 C 234.156 147.460,234.220 148.578,234.297 147.083 C 234.374 145.589,234.374 143.249,234.296 141.883 C 234.218 140.518,234.155 141.740,234.155 144.600 M84.120 149.898 C 86.055 149.972,89.115 149.971,90.920 149.897 C 92.724 149.823,91.140 149.763,87.400 149.764 C 83.660 149.764,82.184 149.825,84.120 149.898 M309.320 149.898 C 311.255 149.972,314.315 149.971,316.120 149.897 C 317.924 149.823,316.340 149.763,312.600 149.764 C 308.860 149.764,307.384 149.825,309.320 149.898 M36.700 150.296 C 38.075 150.374,40.325 150.374,41.700 150.296 C 43.075 150.218,41.950 150.154,39.200 150.154 C 36.450 150.154,35.325 150.218,36.700 150.296 M358.716 150.297 C 360.099 150.375,362.259 150.374,363.516 150.295 C 364.772 150.216,363.640 150.152,361.000 150.153 C 358.360 150.153,357.332 150.218,358.716 150.297 M165.290 158.090 L 165.200 165.179 159.100 165.301 L 153.000 165.422 159.113 165.511 C 166.374 165.617,165.654 166.488,165.500 157.785 L 165.379 151.000 165.290 158.090 M234.586 158.600 L 234.600 165.400 242.400 165.413 L 250.200 165.425 242.509 165.304 L 234.819 165.183 234.695 158.492 L 234.572 151.800 234.586 158.600 M70.300 165.899 C 74.315 165.965,80.885 165.965,84.900 165.899 C 88.915 165.834,85.630 165.781,77.600 165.781 C 69.570 165.781,66.285 165.834,70.300 165.899 M140.700 165.896 C 142.075 165.974,144.325 165.974,145.700 165.896 C 147.075 165.818,145.950 165.754,143.200 165.754 C 140.450 165.754,139.325 165.818,140.700 165.896 M261.100 165.898 C 263.135 165.971,266.465 165.971,268.500 165.898 C 270.535 165.825,268.870 165.766,264.800 165.766 C 260.730 165.766,259.065 165.825,261.100 165.898 M347.328 165.900 C 353.229 165.962,362.769 165.962,368.528 165.900 C 374.288 165.837,369.460 165.786,357.800 165.786 C 346.140 165.786,341.428 165.837,347.328 165.900 M43.778 179.000 C 43.779 186.040,43.833 188.864,43.899 185.275 C 43.966 181.686,43.966 175.926,43.899 172.475 C 43.833 169.024,43.778 171.960,43.778 179.000 M149.712 191.895 C 150.764 191.977,152.384 191.976,153.312 191.892 C 154.240 191.808,153.380 191.741,151.400 191.742 C 149.420 191.743,148.660 191.812,149.712 191.895 M171.100 191.882 C 171.595 191.978,172.405 191.978,172.900 191.882 C 173.395 191.787,172.990 191.709,172.000 191.709 C 171.010 191.709,170.605 191.787,171.100 191.882 M227.705 191.887 C 228.314 191.979,229.214 191.977,229.705 191.882 C 230.197 191.787,229.700 191.711,228.600 191.714 C 227.500 191.717,227.097 191.795,227.705 191.887 M249.113 191.895 C 250.276 191.976,252.076 191.976,253.113 191.893 C 254.151 191.811,253.200 191.745,251.000 191.746 C 248.800 191.747,247.951 191.814,249.113 191.895 M76.330 192.300 C 85.641 192.360,100.761 192.360,109.930 192.300 C 119.098 192.240,111.480 192.191,93.000 192.191 C 74.520 192.191,67.018 192.240,76.330 192.300 M290.600 192.294 C 326.275 192.569,352.706 192.572,352.538 192.300 C 352.436 192.135,335.398 192.043,314.676 192.095 C 293.954 192.147,283.120 192.236,290.600 192.294 M356.180 220.200 C 356.180 227.900,356.234 230.993,356.299 227.074 C 356.365 223.155,356.365 216.855,356.299 213.074 C 356.234 209.293,356.180 212.500,356.180 220.200 M61.900 207.498 C 63.715 207.572,66.685 207.572,68.500 207.498 C 70.315 207.423,68.830 207.363,65.200 207.363 C 61.570 207.363,60.085 207.423,61.900 207.498 M92.319 207.898 C 94.144 207.972,97.024 207.972,98.719 207.897 C 100.414 207.822,98.920 207.761,95.400 207.762 C 91.880 207.762,90.494 207.824,92.319 207.898 M170.716 207.897 C 172.099 207.975,174.259 207.974,175.516 207.895 C 176.772 207.816,175.640 207.752,173.000 207.753 C 170.360 207.753,169.332 207.818,170.716 207.897 M191.384 220.027 C 191.239 220.261,191.228 220.561,191.360 220.693 C 191.492 220.825,191.644 220.678,191.698 220.367 C 191.752 220.055,191.888 246.980,192.000 280.200 L 192.204 340.600 192.302 280.100 C 192.363 242.494,192.258 219.600,192.024 219.600 C 191.817 219.600,191.529 219.792,191.384 220.027 M24.100 234.299 C 27.125 234.367,32.075 234.367,35.100 234.299 C 38.125 234.231,35.650 234.175,29.600 234.175 C 23.550 234.175,21.075 234.231,24.100 234.299 M130.700 234.298 C 132.735 234.371,136.065 234.371,138.100 234.298 C 140.135 234.225,138.470 234.166,134.400 234.166 C 130.330 234.166,128.665 234.225,130.700 234.298 M253.717 234.297 C 255.211 234.374,257.551 234.374,258.917 234.296 C 260.282 234.218,259.060 234.155,256.200 234.155 C 253.340 234.156,252.222 234.220,253.717 234.297 M324.900 234.298 C 327.045 234.370,330.555 234.370,332.700 234.298 C 334.845 234.226,333.090 234.167,328.800 234.167 C 324.510 234.167,322.755 234.226,324.900 234.298 M151.700 234.698 C 153.845 234.770,157.355 234.770,159.500 234.698 C 161.645 234.626,159.890 234.567,155.600 234.567 C 151.310 234.567,149.555 234.626,151.700 234.698 M238.482 234.696 C 239.958 234.773,242.478 234.773,244.082 234.697 C 245.687 234.621,244.480 234.558,241.400 234.558 C 238.320 234.557,237.007 234.619,238.482 234.696 M165.354 239.600 C 165.354 242.350,165.418 243.475,165.496 242.100 C 165.574 240.725,165.574 238.475,165.496 237.100 C 165.418 235.725,165.354 236.850,165.354 239.600 M234.574 244.800 C 234.574 250.410,234.630 252.705,234.699 249.900 C 234.768 247.095,234.768 242.505,234.699 239.700 C 234.630 236.895,234.574 239.190,234.574 244.800 M84.120 250.298 C 86.055 250.372,89.115 250.371,90.920 250.297 C 92.724 250.223,91.140 250.163,87.400 250.164 C 83.660 250.164,82.184 250.225,84.120 250.298 M267.700 250.287 C 268.305 250.378,269.295 250.378,269.900 250.287 C 270.505 250.195,270.010 250.120,268.800 250.120 C 267.590 250.120,267.095 250.195,267.700 250.287 M165.758 255.800 C 165.758 258.880,165.821 260.087,165.897 258.482 C 165.973 256.878,165.973 254.358,165.896 252.882 C 165.819 251.407,165.757 252.720,165.758 255.800 M234.166 264.400 C 234.166 268.470,234.225 270.135,234.298 268.100 C 234.371 266.065,234.371 262.735,234.298 260.700 C 234.225 258.665,234.166 260.330,234.166 264.400 M250.124 269.400 C 250.126 270.720,250.201 271.212,250.290 270.493 C 250.379 269.774,250.377 268.694,250.286 268.093 C 250.195 267.492,250.122 268.080,250.124 269.400 M40.898 317.075 L 41.000 359.000 82.925 359.102 C 110.927 359.170,124.767 359.070,124.601 358.802 C 124.437 358.537,110.256 358.400,82.976 358.400 L 41.600 358.400 41.600 317.024 C 41.600 289.744,41.463 275.563,41.198 275.399 C 40.930 275.233,40.830 289.073,40.898 317.075 M358.700 275.433 C 358.535 275.598,358.400 294.333,358.400 317.067 L 358.400 358.400 317.024 358.400 C 289.871 358.400,275.562 358.538,275.400 358.800 C 275.236 359.066,289.200 359.200,316.989 359.200 C 350.090 359.200,358.865 359.096,359.016 358.700 C 359.335 357.861,359.021 275.112,358.700 275.433 M149.766 313.600 C 149.766 317.670,149.825 319.335,149.898 317.300 C 149.971 315.265,149.971 311.935,149.898 309.900 C 149.825 307.865,149.766 309.530,149.766 313.600 M165.777 321.600 C 165.777 328.090,165.832 330.745,165.899 327.500 C 165.966 324.255,165.966 318.945,165.899 315.700 C 165.832 312.455,165.777 315.110,165.777 321.600 M92.500 321.076 C 92.885 321.176,93.515 321.176,93.900 321.076 C 94.285 320.975,93.970 320.893,93.200 320.893 C 92.430 320.893,92.115 320.975,92.500 321.076 M100.000 341.600 C 101.467 342.070,103.294 342.070,102.200 341.600 C 101.760 341.411,100.860 341.262,100.200 341.268 C 99.030 341.279,99.025 341.288,100.000 341.600 M297.600 341.600 C 296.846 342.087,298.478 342.087,300.000 341.600 C 300.916 341.307,300.883 341.277,299.600 341.246 C 298.830 341.227,297.930 341.387,297.600 341.600 M205.013 353.192 L 202.226 356.200 205.195 353.315 C 206.827 351.728,208.081 350.374,207.982 350.307 C 207.882 350.239,206.546 351.537,205.013 353.192 M234.182 370.200 C 234.182 378.780,234.235 382.233,234.300 377.874 C 234.364 373.514,234.364 366.494,234.299 362.274 C 234.235 358.053,234.182 361.620,234.182 370.200 M150.166 362.400 C 150.166 366.470,150.225 368.135,150.298 366.100 C 150.371 364.065,150.371 360.735,150.298 358.700 C 150.225 356.665,150.166 358.330,150.166 362.400 M175.327 356.300 C 180.347 356.363,188.447 356.363,193.327 356.300 C 198.207 356.236,194.100 356.184,184.200 356.184 C 174.300 356.184,170.307 356.236,175.327 356.300 " stroke="none" fill="#848484" fill-rule="evenodd"></path><path id="path7" d="M234.000 28.480 C 233.890 36.994,233.937 43.823,234.105 43.655 C 234.273 43.488,234.362 36.521,234.305 28.175 L 234.200 13.000 234.000 28.480 M165.742 20.200 C 165.741 22.180,165.808 23.040,165.892 22.112 C 165.976 21.184,165.977 19.564,165.895 18.512 C 165.812 17.460,165.743 18.220,165.742 20.200 M249.740 34.000 C 249.740 35.870,249.809 36.635,249.893 35.700 C 249.977 34.765,249.977 33.235,249.893 32.300 C 249.809 31.365,249.740 32.130,249.740 34.000 M150.142 48.200 C 150.141 50.180,150.208 51.040,150.292 50.112 C 150.376 49.184,150.377 47.564,150.295 46.512 C 150.212 45.460,150.143 46.220,150.142 48.200 M207.795 119.800 C 207.795 153.020,207.842 166.669,207.900 150.131 C 207.958 133.594,207.958 106.414,207.900 89.731 C 207.842 73.049,207.795 86.580,207.795 119.800 M149.701 95.000 C 149.705 95.880,149.787 96.193,149.883 95.695 C 149.979 95.198,149.975 94.478,149.875 94.095 C 149.775 93.713,149.696 94.120,149.701 95.000 M250.093 95.200 C 250.093 95.970,250.175 96.285,250.276 95.900 C 250.376 95.515,250.376 94.885,250.276 94.500 C 250.175 94.115,250.093 94.430,250.093 95.200 M165.701 125.800 C 165.705 126.680,165.787 126.993,165.883 126.495 C 165.979 125.998,165.975 125.278,165.875 124.895 C 165.775 124.513,165.696 124.920,165.701 125.800 M234.101 138.200 C 234.105 139.080,234.187 139.393,234.283 138.895 C 234.379 138.398,234.375 137.678,234.275 137.295 C 234.175 136.913,234.096 137.320,234.101 138.200 M149.728 142.800 C 149.728 144.230,149.801 144.815,149.889 144.100 C 149.978 143.385,149.978 142.215,149.889 141.500 C 149.801 140.785,149.728 141.370,149.728 142.800 M165.320 149.200 C 165.320 150.410,165.395 150.905,165.487 150.300 C 165.578 149.695,165.578 148.705,165.487 148.100 C 165.395 147.495,165.320 147.990,165.320 149.200 M234.501 150.200 C 234.505 151.080,234.587 151.393,234.683 150.895 C 234.779 150.398,234.775 149.678,234.675 149.295 C 234.575 148.913,234.496 149.320,234.501 150.200 M46.316 150.297 C 47.699 150.375,49.859 150.374,51.116 150.295 C 52.372 150.216,51.240 150.152,48.600 150.153 C 45.960 150.153,44.932 150.218,46.316 150.297 M349.516 150.297 C 350.899 150.375,353.059 150.374,354.316 150.295 C 355.572 150.216,354.440 150.152,351.800 150.153 C 349.160 150.153,348.132 150.218,349.516 150.297 M129.318 192.298 C 131.033 192.373,133.733 192.372,135.318 192.297 C 136.903 192.221,135.500 192.159,132.200 192.160 C 128.900 192.161,127.603 192.222,129.318 192.298 M267.500 192.298 C 269.315 192.372,272.285 192.372,274.100 192.298 C 275.915 192.223,274.430 192.163,270.800 192.163 C 267.170 192.163,265.685 192.223,267.500 192.298 M72.900 207.491 C 73.725 207.578,75.075 207.578,75.900 207.491 C 76.725 207.405,76.050 207.334,74.400 207.334 C 72.750 207.334,72.075 207.405,72.900 207.491 M178.100 207.876 C 178.485 207.976,179.115 207.976,179.500 207.876 C 179.885 207.775,179.570 207.693,178.800 207.693 C 178.030 207.693,177.715 207.775,178.100 207.876 M250.131 207.900 C 266.814 207.958,293.994 207.958,310.531 207.900 C 327.069 207.842,313.420 207.795,280.200 207.795 C 246.980 207.795,233.449 207.842,250.131 207.900 M207.795 285.000 C 207.795 320.860,207.842 335.471,207.900 317.468 C 207.958 299.466,207.958 270.126,207.900 252.268 C 207.842 234.411,207.795 249.140,207.795 285.000 M14.311 234.293 C 15.251 234.378,16.691 234.377,17.511 234.291 C 18.330 234.205,17.560 234.136,15.800 234.137 C 14.040 234.139,13.370 234.209,14.311 234.293 M337.300 234.287 C 337.905 234.378,338.895 234.378,339.500 234.287 C 340.105 234.195,339.610 234.120,338.400 234.120 C 337.190 234.120,336.695 234.195,337.300 234.287 M363.874 234.299 C 368.094 234.364,375.114 234.364,379.474 234.300 C 383.833 234.235,380.380 234.182,371.800 234.182 C 363.220 234.182,359.653 234.235,363.874 234.299 M142.912 234.695 C 143.964 234.777,145.584 234.776,146.512 234.692 C 147.440 234.608,146.580 234.541,144.600 234.542 C 142.620 234.543,141.860 234.612,142.912 234.695 M247.907 234.690 C 248.626 234.779,249.706 234.777,250.307 234.686 C 250.908 234.595,250.320 234.522,249.000 234.524 C 247.680 234.526,247.188 234.601,247.907 234.690 M165.301 245.800 C 165.305 246.680,165.387 246.993,165.483 246.495 C 165.579 245.998,165.575 245.278,165.475 244.895 C 165.375 244.513,165.296 244.920,165.301 245.800 M149.728 257.200 C 149.728 258.630,149.801 259.215,149.889 258.500 C 149.978 257.785,149.978 256.615,149.889 255.900 C 149.801 255.185,149.728 255.770,149.728 257.200 M234.514 256.600 C 234.517 257.700,234.595 258.103,234.687 257.495 C 234.779 256.886,234.777 255.986,234.682 255.495 C 234.587 255.003,234.511 255.500,234.514 256.600 M234.120 273.600 C 234.120 274.810,234.195 275.305,234.287 274.700 C 234.378 274.095,234.378 273.105,234.287 272.500 C 234.195 271.895,234.120 272.390,234.120 273.600 M249.731 292.600 C 249.733 294.140,249.805 294.721,249.892 293.891 C 249.979 293.061,249.977 291.801,249.889 291.091 C 249.800 290.381,249.729 291.060,249.731 292.600 M149.701 305.000 C 149.705 305.880,149.787 306.193,149.883 305.695 C 149.979 305.198,149.975 304.478,149.875 304.095 C 149.775 303.713,149.696 304.120,149.701 305.000 M165.720 335.200 C 165.720 336.410,165.795 336.905,165.887 336.300 C 165.978 335.695,165.978 334.705,165.887 334.100 C 165.795 333.495,165.720 333.990,165.720 335.200 M150.142 351.800 C 150.141 353.780,150.208 354.640,150.292 353.712 C 150.376 352.784,150.377 351.164,150.295 350.112 C 150.212 349.060,150.143 349.820,150.142 351.800 " stroke="none" fill="#7c7c7c" fill-rule="evenodd"></path></g></svg>