<?xml version="1.0" standalone="no"?>
<!DOCTYPE svg PUBLIC "-//W3C//DTD SVG 20010904//EN"
 "http://www.w3.org/TR/2001/REC-SVG-20010904/DTD/svg10.dtd">
<svg version="1.0" xmlns="http://www.w3.org/2000/svg"
 width="1026.000000pt" height="1280.000000pt" viewBox="0 0 1026.000000 1280.000000"
 preserveAspectRatio="xMidYMid meet">
<metadata>
Created by potrace 1.15, written by Peter Selinger 2001-2017
</metadata>
<g transform="translate(0.000000,1280.000000) scale(0.100000,-0.100000)"
fill="#000000" stroke="none">
<path d="M5571 12789 c-172 -34 -377 -148 -463 -257 -28 -37 -53 -68 -54 -70
-1 -2 -37 23 -80 54 -188 136 -405 203 -659 204 -130 0 -367 -28 -520 -62
-104 -22 -271 -123 -353 -212 -53 -58 -53 -68 -2 -60 41 7 341 -34 339 -45 0
-3 -60 -35 -132 -71 -116 -57 -143 -75 -221 -150 -48 -47 -116 -119 -149 -160
-63 -78 -157 -216 -157 -231 0 -19 91 -28 355 -34 256 -6 290 -5 400 14 192
33 195 33 95 2 -231 -70 -325 -121 -496 -271 -164 -143 -256 -265 -352 -463
-50 -104 -88 -205 -79 -213 2 -2 28 12 58 32 85 57 373 194 384 182 2 -2 -28
-43 -67 -92 -51 -64 -86 -123 -124 -207 -82 -181 -105 -268 -111 -431 l-6
-137 60 14 c84 20 151 47 278 114 192 102 246 121 336 121 43 0 79 -2 79 -5 0
-3 -15 -24 -33 -47 -54 -71 -87 -159 -97 -256 -13 -122 -12 -222 4 -328 15
-100 24 -122 67 -171 65 -75 59 -154 -32 -414 l-30 -85 -49 24 c-43 21 -53 23
-84 12 -86 -28 -129 -152 -91 -260 17 -47 111 -169 156 -201 l29 -20 0 -122 0
-123 -61 -59 c-92 -92 -104 -115 -104 -212 l0 -82 72 -73 c58 -58 77 -85 93
-133 44 -126 67 -295 40 -295 -15 0 -469 160 -643 227 -375 144 -856 364 -889
406 -34 43 -24 79 39 138 114 106 155 154 186 214 26 51 31 72 31 135 1 63 -4
84 -27 133 -65 131 -201 233 -327 244 -51 5 -58 8 -57 26 1 12 14 25 34 34 22
9 33 20 33 33 0 11 1 23 1 28 4 17 -79 44 -136 45 -65 1 -109 -16 -157 -60
l-26 -25 -13 56 c-7 31 -16 55 -20 54 -17 -6 -134 -126 -170 -173 -47 -63 -92
-150 -124 -240 -24 -66 -25 -67 -21 -26 3 27 28 91 68 169 54 106 63 132 63
178 0 47 -4 57 -35 89 -47 48 -94 62 -164 46 -130 -29 -263 -164 -315 -319
-15 -45 -21 -87 -21 -155 0 -216 73 -336 296 -484 46 -31 84 -61 84 -66 0 -6
-38 -8 -108 -4 -194 11 -331 49 -385 105 -14 15 -44 70 -66 122 -63 147 -118
174 -217 108 -120 -82 -124 -212 -12 -415 47 -86 93 -128 192 -176 166 -82
200 -91 334 -91 67 -1 122 -3 122 -6 -1 -15 -21 -30 -75 -58 -103 -51 -134
-56 -275 -42 -150 15 -189 7 -245 -47 -51 -51 -79 -115 -79 -184 -1 -91 53
-143 199 -194 96 -33 247 -37 357 -10 22 5 24 1 39 -77 9 -46 31 -118 49 -161
l32 -78 35 46 c20 25 37 45 38 45 2 0 13 -20 25 -45 39 -81 115 -125 213 -125
42 0 46 2 49 28 2 17 -5 37 -19 55 -13 16 -23 37 -23 48 0 19 1 19 32 3 22
-11 67 -19 133 -22 112 -5 108 -11 43 66 -16 18 -28 36 -28 41 0 4 30 11 67
14 37 4 70 10 74 14 4 5 -19 55 -52 113 -56 100 -125 258 -116 266 7 7 447
-645 682 -1011 120 -187 219 -341 220 -343 1 -1 118 83 261 187 142 104 260
188 262 186 2 -2 -1 -12 -7 -24 -10 -18 -5 -24 55 -57 94 -52 301 -145 423
-189 255 -91 485 -125 636 -92 39 9 220 78 403 155 202 85 335 135 337 128 1
-6 14 -337 28 -735 l25 -724 -583 -740 -583 -740 25 -56 c120 -265 151 -360
187 -583 31 -192 44 -309 56 -518 9 -155 11 -338 3 -260 l-4 36 -107 -2 c-102
-3 -130 -6 -172 -19 -10 -3 -27 -8 -37 -10 -34 -7 -158 -62 -213 -95 -80 -47
-142 -92 -260 -190 -58 -48 -114 -92 -125 -98 -17 -10 -12 -11 25 -7 25 4 -14
-10 -85 -29 -156 -41 -355 -113 -456 -165 -102 -51 -122 -83 -117 -177 6 -84
40 -157 93 -193 43 -29 179 -70 265 -78 54 -6 60 -8 35 -14 -16 -4 -22 -7 -13
-8 12 -1 27 -34 58 -130 43 -134 57 -155 137 -210 51 -35 212 -71 348 -78 222
-12 1070 -3 1093 11 4 2 68 7 142 11 74 4 137 8 140 10 3 2 50 6 105 10 55 3
102 8 105 10 3 2 39 6 80 9 41 4 82 8 90 11 8 2 38 6 65 9 28 3 118 17 200 31
83 14 164 28 180 31 17 2 37 7 45 9 8 2 29 7 45 9 17 3 45 10 63 15 18 5 33
10 35 10 15 -2 168 39 282 74 235 72 445 170 517 240 7 7 23 20 35 28 19 13
16 14 -50 13 l-72 -2 70 7 c105 11 120 23 125 101 8 120 7 123 -58 251 -34 68
-62 130 -62 137 0 8 -9 12 -21 10 -18 -3 -23 6 -39 67 -74 288 -355 742 -774
1252 -91 112 -166 205 -166 207 0 4 174 309 329 576 40 69 131 213 201 320
146 222 198 320 246 464 41 119 87 313 80 332 -3 7 15 80 40 161 108 354 142
563 159 963 7 156 -4 322 -36 538 -10 73 -19 140 -19 148 0 12 46 14 306 14
337 0 357 3 595 80 249 81 416 215 605 487 134 192 245 448 323 748 l26 100
140 6 c77 4 217 7 310 8 94 1 186 5 205 9 l36 7 -23 250 c-41 463 -62 719 -73
895 -6 96 -15 238 -20 315 -5 77 -12 188 -16 246 l-6 106 188 6 c122 4 208 11
244 21 79 22 233 89 315 138 175 104 317 316 290 436 -16 74 -129 156 -232
169 -72 8 -122 -19 -238 -128 -55 -52 -115 -98 -140 -109 -39 -17 -118 -34
-250 -55 -22 -4 -10 7 46 40 140 81 213 164 304 345 71 141 78 196 45 350 -43
202 -121 289 -258 290 -145 0 -179 -67 -127 -255 14 -49 25 -101 25 -115 0
-41 -47 -129 -107 -203 -55 -66 -241 -232 -251 -222 -9 9 21 65 34 65 22 0 35
46 40 140 2 47 8 112 12 145 11 90 -3 159 -53 262 -76 155 -199 258 -360 304
-28 8 -93 14 -150 14 -89 -1 -106 -4 -158 -29 -79 -38 -109 -84 -110 -165 l0
-61 -36 -5 c-20 -3 -85 -16 -146 -29 l-109 -23 -61 27 c-99 44 -274 99 -370
115 -92 16 -101 21 -131 78 -18 33 -23 33 134 8 61 -9 112 -15 112 -13 0 17
-248 351 -300 403 -124 125 -311 247 -440 288 -112 35 -380 79 -507 82 -35 1
-63 5 -63 8 0 3 34 29 75 56 41 28 74 53 75 56 0 9 -133 64 -242 100 -207 69
-372 76 -557 23 -24 -7 -23 -6 10 41 19 26 58 68 87 93 28 25 49 49 45 53 -5
4 -43 15 -85 23 -83 17 -176 19 -247 5z m2403 -1785 l46 -7 -49 -52 c-82 -87
-121 -187 -121 -315 0 -142 52 -248 151 -308 76 -46 136 -62 271 -73 130 -10
162 -19 177 -48 21 -38 10 -80 -52 -212 -146 -307 -405 -757 -677 -1174 -79
-121 -159 -250 -179 -286 -31 -57 -34 -69 -22 -83 23 -27 125 -70 366 -151
127 -43 231 -79 233 -80 8 -6 -67 -192 -106 -260 -176 -312 -463 -513 -842
-590 -181 -37 -469 7 -852 131 l-107 35 10 27 c19 48 14 153 -9 198 -23 45
-84 104 -134 130 -18 9 -35 18 -37 20 -2 2 28 38 66 81 95 106 180 218 210
276 33 66 94 225 127 330 24 76 30 87 50 87 48 0 213 33 253 50 63 28 75 59
83 225 4 77 12 152 18 167 6 16 39 71 73 125 34 53 71 117 82 142 29 63 27
167 -6 301 -34 142 -39 185 -28 250 8 47 7 61 -10 94 l-20 38 36 -6 c30 -6 35
-4 35 13 0 11 -9 41 -20 67 -11 26 -19 48 -17 50 8 8 69 -39 87 -68 l19 -32
31 66 c17 37 39 104 48 150 9 46 17 84 18 86 1 2 35 -19 75 -46 41 -28 109
-71 152 -96 l77 -45 0 246 c0 232 -1 250 -26 340 -14 51 -24 98 -22 103 2 5
61 -18 132 -51 71 -32 131 -59 132 -59 8 0 24 110 24 160 l0 60 104 0 c57 0
124 -3 150 -6z m536 -160 c36 -24 86 -64 112 -89 l48 -46 -28 -24 c-39 -36
-118 -71 -187 -85 -157 -33 -284 62 -217 161 9 15 29 44 43 65 14 22 31 56 38
76 l12 36 57 -25 c31 -14 86 -45 122 -69z m-6376 -2271 c-28 -45 -108 -113
-119 -101 -3 3 27 40 66 82 39 42 74 74 77 71 3 -2 -8 -26 -24 -52z m3120
-1149 c12 -5 16 -20 16 -63 l0 -56 -236 -155 c-290 -191 -327 -212 -425 -244
-174 -58 -353 -68 -534 -31 -95 20 -252 73 -323 109 l-53 27 22 37 c13 20 54
83 92 140 l68 103 32 -24 c53 -39 190 -96 284 -117 171 -38 219 -27 429 96
171 100 273 152 337 169 52 14 261 20 291 9z m459 -3003 c115 -32 220 -81 214
-100 -2 -9 -135 -256 -295 -550 l-291 -534 40 -71 c138 -246 189 -367 298
-716 114 -366 165 -573 196 -801 l7 -45 -134 -23 c-73 -12 -149 -24 -168 -26
-30 -4 -31 -3 -10 4 l25 9 -23 1 c-42 2 -174 52 -302 114 -69 34 -129 63 -134
65 -4 3 -5 -6 -2 -19 13 -46 -20 21 -40 81 -9 30 -20 57 -24 60 -4 3 -26 84
-50 180 -56 231 -135 469 -260 780 -117 292 -151 362 -253 515 l-74 110 127
150 c70 83 184 223 253 313 70 90 200 247 290 348 l162 185 185 -4 c149 -4
200 -9 263 -26z m-2266 -2657 c-3 -3 -12 -4 -19 -1 -8 3 -5 6 6 6 11 1 17 -2
13 -5z m2086 -221 c-7 -2 -21 -2 -30 0 -10 3 -4 5 12 5 17 0 24 -2 18 -5z
m-56 -9 c-3 -3 -12 -4 -19 -1 -8 3 -5 6 6 6 11 1 17 -2 13 -5z m-2289 -441
c-10 -2 -26 -2 -35 0 -10 3 -2 5 17 5 19 0 27 -2 18 -5z m2359 -269 c-3 -3
-12 -4 -19 -1 -8 3 -5 6 6 6 11 1 17 -2 13 -5z m-120 -20 c-3 -3 -12 -4 -19
-1 -8 3 -5 6 6 6 11 1 17 -2 13 -5z m-79 -11 c-10 -2 -26 -2 -35 0 -10 3 -2 5
17 5 19 0 27 -2 18 -5z m-155 -10 c-18 -2 -48 -2 -65 0 -18 2 -4 4 32 4 36 0
50 -2 33 -4z"/>
<path d="M1016 9384 c-133 -49 -216 -212 -202 -401 6 -85 44 -224 62 -230 6
-2 0 29 -14 69 -46 137 -41 300 14 408 41 81 131 150 198 150 14 0 28 5 31 10
9 14 -43 11 -89 -6z"/>
<path d="M1091 9279 c-48 -14 -124 -95 -145 -154 -29 -83 -32 -188 -7 -284 21
-85 27 -99 36 -89 3 3 -2 24 -10 48 -53 150 -33 319 49 408 25 28 87 62 113
62 10 0 25 5 33 10 20 13 -22 12 -69 -1z"/>
<path d="M499 8680 c-125 -66 -181 -218 -145 -390 15 -73 76 -210 115 -260 36
-46 30 -15 -9 44 -22 33 -52 93 -67 135 -24 65 -28 91 -28 181 0 95 3 110 27
156 30 56 86 111 130 126 15 5 28 14 28 19 0 13 -10 11 -51 -11z"/>
<path d="M585 8587 c-127 -72 -160 -254 -77 -432 34 -72 71 -129 79 -121 3 3
-5 19 -16 35 -12 17 -36 61 -53 98 -36 80 -49 203 -28 277 16 57 63 114 113
136 21 10 35 20 30 23 -5 3 -27 -4 -48 -16z"/>
<path d="M376 7657 c-14 -23 -30 -66 -36 -94 -28 -129 65 -298 223 -405 65
-44 146 -83 154 -74 4 3 4 7 2 9 -2 1 -40 20 -84 42 -107 54 -203 147 -247
241 -27 57 -33 81 -33 139 0 61 4 78 33 128 18 31 28 57 23 57 -6 0 -21 -19
-35 -43z"/>
<path d="M500 7628 c-40 -65 -40 -161 0 -244 34 -68 132 -162 213 -203 37 -19
70 -32 73 -29 3 4 -25 21 -63 40 -115 56 -215 173 -238 276 -10 49 2 116 30
156 14 20 20 36 15 36 -6 0 -19 -15 -30 -32z"/>
<path d="M1895 2354 c-87 -133 -158 -181 -324 -221 -120 -28 -215 -6 -337 78
-44 30 -54 29 -54 -6 0 -33 -11 -37 -37 -13 l-23 21 0 -70 c0 -69 -1 -71 -29
-81 -27 -10 -28 -12 -21 -56 4 -30 16 -57 34 -75 l26 -28 -20 -18 c-20 -18
-20 -19 47 -49 60 -27 78 -30 158 -30 102 1 161 19 261 81 59 36 60 36 179 38
79 1 138 8 171 19 69 22 160 84 207 140 l38 46 -25 9 c-24 10 -24 11 -10 51
11 32 12 50 4 81 -10 36 -14 39 -44 39 -27 0 -35 5 -40 23 -3 13 -13 41 -22
62 l-16 40 -17 -34 -18 -33 -19 31 -20 31 -49 -76z"/>
<path d="M1032 1570 c-137 -46 -232 -152 -232 -260 0 -90 46 -149 168 -218 41
-23 78 -42 83 -42 5 0 17 -4 27 -10 25 -14 195 -69 267 -85 6 -2 66 -17 135
-34 155 -38 410 -89 535 -106 462 -65 649 -31 549 100 -31 41 -172 151 -181
142 -3 -4 2 -17 13 -29 l19 -22 -27 20 c-25 18 -26 20 -8 39 28 32 40 61 40
99 0 30 -4 37 -25 42 -24 6 -25 9 -25 82 l0 75 -23 -21 c-30 -28 -37 -28 -37
2 0 14 -4 27 -9 30 -5 3 -40 -13 -78 -36 -85 -52 -139 -68 -217 -66 l-61 1 60
7 c33 4 51 7 40 8 -11 1 -30 8 -41 16 -27 19 -288 149 -334 166 -19 7 -41 18
-49 24 -17 13 -11 1 23 -48 11 -16 15 -26 9 -23 -7 4 -33 39 -58 77 -26 39
-50 70 -53 70 -4 0 -14 -12 -23 -26 l-16 -26 -13 31 c-7 17 -15 31 -19 31 -3
0 -14 -17 -23 -38 -12 -27 -15 -30 -12 -11 5 26 3 28 -58 41 -94 21 -280 20
-346 -2z"/>
</g>
</svg>
