<svg id="svg" version="1.1" xmlns="http://www.w3.org/2000/svg" xmlns:xlink="http://www.w3.org/1999/xlink" width="400" height="59.375" viewBox="0, 0, 400,59.375"><g id="svgg"><path id="path0" d="M333.010 0.361 C 332.821 0.564,332.667 0.828,332.667 0.948 C 332.667 1.068,332.592 1.167,332.500 1.167 C 332.408 1.167,332.333 1.279,332.333 1.417 C 332.333 1.554,332.258 1.667,332.167 1.667 C 332.075 1.667,332.000 1.817,332.000 2.000 C 332.000 2.183,331.932 2.333,331.850 2.333 C 331.767 2.333,331.561 2.671,331.392 3.083 C 331.222 3.495,331.027 3.832,330.958 3.833 C 330.890 3.833,330.833 3.946,330.833 4.083 C 330.833 4.221,330.758 4.333,330.667 4.333 C 330.575 4.333,330.500 4.446,330.500 4.583 C 330.500 4.721,330.425 4.833,330.333 4.833 C 330.242 4.833,330.167 4.983,330.167 5.167 C 330.167 5.350,330.092 5.500,330.000 5.500 C 329.908 5.500,329.833 5.598,329.833 5.719 C 329.833 5.839,329.696 6.084,329.529 6.264 C 329.361 6.444,329.084 6.908,328.913 7.296 C 328.742 7.683,328.542 8.000,328.468 8.000 C 328.394 8.000,328.333 8.150,328.333 8.333 C 328.333 8.517,328.258 8.667,328.167 8.667 C 328.075 8.667,328.000 8.779,328.000 8.917 C 328.000 9.054,327.925 9.167,327.833 9.167 C 327.742 9.167,327.667 9.265,327.667 9.385 C 327.667 9.505,327.517 9.765,327.333 9.962 C 327.150 10.158,327.000 10.435,327.000 10.576 C 327.000 10.718,326.942 10.833,326.871 10.833 C 326.800 10.833,326.593 11.170,326.412 11.582 C 326.231 11.993,326.027 12.331,325.958 12.332 C 325.890 12.333,325.833 12.483,325.833 12.667 C 325.833 12.850,325.758 13.000,325.667 13.000 C 325.575 13.000,325.500 13.101,325.500 13.224 C 325.500 13.347,325.350 13.584,325.167 13.750 C 324.983 13.916,324.833 14.153,324.833 14.276 C 324.833 14.399,324.758 14.500,324.667 14.500 C 324.575 14.500,324.500 14.650,324.500 14.833 C 324.500 15.017,324.436 15.167,324.359 15.167 C 324.281 15.167,324.077 15.485,323.905 15.875 C 323.733 16.265,323.553 16.621,323.504 16.667 C 323.456 16.712,323.310 16.956,323.180 17.208 C 323.050 17.460,322.881 17.667,322.805 17.667 C 322.729 17.667,322.667 17.817,322.667 18.000 C 322.667 18.183,322.592 18.333,322.500 18.333 C 322.408 18.333,322.333 18.440,322.333 18.569 C 322.333 18.699,322.269 18.831,322.191 18.861 C 322.068 18.909,321.214 20.395,320.603 21.624 C 320.500 21.829,320.360 21.998,320.292 21.999 C 320.223 21.999,320.167 22.116,320.167 22.257 C 320.167 22.398,320.017 22.675,319.833 22.872 C 319.650 23.069,319.500 23.328,319.500 23.448 C 319.500 23.568,319.442 23.667,319.371 23.667 C 319.300 23.667,319.093 24.003,318.912 24.415 C 318.731 24.827,318.527 25.164,318.458 25.165 C 318.390 25.166,318.333 25.317,318.333 25.500 C 318.333 25.683,318.258 25.833,318.167 25.833 C 318.075 25.833,318.000 25.911,318.000 26.007 C 318.000 26.102,317.850 26.342,317.667 26.538 C 317.483 26.735,317.333 26.995,317.333 27.115 C 317.333 27.235,317.258 27.333,317.167 27.333 C 317.075 27.333,317.000 27.483,317.000 27.667 C 317.000 27.850,316.944 28.000,316.875 28.001 C 316.707 28.002,316.167 28.966,316.167 29.264 C 316.167 29.394,316.092 29.500,316.000 29.500 C 315.908 29.500,315.833 29.622,315.833 29.772 C 315.833 29.922,315.702 30.166,315.541 30.314 C 315.379 30.462,315.136 30.808,314.999 31.083 C 314.862 31.358,314.710 31.621,314.661 31.667 C 314.611 31.712,314.349 32.200,314.077 32.750 C 313.806 33.300,313.452 33.871,313.292 34.020 C 313.131 34.168,313.000 34.412,313.000 34.561 C 313.000 34.711,312.925 34.833,312.833 34.833 C 312.742 34.833,312.667 34.949,312.667 35.090 C 312.667 35.232,312.516 35.509,312.332 35.707 C 312.148 35.904,311.792 36.501,311.541 37.033 C 311.289 37.565,311.027 38.000,310.959 38.000 C 310.890 38.000,310.833 38.112,310.833 38.250 C 310.833 38.387,310.758 38.500,310.667 38.500 C 310.575 38.500,310.500 38.616,310.500 38.757 C 310.500 38.898,310.350 39.175,310.167 39.372 C 309.983 39.569,309.833 39.828,309.833 39.948 C 309.833 40.068,309.758 40.167,309.667 40.167 C 309.575 40.167,309.500 40.317,309.500 40.500 C 309.500 40.683,309.425 40.833,309.333 40.833 C 309.242 40.833,309.167 40.937,309.167 41.063 C 309.167 41.189,309.054 41.386,308.917 41.500 C 308.779 41.614,308.667 41.848,308.667 42.020 C 308.667 42.193,308.592 42.333,308.500 42.333 C 308.408 42.333,308.333 42.445,308.333 42.581 C 308.333 42.809,308.071 43.199,307.542 43.757 C 307.427 43.877,307.333 44.094,307.333 44.238 C 307.333 44.382,307.258 44.500,307.167 44.500 C 307.075 44.500,307.000 44.650,307.000 44.833 C 307.000 45.017,306.944 45.167,306.875 45.168 C 306.731 45.169,306.167 46.114,306.167 46.354 C 306.167 46.442,306.017 46.675,305.833 46.872 C 305.650 47.069,305.500 47.328,305.500 47.448 C 305.500 47.568,305.425 47.667,305.333 47.667 C 305.242 47.667,305.167 47.817,305.167 48.000 C 305.167 48.183,305.092 48.333,305.000 48.333 C 304.908 48.333,304.833 48.446,304.833 48.583 C 304.833 48.721,304.765 48.833,304.681 48.833 C 304.597 48.833,304.316 49.283,304.056 49.833 C 303.796 50.383,303.527 50.833,303.459 50.833 C 303.390 50.833,303.333 50.946,303.333 51.083 C 303.333 51.221,303.258 51.333,303.167 51.333 C 303.075 51.333,303.000 51.483,303.000 51.667 C 303.000 51.850,302.925 52.000,302.833 52.000 C 302.742 52.000,302.667 52.098,302.667 52.219 C 302.667 52.339,302.533 52.583,302.370 52.760 C 302.206 52.938,301.942 53.361,301.782 53.701 C 301.622 54.041,301.418 54.364,301.329 54.419 C 301.240 54.475,301.167 54.665,301.167 54.843 C 301.167 55.021,301.110 55.167,301.041 55.167 C 300.971 55.167,300.821 55.378,300.707 55.635 C 300.593 55.893,300.350 56.265,300.167 56.462 C 299.983 56.658,299.833 56.935,299.833 57.076 C 299.833 57.218,299.758 57.333,299.667 57.333 C 299.575 57.333,299.500 57.449,299.500 57.590 C 299.500 57.732,299.350 58.008,299.167 58.205 C 298.568 58.848,298.715 59.393,299.451 59.255 C 299.791 59.191,300.185 59.014,300.328 58.861 C 300.618 58.551,300.991 58.307,301.792 57.902 C 302.090 57.752,302.333 57.562,302.333 57.481 C 302.333 57.400,302.467 57.333,302.630 57.333 C 302.793 57.333,303.035 57.183,303.167 57.000 C 303.299 56.817,303.503 56.667,303.620 56.667 C 303.737 56.667,303.833 56.604,303.833 56.528 C 303.833 56.452,304.040 56.283,304.292 56.153 C 304.544 56.024,304.787 55.880,304.833 55.834 C 304.879 55.788,305.194 55.609,305.534 55.436 C 305.873 55.264,306.302 54.982,306.485 54.811 C 306.669 54.640,306.918 54.500,307.040 54.500 C 307.161 54.500,307.368 54.350,307.500 54.167 C 307.632 53.983,307.822 53.833,307.922 53.833 C 308.022 53.833,308.255 53.693,308.440 53.520 C 308.624 53.348,308.939 53.156,309.138 53.092 C 309.337 53.029,309.500 52.908,309.500 52.822 C 309.500 52.737,309.598 52.667,309.719 52.667 C 309.839 52.667,310.098 52.517,310.295 52.333 C 310.492 52.150,310.730 52.000,310.825 52.000 C 310.920 52.000,311.091 51.850,311.205 51.667 C 311.320 51.483,311.545 51.333,311.707 51.333 C 311.868 51.333,312.000 51.271,312.000 51.194 C 312.000 51.117,312.412 50.846,312.917 50.591 C 313.421 50.336,313.833 50.061,313.833 49.980 C 313.833 49.899,313.932 49.833,314.052 49.833 C 314.172 49.833,314.416 49.702,314.594 49.542 C 314.771 49.381,315.123 49.144,315.375 49.014 C 315.627 48.883,315.833 48.715,315.833 48.639 C 315.833 48.562,315.946 48.500,316.083 48.500 C 316.221 48.500,316.333 48.439,316.333 48.365 C 316.333 48.291,316.633 48.098,317.000 47.937 C 317.367 47.775,317.667 47.573,317.667 47.488 C 317.667 47.403,317.765 47.333,317.885 47.333 C 318.005 47.333,318.265 47.183,318.462 47.000 C 318.658 46.817,318.881 46.667,318.956 46.667 C 319.032 46.667,319.201 46.517,319.333 46.333 C 319.465 46.150,319.707 46.000,319.870 46.000 C 320.033 46.000,320.167 45.930,320.167 45.845 C 320.167 45.759,320.334 45.636,320.538 45.571 C 320.860 45.469,321.748 44.919,322.000 44.666 C 322.046 44.620,322.290 44.476,322.542 44.347 C 322.794 44.217,323.000 44.048,323.000 43.972 C 323.000 43.896,323.078 43.833,323.174 43.833 C 323.400 43.833,324.167 43.067,324.167 42.841 C 324.167 42.745,324.242 42.667,324.333 42.667 C 324.425 42.667,324.500 42.551,324.500 42.410 C 324.500 42.268,324.650 41.992,324.833 41.795 C 325.017 41.598,325.167 41.339,325.167 41.219 C 325.167 41.098,325.223 41.000,325.293 41.000 C 325.362 41.000,325.526 40.756,325.657 40.458 C 325.789 40.160,325.995 39.818,326.115 39.696 C 326.235 39.575,326.333 39.332,326.333 39.155 C 326.333 38.978,326.408 38.833,326.500 38.833 C 326.592 38.833,326.667 38.721,326.667 38.583 C 326.667 38.446,326.733 38.333,326.814 38.333 C 326.895 38.333,327.003 38.202,327.054 38.042 C 327.177 37.652,327.719 36.764,327.875 36.694 C 327.944 36.664,328.000 36.495,328.000 36.319 C 328.000 36.144,328.056 36.000,328.125 35.999 C 328.293 35.998,328.833 35.034,328.833 34.736 C 328.833 34.606,328.908 34.500,329.000 34.500 C 329.092 34.500,329.167 34.378,329.167 34.228 C 329.167 34.078,329.304 33.834,329.471 33.686 C 329.638 33.538,329.882 33.173,330.012 32.875 C 330.142 32.577,330.305 32.333,330.374 32.333 C 330.443 32.333,330.500 32.183,330.500 32.000 C 330.500 31.817,330.568 31.667,330.650 31.667 C 330.733 31.667,330.939 31.329,331.108 30.917 C 331.278 30.505,331.473 30.168,331.542 30.167 C 331.610 30.167,331.667 30.054,331.667 29.917 C 331.667 29.779,331.742 29.667,331.833 29.667 C 331.925 29.667,332.000 29.554,332.000 29.417 C 332.000 29.279,332.075 29.167,332.167 29.167 C 332.258 29.167,332.333 29.017,332.333 28.833 C 332.333 28.650,332.408 28.500,332.500 28.500 C 332.592 28.500,332.667 28.387,332.667 28.250 C 332.667 28.113,332.742 28.000,332.833 28.000 C 332.925 28.000,333.000 27.918,333.000 27.817 C 333.000 27.717,333.140 27.436,333.311 27.192 C 333.483 26.949,333.679 26.568,333.749 26.346 C 333.818 26.124,334.015 25.791,334.187 25.606 C 334.359 25.422,334.500 25.172,334.500 25.052 C 334.500 24.932,334.575 24.833,334.667 24.833 C 334.758 24.833,334.833 24.683,334.833 24.500 C 334.833 24.317,334.908 24.167,335.000 24.167 C 335.092 24.167,335.167 24.068,335.167 23.948 C 335.167 23.828,335.304 23.582,335.471 23.403 C 335.639 23.223,335.916 22.759,336.087 22.371 C 336.258 21.984,336.458 21.667,336.532 21.667 C 336.606 21.667,336.667 21.517,336.667 21.333 C 336.667 21.150,336.742 21.000,336.833 21.000 C 336.925 21.000,337.000 20.887,337.000 20.750 C 337.000 20.612,337.075 20.500,337.167 20.500 C 337.258 20.500,337.333 20.384,337.333 20.243 C 337.333 20.102,337.483 19.825,337.667 19.628 C 337.850 19.431,338.000 19.172,338.000 19.052 C 338.000 18.932,338.060 18.833,338.132 18.833 C 338.205 18.833,338.404 18.496,338.574 18.083 C 338.744 17.671,338.947 17.333,339.025 17.333 C 339.103 17.333,339.167 17.183,339.167 17.000 C 339.167 16.817,339.242 16.667,339.333 16.667 C 339.425 16.667,339.500 16.555,339.500 16.419 C 339.500 16.191,339.762 15.801,340.292 15.243 C 340.406 15.123,340.500 14.906,340.500 14.762 C 340.500 14.618,340.575 14.500,340.667 14.500 C 340.758 14.500,340.833 14.388,340.833 14.252 C 340.833 14.115,340.963 13.853,341.120 13.669 C 341.554 13.162,361.685 13.151,362.292 13.657 C 362.687 13.987,362.826 15.049,362.500 15.250 C 362.408 15.307,362.333 15.530,362.333 15.746 C 362.333 15.962,362.277 16.164,362.208 16.194 C 362.061 16.260,361.167 18.100,361.167 18.337 C 361.167 18.572,361.936 18.538,362.196 18.292 C 362.318 18.177,362.623 17.977,362.875 17.847 C 363.127 17.717,363.333 17.548,363.333 17.472 C 363.333 17.396,363.429 17.333,363.547 17.333 C 363.664 17.333,363.868 17.183,364.000 17.000 C 364.132 16.817,364.357 16.667,364.500 16.667 C 364.643 16.667,364.868 16.517,365.000 16.333 C 365.132 16.150,365.365 16.000,365.516 16.000 C 365.668 16.000,365.886 15.887,366.000 15.750 C 366.114 15.612,366.294 15.500,366.400 15.500 C 366.506 15.500,366.701 15.350,366.833 15.167 C 366.965 14.983,367.201 14.833,367.356 14.833 C 367.512 14.833,367.664 14.777,367.694 14.708 C 367.770 14.539,368.809 13.798,369.375 13.510 C 369.627 13.382,369.833 13.215,369.833 13.139 C 369.833 13.062,369.967 13.000,370.130 13.000 C 370.293 13.000,370.535 12.850,370.667 12.667 C 370.799 12.483,371.003 12.333,371.120 12.333 C 371.237 12.333,371.333 12.271,371.333 12.195 C 371.333 12.119,371.540 11.950,371.792 11.820 C 372.044 11.690,372.349 11.490,372.470 11.375 C 372.591 11.260,372.786 11.167,372.903 11.167 C 373.019 11.167,373.251 11.017,373.417 10.833 C 373.583 10.650,373.785 10.500,373.866 10.500 C 373.947 10.500,374.175 10.350,374.372 10.167 C 374.569 9.983,374.828 9.833,374.948 9.833 C 375.068 9.833,375.167 9.758,375.167 9.667 C 375.167 9.575,375.279 9.500,375.417 9.500 C 375.554 9.500,375.667 9.425,375.667 9.333 C 375.667 9.242,375.779 9.167,375.917 9.167 C 376.054 9.167,376.167 9.092,376.167 9.000 C 376.167 8.908,376.268 8.833,376.391 8.833 C 376.515 8.833,376.789 8.683,377.000 8.500 C 377.211 8.317,377.436 8.167,377.500 8.167 C 377.564 8.167,377.771 8.035,377.960 7.875 C 378.150 7.715,378.462 7.452,378.655 7.292 C 378.847 7.131,379.099 7.000,379.215 7.000 C 379.331 7.000,379.535 6.850,379.667 6.667 C 379.799 6.483,380.008 6.333,380.131 6.333 C 380.360 6.333,381.538 5.519,381.639 5.292 C 381.669 5.223,381.804 5.167,381.938 5.167 C 383.279 5.167,383.281 2.563,381.940 1.465 C 381.744 1.304,381.493 1.096,381.382 1.003 C 381.271 0.910,381.103 0.833,381.007 0.833 C 380.911 0.833,380.833 0.758,380.833 0.667 C 380.833 0.575,380.661 0.500,380.450 0.500 C 380.239 0.500,379.973 0.406,379.858 0.292 C 379.694 0.127,374.750 0.074,356.501 0.038 L 333.353 -0.007 333.010 0.361 M399.333 0.123 C 399.196 0.176,398.962 0.357,398.814 0.526 C 398.666 0.695,398.422 0.833,398.272 0.833 C 398.122 0.833,398.000 0.897,398.000 0.975 C 398.000 1.052,397.700 1.251,397.333 1.417 C 396.967 1.582,396.667 1.781,396.667 1.859 C 396.667 1.936,396.571 2.000,396.453 2.000 C 396.336 2.000,396.132 2.150,396.000 2.333 C 395.868 2.517,395.643 2.667,395.500 2.667 C 395.357 2.667,395.132 2.817,395.000 3.000 C 394.868 3.183,394.626 3.333,394.463 3.333 C 394.300 3.333,394.167 3.391,394.167 3.462 C 394.167 3.533,393.904 3.732,393.583 3.905 C 393.262 4.078,393.000 4.282,393.000 4.360 C 393.000 4.437,392.867 4.500,392.703 4.500 C 392.540 4.500,392.299 4.650,392.167 4.833 C 392.035 5.017,391.831 5.167,391.715 5.167 C 391.598 5.167,391.409 5.317,391.295 5.500 C 391.180 5.683,390.955 5.833,390.793 5.833 C 390.632 5.833,390.500 5.894,390.500 5.968 C 390.500 6.042,390.200 6.235,389.833 6.397 C 389.467 6.558,389.167 6.760,389.167 6.845 C 389.167 6.930,389.089 7.000,388.993 7.000 C 388.898 7.000,388.658 7.150,388.462 7.333 C 388.265 7.517,388.005 7.667,387.885 7.667 C 387.765 7.667,387.667 7.742,387.667 7.833 C 387.667 7.925,387.554 8.000,387.417 8.000 C 387.279 8.000,387.167 8.075,387.167 8.167 C 387.167 8.258,387.054 8.333,386.917 8.333 C 386.779 8.333,386.667 8.400,386.667 8.482 C 386.667 8.564,386.479 8.678,386.250 8.735 C 386.021 8.793,385.833 8.904,385.833 8.983 C 385.833 9.062,385.608 9.219,385.333 9.333 C 385.058 9.447,384.833 9.606,384.833 9.687 C 384.833 9.767,384.721 9.833,384.583 9.833 C 384.446 9.833,384.333 9.908,384.333 10.000 C 384.333 10.092,384.221 10.167,384.083 10.167 C 383.946 10.167,383.833 10.242,383.833 10.333 C 383.833 10.425,383.748 10.500,383.645 10.500 C 383.541 10.500,383.334 10.638,383.186 10.807 C 383.038 10.975,382.710 11.164,382.458 11.227 C 382.206 11.289,382.000 11.413,382.000 11.503 C 382.000 11.593,381.904 11.667,381.787 11.667 C 381.670 11.667,381.465 11.817,381.333 12.000 C 381.201 12.183,380.976 12.333,380.833 12.333 C 380.690 12.333,380.465 12.483,380.333 12.667 C 380.201 12.850,379.987 13.000,379.858 13.000 C 379.728 13.000,379.501 13.139,379.353 13.309 C 379.205 13.480,378.915 13.672,378.708 13.737 C 378.502 13.803,378.333 13.926,378.333 14.011 C 378.333 14.097,378.200 14.167,378.037 14.167 C 377.874 14.167,377.632 14.317,377.500 14.500 C 377.368 14.683,377.143 14.833,377.000 14.833 C 376.857 14.833,376.632 14.983,376.500 15.167 C 376.368 15.350,376.164 15.500,376.047 15.500 C 375.929 15.500,375.833 15.570,375.833 15.655 C 375.833 15.740,375.533 15.942,375.167 16.103 C 374.800 16.265,374.500 16.458,374.500 16.532 C 374.500 16.606,374.422 16.667,374.327 16.667 C 374.129 16.667,373.112 17.352,373.028 17.542 C 372.997 17.610,372.866 17.667,372.736 17.667 C 372.606 17.667,372.500 17.742,372.500 17.833 C 372.500 17.925,372.387 18.000,372.250 18.000 C 372.113 18.000,372.000 18.075,372.000 18.167 C 372.000 18.258,371.887 18.333,371.750 18.333 C 371.613 18.333,371.500 18.397,371.500 18.475 C 371.500 18.552,371.200 18.751,370.833 18.917 C 370.467 19.082,370.167 19.281,370.167 19.359 C 370.167 19.436,370.068 19.500,369.948 19.500 C 369.828 19.500,369.569 19.650,369.372 19.833 C 369.175 20.017,368.952 20.167,368.877 20.167 C 368.802 20.167,368.632 20.317,368.500 20.500 C 368.368 20.683,368.135 20.833,367.984 20.833 C 367.832 20.833,367.614 20.946,367.500 21.083 C 367.386 21.221,367.201 21.333,367.089 21.333 C 366.977 21.333,366.749 21.483,366.583 21.667 C 366.417 21.850,366.197 22.000,366.094 22.000 C 365.991 22.000,365.799 22.150,365.667 22.333 C 365.535 22.517,365.321 22.667,365.191 22.667 C 365.062 22.667,364.834 22.806,364.686 22.976 C 364.538 23.146,364.248 23.339,364.042 23.404 C 363.835 23.469,363.667 23.592,363.667 23.678 C 363.667 23.763,363.533 23.833,363.370 23.833 C 363.207 23.833,362.965 23.983,362.833 24.167 C 362.701 24.350,362.476 24.500,362.333 24.500 C 362.190 24.500,361.965 24.650,361.833 24.833 C 361.701 25.017,361.514 25.167,361.417 25.167 C 361.320 25.167,361.132 25.317,361.000 25.500 C 360.868 25.683,360.632 25.833,360.475 25.833 C 360.319 25.833,360.091 25.927,359.970 26.042 C 359.849 26.156,359.556 26.350,359.318 26.472 C 359.081 26.595,358.631 26.913,358.318 27.180 C 358.006 27.447,357.656 27.666,357.542 27.666 C 357.427 27.666,357.333 27.742,357.333 27.833 C 357.333 27.925,357.221 28.000,357.083 28.000 C 356.946 28.000,356.832 28.056,356.831 28.125 C 356.830 28.194,356.530 28.393,356.165 28.568 C 355.799 28.744,355.500 28.950,355.500 29.027 C 355.500 29.104,355.402 29.167,355.281 29.167 C 355.161 29.167,354.902 29.317,354.705 29.500 C 354.508 29.683,354.286 29.833,354.210 29.833 C 354.135 29.833,353.965 29.983,353.833 30.167 C 353.701 30.350,353.460 30.500,353.297 30.500 C 353.133 30.500,353.000 30.564,353.000 30.641 C 353.000 30.719,352.700 30.918,352.333 31.083 C 351.967 31.249,351.667 31.448,351.667 31.525 C 351.667 31.603,351.571 31.667,351.453 31.667 C 351.336 31.667,351.132 31.817,351.000 32.000 C 350.868 32.183,350.643 32.333,350.500 32.333 C 350.357 32.333,350.132 32.483,350.000 32.667 C 349.868 32.850,349.626 33.000,349.463 33.000 C 349.300 33.000,349.167 33.058,349.167 33.129 C 349.167 33.200,348.904 33.399,348.583 33.572 C 348.262 33.744,348.000 33.949,348.000 34.026 C 348.000 34.103,347.867 34.167,347.703 34.167 C 347.540 34.167,347.299 34.317,347.167 34.500 C 347.035 34.683,346.831 34.833,346.715 34.833 C 346.598 34.833,346.409 34.983,346.295 35.167 C 346.180 35.350,345.955 35.500,345.793 35.500 C 345.632 35.500,345.500 35.561,345.500 35.635 C 345.500 35.709,345.219 35.895,344.875 36.048 C 344.531 36.201,344.035 36.513,343.771 36.742 C 343.508 36.970,343.152 37.202,342.980 37.256 C 342.807 37.311,342.667 37.426,342.667 37.511 C 342.667 37.597,342.554 37.667,342.417 37.667 C 342.279 37.667,342.167 37.742,342.167 37.833 C 342.167 37.925,342.054 38.000,341.917 38.000 C 341.779 38.000,341.667 38.067,341.667 38.149 C 341.667 38.230,341.479 38.344,341.250 38.402 C 341.021 38.459,340.833 38.580,340.833 38.670 C 340.833 38.760,340.735 38.833,340.615 38.833 C 340.495 38.833,340.251 38.965,340.073 39.125 C 339.895 39.285,339.544 39.523,339.292 39.653 C 339.040 39.783,338.833 39.952,338.833 40.028 C 338.833 40.104,338.748 40.167,338.645 40.167 C 338.541 40.167,338.334 40.305,338.186 40.473 C 338.038 40.642,337.710 40.831,337.458 40.893 C 337.206 40.955,337.000 41.080,337.000 41.170 C 337.000 41.260,336.904 41.333,336.787 41.333 C 336.670 41.333,336.465 41.483,336.333 41.667 C 336.201 41.850,335.976 42.000,335.833 42.000 C 335.690 42.000,335.465 42.150,335.333 42.333 C 335.201 42.517,334.987 42.667,334.858 42.667 C 334.728 42.667,334.501 42.806,334.353 42.976 C 334.205 43.146,333.915 43.339,333.708 43.404 C 333.502 43.469,333.333 43.592,333.333 43.678 C 333.333 43.763,333.200 43.833,333.037 43.833 C 332.874 43.833,332.632 43.983,332.500 44.167 C 332.368 44.350,332.143 44.500,332.000 44.500 C 331.857 44.500,331.632 44.650,331.500 44.833 C 331.368 45.017,331.198 45.167,331.123 45.167 C 331.048 45.167,330.895 45.244,330.785 45.338 C 330.674 45.433,330.120 45.789,329.554 46.130 C 328.103 47.004,327.667 47.369,327.667 47.706 C 327.667 48.162,362.576 48.164,362.720 47.708 C 362.844 47.318,363.385 46.431,363.542 46.361 C 363.610 46.331,363.667 46.171,363.667 46.007 C 363.667 45.842,363.779 45.614,363.917 45.500 C 364.054 45.386,364.167 45.189,364.167 45.063 C 364.167 44.937,364.242 44.833,364.333 44.833 C 364.425 44.833,364.500 44.718,364.500 44.576 C 364.500 44.435,364.650 44.158,364.833 43.962 C 365.017 43.765,365.167 43.505,365.167 43.385 C 365.167 43.265,365.242 43.167,365.333 43.167 C 365.425 43.167,365.500 43.054,365.500 42.917 C 365.500 42.779,365.575 42.667,365.667 42.667 C 365.758 42.667,365.833 42.549,365.833 42.405 C 365.833 42.261,365.946 42.030,366.083 41.893 C 366.221 41.755,366.333 41.498,366.333 41.321 C 366.333 41.145,366.408 41.000,366.500 41.000 C 366.592 41.000,366.667 40.887,366.667 40.750 C 366.667 40.612,366.742 40.500,366.833 40.500 C 366.925 40.500,367.000 40.402,367.000 40.281 C 367.000 40.161,367.150 39.902,367.333 39.705 C 367.517 39.508,367.667 39.232,367.667 39.090 C 367.667 38.949,367.742 38.833,367.833 38.833 C 367.925 38.833,368.000 38.754,368.000 38.658 C 368.000 38.561,368.188 38.206,368.417 37.869 C 368.646 37.532,368.833 37.158,368.833 37.038 C 368.833 36.918,368.983 36.658,369.167 36.462 C 369.350 36.265,369.500 36.005,369.500 35.885 C 369.500 35.765,369.575 35.667,369.667 35.667 C 369.758 35.667,369.833 35.554,369.833 35.417 C 369.833 35.279,369.908 35.167,370.000 35.167 C 370.092 35.167,370.167 35.017,370.167 34.833 C 370.167 34.650,370.231 34.500,370.310 34.500 C 370.390 34.500,370.740 33.938,371.089 33.250 C 371.438 32.562,371.786 32.000,371.862 32.000 C 371.938 32.000,372.000 31.850,372.000 31.667 C 372.000 31.483,372.075 31.333,372.167 31.333 C 372.258 31.333,372.333 31.221,372.333 31.083 C 372.333 30.946,372.408 30.833,372.500 30.833 C 372.592 30.833,372.667 30.721,372.667 30.583 C 372.667 30.446,372.742 30.333,372.833 30.333 C 372.925 30.333,373.000 30.221,373.000 30.083 C 373.000 29.946,373.075 29.833,373.167 29.833 C 373.258 29.833,373.333 29.683,373.333 29.500 C 373.333 29.317,373.408 29.167,373.500 29.167 C 373.592 29.167,373.667 29.022,373.667 28.845 C 373.667 28.668,373.779 28.411,373.917 28.274 C 374.054 28.136,374.167 27.943,374.167 27.845 C 374.167 27.747,374.242 27.667,374.333 27.667 C 374.425 27.667,374.500 27.551,374.500 27.410 C 374.500 27.268,374.650 26.992,374.833 26.795 C 375.017 26.598,375.167 26.339,375.167 26.219 C 375.167 26.098,375.242 26.000,375.333 26.000 C 375.425 26.000,375.500 25.887,375.500 25.750 C 375.500 25.613,375.575 25.500,375.667 25.500 C 375.758 25.500,375.833 25.382,375.833 25.238 C 375.833 25.094,375.946 24.864,376.083 24.726 C 376.221 24.589,376.333 24.332,376.333 24.155 C 376.333 23.978,376.408 23.833,376.500 23.833 C 376.592 23.833,376.667 23.721,376.667 23.583 C 376.667 23.446,376.742 23.333,376.833 23.333 C 376.925 23.333,377.000 23.221,377.000 23.083 C 377.000 22.946,377.075 22.833,377.167 22.833 C 377.258 22.833,377.333 22.721,377.333 22.583 C 377.333 22.446,377.408 22.333,377.500 22.333 C 377.592 22.333,377.667 22.183,377.667 22.000 C 377.667 21.817,377.742 21.667,377.833 21.667 C 377.925 21.667,378.000 21.551,378.000 21.410 C 378.000 21.268,378.155 20.987,378.345 20.785 C 378.534 20.582,378.729 20.229,378.778 20.000 C 378.826 19.771,379.164 19.321,379.527 19.000 C 379.891 18.679,380.508 18.098,380.899 17.708 C 381.290 17.319,381.666 17.000,381.735 17.000 C 381.804 17.000,382.423 16.438,383.110 15.750 C 383.798 15.063,384.431 14.500,384.517 14.500 C 384.604 14.500,385.241 13.937,385.933 13.250 C 386.625 12.563,387.250 12.000,387.323 12.000 C 387.396 12.000,388.013 11.456,388.694 10.792 C 389.376 10.127,390.199 9.382,390.524 9.137 C 390.848 8.891,391.576 8.235,392.141 7.678 C 392.707 7.122,393.205 6.667,393.250 6.667 C 393.375 6.667,394.129 6.006,395.106 5.042 C 395.594 4.560,396.035 4.167,396.086 4.167 C 396.208 4.167,396.778 3.651,398.069 2.375 C 398.648 1.802,399.169 1.333,399.226 1.333 C 399.500 1.333,400.000 0.717,400.000 0.380 C 400.000 0.004,399.820 -0.065,399.333 0.123 M158.984 18.167 C 158.766 18.625,158.531 19.000,158.461 19.000 C 158.391 19.000,158.333 19.112,158.333 19.250 C 158.333 19.387,158.258 19.500,158.167 19.500 C 158.075 19.500,158.000 19.650,158.000 19.833 C 158.000 20.017,157.925 20.167,157.833 20.167 C 157.742 20.167,157.667 20.289,157.667 20.439 C 157.667 20.588,157.530 20.832,157.363 20.980 C 157.196 21.129,156.840 21.719,156.572 22.292 C 156.303 22.865,156.027 23.333,155.959 23.333 C 155.890 23.333,155.833 23.446,155.833 23.583 C 155.833 23.721,155.758 23.833,155.667 23.833 C 155.575 23.833,155.500 23.983,155.500 24.167 C 155.500 24.350,155.425 24.500,155.333 24.500 C 155.242 24.500,155.167 24.616,155.167 24.757 C 155.167 24.898,155.017 25.175,154.833 25.372 C 154.650 25.569,154.500 25.828,154.500 25.948 C 154.500 26.068,154.444 26.168,154.375 26.169 C 154.306 26.170,154.025 26.658,153.750 27.252 C 153.475 27.847,153.194 28.333,153.125 28.333 C 153.056 28.333,153.000 28.446,153.000 28.583 C 153.000 28.721,152.925 28.833,152.833 28.833 C 152.742 28.833,152.667 28.949,152.667 29.090 C 152.667 29.232,152.517 29.508,152.333 29.705 C 152.150 29.902,152.000 30.161,152.000 30.281 C 152.000 30.402,151.940 30.500,151.868 30.500 C 151.795 30.500,151.596 30.837,151.426 31.250 C 151.256 31.662,151.053 32.000,150.975 32.000 C 150.897 32.000,150.833 32.150,150.833 32.333 C 150.833 32.517,150.758 32.667,150.667 32.667 C 150.575 32.667,150.500 32.800,150.500 32.963 C 150.500 33.126,150.350 33.368,150.167 33.500 C 149.983 33.632,149.833 33.836,149.833 33.953 C 149.833 34.071,149.758 34.167,149.667 34.167 C 149.575 34.167,149.500 34.317,149.500 34.500 C 149.500 34.683,149.442 34.833,149.371 34.833 C 149.300 34.833,149.093 35.170,148.912 35.582 C 148.731 35.993,148.527 36.331,148.458 36.332 C 148.390 36.333,148.333 36.483,148.333 36.667 C 148.333 36.850,148.258 37.000,148.167 37.000 C 148.075 37.000,148.000 37.150,148.000 37.333 C 148.000 37.517,147.925 37.667,147.833 37.667 C 147.742 37.667,147.667 37.817,147.667 38.000 C 147.667 38.183,147.592 38.333,147.500 38.333 C 147.408 38.333,147.333 38.446,147.333 38.583 C 147.333 38.797,147.798 38.833,150.512 38.833 C 153.727 38.833,154.167 38.755,154.167 38.179 C 154.167 38.080,154.242 38.000,154.333 38.000 C 154.425 38.000,154.500 37.887,154.500 37.750 C 154.500 37.612,154.575 37.500,154.667 37.500 C 154.758 37.500,154.833 37.387,154.833 37.250 C 154.833 37.112,154.908 37.000,155.000 37.000 C 155.092 37.000,155.167 36.884,155.167 36.743 C 155.167 36.602,155.298 36.343,155.458 36.168 C 155.619 35.993,155.973 35.415,156.246 34.883 C 157.004 33.405,156.678 33.500,161.002 33.500 C 164.030 33.500,164.840 33.545,164.764 33.708 C 164.711 33.823,164.621 34.048,164.564 34.208 C 164.507 34.369,164.395 34.500,164.314 34.500 C 164.233 34.500,164.167 34.650,164.167 34.833 C 164.167 35.017,164.092 35.167,164.000 35.167 C 163.908 35.167,163.833 35.311,163.833 35.488 C 163.833 35.665,163.721 35.922,163.583 36.060 C 163.446 36.197,163.333 36.390,163.333 36.488 C 163.333 36.586,163.258 36.667,163.167 36.667 C 163.075 36.667,163.000 36.817,163.000 37.000 C 163.000 37.183,162.925 37.333,162.833 37.333 C 162.742 37.333,162.667 37.483,162.667 37.667 C 162.667 37.850,162.592 38.000,162.500 38.000 C 162.408 38.000,162.333 38.188,162.333 38.417 L 162.333 38.833 165.554 38.833 C 168.941 38.833,169.500 38.696,169.500 37.864 C 169.500 37.756,169.575 37.667,169.667 37.667 C 169.758 37.667,169.833 37.554,169.833 37.417 C 169.833 37.279,169.908 37.167,170.000 37.167 C 170.092 37.167,170.167 37.054,170.167 36.917 C 170.167 36.779,170.242 36.667,170.333 36.667 C 170.425 36.667,170.500 36.517,170.500 36.333 C 170.500 36.150,170.558 36.000,170.629 36.000 C 170.700 36.000,170.907 35.663,171.088 35.252 C 171.269 34.840,171.473 34.502,171.542 34.502 C 171.610 34.501,171.667 34.350,171.667 34.167 C 171.667 33.983,171.742 33.833,171.833 33.833 C 171.925 33.833,172.000 33.683,172.000 33.500 C 172.000 33.317,172.075 33.167,172.167 33.167 C 172.258 33.167,172.333 32.754,172.333 32.250 C 172.333 31.746,172.258 31.333,172.167 31.333 C 171.787 31.333,172.039 30.898,172.542 30.686 C 173.095 30.452,174.833 28.791,174.833 28.496 C 174.833 28.407,174.897 28.333,174.974 28.333 C 175.051 28.333,175.294 27.977,175.513 27.542 C 175.733 27.106,175.958 26.712,176.014 26.667 C 176.070 26.621,176.166 26.377,176.228 26.125 C 176.289 25.873,176.413 25.667,176.503 25.667 C 176.593 25.667,176.667 25.554,176.667 25.417 C 176.667 25.279,176.742 25.167,176.833 25.167 C 176.925 25.167,177.000 25.017,177.000 24.833 C 177.000 24.650,177.075 24.500,177.167 24.500 C 177.258 24.500,177.333 24.356,177.333 24.181 C 177.333 24.005,177.390 23.836,177.458 23.806 C 177.666 23.713,178.333 22.324,178.333 21.984 C 178.333 21.810,178.408 21.667,178.500 21.667 C 178.592 21.667,178.667 21.254,178.667 20.750 C 178.667 20.246,178.592 19.833,178.500 19.833 C 178.408 19.833,178.333 19.702,178.333 19.542 C 178.333 19.152,177.614 18.333,177.272 18.333 C 177.123 18.333,177.000 18.258,177.000 18.167 C 177.000 18.075,176.850 18.000,176.667 18.000 C 176.483 18.000,176.333 17.925,176.333 17.833 C 176.333 17.742,175.925 17.667,175.427 17.667 C 174.928 17.667,174.473 17.592,174.417 17.500 C 174.350 17.393,171.645 17.333,166.846 17.333 L 159.379 17.333 158.984 18.167 M11.397 18.333 C 11.235 18.700,11.042 19.000,10.968 19.000 C 10.894 19.000,10.833 19.112,10.833 19.250 C 10.833 19.387,10.758 19.500,10.667 19.500 C 10.575 19.500,10.500 19.650,10.500 19.833 C 10.500 20.017,10.425 20.167,10.333 20.167 C 10.242 20.167,10.167 20.289,10.167 20.439 C 10.167 20.588,10.030 20.832,9.862 20.980 C 9.695 21.129,9.452 21.494,9.322 21.792 C 9.192 22.090,9.035 22.333,8.973 22.333 C 8.911 22.333,8.810 22.558,8.750 22.833 C 8.690 23.108,8.571 23.333,8.487 23.333 C 8.402 23.333,8.333 23.446,8.333 23.583 C 8.333 23.721,8.258 23.833,8.167 23.833 C 8.075 23.833,8.000 23.949,8.000 24.090 C 8.000 24.232,7.850 24.508,7.667 24.705 C 7.483 24.902,7.333 25.161,7.333 25.281 C 7.333 25.402,7.272 25.500,7.198 25.500 C 7.123 25.500,6.958 25.766,6.830 26.091 C 6.703 26.417,6.501 26.763,6.382 26.862 C 6.264 26.960,6.167 27.182,6.167 27.354 C 6.167 27.526,6.092 27.667,6.000 27.667 C 5.908 27.667,5.833 27.800,5.833 27.963 C 5.833 28.126,5.683 28.368,5.500 28.500 C 5.317 28.632,5.167 28.836,5.167 28.953 C 5.167 29.071,5.092 29.167,5.000 29.167 C 4.908 29.167,4.833 29.317,4.833 29.500 C 4.833 29.683,4.758 29.833,4.667 29.833 C 4.575 29.833,4.500 29.983,4.500 30.167 C 4.500 30.350,4.444 30.500,4.375 30.501 C 4.207 30.502,3.667 31.466,3.667 31.764 C 3.667 31.894,3.592 32.000,3.500 32.000 C 3.408 32.000,3.333 32.122,3.333 32.272 C 3.333 32.422,3.196 32.666,3.029 32.814 C 2.862 32.962,2.618 33.327,2.488 33.625 C 2.358 33.923,2.195 34.167,2.126 34.167 C 2.057 34.167,2.000 34.317,2.000 34.500 C 2.000 34.683,1.932 34.833,1.850 34.833 C 1.767 34.833,1.561 35.171,1.392 35.583 C 1.222 35.995,1.027 36.332,0.958 36.333 C 0.890 36.333,0.833 36.483,0.833 36.667 C 0.833 36.850,0.767 37.000,0.686 37.000 C 0.485 37.000,0.000 38.050,0.000 38.484 C 0.000 38.827,0.061 38.833,3.167 38.833 C 5.870 38.833,6.333 38.797,6.333 38.583 C 6.333 38.446,6.408 38.333,6.500 38.333 C 6.592 38.333,6.667 38.200,6.667 38.037 C 6.667 37.874,6.817 37.632,7.000 37.500 C 7.183 37.368,7.333 37.126,7.333 36.963 C 7.333 36.800,7.408 36.667,7.500 36.667 C 7.592 36.667,7.667 36.551,7.667 36.410 C 7.667 36.268,7.805 36.004,7.975 35.822 C 8.145 35.639,8.499 35.061,8.762 34.537 C 9.024 34.012,9.298 33.558,9.370 33.528 C 9.441 33.497,9.500 33.366,9.500 33.236 C 9.500 33.106,9.575 33.000,9.667 33.000 C 9.758 33.000,9.833 32.850,9.833 32.667 C 9.833 32.483,9.908 32.333,10.000 32.333 C 10.092 32.333,10.167 32.235,10.167 32.115 C 10.167 31.995,10.300 31.751,10.464 31.573 C 10.789 31.219,11.333 30.141,11.333 29.850 C 11.333 29.749,11.408 29.667,11.500 29.667 C 11.592 29.667,11.667 29.554,11.667 29.417 C 11.667 29.279,11.742 29.167,11.833 29.167 C 11.925 29.167,12.000 29.017,12.000 28.833 C 12.000 28.650,12.075 28.500,12.167 28.500 C 12.258 28.500,12.333 28.387,12.333 28.250 C 12.333 28.113,12.400 28.000,12.481 28.000 C 12.562 28.000,12.669 27.869,12.720 27.708 C 12.827 27.371,13.364 26.457,13.528 26.332 C 13.590 26.285,13.692 26.041,13.755 25.790 C 13.818 25.539,13.936 25.333,14.018 25.333 C 14.100 25.333,14.167 25.221,14.167 25.083 C 14.167 24.946,14.242 24.833,14.333 24.833 C 14.425 24.833,14.500 24.683,14.500 24.500 C 14.500 24.317,14.575 24.167,14.667 24.167 C 14.758 24.167,14.833 24.018,14.833 23.837 C 14.833 23.351,15.257 23.301,18.867 23.362 C 21.631 23.409,22.149 23.458,22.387 23.696 C 22.694 24.004,22.764 24.500,22.500 24.500 C 22.408 24.500,22.333 24.650,22.333 24.833 C 22.333 25.017,22.258 25.167,22.167 25.167 C 22.075 25.167,22.000 25.317,22.000 25.500 C 22.000 25.683,21.925 25.833,21.833 25.833 C 21.742 25.833,21.667 25.937,21.667 26.063 C 21.667 26.189,21.554 26.386,21.417 26.500 C 21.279 26.614,21.167 26.848,21.167 27.020 C 21.167 27.193,21.092 27.333,21.000 27.333 C 20.908 27.333,20.833 27.483,20.833 27.667 C 20.833 27.850,20.758 28.000,20.667 28.000 C 20.575 28.000,20.500 28.113,20.500 28.250 C 20.500 28.387,20.425 28.500,20.333 28.500 C 20.242 28.500,20.167 28.613,20.167 28.750 C 20.167 28.887,20.092 29.000,20.000 29.000 C 19.908 29.000,19.833 29.113,19.833 29.250 C 19.833 29.387,19.758 29.500,19.667 29.500 C 19.575 29.500,19.500 29.650,19.500 29.833 C 19.500 30.017,19.425 30.167,19.333 30.167 C 19.242 30.167,19.167 30.317,19.167 30.500 C 19.167 30.683,19.093 30.833,19.003 30.833 C 18.913 30.833,18.793 31.021,18.735 31.250 C 18.678 31.479,18.564 31.667,18.482 31.667 C 18.400 31.667,18.333 31.817,18.333 32.000 C 18.333 32.183,18.258 32.333,18.167 32.333 C 18.075 32.333,18.000 32.449,18.000 32.590 C 18.000 32.732,17.850 33.008,17.667 33.205 C 17.484 33.402,17.240 33.774,17.126 34.031 C 17.012 34.289,16.862 34.500,16.793 34.500 C 16.723 34.500,16.667 34.650,16.667 34.833 C 16.667 35.017,16.592 35.167,16.500 35.167 C 16.408 35.167,16.333 35.311,16.333 35.488 C 16.333 35.665,16.221 35.922,16.083 36.060 C 15.946 36.197,15.833 36.390,15.833 36.488 C 15.833 36.586,15.758 36.667,15.667 36.667 C 15.575 36.667,15.500 36.817,15.500 37.000 C 15.500 37.183,15.425 37.333,15.333 37.333 C 15.242 37.333,15.167 37.483,15.167 37.667 C 15.167 37.850,15.092 38.000,15.000 38.000 C 14.908 38.000,14.833 38.188,14.833 38.417 L 14.833 38.833 18.083 38.833 C 20.861 38.833,21.333 38.797,21.333 38.583 C 21.333 38.446,21.408 38.333,21.500 38.333 C 21.592 38.333,21.667 38.200,21.667 38.037 C 21.667 37.874,21.817 37.632,22.000 37.500 C 22.183 37.368,22.333 37.126,22.333 36.963 C 22.333 36.800,22.408 36.667,22.500 36.667 C 22.592 36.667,22.667 36.523,22.667 36.347 C 22.667 36.172,22.726 36.003,22.798 35.972 C 23.044 35.868,23.644 34.897,23.766 34.407 C 23.832 34.137,24.025 33.795,24.193 33.647 C 24.362 33.499,24.500 33.293,24.500 33.189 C 24.500 33.085,24.575 33.000,24.667 33.000 C 24.758 33.000,24.833 32.850,24.833 32.667 C 24.833 32.483,24.908 32.333,25.000 32.333 C 25.092 32.333,25.167 32.190,25.167 32.014 C 25.167 31.838,25.226 31.669,25.298 31.639 C 25.475 31.564,26.333 30.071,26.333 29.838 C 26.333 29.736,26.483 29.492,26.667 29.295 C 26.850 29.098,27.000 28.839,27.000 28.719 C 27.000 28.598,27.075 28.500,27.167 28.500 C 27.258 28.500,27.333 28.387,27.333 28.250 C 27.333 28.113,27.408 28.000,27.500 28.000 C 27.592 28.000,27.667 27.856,27.667 27.681 C 27.667 27.505,27.723 27.336,27.792 27.306 C 27.942 27.239,28.651 26.034,28.780 25.625 C 28.831 25.465,28.938 25.333,29.019 25.333 C 29.100 25.333,29.167 25.221,29.167 25.083 C 29.167 24.946,29.242 24.833,29.333 24.833 C 29.425 24.833,29.500 24.683,29.500 24.500 C 29.500 24.317,29.575 24.167,29.667 24.167 C 29.758 24.167,29.833 24.017,29.833 23.833 C 29.833 23.650,29.908 23.500,30.000 23.500 C 30.092 23.500,30.167 23.387,30.167 23.250 C 30.167 23.113,30.242 23.000,30.333 23.000 C 30.425 23.000,30.500 22.854,30.500 22.677 C 30.500 22.499,30.575 22.307,30.667 22.250 C 30.999 22.045,30.868 19.431,30.508 19.073 C 29.932 18.501,29.686 18.333,29.424 18.333 C 29.282 18.333,29.167 18.258,29.167 18.167 C 29.167 18.075,28.904 18.000,28.583 18.000 C 28.262 18.000,28.000 17.925,28.000 17.833 C 28.000 17.724,25.171 17.667,19.845 17.667 L 11.691 17.667 11.397 18.333 M34.375 17.916 C 34.260 18.046,34.167 18.268,34.167 18.410 C 34.167 18.551,34.093 18.667,34.003 18.667 C 33.913 18.667,33.793 18.854,33.735 19.083 C 33.678 19.313,33.564 19.500,33.482 19.500 C 33.400 19.500,33.333 19.650,33.333 19.833 C 33.333 20.017,33.258 20.167,33.167 20.167 C 33.075 20.167,33.000 20.300,33.000 20.463 C 33.000 20.626,32.850 20.868,32.667 21.000 C 32.483 21.132,32.333 21.336,32.333 21.453 C 32.333 21.571,32.258 21.667,32.167 21.667 C 32.075 21.667,32.000 21.817,32.000 22.000 C 32.000 22.183,31.942 22.333,31.871 22.333 C 31.800 22.333,31.593 22.670,31.412 23.082 C 31.231 23.493,31.027 23.831,30.958 23.832 C 30.890 23.833,30.833 23.983,30.833 24.167 C 30.833 24.350,30.758 24.500,30.667 24.500 C 30.575 24.500,30.500 24.598,30.500 24.719 C 30.500 24.839,30.350 25.098,30.167 25.295 C 29.983 25.492,29.833 25.768,29.833 25.910 C 29.833 26.051,29.758 26.167,29.667 26.167 C 29.575 26.167,29.500 26.273,29.500 26.403 C 29.500 26.533,29.444 26.664,29.375 26.694 C 29.178 26.782,28.667 27.773,28.667 28.067 C 28.667 28.214,28.592 28.333,28.500 28.333 C 28.408 28.333,28.333 28.446,28.333 28.583 C 28.333 28.721,28.258 28.833,28.167 28.833 C 28.075 28.833,28.000 28.932,28.000 29.052 C 28.000 29.172,27.850 29.431,27.667 29.628 C 27.483 29.825,27.333 30.102,27.333 30.243 C 27.333 30.384,27.258 30.500,27.167 30.500 C 27.075 30.500,27.000 30.579,27.000 30.676 C 27.000 30.772,26.813 31.127,26.583 31.464 C 26.354 31.801,26.167 32.210,26.167 32.372 C 26.167 32.534,26.092 32.667,26.000 32.667 C 25.908 32.667,25.833 32.782,25.833 32.924 C 25.833 33.065,25.683 33.342,25.500 33.538 C 25.317 33.735,25.074 34.107,24.959 34.365 C 24.845 34.622,24.695 34.833,24.626 34.833 C 24.557 34.833,24.500 34.983,24.500 35.167 C 24.500 35.350,24.425 35.500,24.333 35.500 C 24.242 35.500,24.167 35.603,24.167 35.730 C 24.167 35.856,24.054 36.053,23.917 36.167 C 23.779 36.281,23.667 36.515,23.667 36.687 C 23.667 36.859,23.592 37.000,23.500 37.000 C 23.408 37.000,23.333 37.150,23.333 37.333 C 23.333 37.517,23.277 37.667,23.208 37.668 C 23.081 37.669,22.667 38.458,22.667 38.700 C 22.667 38.903,86.791 38.869,86.917 38.667 C 86.973 38.575,87.293 38.500,87.627 38.500 C 88.324 38.500,90.167 37.990,90.167 37.796 C 90.167 37.725,90.317 37.667,90.500 37.667 C 90.683 37.667,90.833 37.592,90.833 37.500 C 90.833 37.408,90.946 37.333,91.083 37.333 C 91.221 37.333,91.333 37.258,91.333 37.167 C 91.333 37.075,91.443 37.000,91.577 37.000 C 91.912 37.000,94.167 34.765,94.167 34.434 C 94.167 34.287,94.242 34.167,94.333 34.167 C 94.425 34.167,94.500 34.017,94.500 33.833 C 94.500 33.650,94.575 33.500,94.667 33.500 C 94.758 33.500,94.833 33.422,94.833 33.326 C 94.833 33.231,94.983 32.992,95.167 32.795 C 95.350 32.598,95.500 32.339,95.500 32.219 C 95.500 32.098,95.575 32.000,95.667 32.000 C 95.758 32.000,95.833 31.850,95.833 31.667 C 95.833 31.483,95.907 31.333,95.997 31.333 C 96.087 31.333,96.207 31.146,96.265 30.917 C 96.322 30.688,96.436 30.500,96.518 30.500 C 96.600 30.500,96.667 30.350,96.667 30.167 C 96.667 29.983,96.742 29.833,96.833 29.833 C 96.925 29.833,97.000 29.711,97.000 29.561 C 97.000 29.412,97.132 29.168,97.293 29.020 C 97.454 28.871,97.697 28.525,97.834 28.250 C 97.971 27.975,98.120 27.712,98.166 27.667 C 98.382 27.452,98.833 26.504,98.833 26.266 C 98.833 26.120,98.908 26.000,99.000 26.000 C 99.092 26.000,99.167 25.922,99.167 25.826 C 99.167 25.731,99.317 25.492,99.500 25.295 C 99.683 25.098,99.833 24.839,99.833 24.719 C 99.833 24.598,99.908 24.500,100.000 24.500 C 100.092 24.500,100.167 24.356,100.167 24.181 C 100.167 24.005,100.223 23.836,100.292 23.806 C 101.588 23.229,101.606 19.437,100.316 18.573 C 100.051 18.395,99.834 18.194,99.834 18.125 C 99.834 18.056,99.608 18.000,99.333 18.000 C 99.058 18.000,98.833 17.925,98.833 17.833 C 98.833 17.540,34.634 17.622,34.375 17.916 M112.715 18.000 C 112.667 18.183,112.576 18.333,112.512 18.333 C 112.448 18.333,112.293 18.596,112.167 18.917 C 112.041 19.237,111.890 19.500,111.831 19.500 C 111.773 19.500,111.523 19.937,111.277 20.471 C 111.030 21.005,110.680 21.602,110.498 21.798 C 110.316 21.993,110.167 22.268,110.167 22.410 C 110.167 22.551,110.092 22.667,110.000 22.667 C 109.908 22.667,109.833 22.817,109.833 23.000 C 109.833 23.183,109.770 23.333,109.693 23.333 C 109.519 23.333,108.667 24.878,108.667 25.194 C 108.667 25.322,108.517 25.535,108.333 25.667 C 108.150 25.799,108.000 26.003,108.000 26.120 C 108.000 26.237,107.925 26.333,107.833 26.333 C 107.742 26.333,107.667 26.483,107.667 26.667 C 107.667 26.850,107.592 27.000,107.500 27.000 C 107.408 27.000,107.333 27.080,107.333 27.178 C 107.333 27.276,107.113 27.677,106.843 28.069 C 106.573 28.461,106.303 28.981,106.242 29.224 C 106.180 29.468,106.064 29.667,105.982 29.667 C 105.900 29.667,105.833 29.779,105.833 29.917 C 105.833 30.054,105.758 30.167,105.667 30.167 C 105.575 30.167,105.500 30.317,105.500 30.500 C 105.500 30.683,105.425 30.833,105.333 30.833 C 105.242 30.833,105.167 30.911,105.167 31.007 C 105.167 31.102,105.017 31.342,104.833 31.538 C 104.650 31.735,104.500 31.995,104.500 32.115 C 104.500 32.235,104.425 32.333,104.333 32.333 C 104.242 32.333,104.167 32.483,104.167 32.667 C 104.167 32.850,104.110 33.001,104.042 33.002 C 103.973 33.002,103.769 33.340,103.588 33.752 C 103.407 34.163,103.200 34.500,103.129 34.500 C 103.058 34.500,103.000 34.650,103.000 34.833 C 103.000 35.017,102.934 35.167,102.854 35.167 C 102.773 35.167,102.614 35.392,102.500 35.667 C 102.386 35.942,102.227 36.167,102.146 36.167 C 102.066 36.167,102.000 36.279,102.000 36.417 C 102.000 36.554,101.925 36.667,101.833 36.667 C 101.742 36.667,101.667 36.785,101.667 36.929 C 101.667 37.073,101.554 37.303,101.417 37.440 C 101.279 37.578,101.167 37.948,101.167 38.262 L 101.167 38.833 104.417 38.833 C 106.204 38.833,107.667 38.767,107.667 38.687 C 107.667 38.606,107.929 38.104,108.250 37.572 C 108.571 37.039,108.833 36.484,108.833 36.338 C 108.833 36.193,108.983 35.965,109.167 35.833 C 109.350 35.701,109.500 35.497,109.500 35.380 C 109.500 35.263,109.575 35.167,109.667 35.167 C 109.758 35.167,109.833 35.017,109.833 34.833 C 109.833 34.650,109.908 34.500,110.000 34.500 C 110.092 34.500,110.167 34.356,110.167 34.181 C 110.167 34.005,110.226 33.836,110.298 33.806 C 110.530 33.707,111.141 32.742,111.253 32.298 C 111.312 32.061,111.486 31.724,111.639 31.549 C 111.792 31.375,112.000 31.086,112.101 30.908 C 112.263 30.622,112.532 30.573,114.351 30.495 C 116.364 30.409,117.000 30.286,117.000 29.982 C 117.000 29.900,117.150 29.833,117.333 29.833 C 117.517 29.833,117.667 29.777,117.667 29.707 C 117.667 29.638,117.878 29.488,118.135 29.374 C 118.393 29.260,118.765 29.016,118.962 28.833 C 119.158 28.650,119.406 28.500,119.512 28.500 C 119.800 28.500,121.333 27.636,121.333 27.474 C 121.333 27.396,121.483 27.333,121.667 27.333 C 121.850 27.333,122.000 27.258,122.000 27.167 C 122.000 27.075,122.118 27.000,122.262 27.000 C 122.630 27.000,123.000 26.588,123.000 26.179 C 123.000 25.839,122.934 25.833,119.069 25.833 C 116.908 25.833,115.164 25.777,115.194 25.708 C 115.225 25.640,115.498 25.077,115.800 24.458 L 116.350 23.333 122.501 23.333 C 128.470 23.333,129.500 23.256,129.500 22.807 C 129.500 22.730,129.598 22.667,129.719 22.667 C 129.839 22.667,130.098 22.517,130.295 22.333 C 130.492 22.150,130.768 22.000,130.910 22.000 C 131.051 22.000,131.167 21.925,131.167 21.833 C 131.167 21.742,131.273 21.667,131.403 21.667 C 131.533 21.667,131.664 21.608,131.694 21.536 C 131.725 21.465,132.179 21.191,132.704 20.928 C 133.228 20.665,133.806 20.311,133.988 20.142 C 134.170 19.972,134.435 19.833,134.576 19.833 C 134.718 19.833,134.833 19.758,134.833 19.667 C 134.833 19.575,134.967 19.500,135.130 19.500 C 135.293 19.500,135.535 19.350,135.667 19.167 C 135.799 18.983,136.003 18.833,136.120 18.833 C 136.237 18.833,136.333 18.758,136.333 18.667 C 136.333 18.575,136.443 18.500,136.577 18.500 C 136.849 18.500,137.215 17.937,137.050 17.772 C 136.721 17.443,112.802 17.667,112.715 18.000 M140.167 17.833 C 140.167 17.925,139.904 18.000,139.583 18.000 C 139.262 18.000,139.000 18.075,139.000 18.167 C 139.000 18.258,138.869 18.334,138.708 18.334 C 138.548 18.335,138.202 18.447,137.939 18.584 C 137.677 18.721,137.358 18.833,137.231 18.833 C 137.104 18.833,137.000 18.908,137.000 19.000 C 137.000 19.092,136.924 19.167,136.832 19.167 C 136.739 19.167,136.428 19.392,136.140 19.667 C 135.853 19.942,135.547 20.167,135.460 20.167 C 135.236 20.167,133.667 21.825,133.667 22.062 C 133.667 22.171,133.517 22.368,133.333 22.500 C 133.150 22.632,133.000 22.874,133.000 23.037 C 133.000 23.200,132.925 23.333,132.833 23.333 C 132.742 23.333,132.667 23.411,132.667 23.507 C 132.667 23.602,132.517 23.842,132.333 24.038 C 132.150 24.235,132.000 24.495,132.000 24.615 C 132.000 24.735,131.942 24.833,131.871 24.833 C 131.800 24.833,131.593 25.170,131.412 25.582 C 131.231 25.993,131.027 26.331,130.958 26.332 C 130.890 26.333,130.833 26.467,130.833 26.630 C 130.833 26.793,130.683 27.035,130.500 27.167 C 130.317 27.299,130.167 27.540,130.167 27.703 C 130.167 27.867,130.106 28.000,130.031 28.000 C 129.957 28.000,129.793 28.262,129.667 28.583 C 129.541 28.904,129.391 29.167,129.333 29.167 C 129.201 29.167,128.667 30.275,128.667 30.549 C 128.667 30.661,128.517 30.847,128.333 30.961 C 128.150 31.076,128.000 31.281,128.000 31.418 C 128.000 31.555,127.925 31.667,127.833 31.667 C 127.742 31.667,127.667 31.817,127.667 32.000 C 127.667 32.183,127.592 32.333,127.500 32.333 C 127.408 32.333,127.333 32.477,127.333 32.653 C 127.333 32.828,127.274 32.997,127.200 33.028 C 126.943 33.135,126.312 34.716,126.222 35.478 C 126.040 37.017,126.878 38.500,127.929 38.500 C 128.152 38.500,128.333 38.575,128.333 38.667 C 128.333 38.775,130.611 38.833,134.833 38.833 C 138.443 38.833,141.333 38.768,141.333 38.687 C 141.333 38.607,141.728 38.509,142.211 38.468 C 143.086 38.396,144.833 37.731,144.833 37.470 C 144.833 37.395,144.953 37.333,145.100 37.333 C 145.246 37.333,145.576 37.108,145.833 36.833 C 146.090 36.558,146.348 36.333,146.406 36.333 C 146.546 36.333,147.667 35.208,147.667 35.067 C 147.667 35.006,147.799 34.834,147.961 34.686 C 148.122 34.538,148.404 34.117,148.586 33.750 C 148.768 33.383,148.973 33.058,149.042 33.028 C 149.110 32.997,149.167 32.866,149.167 32.736 C 149.167 32.606,149.242 32.500,149.333 32.500 C 149.425 32.500,149.500 32.387,149.500 32.250 C 149.500 32.112,149.575 32.000,149.667 32.000 C 149.758 32.000,149.833 31.850,149.833 31.667 C 149.833 31.483,149.894 31.333,149.969 31.333 C 150.043 31.333,150.207 31.071,150.333 30.750 C 150.459 30.429,150.609 30.167,150.667 30.167 C 150.809 30.167,151.333 29.048,151.333 28.744 C 151.333 28.610,151.408 28.500,151.500 28.500 C 151.592 28.500,151.667 28.422,151.667 28.326 C 151.667 28.231,151.817 27.992,152.000 27.795 C 152.183 27.598,152.333 27.339,152.333 27.219 C 152.333 27.098,152.408 27.000,152.500 27.000 C 152.592 27.000,152.667 26.850,152.667 26.667 C 152.667 26.483,152.742 26.333,152.833 26.333 C 152.925 26.333,153.000 26.262,153.000 26.174 C 153.000 26.086,153.188 25.739,153.417 25.401 C 153.646 25.063,153.833 24.647,153.833 24.477 C 153.833 24.306,153.908 24.167,154.000 24.167 C 154.092 24.167,154.167 24.017,154.167 23.833 C 154.167 23.650,154.242 23.500,154.333 23.500 C 154.425 23.500,154.500 23.387,154.500 23.250 C 154.500 23.113,154.575 23.000,154.667 23.000 C 154.758 23.000,154.833 22.856,154.833 22.681 C 154.833 22.505,154.911 22.335,155.006 22.304 C 155.241 22.225,155.247 19.610,155.013 19.532 C 154.914 19.499,154.833 19.334,154.833 19.164 C 154.833 18.994,154.683 18.808,154.500 18.750 C 154.317 18.692,154.167 18.574,154.167 18.489 C 154.167 18.403,154.054 18.333,153.917 18.333 C 153.779 18.333,153.667 18.258,153.667 18.167 C 153.667 18.075,153.521 18.000,153.343 18.000 C 153.165 18.000,152.973 17.925,152.917 17.833 C 152.851 17.727,150.526 17.667,146.490 17.667 C 142.386 17.667,140.167 17.725,140.167 17.833 M194.500 17.833 C 194.500 17.925,194.162 18.000,193.750 18.000 C 193.338 18.000,193.000 18.075,193.000 18.167 C 193.000 18.258,192.853 18.333,192.672 18.333 C 192.270 18.333,191.167 18.844,191.167 19.031 C 191.167 19.106,191.033 19.167,190.870 19.167 C 190.707 19.167,190.465 19.317,190.333 19.500 C 190.201 19.683,190.012 19.833,189.913 19.833 C 189.707 19.833,188.667 20.863,188.667 21.066 C 188.667 21.140,188.442 21.410,188.167 21.667 C 187.892 21.924,187.667 22.226,187.667 22.339 C 187.667 22.452,187.535 22.666,187.374 22.814 C 186.965 23.190,186.167 24.393,186.167 24.634 C 186.167 24.744,186.092 24.833,186.000 24.833 C 185.908 24.833,185.833 24.977,185.833 25.153 C 185.833 25.328,185.777 25.497,185.708 25.528 C 185.065 25.814,184.591 28.236,185.021 29.040 C 185.827 30.544,186.503 30.699,192.625 30.781 C 195.215 30.815,197.333 30.902,197.333 30.974 C 197.333 31.278,196.103 32.333,195.748 32.333 C 195.612 32.333,195.500 32.408,195.500 32.500 C 195.500 32.592,195.350 32.667,195.167 32.667 C 194.983 32.667,194.833 32.742,194.833 32.833 C 194.833 32.940,193.417 33.000,190.917 33.000 C 188.762 33.000,186.999 33.056,186.998 33.125 C 186.998 33.194,186.660 33.398,186.248 33.579 C 185.837 33.760,185.500 33.966,185.500 34.037 C 185.500 34.108,185.350 34.167,185.167 34.167 C 184.983 34.167,184.833 34.242,184.833 34.333 C 184.833 34.425,184.721 34.500,184.583 34.500 C 184.446 34.500,184.333 34.575,184.333 34.667 C 184.333 34.758,184.221 34.833,184.083 34.833 C 183.946 34.833,183.833 34.908,183.833 35.000 C 183.833 35.092,183.721 35.167,183.583 35.167 C 183.446 35.167,183.333 35.242,183.333 35.333 C 183.333 35.425,183.183 35.500,183.000 35.500 C 182.817 35.500,182.667 35.561,182.667 35.635 C 182.667 35.709,182.350 35.909,181.962 36.080 C 181.575 36.251,181.111 36.528,180.931 36.695 C 180.751 36.863,180.505 37.000,180.385 37.000 C 180.265 37.000,180.167 37.075,180.167 37.167 C 180.167 37.258,180.017 37.333,179.833 37.333 C 179.650 37.333,179.500 37.408,179.500 37.500 C 179.500 37.592,179.420 37.667,179.321 37.667 C 179.027 37.667,178.667 38.119,178.667 38.488 C 178.667 38.859,195.011 39.054,195.238 38.686 C 195.288 38.605,195.754 38.486,196.275 38.421 C 196.795 38.356,197.340 38.243,197.485 38.171 C 197.631 38.098,197.975 37.937,198.250 37.812 C 198.525 37.688,198.871 37.454,199.020 37.293 C 199.168 37.132,199.382 37.000,199.496 37.000 C 199.739 37.000,202.333 34.395,202.333 34.151 C 202.333 34.060,202.471 33.838,202.640 33.657 C 202.809 33.476,203.052 33.123,203.182 32.872 C 203.311 32.622,203.510 32.318,203.625 32.196 C 203.740 32.075,203.833 31.838,203.833 31.669 C 203.833 31.500,203.890 31.336,203.958 31.306 C 205.270 30.723,205.052 27.181,203.667 26.565 C 202.506 26.049,201.932 26.000,197.025 26.000 L 191.991 26.000 192.741 25.250 C 193.154 24.837,193.552 24.500,193.625 24.500 C 193.699 24.500,193.868 24.350,194.000 24.167 C 194.132 23.983,194.367 23.833,194.523 23.833 C 194.678 23.833,194.837 23.740,194.875 23.625 C 194.928 23.466,196.221 23.403,200.376 23.358 C 205.434 23.303,205.830 23.278,206.146 22.983 C 206.333 22.809,206.602 22.667,206.743 22.667 C 206.884 22.667,207.000 22.592,207.000 22.500 C 207.000 22.408,207.098 22.333,207.219 22.333 C 207.339 22.333,207.583 22.202,207.760 22.042 C 207.938 21.881,208.308 21.637,208.583 21.500 C 208.858 21.363,209.182 21.156,209.304 21.042 C 209.425 20.927,209.617 20.833,209.730 20.833 C 209.844 20.833,210.083 20.702,210.260 20.542 C 210.438 20.381,210.808 20.138,211.083 20.001 C 211.358 19.864,211.705 19.621,211.853 19.459 C 212.203 19.079,212.333 19.090,212.333 19.500 C 212.333 19.683,212.269 19.833,212.190 19.833 C 212.110 19.833,211.760 20.396,211.411 21.083 C 211.062 21.771,210.714 22.333,210.638 22.333 C 210.562 22.333,210.500 22.483,210.500 22.667 C 210.500 22.850,210.425 23.000,210.333 23.000 C 210.242 23.000,210.167 23.080,210.167 23.178 C 210.167 23.276,209.942 23.684,209.667 24.083 C 209.392 24.483,209.167 24.890,209.167 24.988 C 209.167 25.086,209.092 25.167,209.000 25.167 C 208.908 25.167,208.833 25.311,208.833 25.488 C 208.833 25.665,208.721 25.922,208.583 26.060 C 208.446 26.197,208.333 26.390,208.333 26.488 C 208.333 26.586,208.258 26.667,208.167 26.667 C 208.075 26.667,208.000 26.782,208.000 26.924 C 208.000 27.065,207.850 27.342,207.667 27.538 C 207.483 27.735,207.333 27.995,207.333 28.115 C 207.333 28.235,207.277 28.333,207.207 28.333 C 207.138 28.333,206.974 28.577,206.843 28.875 C 206.711 29.173,206.505 29.516,206.385 29.637 C 206.265 29.758,206.167 30.002,206.167 30.179 C 206.167 30.355,206.092 30.500,206.000 30.500 C 205.908 30.500,205.833 30.613,205.833 30.750 C 205.833 30.887,205.758 31.000,205.667 31.000 C 205.575 31.000,205.500 31.113,205.500 31.250 C 205.500 31.387,205.425 31.500,205.333 31.500 C 205.242 31.500,205.167 31.613,205.167 31.750 C 205.167 31.887,205.092 32.000,205.000 32.000 C 204.908 32.000,204.833 32.150,204.833 32.333 C 204.833 32.517,204.758 32.667,204.667 32.667 C 204.575 32.667,204.500 32.782,204.500 32.924 C 204.500 33.065,204.347 33.345,204.160 33.545 C 203.973 33.746,203.774 34.097,203.716 34.324 C 203.659 34.552,203.475 34.887,203.306 35.068 C 203.138 35.248,203.000 35.495,203.000 35.615 C 203.000 35.735,202.925 35.833,202.833 35.833 C 202.742 35.833,202.667 35.946,202.667 36.083 C 202.667 36.221,202.592 36.333,202.500 36.333 C 202.408 36.333,202.333 36.483,202.333 36.667 C 202.333 36.850,202.272 37.000,202.198 37.000 C 202.027 37.000,201.333 38.284,201.333 38.599 C 201.333 38.948,207.746 38.944,208.095 38.595 C 208.226 38.464,208.333 38.286,208.333 38.199 C 208.333 38.112,208.446 37.947,208.583 37.833 C 208.721 37.719,208.833 37.485,208.833 37.313 C 208.833 37.141,208.908 37.000,209.000 37.000 C 209.092 37.000,209.167 36.850,209.167 36.667 C 209.167 36.483,209.242 36.333,209.333 36.333 C 209.425 36.333,209.500 36.255,209.500 36.160 C 209.500 36.064,209.650 35.825,209.833 35.628 C 210.017 35.431,210.167 35.172,210.167 35.052 C 210.167 34.932,210.242 34.833,210.333 34.833 C 210.425 34.833,210.500 34.683,210.500 34.500 C 210.500 34.317,210.575 34.167,210.667 34.167 C 210.758 34.167,210.833 34.022,210.833 33.845 C 210.833 33.533,211.033 33.521,216.909 33.470 C 221.488 33.430,223.035 33.365,223.192 33.208 C 223.306 33.094,223.572 33.000,223.783 33.000 C 223.994 33.000,224.167 32.925,224.167 32.833 C 224.167 32.742,224.317 32.667,224.500 32.667 C 224.683 32.667,224.833 32.592,224.833 32.500 C 224.833 32.408,224.967 32.333,225.130 32.333 C 225.293 32.333,225.535 32.183,225.667 32.000 C 225.799 31.817,225.962 31.667,226.029 31.667 C 226.203 31.667,228.000 29.954,228.000 29.789 C 228.000 29.713,228.188 29.464,228.417 29.235 C 228.646 29.006,228.833 28.743,228.833 28.652 C 228.833 28.561,228.983 28.325,229.167 28.128 C 229.350 27.931,229.500 27.672,229.500 27.552 C 229.500 27.432,229.575 27.333,229.667 27.333 C 229.758 27.333,229.833 27.183,229.833 27.000 C 229.833 26.817,229.908 26.667,230.000 26.667 C 230.092 26.667,230.167 26.551,230.167 26.410 C 230.167 26.268,230.313 25.996,230.492 25.804 C 230.881 25.386,231.333 24.470,231.333 24.100 C 231.333 23.953,231.408 23.833,231.500 23.833 C 231.592 23.833,231.667 23.721,231.667 23.583 C 231.667 23.446,231.742 23.333,231.833 23.333 C 231.925 23.333,232.000 23.183,232.000 23.000 C 232.000 22.817,232.075 22.667,232.167 22.667 C 232.258 22.667,232.333 22.484,232.333 22.260 C 232.333 22.036,232.408 21.807,232.500 21.750 C 232.592 21.693,232.667 21.239,232.667 20.740 C 232.667 20.241,232.592 19.833,232.500 19.833 C 232.408 19.833,232.333 19.715,232.333 19.571 C 232.333 19.275,232.171 19.097,231.318 18.452 C 230.988 18.204,230.594 18.000,230.443 18.000 C 230.291 18.000,230.167 17.925,230.167 17.833 C 230.167 17.723,224.111 17.667,212.333 17.667 C 200.556 17.667,194.500 17.723,194.500 17.833 M235.875 18.088 C 235.669 18.308,235.500 18.566,235.500 18.661 C 235.500 18.756,235.425 18.833,235.333 18.833 C 235.242 18.833,235.167 18.932,235.167 19.052 C 235.167 19.172,235.017 19.431,234.833 19.628 C 234.650 19.825,234.500 20.102,234.500 20.243 C 234.500 20.384,234.440 20.500,234.368 20.500 C 234.295 20.500,234.096 20.837,233.926 21.250 C 233.756 21.662,233.553 22.000,233.475 22.000 C 233.397 22.000,233.333 22.150,233.333 22.333 C 233.333 22.517,233.258 22.667,233.167 22.667 C 233.075 22.667,233.000 22.817,233.000 23.000 C 233.000 23.183,232.925 23.333,232.833 23.333 C 232.742 23.333,232.667 23.411,232.667 23.507 C 232.667 23.602,232.517 23.842,232.333 24.038 C 232.150 24.235,232.000 24.495,232.000 24.615 C 232.000 24.735,231.925 24.833,231.833 24.833 C 231.742 24.833,231.667 24.983,231.667 25.167 C 231.667 25.350,231.598 25.500,231.513 25.500 C 231.429 25.500,231.310 25.725,231.250 26.000 C 231.190 26.275,231.071 26.500,230.987 26.500 C 230.902 26.500,230.833 26.613,230.833 26.750 C 230.833 26.887,230.758 27.000,230.667 27.000 C 230.575 27.000,230.500 27.150,230.500 27.333 C 230.500 27.517,230.425 27.667,230.333 27.667 C 230.242 27.667,230.167 27.817,230.167 28.000 C 230.167 28.183,230.092 28.333,230.000 28.333 C 229.908 28.333,229.833 28.446,229.833 28.583 C 229.833 28.721,229.777 28.835,229.708 28.836 C 229.640 28.838,229.358 29.306,229.083 29.878 C 228.808 30.449,228.546 30.954,228.500 31.000 C 228.454 31.046,228.310 31.290,228.180 31.542 C 228.050 31.794,227.881 32.000,227.805 32.000 C 227.729 32.000,227.667 32.150,227.667 32.333 C 227.667 32.517,227.592 32.667,227.500 32.667 C 227.408 32.667,227.333 32.817,227.333 33.000 C 227.333 33.183,227.258 33.333,227.167 33.333 C 227.075 33.333,227.000 33.440,227.000 33.569 C 227.000 33.699,226.944 33.831,226.875 33.861 C 226.678 33.949,226.167 34.940,226.167 35.234 C 226.167 35.380,226.092 35.500,226.000 35.500 C 225.908 35.500,225.833 35.612,225.833 35.750 C 225.833 35.887,225.758 36.000,225.667 36.000 C 225.575 36.000,225.500 36.116,225.500 36.257 C 225.500 36.398,225.350 36.675,225.167 36.872 C 224.983 37.069,224.833 37.328,224.833 37.448 C 224.833 37.568,224.758 37.667,224.667 37.667 C 224.575 37.667,224.500 37.929,224.500 38.250 L 224.500 38.833 256.417 38.833 C 273.974 38.833,288.333 38.769,288.333 38.691 C 288.333 38.612,288.870 38.503,289.526 38.448 C 290.182 38.393,290.797 38.270,290.892 38.174 C 290.988 38.078,291.202 38.000,291.367 38.000 C 291.532 38.000,291.667 37.925,291.667 37.833 C 291.667 37.742,291.817 37.667,292.000 37.667 C 292.183 37.667,292.333 37.592,292.333 37.500 C 292.333 37.408,292.467 37.333,292.630 37.333 C 292.793 37.333,293.035 37.183,293.167 37.000 C 293.299 36.817,293.469 36.667,293.544 36.667 C 293.620 36.667,293.858 36.498,294.073 36.292 C 294.288 36.085,294.697 35.704,294.982 35.444 C 295.267 35.184,295.500 34.866,295.500 34.736 C 295.500 34.606,295.564 34.500,295.641 34.500 C 295.719 34.500,295.923 34.181,296.095 33.792 C 296.267 33.402,296.447 33.046,296.496 33.000 C 296.544 32.954,296.690 32.710,296.820 32.458 C 296.950 32.206,297.119 32.000,297.195 32.000 C 297.271 32.000,297.333 31.850,297.333 31.667 C 297.333 31.483,297.408 31.333,297.500 31.333 C 297.592 31.333,297.667 31.267,297.667 31.187 C 297.667 31.106,297.929 30.604,298.250 30.072 C 298.571 29.539,298.833 28.984,298.833 28.838 C 298.833 28.693,298.983 28.465,299.167 28.333 C 299.350 28.201,299.500 27.997,299.500 27.880 C 299.500 27.763,299.575 27.667,299.667 27.667 C 299.758 27.667,299.833 27.517,299.833 27.333 C 299.833 27.150,299.899 27.000,299.980 27.000 C 300.060 27.000,300.219 26.775,300.333 26.500 C 300.447 26.225,300.591 26.000,300.653 26.000 C 300.714 26.000,300.904 25.663,301.074 25.250 C 301.244 24.837,301.447 24.500,301.525 24.500 C 301.603 24.500,301.667 24.356,301.667 24.181 C 301.667 24.005,301.723 23.836,301.792 23.806 C 301.999 23.713,302.667 22.324,302.667 21.984 C 302.667 21.810,302.742 21.667,302.833 21.667 C 302.925 21.667,303.000 21.254,303.000 20.750 C 303.000 20.246,302.925 19.833,302.833 19.833 C 302.742 19.833,302.667 19.712,302.667 19.564 C 302.667 19.261,301.697 18.340,301.375 18.336 C 301.260 18.335,301.167 18.258,301.167 18.167 C 301.167 18.075,301.017 18.000,300.833 18.000 C 300.650 18.000,300.500 17.925,300.500 17.833 C 300.500 17.723,289.687 17.670,268.375 17.677 L 236.250 17.687 235.875 18.088 M57.000 19.580 C 57.000 19.817,56.040 21.623,55.792 21.853 C 55.631 22.001,55.500 22.245,55.500 22.395 C 55.500 22.544,55.425 22.667,55.333 22.667 C 55.242 22.667,55.167 22.817,55.167 23.000 C 55.167 23.183,55.092 23.333,55.000 23.333 C 54.908 23.333,54.833 23.446,54.833 23.583 C 54.833 23.721,54.774 23.833,54.701 23.833 C 54.574 23.833,53.667 25.498,53.667 25.732 C 53.667 25.795,53.517 26.008,53.333 26.205 C 53.150 26.402,53.000 26.661,53.000 26.781 C 53.000 26.902,52.925 27.000,52.833 27.000 C 52.742 27.000,52.667 27.150,52.667 27.333 C 52.667 27.517,52.592 27.667,52.500 27.667 C 52.408 27.667,52.333 27.810,52.333 27.986 C 52.333 28.162,52.274 28.331,52.202 28.361 C 51.956 28.466,51.356 29.437,51.234 29.927 C 51.168 30.196,50.975 30.538,50.807 30.686 C 50.638 30.834,50.500 31.041,50.500 31.145 C 50.500 31.248,50.425 31.333,50.333 31.333 C 50.242 31.333,50.167 31.483,50.167 31.667 C 50.167 31.850,50.092 32.000,50.000 32.000 C 49.908 32.000,49.833 32.150,49.833 32.333 C 49.833 32.517,49.763 32.667,49.678 32.667 C 49.592 32.667,49.475 32.817,49.417 33.000 C 49.313 33.328,49.164 33.333,40.921 33.333 C 32.613 33.333,32.532 33.330,32.618 33.000 C 32.666 32.817,32.772 32.667,32.853 32.667 C 32.934 32.667,33.000 32.517,33.000 32.333 C 33.000 32.150,33.061 32.000,33.136 32.000 C 33.210 32.000,33.397 31.738,33.550 31.417 L 33.828 30.833 35.683 30.833 C 37.502 30.833,38.833 30.468,38.833 29.969 C 38.833 29.895,38.983 29.833,39.167 29.833 C 39.350 29.833,39.500 29.758,39.500 29.667 C 39.500 29.575,39.650 29.500,39.833 29.500 C 40.017 29.500,40.167 29.438,40.167 29.361 C 40.167 29.285,40.373 29.117,40.625 28.987 C 40.877 28.857,41.121 28.713,41.167 28.667 C 41.212 28.621,41.718 28.358,42.289 28.083 C 42.860 27.808,43.329 27.527,43.331 27.458 C 43.332 27.390,43.446 27.333,43.583 27.333 C 43.721 27.333,43.833 27.258,43.833 27.167 C 43.833 27.075,43.951 27.000,44.095 27.000 C 44.385 27.000,44.833 26.614,44.833 26.363 C 44.833 26.049,44.261 26.000,40.445 25.987 C 38.321 25.980,36.677 25.936,36.792 25.890 C 36.906 25.843,37.000 25.662,37.000 25.486 C 37.000 25.310,37.075 25.167,37.167 25.167 C 37.258 25.167,37.333 25.068,37.333 24.948 C 37.333 24.828,37.483 24.569,37.667 24.372 C 37.850 24.175,38.000 23.898,38.000 23.757 C 38.000 23.530,38.728 23.500,44.230 23.500 C 49.564 23.500,50.489 23.464,50.667 23.250 C 50.781 23.113,50.977 23.000,51.104 23.000 C 51.230 23.000,51.333 22.925,51.333 22.833 C 51.333 22.742,51.449 22.667,51.590 22.667 C 51.732 22.667,52.008 22.517,52.205 22.333 C 52.402 22.150,52.661 22.000,52.781 22.000 C 52.902 22.000,53.000 21.939,53.000 21.864 C 53.000 21.790,53.262 21.626,53.583 21.500 C 53.904 21.374,54.167 21.217,54.167 21.152 C 54.167 21.086,54.373 20.954,54.625 20.858 C 55.199 20.638,56.065 20.124,56.139 19.958 C 56.169 19.890,56.301 19.833,56.431 19.833 C 56.560 19.833,56.667 19.758,56.667 19.667 C 56.667 19.575,56.742 19.500,56.833 19.500 C 56.925 19.500,57.000 19.536,57.000 19.580 M80.833 19.667 C 80.833 19.758,80.758 19.833,80.667 19.833 C 80.575 19.833,80.500 19.983,80.500 20.167 C 80.500 20.350,80.425 20.500,80.333 20.500 C 80.242 20.500,80.167 20.580,80.167 20.678 C 80.167 20.776,79.953 21.170,79.693 21.553 C 79.432 21.936,79.080 22.569,78.911 22.958 C 78.741 23.348,78.542 23.667,78.468 23.667 C 78.394 23.667,78.333 23.779,78.333 23.917 C 78.333 24.054,78.258 24.167,78.167 24.167 C 78.075 24.167,78.000 24.317,78.000 24.500 C 78.000 24.683,77.925 24.833,77.833 24.833 C 77.742 24.833,77.667 24.932,77.667 25.052 C 77.667 25.172,77.535 25.416,77.375 25.594 C 77.215 25.771,76.858 26.367,76.583 26.917 C 76.308 27.467,76.046 27.954,76.000 28.000 C 75.954 28.046,75.804 28.308,75.666 28.583 C 75.529 28.858,75.285 29.229,75.125 29.406 C 74.965 29.584,74.833 29.828,74.833 29.948 C 74.833 30.068,74.758 30.167,74.667 30.167 C 74.575 30.167,74.500 30.317,74.500 30.500 C 74.500 30.683,74.425 30.833,74.333 30.833 C 74.242 30.833,74.167 30.937,74.167 31.063 C 74.167 31.189,74.054 31.386,73.917 31.500 C 73.779 31.614,73.667 31.848,73.667 32.020 C 73.667 32.193,73.592 32.333,73.500 32.333 C 73.408 32.333,73.333 32.451,73.333 32.595 C 73.333 33.331,73.312 33.333,64.595 33.333 C 56.444 33.333,56.333 33.329,56.333 33.000 C 56.333 32.817,56.408 32.667,56.500 32.667 C 56.592 32.667,56.667 32.554,56.667 32.417 C 56.667 32.279,56.742 32.167,56.833 32.167 C 56.925 32.167,57.000 32.054,57.000 31.917 C 57.000 31.779,57.075 31.667,57.167 31.667 C 57.258 31.667,57.333 31.525,57.333 31.351 C 57.333 30.903,57.638 30.833,59.587 30.833 C 61.266 30.833,62.407 30.508,62.639 29.964 C 62.669 29.892,62.838 29.833,63.014 29.833 C 63.190 29.833,63.333 29.758,63.333 29.667 C 63.333 29.575,63.446 29.500,63.583 29.500 C 63.721 29.500,63.833 29.425,63.833 29.333 C 63.833 29.242,63.967 29.167,64.130 29.167 C 64.293 29.167,64.535 29.017,64.667 28.833 C 64.799 28.650,65.008 28.500,65.132 28.500 C 65.394 28.500,66.890 27.658,66.972 27.465 C 67.003 27.392,67.172 27.333,67.347 27.333 C 67.523 27.333,67.667 27.258,67.667 27.167 C 67.667 27.075,67.768 27.000,67.891 27.000 C 68.014 27.000,68.238 26.864,68.389 26.698 C 68.949 26.078,68.499 26.000,64.383 26.000 C 61.906 26.000,60.500 25.940,60.500 25.833 C 60.500 25.742,60.556 25.666,60.625 25.664 C 60.694 25.663,60.975 25.176,61.250 24.581 L 61.750 23.500 67.946 23.500 C 73.232 23.500,74.180 23.463,74.393 23.250 C 74.530 23.113,74.761 23.000,74.905 23.000 C 75.049 23.000,75.167 22.925,75.167 22.833 C 75.167 22.742,75.279 22.667,75.417 22.667 C 75.554 22.667,75.667 22.592,75.667 22.500 C 75.667 22.408,75.779 22.333,75.917 22.333 C 76.054 22.333,76.167 22.258,76.167 22.167 C 76.167 22.075,76.279 22.000,76.417 22.000 C 76.554 22.000,76.667 21.925,76.667 21.833 C 76.667 21.742,76.789 21.667,76.939 21.667 C 77.088 21.667,77.332 21.529,77.480 21.360 C 77.629 21.191,77.939 21.007,78.170 20.950 C 78.401 20.893,78.754 20.693,78.955 20.506 C 79.155 20.320,79.435 20.167,79.576 20.167 C 79.718 20.167,79.833 20.092,79.833 20.000 C 79.833 19.908,79.983 19.833,80.167 19.833 C 80.350 19.833,80.500 19.758,80.500 19.667 C 80.500 19.575,80.575 19.500,80.667 19.500 C 80.758 19.500,80.833 19.575,80.833 19.667 M258.667 19.667 C 258.667 19.758,258.592 19.833,258.500 19.833 C 258.408 19.833,258.333 19.956,258.333 20.105 C 258.333 20.255,258.196 20.499,258.029 20.647 C 257.862 20.795,257.618 21.160,257.488 21.458 C 257.358 21.756,257.195 22.000,257.126 22.000 C 257.057 22.000,257.000 22.150,257.000 22.333 C 257.000 22.517,256.942 22.667,256.871 22.667 C 256.800 22.667,256.593 23.003,256.412 23.415 C 256.231 23.827,256.027 24.164,255.958 24.165 C 255.890 24.166,255.833 24.317,255.833 24.500 C 255.833 24.683,255.758 24.833,255.667 24.833 C 255.575 24.833,255.500 24.956,255.500 25.105 C 255.500 25.255,255.363 25.499,255.196 25.647 C 255.028 25.795,254.785 26.160,254.655 26.458 C 254.525 26.756,254.362 27.000,254.293 27.000 C 254.223 27.000,254.167 27.150,254.167 27.333 C 254.167 27.517,254.092 27.667,254.000 27.667 C 253.908 27.667,253.833 27.811,253.833 27.988 C 253.833 28.165,253.721 28.422,253.583 28.560 C 253.446 28.697,253.333 28.890,253.333 28.988 C 253.333 29.086,253.258 29.167,253.167 29.167 C 253.075 29.167,253.000 29.317,253.000 29.500 C 253.000 29.683,252.925 29.833,252.833 29.833 C 252.742 29.833,252.667 29.949,252.667 30.090 C 252.667 30.232,252.521 30.504,252.342 30.696 C 251.942 31.125,251.167 32.684,251.167 33.058 C 251.167 33.310,250.455 33.333,242.667 33.333 C 233.443 33.333,233.666 33.357,234.500 32.462 C 234.683 32.265,234.833 32.005,234.833 31.885 C 234.833 31.765,234.908 31.667,235.000 31.667 C 235.092 31.667,235.167 31.525,235.167 31.351 C 235.167 30.903,235.471 30.833,237.421 30.833 C 239.079 30.833,240.037 30.572,240.500 29.994 C 240.546 29.937,240.827 29.784,241.125 29.654 C 241.423 29.525,241.667 29.362,241.667 29.293 C 241.667 29.223,241.800 29.167,241.963 29.167 C 242.126 29.167,242.368 29.017,242.500 28.833 C 242.632 28.650,242.842 28.500,242.965 28.500 C 243.228 28.500,244.724 27.658,244.806 27.465 C 244.836 27.392,245.005 27.333,245.181 27.333 C 245.356 27.333,245.500 27.276,245.500 27.206 C 245.500 27.136,245.669 27.005,245.875 26.915 C 246.084 26.823,246.250 26.602,246.250 26.417 C 246.250 26.094,246.124 26.082,242.292 26.039 C 240.115 26.014,238.336 25.939,238.339 25.872 C 238.342 25.805,238.454 25.604,238.589 25.426 C 238.723 25.249,238.833 24.984,238.833 24.838 C 238.833 24.693,238.983 24.465,239.167 24.333 C 239.350 24.201,239.500 23.962,239.500 23.802 C 239.500 23.532,239.938 23.508,245.840 23.464 C 249.827 23.434,252.223 23.355,252.298 23.250 C 252.363 23.158,252.623 22.976,252.875 22.847 C 253.127 22.717,253.333 22.548,253.333 22.472 C 253.333 22.396,253.446 22.333,253.583 22.333 C 253.721 22.333,253.833 22.258,253.833 22.167 C 253.833 22.075,253.983 22.000,254.167 22.000 C 254.350 22.000,254.500 21.925,254.500 21.833 C 254.500 21.742,254.612 21.667,254.750 21.667 C 254.887 21.667,255.000 21.592,255.000 21.500 C 255.000 21.408,255.112 21.333,255.250 21.333 C 255.387 21.333,255.500 21.277,255.501 21.208 C 255.501 21.140,255.838 20.945,256.251 20.775 C 256.663 20.606,257.000 20.399,257.000 20.317 C 257.000 20.234,257.150 20.167,257.333 20.167 C 257.517 20.167,257.667 20.092,257.667 20.000 C 257.667 19.908,257.779 19.833,257.917 19.833 C 258.054 19.833,258.167 19.758,258.167 19.667 C 258.167 19.575,258.279 19.500,258.417 19.500 C 258.554 19.500,258.667 19.575,258.667 19.667 M282.333 19.667 C 282.333 19.758,282.258 19.833,282.167 19.833 C 282.075 19.833,282.000 19.983,282.000 20.167 C 282.000 20.350,281.944 20.500,281.875 20.501 C 281.707 20.502,281.167 21.466,281.167 21.764 C 281.167 21.894,281.092 22.000,281.000 22.000 C 280.908 22.000,280.833 22.133,280.833 22.297 C 280.833 22.460,280.683 22.701,280.500 22.833 C 280.317 22.965,280.167 23.207,280.167 23.370 C 280.167 23.533,280.092 23.667,280.000 23.667 C 279.908 23.667,279.833 23.779,279.833 23.917 C 279.833 24.054,279.758 24.167,279.667 24.167 C 279.575 24.167,279.500 24.317,279.500 24.500 C 279.500 24.683,279.432 24.833,279.350 24.833 C 279.267 24.833,279.061 25.171,278.892 25.583 C 278.722 25.995,278.527 26.332,278.458 26.333 C 278.390 26.333,278.333 26.446,278.333 26.583 C 278.333 26.721,278.258 26.833,278.167 26.833 C 278.075 26.833,278.000 26.946,278.000 27.083 C 278.000 27.221,277.925 27.333,277.833 27.333 C 277.742 27.333,277.667 27.483,277.667 27.667 C 277.667 27.850,277.592 28.000,277.500 28.000 C 277.408 28.000,277.333 28.066,277.333 28.146 C 277.333 28.227,277.071 28.729,276.750 29.262 C 276.429 29.794,276.167 30.349,276.167 30.495 C 276.167 30.641,276.017 30.868,275.833 31.000 C 275.650 31.132,275.500 31.336,275.500 31.453 C 275.500 31.571,275.425 31.667,275.333 31.667 C 275.242 31.667,275.167 31.817,275.167 32.000 C 275.167 32.183,275.110 32.333,275.041 32.333 C 274.971 32.333,274.815 32.558,274.693 32.833 L 274.472 33.333 266.028 33.320 C 261.383 33.313,257.677 33.269,257.792 33.223 C 257.906 33.177,258.000 33.033,258.000 32.903 C 258.000 32.773,258.075 32.667,258.167 32.667 C 258.258 32.667,258.333 32.517,258.333 32.333 C 258.333 32.150,258.408 32.000,258.500 32.000 C 258.592 32.000,258.667 31.855,258.667 31.679 C 258.667 30.977,259.075 30.833,261.073 30.833 C 262.703 30.833,263.012 30.789,263.379 30.500 C 263.612 30.317,263.884 30.167,263.985 30.167 C 264.085 30.167,264.167 30.092,264.167 30.000 C 264.167 29.908,264.317 29.833,264.500 29.833 C 264.683 29.833,264.833 29.758,264.833 29.667 C 264.833 29.575,264.932 29.500,265.052 29.500 C 265.172 29.500,265.431 29.350,265.628 29.167 C 265.825 28.983,266.064 28.833,266.160 28.833 C 266.255 28.833,266.333 28.758,266.333 28.667 C 266.333 28.575,266.443 28.500,266.578 28.500 C 266.882 28.500,268.000 27.976,268.000 27.834 C 268.000 27.776,268.262 27.626,268.583 27.500 C 268.904 27.374,269.167 27.210,269.167 27.136 C 269.167 27.061,269.290 27.000,269.440 27.000 C 269.590 27.000,269.809 26.869,269.926 26.709 C 270.394 26.069,270.000 26.000,265.896 26.000 C 261.830 26.000,261.700 25.974,262.333 25.295 C 262.517 25.098,262.667 24.839,262.667 24.719 C 262.667 24.598,262.742 24.500,262.833 24.500 C 262.925 24.500,263.000 24.382,263.000 24.238 C 263.000 23.520,263.175 23.500,269.421 23.500 C 275.753 23.500,275.921 23.481,276.804 22.658 C 276.996 22.480,277.268 22.333,277.410 22.333 C 277.551 22.333,277.667 22.258,277.667 22.167 C 277.667 22.075,277.779 22.000,277.917 22.000 C 278.054 22.000,278.167 21.925,278.167 21.833 C 278.167 21.742,278.279 21.667,278.417 21.667 C 278.554 21.667,278.667 21.592,278.667 21.500 C 278.667 21.408,278.779 21.333,278.917 21.333 C 279.054 21.333,279.167 21.258,279.167 21.167 C 279.167 21.075,279.311 21.000,279.488 21.000 C 279.665 21.000,279.909 20.906,280.030 20.792 C 280.151 20.677,280.475 20.472,280.750 20.336 C 281.025 20.199,281.362 19.957,281.500 19.796 C 281.770 19.482,282.333 19.394,282.333 19.667 M92.125 23.441 C 92.996 23.546,93.443 24.373,92.833 24.750 C 92.742 24.807,92.667 24.964,92.667 25.100 C 92.667 25.236,92.516 25.509,92.332 25.707 C 92.148 25.904,91.792 26.501,91.541 27.033 C 91.289 27.565,91.027 28.000,90.959 28.000 C 90.890 28.000,90.833 28.113,90.833 28.250 C 90.833 28.387,90.758 28.500,90.667 28.500 C 90.575 28.500,90.500 28.650,90.500 28.833 C 90.500 29.017,90.425 29.167,90.333 29.167 C 90.242 29.167,90.167 29.265,90.167 29.385 C 90.167 29.505,90.017 29.765,89.833 29.962 C 89.650 30.158,89.500 30.388,89.500 30.472 C 89.500 30.733,87.857 32.333,87.588 32.333 C 87.448 32.333,87.333 32.408,87.333 32.500 C 87.333 32.592,87.183 32.667,87.000 32.667 C 86.817 32.667,86.667 32.742,86.667 32.833 C 86.667 32.939,85.472 33.000,83.417 33.000 C 79.940 33.000,79.796 32.961,80.500 32.205 C 80.683 32.008,80.833 31.732,80.833 31.590 C 80.833 31.449,80.890 31.333,80.958 31.332 C 81.027 31.331,81.231 30.993,81.412 30.582 C 81.593 30.170,81.800 29.833,81.871 29.833 C 81.942 29.833,82.000 29.683,82.000 29.500 C 82.000 29.317,82.066 29.167,82.146 29.167 C 82.227 29.167,82.386 28.942,82.500 28.667 C 82.614 28.392,82.773 28.167,82.854 28.167 C 82.934 28.167,83.000 28.054,83.000 27.917 C 83.000 27.779,83.075 27.667,83.167 27.667 C 83.258 27.667,83.333 27.549,83.333 27.405 C 83.333 27.261,83.446 27.030,83.583 26.893 C 83.721 26.755,83.833 26.498,83.833 26.321 C 83.833 26.145,83.908 26.000,84.000 26.000 C 84.092 26.000,84.167 25.887,84.167 25.750 C 84.167 25.613,84.242 25.500,84.333 25.500 C 84.425 25.500,84.500 25.367,84.500 25.203 C 84.500 25.040,84.650 24.799,84.833 24.667 C 85.017 24.535,85.167 24.293,85.167 24.130 C 85.167 23.967,85.242 23.833,85.333 23.833 C 85.425 23.833,85.500 23.721,85.500 23.583 C 85.500 23.314,90.222 23.213,92.125 23.441 M169.292 23.441 L 170.167 23.546 170.167 24.190 C 170.167 24.544,170.092 24.833,170.000 24.833 C 169.908 24.833,169.833 24.983,169.833 25.167 C 169.833 25.350,169.758 25.500,169.667 25.500 C 169.575 25.500,169.500 25.576,169.500 25.669 C 169.500 25.966,168.758 26.996,168.542 26.998 C 168.427 26.999,168.333 27.075,168.333 27.167 C 168.333 27.258,168.183 27.333,168.000 27.333 C 167.817 27.333,167.667 27.408,167.667 27.500 C 167.667 27.592,167.404 27.667,167.083 27.667 C 166.762 27.667,166.500 27.742,166.500 27.833 C 166.500 27.938,165.366 28.000,163.432 28.000 C 160.447 28.000,160.367 27.991,160.452 27.667 C 160.500 27.483,160.605 27.333,160.686 27.333 C 160.767 27.333,160.833 27.183,160.833 27.000 C 160.833 26.817,160.890 26.666,160.958 26.665 C 161.027 26.664,161.231 26.327,161.412 25.915 C 161.593 25.503,161.800 25.167,161.871 25.167 C 161.942 25.167,162.000 25.017,162.000 24.833 C 162.000 24.650,162.062 24.500,162.139 24.500 C 162.215 24.500,162.383 24.294,162.513 24.042 C 162.643 23.790,162.825 23.528,162.916 23.461 C 163.121 23.311,168.080 23.296,169.292 23.441 M146.500 23.667 C 146.500 23.758,146.612 23.833,146.750 23.833 C 146.917 23.833,147.000 24.000,147.000 24.333 C 147.000 24.608,146.925 24.833,146.833 24.833 C 146.742 24.833,146.667 24.979,146.667 25.157 C 146.667 25.335,146.600 25.522,146.518 25.572 C 146.437 25.622,146.321 25.858,146.262 26.096 C 146.202 26.334,146.006 26.686,145.827 26.879 C 145.647 27.072,145.500 27.328,145.500 27.448 C 145.500 27.568,145.425 27.667,145.333 27.667 C 145.242 27.667,145.167 27.789,145.167 27.939 C 145.167 28.088,145.030 28.332,144.864 28.480 C 144.698 28.629,144.347 29.219,144.085 29.792 C 143.823 30.365,143.546 30.833,143.471 30.833 C 143.395 30.833,143.333 30.912,143.333 31.008 C 143.333 31.247,142.679 31.867,142.125 32.153 C 141.873 32.283,141.667 32.452,141.667 32.528 C 141.667 32.604,141.554 32.667,141.417 32.667 C 141.279 32.667,141.167 32.742,141.167 32.833 C 141.167 32.938,140.070 33.000,138.208 32.999 L 135.250 32.997 135.038 32.542 C 134.901 32.247,134.887 32.066,134.997 32.029 C 135.090 31.998,135.167 31.753,135.167 31.486 C 135.167 31.219,135.242 31.000,135.333 31.000 C 135.425 31.000,135.500 30.887,135.500 30.750 C 135.500 30.613,135.575 30.500,135.667 30.500 C 135.758 30.500,135.833 30.382,135.833 30.238 C 135.833 30.094,135.946 29.864,136.083 29.726 C 136.221 29.589,136.333 29.332,136.333 29.155 C 136.333 28.978,136.408 28.833,136.500 28.833 C 136.592 28.833,136.667 28.721,136.667 28.583 C 136.667 28.446,136.742 28.333,136.833 28.333 C 136.925 28.333,137.000 28.235,137.000 28.115 C 137.000 27.995,137.150 27.735,137.333 27.538 C 137.517 27.342,137.667 27.065,137.667 26.924 C 137.667 26.782,137.725 26.667,137.797 26.667 C 137.869 26.667,138.059 26.446,138.218 26.176 C 138.617 25.500,139.974 24.167,140.263 24.167 C 140.393 24.167,140.500 24.092,140.500 24.000 C 140.500 23.908,140.646 23.833,140.823 23.833 C 141.001 23.833,141.193 23.758,141.250 23.667 C 141.311 23.567,142.391 23.500,143.927 23.500 C 145.531 23.500,146.500 23.563,146.500 23.667 M223.667 23.667 C 223.667 23.758,223.779 23.833,223.917 23.833 C 224.083 23.833,224.167 24.000,224.167 24.333 C 224.167 24.608,224.093 24.833,224.003 24.833 C 223.913 24.833,223.789 25.040,223.727 25.292 C 223.664 25.544,223.475 25.871,223.307 26.020 C 223.138 26.168,223.000 26.340,223.000 26.402 C 223.000 26.622,222.178 27.333,221.924 27.333 C 221.783 27.333,221.667 27.408,221.667 27.500 C 221.667 27.592,221.479 27.667,221.250 27.667 C 221.021 27.667,220.833 27.742,220.833 27.833 C 220.833 27.939,219.611 28.000,217.500 28.000 C 215.389 28.000,214.167 27.939,214.167 27.833 C 214.167 27.742,214.242 27.667,214.333 27.667 C 214.425 27.667,214.500 27.533,214.500 27.370 C 214.500 27.207,214.650 26.965,214.833 26.833 C 215.017 26.701,215.167 26.460,215.167 26.297 C 215.167 26.133,215.242 26.000,215.333 26.000 C 215.425 26.000,215.500 25.887,215.500 25.750 C 215.500 25.613,215.575 25.500,215.667 25.500 C 215.758 25.500,215.833 25.350,215.833 25.167 C 215.833 24.983,215.907 24.833,215.997 24.833 C 216.087 24.833,216.211 24.630,216.274 24.381 C 216.491 23.518,216.511 23.513,220.208 23.506 C 222.407 23.502,223.667 23.561,223.667 23.667 M294.262 23.738 C 294.598 24.074,293.971 26.078,293.458 26.306 C 293.390 26.336,293.333 26.505,293.333 26.681 C 293.333 26.856,293.258 27.000,293.167 27.000 C 293.075 27.000,293.000 27.122,293.000 27.272 C 293.000 27.422,292.868 27.666,292.707 27.814 C 292.546 27.962,292.303 28.308,292.166 28.583 C 292.029 28.858,291.871 29.121,291.815 29.167 C 291.624 29.323,291.167 30.316,291.167 30.575 C 291.167 30.717,291.094 30.833,291.004 30.833 C 290.915 30.833,290.505 31.171,290.092 31.583 C 289.680 31.996,289.265 32.333,289.171 32.333 C 289.077 32.333,289.000 32.408,289.000 32.500 C 289.000 32.592,288.850 32.667,288.667 32.667 C 288.483 32.667,288.333 32.742,288.333 32.833 C 288.333 32.939,287.111 33.000,285.000 33.000 C 282.148 33.000,281.667 32.964,281.667 32.750 C 281.667 32.612,281.742 32.500,281.833 32.500 C 281.925 32.500,282.000 32.387,282.000 32.250 C 282.000 32.112,282.075 32.000,282.167 32.000 C 282.258 32.000,282.333 31.850,282.333 31.667 C 282.333 31.483,282.408 31.333,282.500 31.333 C 282.592 31.333,282.667 31.267,282.667 31.187 C 282.667 31.106,282.929 30.604,283.250 30.072 C 283.571 29.539,283.833 28.984,283.833 28.838 C 283.833 28.693,283.983 28.465,284.167 28.333 C 284.350 28.201,284.500 27.997,284.500 27.880 C 284.500 27.763,284.575 27.667,284.667 27.667 C 284.758 27.667,284.833 27.517,284.833 27.333 C 284.833 27.150,284.908 27.000,285.000 27.000 C 285.092 27.000,285.167 26.884,285.167 26.743 C 285.167 26.602,285.305 26.337,285.475 26.155 C 285.645 25.973,285.999 25.395,286.263 24.870 C 286.526 24.346,286.819 23.826,286.912 23.715 C 287.181 23.397,293.942 23.419,294.262 23.738 " stroke="none" fill="#040404" fill-rule="evenodd"></path><path id="path1" d="" stroke="none" fill="#080404" fill-rule="evenodd"></path><path id="path2" d="" stroke="none" fill="#080404" fill-rule="evenodd"></path><path id="path3" d="" stroke="none" fill="#080404" fill-rule="evenodd"></path><path id="path4" d="" stroke="none" fill="#080404" fill-rule="evenodd"></path></g></svg>