<svg id="svg" version="1.1" xmlns="http://www.w3.org/2000/svg" xmlns:xlink="http://www.w3.org/1999/xlink" width="400" height="374.3119266055046" viewBox="0, 0, 400,374.3119266055046"><g id="svgg"><path id="path0" d="M174.906 0.494 C 174.803 0.597,169.494 0.760,163.109 0.858 C 150.326 1.053,147.169 1.417,140.940 3.412 C 126.572 8.015,112.401 22.702,104.122 41.573 C 103.263 43.530,102.282 45.721,101.941 46.442 C 101.599 47.163,100.298 50.750,99.049 54.413 C 97.800 58.076,96.672 60.967,96.542 60.837 C 96.412 60.706,96.398 60.955,96.512 61.389 L 96.718 62.179 73.734 62.126 C 61.092 62.097,50.451 62.199,50.087 62.353 C 49.723 62.506,49.013 62.553,48.509 62.456 C 48.004 62.360,47.543 62.427,47.483 62.606 C 47.424 62.784,46.408 62.970,45.226 63.019 C 44.044 63.068,43.076 63.255,43.074 63.433 C 43.073 63.612,42.734 63.670,42.322 63.562 C 41.910 63.454,41.573 63.519,41.573 63.705 C 41.573 63.892,41.355 64.045,41.089 64.045 C 40.823 64.045,38.674 64.778,36.314 65.674 C 18.527 72.426,7.280 85.715,1.564 106.734 L 0.187 111.798 0.321 216.667 L 0.455 321.536 1.881 327.166 C 7.493 349.310,19.713 364.750,36.534 370.948 C 38.585 371.704,40.515 372.424,40.824 372.550 C 41.133 372.675,41.499 372.756,41.638 372.728 C 41.777 372.701,42.704 372.967,43.698 373.321 C 45.392 373.923,54.991 373.971,197.004 374.080 C 343.695 374.193,350.420 374.155,354.682 373.201 C 377.024 368.196,391.708 352.536,398.209 326.779 L 399.438 321.910 399.438 218.727 L 399.438 115.543 398.245 110.487 C 392.525 86.252,378.250 70.110,357.116 63.980 C 355.468 63.502,354.074 63.014,354.017 62.895 C 353.961 62.776,353.413 62.753,352.800 62.843 C 352.187 62.933,351.686 62.861,351.686 62.683 C 351.686 62.505,351.054 62.354,350.281 62.347 C 349.509 62.339,338.728 62.297,326.325 62.253 L 303.774 62.172 303.356 60.581 C 295.455 30.495,272.408 4.147,251.124 0.866 C 249.570 0.626,175.138 0.263,174.906 0.494 M246.443 26.014 C 254.459 26.509,264.641 35.901,271.836 49.438 C 273.553 52.669,274.394 54.638,277.274 62.172 C 278.571 65.568,280.237 71.892,279.998 72.515 C 279.888 72.800,279.939 73.034,280.110 73.034 C 280.349 73.034,281.388 76.814,281.450 77.910 C 281.640 81.280,287.900 87.225,291.292 87.258 C 291.756 87.262,292.135 87.392,292.136 87.547 C 292.136 87.701,305.247 87.858,321.271 87.895 L 350.405 87.962 352.918 88.908 C 362.247 92.420,369.140 99.984,372.074 109.928 C 372.620 111.780,373.230 113.817,373.428 114.454 C 373.820 115.713,373.960 321.133,373.569 321.765 C 373.447 321.963,372.936 323.660,372.434 325.536 C 369.454 336.672,362.524 344.495,352.910 347.574 L 349.447 348.684 201.221 348.743 C 119.698 348.776,52.491 348.798,51.873 348.793 C 42.799 348.711,32.715 340.169,28.647 329.118 C 25.509 320.595,25.837 333.720,25.835 216.621 L 25.833 112.833 27.182 108.958 C 29.438 102.476,31.595 99.058,36.002 94.978 C 39.630 91.618,48.699 87.282,50.181 88.198 C 50.362 88.310,50.623 88.219,50.761 87.996 C 50.899 87.772,51.543 87.624,52.191 87.667 C 52.840 87.709,53.651 87.624,53.994 87.477 C 54.337 87.331,62.174 87.324,71.410 87.464 C 107.034 88.001,110.288 87.827,113.858 85.204 C 116.405 83.331,119.088 79.066,119.097 76.873 C 119.099 76.409,119.228 76.029,119.382 76.028 C 119.537 76.027,119.690 75.315,119.724 74.447 C 119.758 73.579,119.959 72.810,120.171 72.739 C 120.384 72.669,120.478 72.405,120.382 72.154 C 120.285 71.902,120.706 70.017,121.316 67.964 C 128.037 45.370,138.388 30.741,150.187 27.163 C 152.498 26.462,169.370 25.676,174.719 26.020 C 176.367 26.126,181.255 26.063,185.581 25.881 C 192.899 25.573,241.004 25.678,246.443 26.014 M309.738 103.792 C 309.738 103.921,309.256 104.123,308.667 104.240 C 306.649 104.644,302.996 108.715,302.996 110.560 C 302.996 110.932,302.864 111.236,302.702 111.236 C 302.362 111.236,302.784 116.671,303.211 117.790 C 303.868 119.511,305.749 121.768,307.271 122.660 L 308.900 123.615 328.760 123.512 L 348.620 123.408 350.059 122.248 C 351.922 120.746,353.565 118.083,353.825 116.143 C 353.939 115.298,354.178 114.607,354.356 114.607 C 354.807 114.607,354.766 113.205,354.307 112.921 C 354.101 112.794,353.933 112.247,353.933 111.707 C 353.933 109.272,350.556 104.799,348.352 104.315 C 347.713 104.175,347.191 103.947,347.191 103.809 C 347.191 103.671,338.764 103.558,328.464 103.558 C 318.165 103.558,309.738 103.663,309.738 103.792 M191.236 120.676 C 190.977 120.821,189.261 121.013,187.424 121.104 C 185.586 121.194,183.815 121.378,183.488 121.512 C 183.161 121.646,182.150 121.791,181.241 121.833 C 180.332 121.875,179.504 121.997,179.401 122.103 C 179.298 122.210,177.444 122.743,175.281 123.288 C 146.978 130.420,123.353 152.935,114.437 181.273 C 113.203 185.196,110.861 196.897,110.861 199.142 C 110.861 200.050,110.735 200.715,110.581 200.620 C 110.426 200.524,110.300 203.363,110.300 206.929 C 110.300 210.494,110.426 213.333,110.581 213.238 C 110.735 213.143,110.862 213.875,110.862 214.866 C 110.862 215.856,111.116 217.884,111.427 219.373 C 111.737 220.861,111.963 222.209,111.929 222.369 C 111.894 222.529,111.966 222.912,112.088 223.221 C 112.517 224.306,113.112 227.781,112.922 228.089 C 112.816 228.260,112.864 228.457,113.029 228.526 C 113.194 228.595,113.706 230.076,114.168 231.816 C 114.629 233.557,115.411 235.916,115.906 237.060 C 116.401 238.203,117.403 240.551,118.133 242.277 C 121.280 249.718,127.171 258.628,133.483 265.496 C 143.298 276.174,156.362 284.730,168.931 288.711 C 175.352 290.745,177.324 291.323,178.745 291.585 C 179.518 291.727,180.151 291.951,180.153 292.083 C 180.155 292.214,181.293 292.365,182.681 292.416 C 184.070 292.468,185.252 292.649,185.309 292.818 C 185.365 292.988,185.911 293.053,186.521 292.963 C 187.132 292.874,187.928 292.918,188.291 293.062 C 189.152 293.404,204.856 293.404,205.716 293.062 C 206.079 292.918,206.880 292.874,207.495 292.964 C 208.111 293.055,208.614 292.972,208.614 292.780 C 208.614 292.588,209.288 292.495,210.112 292.574 C 210.936 292.652,211.610 292.605,211.610 292.468 C 211.610 292.332,212.411 292.105,213.390 291.964 C 214.368 291.824,216.230 291.386,217.528 290.992 C 218.826 290.597,220.006 290.299,220.150 290.328 C 220.294 290.357,220.665 290.276,220.974 290.148 C 222.995 289.308,228.660 287.717,228.962 287.904 C 229.166 288.030,229.210 287.939,229.062 287.698 C 228.915 287.460,228.952 287.266,229.145 287.266 C 229.948 287.266,238.651 282.856,242.302 280.599 C 264.868 266.651,280.302 242.247,282.972 216.292 C 283.451 211.636,283.172 196.890,282.577 195.406 C 282.431 195.042,282.392 194.326,282.490 193.814 C 282.588 193.302,282.557 192.884,282.421 192.884 C 282.099 192.884,281.207 187.676,281.459 187.268 C 281.566 187.096,281.468 186.894,281.243 186.819 C 281.018 186.744,280.807 185.988,280.773 185.140 C 280.739 184.292,280.606 183.662,280.476 183.740 C 280.347 183.819,280.133 183.343,280.001 182.684 C 279.869 182.024,279.368 180.468,278.887 179.225 C 278.406 177.983,277.459 175.534,276.781 173.783 C 268.872 153.338,246.720 131.965,227.247 125.992 C 226.063 125.629,225.094 125.230,225.094 125.107 C 225.094 124.983,224.647 124.846,224.102 124.800 C 223.556 124.755,222.924 124.569,222.697 124.387 C 222.470 124.205,221.737 123.939,221.067 123.796 C 220.398 123.653,219.850 123.423,219.850 123.285 C 219.850 123.147,219.387 123.019,218.820 123.001 C 217.434 122.958,210.348 121.629,210.112 121.368 C 210.009 121.254,209.251 121.132,208.427 121.097 C 207.603 121.062,205.918 120.949,204.682 120.845 C 200.747 120.516,191.725 120.402,191.236 120.676 M204.123 146.426 C 204.125 146.538,205.177 146.666,206.460 146.711 C 207.743 146.755,208.848 146.957,208.915 147.158 C 208.982 147.359,209.258 147.439,209.528 147.335 C 210.094 147.118,214.592 148.215,215.203 148.719 C 215.428 148.905,215.697 148.972,215.802 148.868 C 215.906 148.763,217.653 149.370,219.685 150.215 C 236.025 157.016,247.421 168.565,254.030 185.022 C 255.548 188.801,257.068 194.559,256.809 195.550 C 256.707 195.938,256.796 196.255,257.005 196.255 C 257.218 196.255,257.319 196.821,257.235 197.539 C 257.153 198.246,257.200 198.753,257.341 198.666 C 257.481 198.579,257.718 200.375,257.867 202.656 C 258.189 207.583,257.784 215.466,257.226 215.121 C 256.992 214.976,256.943 215.184,257.096 215.666 C 257.569 217.159,255.016 228.090,254.194 228.090 C 253.981 228.090,253.905 228.187,254.023 228.306 C 254.444 228.726,250.829 236.196,248.419 239.888 C 240.289 252.341,230.264 260.110,215.983 265.021 C 213.341 265.930,210.543 266.731,209.765 266.801 C 208.988 266.871,208.146 267.055,207.896 267.210 C 207.645 267.365,206.263 267.539,204.825 267.596 C 203.388 267.654,202.107 267.806,201.980 267.933 C 201.604 268.309,192.199 268.198,191.963 267.815 C 191.844 267.622,191.167 267.559,190.459 267.674 C 189.751 267.789,188.869 267.761,188.500 267.611 C 188.130 267.462,187.091 267.276,186.190 267.198 C 185.290 267.121,184.347 266.886,184.096 266.678 C 183.845 266.469,183.544 266.394,183.428 266.510 C 183.180 266.758,174.478 263.937,171.689 262.703 C 153.366 254.600,139.332 235.763,136.422 215.367 C 136.120 213.253,136.111 200.594,136.410 199.046 C 136.531 198.418,136.912 196.402,137.256 194.565 C 140.700 176.185,154.780 158.547,171.723 151.385 C 173.371 150.688,175.225 149.896,175.843 149.624 C 177.931 148.706,182.363 147.500,182.756 147.743 C 182.971 147.876,183.146 147.824,183.146 147.627 C 183.146 146.926,190.089 146.228,197.097 146.225 C 200.960 146.224,204.121 146.314,204.123 146.426 " stroke="none" fill="#040404" fill-rule="evenodd"></path><path id="path1" d="M186.632 0.280 C 189.064 0.345,192.940 0.345,195.246 0.279 C 197.552 0.214,195.562 0.160,190.824 0.161 C 186.086 0.161,184.200 0.215,186.632 0.280 M228.184 0.279 C 229.986 0.348,232.935 0.348,234.738 0.279 C 236.540 0.210,235.066 0.154,231.461 0.154 C 227.856 0.154,226.381 0.210,228.184 0.279 M155.150 0.650 C 156.128 0.727,157.729 0.727,158.708 0.650 C 159.686 0.573,158.886 0.510,156.929 0.510 C 154.972 0.510,154.171 0.573,155.150 0.650 M249.723 0.639 C 250.189 0.729,250.864 0.726,251.222 0.632 C 251.580 0.538,251.199 0.465,250.375 0.469 C 249.551 0.473,249.258 0.550,249.723 0.639 M140.730 2.505 C 140.370 2.600,140.075 2.833,140.075 3.024 C 140.075 3.484,140.179 3.467,141.437 2.811 C 142.460 2.278,142.137 2.138,140.730 2.505 M259.710 3.192 C 260.107 3.492,260.524 3.646,260.636 3.534 C 260.871 3.299,259.920 2.630,259.363 2.639 C 259.157 2.643,259.314 2.891,259.710 3.192 M261.798 4.182 C 261.798 4.423,261.909 4.508,262.044 4.373 C 262.180 4.237,262.517 4.314,262.793 4.543 C 263.109 4.806,263.296 4.819,263.296 4.580 C 263.296 4.371,263.029 4.098,262.703 3.973 C 261.889 3.660,261.798 3.681,261.798 4.182 M135.955 4.469 C 135.955 4.661,135.605 4.929,135.178 5.065 C 134.750 5.201,134.476 5.387,134.568 5.479 C 134.814 5.726,136.704 4.801,136.704 4.434 C 136.704 4.261,136.536 4.120,136.330 4.120 C 136.124 4.120,135.955 4.277,135.955 4.469 M131.537 6.817 C 130.857 7.237,130.373 7.651,130.459 7.738 C 130.626 7.904,133.333 6.401,133.333 6.143 C 133.333 5.848,132.753 6.066,131.537 6.817 M267.416 7.116 C 267.931 7.519,268.521 7.849,268.727 7.849 C 268.933 7.849,268.680 7.519,268.165 7.116 C 267.650 6.713,267.060 6.384,266.854 6.384 C 266.648 6.384,266.901 6.713,267.416 7.116 M127.689 9.301 C 127.366 9.644,126.439 10.480,125.629 11.159 C 123.880 12.625,124.576 12.309,127.060 10.508 C 128.038 9.799,128.839 9.083,128.839 8.917 C 128.839 8.447,128.335 8.615,127.689 9.301 M270.418 8.823 C 270.413 9.162,272.719 11.024,274.532 12.145 C 275.803 12.930,274.101 11.300,272.557 10.252 C 271.686 9.661,270.850 9.009,270.699 8.803 C 270.518 8.556,270.421 8.563,270.418 8.823 M275.655 12.903 C 275.655 12.996,277.425 14.870,279.588 17.068 C 281.751 19.265,283.521 20.904,283.521 20.709 C 283.521 20.369,276.146 12.734,275.817 12.734 C 275.728 12.734,275.655 12.810,275.655 12.903 M120.468 15.427 C 119.262 16.651,118.376 17.752,118.498 17.874 C 118.717 18.093,123.221 13.760,123.221 13.331 C 123.221 12.807,122.527 13.336,120.468 15.427 M116.665 19.852 C 116.291 20.266,116.073 20.692,116.181 20.801 C 116.289 20.909,116.657 20.571,116.999 20.049 C 117.746 18.910,117.597 18.822,116.665 19.852 M114.821 21.937 C 114.424 22.227,114.218 22.582,114.362 22.727 C 114.506 22.871,114.905 22.708,115.249 22.365 C 116.057 21.556,115.755 21.254,114.821 21.937 M284.304 22.102 C 284.936 23.054,285.768 23.519,285.768 22.921 C 285.768 22.721,285.305 22.255,284.740 21.885 L 283.713 21.212 284.304 22.102 M112.716 24.933 C 111.131 27.236,111.454 27.308,113.208 25.043 C 113.984 24.041,114.455 23.221,114.256 23.221 C 114.057 23.221,113.364 23.991,112.716 24.933 M285.830 23.876 C 286.167 24.634,288.547 27.683,288.690 27.540 C 288.868 27.362,286.197 23.596,285.892 23.596 C 285.789 23.596,285.762 23.722,285.830 23.876 M208.895 26.123 C 213.272 26.183,220.435 26.183,224.813 26.123 C 229.190 26.063,225.609 26.014,216.854 26.014 C 208.099 26.014,204.518 26.063,208.895 26.123 M166.948 26.495 C 168.441 26.566,170.885 26.566,172.378 26.495 C 173.872 26.424,172.650 26.366,169.663 26.366 C 166.676 26.366,165.454 26.424,166.948 26.495 M250.936 27.646 C 250.936 27.814,251.526 28.232,252.247 28.576 C 252.968 28.920,253.558 29.036,253.558 28.833 C 253.558 28.630,253.305 28.464,252.996 28.464 C 252.687 28.464,252.434 28.286,252.434 28.068 C 252.434 27.850,252.266 27.775,252.060 27.903 C 251.854 28.030,251.685 27.956,251.685 27.737 C 251.685 27.519,251.517 27.341,251.311 27.341 C 251.105 27.341,250.936 27.478,250.936 27.646 M148.498 28.096 C 148.369 28.305,148.106 28.380,147.914 28.261 C 147.722 28.143,147.566 28.224,147.566 28.442 C 147.566 28.660,147.416 28.797,147.234 28.745 C 146.823 28.629,142.613 31.128,142.839 31.353 C 142.929 31.443,143.650 31.094,144.441 30.577 C 145.233 30.060,146.596 29.355,147.472 29.010 C 148.347 28.665,149.064 28.233,149.064 28.049 C 149.064 27.603,148.788 27.626,148.498 28.096 M109.192 30.089 C 108.155 31.858,107.962 32.548,108.722 31.768 C 109.618 30.848,110.925 28.464,110.533 28.464 C 110.319 28.464,109.715 29.196,109.192 30.089 M253.964 29.359 C 254.988 30.316,257.678 32.121,257.678 31.851 C 257.678 31.487,254.579 29.213,254.084 29.213 C 253.932 29.213,253.878 29.279,253.964 29.359 M290.611 30.676 C 291.037 31.274,291.386 31.928,291.386 32.128 C 291.386 32.329,291.669 32.724,292.016 33.007 C 292.428 33.342,292.277 32.838,291.582 31.554 C 290.997 30.473,290.364 29.588,290.177 29.588 C 289.990 29.588,290.185 30.078,290.611 30.676 M140.633 32.963 C 140.043 33.579,139.731 34.082,139.940 34.082 C 140.421 34.082,142.138 32.275,141.891 32.028 C 141.789 31.926,141.223 32.347,140.633 32.963 M106.910 34.494 C 106.378 35.545,106.005 36.467,106.082 36.544 C 106.158 36.620,106.674 35.761,107.226 34.634 C 107.779 33.507,108.152 32.584,108.055 32.584 C 107.957 32.584,107.442 33.444,106.910 34.494 M258.427 32.699 C 258.427 32.762,259.549 33.900,260.920 35.227 C 262.291 36.555,263.234 37.303,263.016 36.891 C 262.376 35.686,258.427 32.078,258.427 32.699 M293.521 35.768 C 293.865 36.489,294.278 37.079,294.439 37.079 C 294.600 37.079,294.383 36.489,293.958 35.768 C 293.532 35.047,293.120 34.457,293.040 34.457 C 292.961 34.457,293.177 35.047,293.521 35.768 M137.574 36.049 C 136.183 37.594,136.182 38.033,137.572 36.704 C 138.326 35.983,138.945 35.351,138.947 35.300 C 138.963 34.934,138.205 35.348,137.574 36.049 M103.806 40.278 C 103.179 41.655,103.298 41.949,103.977 40.697 C 104.294 40.113,104.483 39.564,104.397 39.478 C 104.312 39.393,104.046 39.753,103.806 40.278 M132.724 42.416 L 132.095 43.633 133.082 42.697 C 134.115 41.718,134.335 41.199,133.717 41.199 C 133.517 41.199,133.070 41.746,132.724 42.416 M266.292 41.741 C 266.292 41.833,266.740 42.381,267.288 42.958 L 268.284 44.007 267.582 42.790 C 266.980 41.748,266.292 41.188,266.292 41.741 M297.030 42.509 C 297.030 42.715,297.271 43.305,297.566 43.820 C 297.860 44.335,298.101 44.588,298.101 44.382 C 298.101 44.176,297.860 43.586,297.566 43.071 C 297.271 42.556,297.030 42.303,297.030 42.509 M101.933 44.773 C 101.694 45.298,101.505 45.931,101.513 46.179 C 101.521 46.426,101.776 46.056,102.080 45.355 C 102.720 43.881,102.585 43.343,101.933 44.773 M269.075 46.016 C 269.632 47.115,270.176 47.926,270.284 47.818 C 270.578 47.524,270.040 46.067,269.638 46.067 C 269.446 46.067,269.288 45.835,269.288 45.551 C 269.288 45.268,269.013 44.807,268.676 44.527 C 268.266 44.187,268.398 44.681,269.075 46.016 M129.901 47.305 C 128.747 49.164,127.265 52.484,127.489 52.708 C 127.576 52.795,127.758 52.517,127.893 52.090 C 128.028 51.664,128.339 51.104,128.583 50.845 C 129.115 50.281,131.174 46.030,130.999 45.856 C 130.932 45.789,130.438 46.441,129.901 47.305 M298.508 46.348 C 298.518 46.861,299.207 47.735,299.427 47.515 C 299.722 47.220,299.252 46.067,298.836 46.067 C 298.652 46.067,298.504 46.194,298.508 46.348 M100.602 47.409 C 100.300 48.195,100.314 48.315,100.705 48.315 C 100.887 48.315,101.124 47.978,101.232 47.566 C 101.463 46.681,100.932 46.549,100.602 47.409 M300.114 49.709 C 300.178 50.168,300.347 50.659,300.490 50.802 C 300.887 51.199,300.787 50.074,300.368 49.438 C 300.074 48.992,300.022 49.048,300.114 49.709 M271.567 50.000 C 271.567 50.206,271.890 50.964,272.285 51.685 C 272.679 52.406,273.002 52.828,273.002 52.622 C 273.002 52.416,272.679 51.657,272.285 50.936 C 271.890 50.215,271.567 49.794,271.567 50.000 M301.551 53.558 C 301.551 53.867,301.696 54.457,301.873 54.869 C 302.076 55.341,302.195 55.410,302.195 55.056 C 302.195 54.747,302.050 54.157,301.873 53.745 C 301.670 53.273,301.551 53.204,301.551 53.558 M275.281 59.317 C 275.281 59.601,275.565 60.065,275.913 60.347 C 276.469 60.800,276.514 60.779,276.287 60.175 C 276.146 59.798,276.030 59.335,276.030 59.145 C 276.030 58.956,275.861 58.801,275.655 58.801 C 275.449 58.801,275.281 59.034,275.281 59.317 M124.512 59.519 C 124.629 59.707,124.576 59.918,124.396 59.987 C 123.917 60.171,123.478 61.798,123.908 61.798 C 124.108 61.798,124.456 61.267,124.682 60.618 C 125.186 59.174,125.186 59.176,124.697 59.176 C 124.479 59.176,124.396 59.330,124.512 59.519 M82.678 61.703 C 84.995 61.769,88.787 61.769,91.105 61.703 C 93.422 61.637,91.526 61.583,86.891 61.583 C 82.257 61.583,80.360 61.637,82.678 61.703 M30.192 67.279 C 29.185 67.803,28.174 68.392,27.945 68.588 C 27.716 68.784,26.264 69.746,24.719 70.727 C 23.174 71.708,21.158 73.176,20.239 73.990 C 17.824 76.127,13.466 80.632,13.643 80.809 C 13.726 80.892,15.199 79.555,16.916 77.837 C 19.832 74.920,22.745 72.285,23.053 72.285 C 23.127 72.285,24.091 71.653,25.196 70.880 C 26.300 70.108,28.077 69.068,29.145 68.569 C 30.213 68.070,31.086 67.513,31.086 67.330 C 31.086 67.147,31.255 67.101,31.461 67.228 C 31.667 67.356,31.835 67.272,31.835 67.041 C 31.835 66.811,31.992 66.719,32.184 66.838 C 32.376 66.956,32.638 66.882,32.768 66.673 C 33.164 66.032,32.115 66.279,30.192 67.279 M367.790 67.730 C 367.790 67.903,368.212 68.237,368.727 68.471 C 369.827 68.973,370.015 68.380,368.938 67.803 C 368.060 67.334,367.790 67.316,367.790 67.730 M370.787 69.393 C 371.292 69.933,375.031 72.284,375.168 72.148 C 375.254 72.062,374.851 71.659,374.273 71.252 C 373.201 70.499,370.446 69.029,370.787 69.393 M377.340 74.155 C 377.466 74.360,377.940 74.722,378.392 74.959 C 379.208 75.387,379.209 75.384,378.500 74.586 C 377.785 73.781,376.907 73.455,377.340 74.155 M380.150 76.266 C 380.150 76.459,381.077 77.533,382.210 78.652 C 384.418 80.833,385.072 80.833,383.011 78.652 C 381.215 76.752,380.150 75.863,380.150 76.266 M384.980 81.533 C 385.394 82.349,386.088 82.967,386.306 82.715 C 386.368 82.643,386.002 82.163,385.491 81.648 C 384.643 80.792,384.599 80.783,384.980 81.533 M12.360 82.022 C 12.139 82.434,12.099 82.772,12.271 82.772 C 12.670 82.772,13.483 81.967,13.483 81.573 C 13.483 80.992,12.755 81.283,12.360 82.022 M282.773 82.397 C 283.397 83.642,284.281 84.627,285.202 85.102 C 285.977 85.502,285.863 85.351,283.161 82.397 L 282.305 81.461 282.773 82.397 M10.409 84.925 C 8.708 87.305,8.517 87.641,8.873 87.636 C 9.040 87.633,9.526 87.086,9.955 86.419 C 10.383 85.752,11.034 84.743,11.402 84.176 C 12.517 82.459,11.768 83.024,10.409 84.925 M115.539 84.274 C 114.949 84.889,114.637 85.393,114.846 85.393 C 115.328 85.393,117.044 83.586,116.797 83.339 C 116.695 83.237,116.129 83.658,115.539 84.274 M388.032 85.206 C 388.032 85.412,388.361 86.002,388.764 86.517 C 389.167 87.032,389.496 87.285,389.496 87.079 C 389.496 86.873,389.167 86.283,388.764 85.768 C 388.361 85.253,388.032 85.000,388.032 85.206 M288.015 86.851 C 288.015 87.035,288.282 87.288,288.607 87.413 C 289.412 87.722,289.513 87.703,289.513 87.244 C 289.513 87.026,289.345 86.951,289.139 87.079 C 288.933 87.206,288.764 87.132,288.764 86.913 C 288.764 86.695,288.596 86.517,288.390 86.517 C 288.184 86.517,288.015 86.667,288.015 86.851 M58.536 87.919 C 59.935 87.991,62.126 87.990,63.405 87.917 C 64.684 87.844,63.539 87.785,60.861 87.786 C 58.184 87.787,57.137 87.846,58.536 87.919 M98.299 88.041 C 98.170 88.250,100.146 88.390,103.224 88.390 C 106.051 88.390,108.275 88.300,108.165 88.190 C 107.798 87.823,98.520 87.683,98.299 88.041 M293.063 88.028 C 292.921 88.258,299.579 88.390,311.401 88.390 C 323.731 88.390,329.963 88.262,329.963 88.009 C 329.963 87.500,293.378 87.519,293.063 88.028 M390.280 88.951 C 390.768 89.775,391.301 90.506,391.466 90.575 C 391.630 90.644,391.670 90.855,391.553 91.043 C 391.437 91.232,391.520 91.386,391.738 91.386 C 392.526 91.386,391.770 89.897,390.122 88.202 C 389.537 87.601,389.568 87.748,390.280 88.951 M7.438 89.570 C 6.273 91.789,5.241 94.039,5.254 94.329 C 5.260 94.461,6.013 93.145,6.927 91.404 C 7.841 89.664,8.522 88.173,8.440 88.091 C 8.359 88.009,7.907 88.675,7.438 89.570 M45.880 89.513 C 45.408 89.716,45.339 89.835,45.693 89.835 C 46.002 89.835,46.592 89.690,47.004 89.513 C 47.476 89.310,47.545 89.191,47.191 89.191 C 46.882 89.191,46.292 89.336,45.880 89.513 M355.618 90.710 C 356.030 90.943,356.451 91.252,356.554 91.395 C 356.939 91.930,359.176 92.889,359.176 92.519 C 359.176 92.308,358.923 92.135,358.614 92.135 C 358.305 92.135,358.052 91.998,358.052 91.830 C 358.052 91.662,357.457 91.240,356.729 90.893 C 355.243 90.185,354.466 90.056,355.618 90.710 M41.800 91.212 C 41.484 91.528,41.097 91.768,40.940 91.746 C 40.784 91.723,40.590 91.902,40.509 92.143 C 40.402 92.464,40.598 92.456,41.241 92.112 C 42.341 91.523,43.248 90.637,42.750 90.637 C 42.544 90.637,42.117 90.896,41.800 91.212 M38.577 93.258 C 38.062 93.661,37.809 93.991,38.015 93.991 C 38.221 93.991,38.811 93.661,39.326 93.258 C 39.841 92.856,40.094 92.526,39.888 92.526 C 39.682 92.526,39.092 92.856,38.577 93.258 M362.479 95.730 C 364.192 97.357,365.950 99.279,366.384 100.000 C 366.819 100.721,367.405 101.564,367.687 101.873 C 367.969 102.182,368.457 102.772,368.771 103.184 C 369.086 103.596,368.963 103.216,368.498 102.341 C 368.033 101.465,367.515 100.749,367.347 100.749 C 367.179 100.749,367.041 100.516,367.041 100.231 C 367.041 99.577,361.555 93.899,360.300 93.252 C 359.785 92.987,360.765 94.102,362.479 95.730 M393.285 94.195 C 393.285 94.401,393.526 94.991,393.820 95.506 C 394.115 96.021,394.355 96.273,394.355 96.067 C 394.355 95.861,394.115 95.272,393.820 94.757 C 393.526 94.242,393.285 93.989,393.285 94.195 M35.070 96.239 C 33.522 97.893,33.086 98.502,33.448 98.502 C 33.510 98.502,34.440 97.575,35.514 96.442 C 36.588 95.309,37.318 94.382,37.137 94.382 C 36.955 94.382,36.025 95.217,35.070 96.239 M4.588 95.340 C 4.036 95.939,3.990 96.255,4.454 96.255 C 4.774 96.255,5.372 95.128,5.159 94.928 C 5.102 94.875,4.846 95.061,4.588 95.340 M3.033 98.932 C 2.556 100.301,2.501 100.994,2.903 100.593 C 3.057 100.439,3.186 100.200,3.189 100.062 C 3.192 99.925,3.293 99.644,3.412 99.438 C 3.896 98.604,4.077 97.753,3.770 97.753 C 3.591 97.753,3.259 98.284,3.033 98.932 M394.762 98.007 C 394.773 98.581,395.464 99.418,395.717 99.164 C 395.856 99.026,395.696 98.639,395.363 98.306 C 395.029 97.972,394.759 97.838,394.762 98.007 M30.886 101.592 L 30.292 102.809 31.055 101.873 C 31.790 100.971,32.030 100.375,31.658 100.375 C 31.560 100.375,31.213 100.922,30.886 101.592 M310.168 103.177 C 310.417 103.426,346.491 103.447,346.740 103.198 C 346.851 103.087,338.627 102.996,328.464 102.996 C 318.302 102.996,310.069 103.077,310.168 103.177 M305.697 105.171 C 302.773 108.171,301.451 110.487,302.662 110.487 C 302.890 110.487,302.979 110.234,302.861 109.925 C 302.742 109.616,302.788 109.363,302.963 109.363 C 303.137 109.363,303.484 108.871,303.733 108.270 C 304.238 107.050,307.276 104.030,307.635 104.389 C 307.762 104.516,307.865 104.423,307.865 104.182 C 307.865 103.382,307.101 103.730,305.697 105.171 M349.078 104.026 C 349.086 104.181,349.770 104.776,350.599 105.350 C 351.565 106.018,352.415 107.058,352.965 108.245 C 353.437 109.264,353.914 110.006,354.026 109.894 C 354.339 109.581,352.603 106.716,351.152 105.150 C 349.946 103.847,349.044 103.359,349.078 104.026 M27.981 107.116 C 27.874 107.528,27.938 107.865,28.125 107.865 C 28.312 107.865,28.464 107.795,28.464 107.709 C 28.464 107.622,28.567 107.285,28.692 106.959 C 28.817 106.634,28.752 106.367,28.548 106.367 C 28.344 106.367,28.089 106.704,27.981 107.116 M371.300 109.831 C 371.424 110.295,371.528 110.801,371.530 110.955 C 371.540 111.504,372.285 111.226,372.285 110.674 C 372.285 110.365,372.121 110.112,371.922 110.112 C 371.722 110.112,371.656 109.860,371.775 109.551 C 371.894 109.240,371.785 108.989,371.532 108.989 C 371.239 108.989,371.155 109.294,371.300 109.831 M301.884 115.150 C 301.876 115.956,301.985 116.143,302.286 115.841 C 302.582 115.545,302.585 115.232,302.297 114.736 C 301.945 114.130,301.894 114.181,301.884 115.150 M302.622 118.542 C 302.622 119.191,307.204 123.970,307.827 123.970 C 308.054 123.970,308.240 123.773,308.240 123.533 C 308.240 123.293,308.137 123.198,308.013 123.323 C 307.523 123.813,303.846 120.193,303.522 118.903 C 303.268 117.893,302.622 117.634,302.622 118.542 M353.016 119.413 C 352.887 119.821,352.016 120.861,351.081 121.722 C 350.146 122.584,349.459 123.367,349.554 123.462 C 349.800 123.708,352.221 121.362,353.003 120.119 C 353.364 119.546,353.568 118.986,353.456 118.874 C 353.344 118.762,353.146 119.004,353.016 119.413 M195.412 120.124 C 196.287 120.203,197.720 120.203,198.596 120.124 C 199.471 120.046,198.755 119.981,197.004 119.981 C 195.253 119.981,194.537 120.046,195.412 120.124 M187.734 120.483 C 188.095 120.577,188.684 120.577,189.045 120.483 C 189.405 120.389,189.110 120.312,188.390 120.312 C 187.669 120.312,187.374 120.389,187.734 120.483 M172.659 123.221 C 172.659 123.427,172.912 123.596,173.221 123.596 C 173.530 123.596,173.783 123.427,173.783 123.221 C 173.783 123.015,173.530 122.846,173.221 122.846 C 172.912 122.846,172.659 123.015,172.659 123.221 M220.225 123.221 C 220.225 123.427,220.478 123.596,220.787 123.596 C 221.096 123.596,221.348 123.427,221.348 123.221 C 221.348 123.015,221.096 122.846,220.787 122.846 C 220.478 122.846,220.225 123.015,220.225 123.221 M164.794 125.849 C 164.348 126.143,164.404 126.195,165.065 126.103 C 165.523 126.039,166.015 125.870,166.158 125.728 C 166.555 125.330,165.430 125.431,164.794 125.849 M163.015 126.465 C 162.248 126.775,162.484 127.287,163.296 127.075 C 163.708 126.967,164.045 126.730,164.045 126.548 C 164.045 126.191,163.753 126.168,163.015 126.465 M229.963 126.614 C 229.963 126.832,230.131 126.906,230.337 126.779 C 230.543 126.652,230.712 126.736,230.712 126.966 C 230.712 127.197,230.898 127.270,231.126 127.129 C 231.415 126.950,231.387 126.775,231.032 126.551 C 230.344 126.115,229.963 126.137,229.963 126.614 M160.674 127.746 C 160.365 127.920,158.437 128.881,156.390 129.880 C 154.343 130.880,152.588 131.935,152.491 132.226 C 152.359 132.624,152.538 132.595,153.218 132.108 C 153.714 131.752,155.721 130.670,157.678 129.702 C 161.681 127.724,161.605 127.768,161.392 127.572 C 161.306 127.493,160.983 127.571,160.674 127.746 M235.955 129.401 C 236.882 129.897,237.809 130.303,238.015 130.303 C 238.221 130.303,237.631 129.897,236.704 129.401 C 235.777 128.904,234.850 128.498,234.644 128.498 C 234.438 128.498,235.028 128.904,235.955 129.401 M238.577 130.712 C 238.577 130.918,238.818 131.086,239.112 131.086 C 239.406 131.086,239.873 131.312,240.150 131.589 C 240.919 132.358,242.322 133.030,242.322 132.629 C 242.322 132.336,239.179 130.337,238.717 130.337 C 238.640 130.337,238.577 130.506,238.577 130.712 M150.638 133.120 C 148.765 134.444,148.698 134.673,150.468 133.697 C 151.344 133.215,152.060 132.683,152.060 132.515 C 152.060 132.112,152.066 132.110,150.638 133.120 M244.404 134.258 C 244.804 134.560,245.300 134.808,245.506 134.808 C 245.712 134.808,245.553 134.560,245.153 134.258 C 244.753 133.955,244.258 133.708,244.052 133.708 C 243.846 133.708,244.004 133.955,244.404 134.258 M146.614 135.605 C 146.478 135.825,146.457 136.095,146.567 136.205 C 146.835 136.473,147.566 136.000,147.566 135.558 C 147.566 135.080,146.919 135.112,146.614 135.605 M247.566 136.253 C 247.566 136.431,248.355 137.153,249.320 137.858 C 252.039 139.844,252.398 139.949,250.562 138.222 C 248.740 136.509,247.566 135.737,247.566 136.253 M144.382 137.514 L 143.258 138.678 144.658 137.785 C 145.428 137.293,146.060 136.765,146.063 136.610 C 146.072 136.056,145.486 136.371,144.382 137.514 M141.350 139.755 C 140.642 140.553,140.642 140.555,141.459 140.127 C 142.369 139.650,142.929 138.951,142.402 138.951 C 142.216 138.951,141.743 139.313,141.350 139.755 M252.809 140.374 C 252.809 140.572,253.441 141.212,254.213 141.795 L 255.618 142.854 254.649 141.579 C 253.664 140.280,252.809 139.721,252.809 140.374 M138.202 142.611 C 137.275 143.553,136.789 144.169,137.123 143.979 C 137.922 143.523,140.449 141.276,140.449 141.023 C 140.449 140.537,139.768 141.019,138.202 142.611 M257.303 144.499 C 257.303 144.956,259.511 146.981,259.749 146.743 C 260.006 146.486,258.113 144.195,257.645 144.195 C 257.457 144.195,257.303 144.332,257.303 144.499 M192.135 146.442 C 192.135 146.648,192.556 146.816,193.071 146.816 C 193.586 146.816,194.007 146.648,194.007 146.442 C 194.007 146.236,193.586 146.067,193.071 146.067 C 192.556 146.067,192.135 146.236,192.135 146.442 M200.000 146.442 C 200.000 146.648,200.421 146.816,200.936 146.816 C 201.451 146.816,201.873 146.648,201.873 146.442 C 201.873 146.236,201.451 146.067,200.936 146.067 C 200.421 146.067,200.000 146.236,200.000 146.442 M188.390 146.816 C 188.390 147.022,188.727 147.191,189.139 147.191 C 189.551 147.191,189.888 147.022,189.888 146.816 C 189.888 146.610,189.551 146.442,189.139 146.442 C 188.727 146.442,188.390 146.610,188.390 146.816 M132.211 148.545 C 130.868 149.758,130.213 150.829,131.015 150.499 C 131.449 150.321,134.216 147.191,133.940 147.191 C 133.813 147.191,133.035 147.801,132.211 148.545 M261.749 149.347 C 262.252 150.287,263.254 151.103,263.546 150.811 C 263.837 150.520,263.021 149.518,262.081 149.015 C 261.454 148.679,261.413 148.720,261.749 149.347 M218.727 150.511 C 218.727 150.952,220.180 151.481,220.503 151.158 C 220.791 150.870,220.597 150.712,219.569 150.396 C 219.084 150.247,218.727 150.296,218.727 150.511 M221.723 151.589 C 221.723 151.920,225.088 153.688,225.305 153.471 C 225.372 153.404,224.593 152.881,223.575 152.309 C 222.556 151.736,221.723 151.412,221.723 151.589 M170.787 152.247 C 170.272 152.542,170.019 152.782,170.225 152.782 C 170.431 152.782,171.021 152.542,171.536 152.247 C 172.051 151.953,172.303 151.712,172.097 151.712 C 171.891 151.712,171.301 151.953,170.787 152.247 M127.790 153.633 C 127.249 154.174,127.206 154.682,127.702 154.682 C 127.901 154.682,128.244 154.345,128.464 153.933 C 128.906 153.108,128.497 152.926,127.790 153.633 M265.908 154.290 C 266.134 154.711,266.481 155.056,266.680 155.056 C 267.293 155.056,267.080 154.512,266.270 154.006 C 265.557 153.561,265.530 153.582,265.908 154.290 M228.464 155.410 C 229.834 156.603,230.337 156.810,230.337 156.180 C 230.337 155.974,230.084 155.805,229.775 155.805 C 229.466 155.805,229.213 155.664,229.213 155.491 C 229.213 155.318,228.750 154.972,228.184 154.722 C 227.239 154.306,227.262 154.363,228.464 155.410 M162.360 157.003 C 160.369 158.461,159.838 159.065,161.261 158.253 C 162.908 157.313,164.251 156.258,164.039 156.068 C 163.939 155.979,163.184 156.399,162.360 157.003 M125.094 157.865 C 124.648 158.586,124.129 159.176,123.939 159.176 C 123.750 159.176,123.596 159.359,123.596 159.582 C 123.596 160.368,124.376 159.714,125.313 158.143 C 125.833 157.269,126.180 156.554,126.082 156.554 C 125.984 156.554,125.539 157.144,125.094 157.865 M268.165 157.124 C 268.165 157.505,270.150 160.312,270.308 160.154 C 270.396 160.066,270.012 159.304,269.454 158.461 C 268.498 157.017,268.165 156.671,268.165 157.124 M232.959 158.393 C 233.680 159.019,234.438 159.531,234.644 159.532 C 235.075 159.534,233.512 158.220,232.397 157.643 C 231.985 157.430,232.238 157.767,232.959 158.393 M235.581 160.164 C 235.581 160.646,237.388 162.362,237.635 162.115 C 237.737 162.014,237.316 161.448,236.700 160.858 C 236.084 160.268,235.581 159.956,235.581 160.164 M154.655 163.400 C 151.885 166.022,149.863 168.322,151.124 167.417 C 152.229 166.622,157.733 161.047,157.401 161.059 C 157.244 161.064,156.008 162.118,154.655 163.400 M121.137 164.100 C 120.377 165.615,119.633 166.938,119.484 167.041 C 118.711 167.576,118.151 169.288,118.749 169.288 C 118.967 169.288,119.050 169.134,118.934 168.946 C 118.817 168.757,118.864 168.547,119.037 168.478 C 119.431 168.321,122.875 161.701,122.670 161.496 C 122.587 161.414,121.898 162.586,121.137 164.100 M271.161 162.126 C 271.161 162.307,271.414 162.665,271.723 162.921 C 272.032 163.178,272.285 163.620,272.285 163.904 C 272.285 164.187,272.467 164.419,272.690 164.419 C 272.914 164.419,273.035 164.293,272.959 164.139 C 271.853 161.868,271.161 161.094,271.161 162.126 M241.948 166.609 C 241.948 166.956,242.938 167.878,243.820 168.353 C 244.129 168.519,243.887 168.123,243.282 167.474 C 242.110 166.215,241.948 166.110,241.948 166.609 M274.184 167.228 C 274.184 167.434,274.425 168.024,274.719 168.539 C 275.013 169.054,275.254 169.307,275.254 169.101 C 275.254 168.895,275.013 168.305,274.719 167.790 C 274.425 167.275,274.184 167.022,274.184 167.228 M149.438 169.101 C 149.174 169.420,149.041 169.765,149.144 169.868 C 149.247 169.971,149.548 169.795,149.813 169.476 C 150.077 169.157,150.210 168.811,150.107 168.708 C 150.004 168.605,149.703 168.782,149.438 169.101 M244.195 169.197 C 244.195 169.403,244.448 169.781,244.757 170.037 C 245.070 170.298,245.318 170.338,245.318 170.129 C 245.318 169.923,245.066 169.545,244.757 169.288 C 244.443 169.028,244.195 168.988,244.195 169.197 M117.822 170.278 C 117.465 171.208,117.858 171.335,118.335 170.444 C 118.565 170.014,118.597 169.663,118.405 169.663 C 118.214 169.663,117.951 169.940,117.822 170.278 M147.896 171.095 C 146.999 172.143,146.745 172.659,147.126 172.659 C 147.517 172.659,148.834 170.806,148.605 170.578 C 148.526 170.499,148.207 170.732,147.896 171.095 M276.036 171.442 C 276.046 171.955,276.735 172.828,276.955 172.608 C 277.250 172.313,276.780 171.161,276.364 171.161 C 276.180 171.161,276.033 171.287,276.036 171.442 M145.361 174.911 C 144.899 175.732,144.603 176.404,144.702 176.404 C 144.990 176.404,146.545 173.761,146.364 173.580 C 146.274 173.490,145.823 174.089,145.361 174.911 M247.191 173.712 C 247.191 174.045,248.608 175.655,248.901 175.655 C 249.001 175.655,248.821 175.150,248.502 174.532 C 247.964 173.491,247.191 173.008,247.191 173.712 M115.075 176.988 C 114.532 177.577,114.458 178.277,114.938 178.277 C 115.226 178.277,115.833 176.746,115.622 176.552 C 115.579 176.513,115.332 176.709,115.075 176.988 M250.214 178.090 C 250.214 178.296,250.455 178.886,250.749 179.401 C 251.043 179.916,251.284 180.169,251.284 179.963 C 251.284 179.757,251.043 179.167,250.749 178.652 C 250.455 178.137,250.214 177.884,250.214 178.090 M142.579 179.601 C 141.816 181.200,141.786 181.489,142.450 180.824 C 142.973 180.301,143.820 178.857,143.820 178.489 C 143.820 177.834,143.124 178.457,142.579 179.601 M252.060 182.527 C 252.060 182.804,252.423 183.436,252.867 183.931 C 253.553 184.696,253.631 184.718,253.387 184.082 C 253.228 183.670,253.014 183.038,252.910 182.678 C 252.689 181.907,252.060 181.796,252.060 182.527 M280.150 182.584 C 280.150 182.893,280.318 183.146,280.524 183.146 C 280.730 183.146,280.899 182.893,280.899 182.584 C 280.899 182.275,280.730 182.022,280.524 182.022 C 280.318 182.022,280.150 182.275,280.150 182.584 M140.866 183.562 C 140.635 184.224,140.512 184.831,140.592 184.911 C 140.672 184.991,140.926 184.515,141.157 183.854 C 141.388 183.192,141.511 182.585,141.431 182.504 C 141.351 182.424,141.096 182.900,140.866 183.562 M254.360 187.640 C 254.360 187.949,254.505 188.539,254.682 188.951 C 254.885 189.423,255.004 189.493,255.004 189.139 C 255.004 188.830,254.859 188.240,254.682 187.828 C 254.479 187.356,254.360 187.286,254.360 187.640 M137.828 192.322 C 137.828 192.631,137.996 192.884,138.202 192.884 C 138.408 192.884,138.577 192.631,138.577 192.322 C 138.577 192.013,138.408 191.760,138.202 191.760 C 137.996 191.760,137.828 192.013,137.828 192.322 M110.118 197.285 C 110.135 198.106,110.850 198.650,110.856 197.846 C 110.859 197.383,110.693 197.004,110.487 197.004 C 110.281 197.004,110.115 197.130,110.118 197.285 M256.554 197.731 C 256.554 198.155,256.723 198.502,256.929 198.502 C 257.135 198.502,257.303 198.259,257.303 197.962 C 257.303 197.665,257.135 197.318,256.929 197.191 C 256.723 197.064,256.554 197.307,256.554 197.731 M256.929 200.936 C 256.929 201.451,257.097 201.873,257.303 201.873 C 257.509 201.873,257.678 201.451,257.678 200.936 C 257.678 200.421,257.509 200.000,257.303 200.000 C 257.097 200.000,256.929 200.421,256.929 200.936 M283.615 201.685 C 283.619 202.509,283.696 202.802,283.785 202.336 C 283.875 201.871,283.872 201.196,283.778 200.838 C 283.684 200.480,283.611 200.861,283.615 201.685 M136.416 201.873 C 136.416 202.594,136.494 202.889,136.588 202.528 C 136.682 202.168,136.682 201.578,136.588 201.217 C 136.494 200.857,136.416 201.152,136.416 201.873 M109.738 203.955 C 109.738 205.497,109.877 206.325,110.112 206.180 C 110.318 206.052,110.487 204.947,110.487 203.723 C 110.487 202.490,110.320 201.498,110.112 201.498 C 109.901 201.498,109.738 202.567,109.738 203.955 M109.738 209.903 C 109.738 211.291,109.901 212.360,110.112 212.360 C 110.320 212.360,110.487 211.368,110.487 210.134 C 110.487 208.911,110.318 207.805,110.112 207.678 C 109.877 207.533,109.738 208.361,109.738 209.903 M136.416 211.985 C 136.416 212.706,136.494 213.001,136.588 212.640 C 136.682 212.280,136.682 211.690,136.588 211.330 C 136.494 210.969,136.416 211.264,136.416 211.985 M283.607 212.360 C 283.607 213.081,283.685 213.375,283.779 213.015 C 283.873 212.654,283.873 212.065,283.779 211.704 C 283.685 211.344,283.607 211.639,283.607 212.360 M256.929 212.921 C 256.929 213.436,257.097 213.858,257.303 213.858 C 257.509 213.858,257.678 213.436,257.678 212.921 C 257.678 212.406,257.509 211.985,257.303 211.985 C 257.097 211.985,256.929 212.406,256.929 212.921 M110.311 216.215 C 110.151 216.584,110.125 216.991,110.253 217.120 C 110.634 217.500,110.940 216.966,110.765 216.228 C 110.610 215.574,110.590 215.573,110.311 216.215 M251.746 232.040 C 251.205 233.226,251.205 233.333,251.748 233.333 C 251.988 233.333,252.080 233.229,251.953 233.101 C 251.825 232.974,251.966 232.625,252.265 232.326 C 252.865 231.725,252.984 231.086,252.495 231.086 C 252.322 231.086,251.985 231.515,251.746 232.040 M250.180 235.487 C 249.025 237.755,248.675 238.577,248.863 238.577 C 248.946 238.577,249.595 237.481,250.306 236.142 C 251.017 234.803,251.483 233.708,251.342 233.708 C 251.201 233.708,250.678 234.508,250.180 235.487 M143.654 235.938 C 143.800 236.443,144.150 237.087,144.431 237.369 C 145.201 238.138,145.043 237.417,144.164 236.142 C 143.464 235.128,143.415 235.108,143.654 235.938 M145.736 239.696 C 146.197 240.518,146.636 241.129,146.711 241.054 C 146.872 240.893,145.324 238.202,145.070 238.202 C 144.974 238.202,145.274 238.875,145.736 239.696 M247.054 240.441 C 245.967 242.083,245.889 242.322,246.442 242.322 C 246.648 242.322,246.816 242.069,246.816 241.760 C 246.816 241.451,246.949 241.199,247.110 241.199 C 247.272 241.199,247.703 240.693,248.068 240.075 C 249.055 238.404,248.196 238.714,247.054 240.441 M147.277 242.018 C 147.358 242.262,147.625 242.529,147.870 242.611 C 148.144 242.702,148.227 242.531,148.088 242.166 C 147.826 241.485,147.052 241.344,147.277 242.018 M275.852 243.053 C 275.070 244.566,275.136 244.851,276.030 243.820 C 276.710 243.036,277.042 241.948,276.601 241.948 C 276.504 241.948,276.167 242.445,275.852 243.053 M148.327 243.258 C 148.332 243.464,149.001 244.391,149.813 245.318 C 150.624 246.245,151.286 246.835,151.284 246.629 C 151.281 246.423,150.612 245.496,149.798 244.569 C 148.983 243.642,148.321 243.052,148.327 243.258 M118.352 244.781 C 118.352 244.898,118.527 245.319,118.740 245.718 C 119.316 246.794,119.909 246.606,119.408 245.506 C 119.030 244.677,118.352 244.212,118.352 244.781 M243.727 244.974 C 243.023 245.384,242.839 246.067,243.433 246.067 C 243.631 246.067,243.974 245.730,244.195 245.318 C 244.651 244.467,244.627 244.449,243.727 244.974 M273.495 248.027 C 273.033 248.869,272.729 249.632,272.818 249.722 C 272.908 249.812,273.342 249.179,273.783 248.315 C 274.223 247.451,274.528 246.688,274.459 246.619 C 274.390 246.550,273.956 247.184,273.495 248.027 M240.075 249.174 C 238.942 250.246,237.678 251.542,237.266 252.053 L 236.517 252.982 237.806 252.021 C 238.927 251.187,242.665 247.162,242.277 247.208 C 242.199 247.217,241.208 248.102,240.075 249.174 M153.776 249.813 C 154.980 251.049,156.113 252.060,156.294 252.060 C 156.474 252.060,155.651 251.049,154.464 249.813 C 153.277 248.577,152.144 247.566,151.946 247.566 C 151.749 247.566,152.572 248.577,153.776 249.813 M270.807 252.528 L 269.941 254.120 271.113 252.880 C 272.262 251.663,272.586 250.936,271.979 250.936 C 271.811 250.936,271.284 251.653,270.807 252.528 M122.097 251.587 C 122.097 252.149,123.196 253.423,123.209 252.876 C 123.216 252.604,122.968 252.128,122.659 251.819 C 122.350 251.510,122.097 251.406,122.097 251.587 M158.801 254.307 C 159.728 255.119,160.655 255.783,160.861 255.783 C 161.067 255.783,160.478 255.119,159.551 254.307 C 158.624 253.495,157.697 252.831,157.491 252.831 C 157.285 252.831,157.875 253.495,158.801 254.307 M234.508 254.170 C 233.816 254.647,232.805 255.499,232.261 256.062 L 231.273 257.086 232.397 256.391 C 233.015 256.008,233.773 255.459,234.082 255.171 C 234.391 254.883,234.981 254.416,235.393 254.133 C 235.804 253.851,236.057 253.548,235.954 253.460 C 235.852 253.373,235.201 253.692,234.508 254.170 M399.805 286.891 C 399.805 305.328,399.850 312.870,399.906 303.652 C 399.962 294.434,399.962 279.349,399.906 270.131 C 399.850 260.913,399.805 268.455,399.805 286.891 M124.719 255.542 C 124.719 255.996,127.425 259.591,127.620 259.396 C 127.722 259.294,127.250 258.487,126.570 257.602 C 124.939 255.478,124.719 255.232,124.719 255.542 M268.572 256.118 C 268.351 256.532,267.958 257.095,267.699 257.369 C 266.612 258.522,266.215 259.176,266.603 259.176 C 267.081 259.176,269.447 255.839,269.168 255.560 C 269.061 255.453,268.793 255.705,268.572 256.118 M161.798 256.573 C 163.097 257.454,163.837 257.711,162.921 256.962 C 162.406 256.541,161.816 256.195,161.610 256.194 C 161.404 256.192,161.489 256.363,161.798 256.573 M228.464 258.427 C 227.706 259.021,227.652 259.161,228.184 259.168 C 228.544 259.172,228.839 259.007,228.839 258.801 C 228.839 258.596,229.092 258.427,229.401 258.427 C 229.710 258.427,229.963 258.258,229.963 258.052 C 229.963 257.496,229.511 257.608,228.464 258.427 M165.169 258.776 C 165.169 258.968,165.540 259.243,165.994 259.387 C 166.448 259.532,167.050 259.880,167.331 260.162 C 167.888 260.718,168.541 260.843,168.536 260.393 C 168.534 260.125,165.804 258.427,165.375 258.427 C 165.262 258.427,165.169 258.584,165.169 258.776 M226.217 259.947 C 226.217 260.165,226.063 260.249,225.875 260.132 C 225.686 260.016,225.476 260.048,225.407 260.204 C 225.337 260.359,224.397 260.895,223.316 261.393 C 222.235 261.892,221.408 262.356,221.478 262.426 C 221.723 262.672,226.592 260.288,226.592 259.921 C 226.592 259.717,226.507 259.551,226.404 259.551 C 226.301 259.551,226.217 259.729,226.217 259.947 M264.926 260.955 C 263.349 262.939,263.017 263.736,264.420 262.172 C 265.554 260.908,266.465 259.551,266.181 259.551 C 266.105 259.551,265.541 260.183,264.926 260.955 M127.715 260.147 C 127.715 260.268,128.583 261.237,129.643 262.300 L 131.570 264.232 129.972 262.079 C 128.565 260.182,127.715 259.454,127.715 260.147 M170.787 261.798 C 171.507 262.192,172.266 262.515,172.472 262.515 C 172.678 262.515,172.257 262.192,171.536 261.798 C 170.815 261.403,170.056 261.080,169.850 261.080 C 169.644 261.080,170.066 261.403,170.787 261.798 M173.917 263.181 C 174.060 263.323,174.551 263.492,175.010 263.556 C 175.671 263.649,175.727 263.596,175.281 263.303 C 174.645 262.884,173.520 262.783,173.917 263.181 M215.262 264.303 C 214.461 264.512,214.390 265.169,215.169 265.169 C 215.478 265.169,215.730 265.005,215.730 264.806 C 215.730 264.606,215.983 264.540,216.292 264.659 C 216.601 264.777,216.854 264.688,216.854 264.460 C 216.854 264.038,216.436 263.996,215.262 264.303 M258.052 268.442 C 255.684 270.824,253.955 272.705,254.212 272.622 C 254.648 272.482,262.921 264.457,262.921 264.175 C 262.921 263.686,261.841 264.633,258.052 268.442 M131.835 264.997 C 131.835 265.378,138.675 271.937,138.870 271.742 C 139.062 271.550,132.415 264.794,132.034 264.794 C 131.925 264.794,131.835 264.885,131.835 264.997 M195.787 267.687 C 196.456 267.770,197.551 267.770,198.221 267.687 C 198.890 267.604,198.343 267.536,197.004 267.536 C 195.665 267.536,195.117 267.604,195.787 267.687 M140.449 273.300 C 141.393 274.500,141.948 274.826,141.948 274.183 C 141.948 273.991,141.400 273.446,140.730 272.972 L 139.513 272.111 140.449 273.300 M252.245 273.785 C 251.257 274.877,251.723 275.022,252.760 273.944 C 253.242 273.444,253.477 273.034,253.281 273.034 C 253.085 273.034,252.619 273.372,252.245 273.785 M142.697 274.815 C 142.697 275.021,142.949 275.399,143.258 275.655 C 143.572 275.916,143.820 275.956,143.820 275.747 C 143.820 275.541,143.567 275.163,143.258 274.906 C 142.945 274.646,142.697 274.606,142.697 274.815 M249.078 276.420 C 248.365 277.029,247.943 277.524,248.141 277.518 C 248.340 277.512,249.092 277.011,249.813 276.404 C 250.534 275.798,250.955 275.303,250.749 275.306 C 250.543 275.309,249.791 275.810,249.078 276.420 M145.318 277.119 C 146.039 277.745,146.798 278.258,147.004 278.259 C 147.434 278.261,145.871 276.947,144.757 276.370 C 144.345 276.156,144.597 276.494,145.318 277.119 M148.689 279.557 C 148.689 279.787,151.155 281.273,151.536 281.273 C 151.714 281.273,151.239 280.852,150.481 280.337 C 149.147 279.430,148.689 279.231,148.689 279.557 M243.820 280.181 L 242.884 280.944 244.101 280.350 C 244.771 280.023,245.318 279.676,245.318 279.578 C 245.318 279.206,244.722 279.446,243.820 280.181 M240.730 281.907 C 239.064 282.835,238.467 283.521,239.326 283.521 C 239.532 283.521,239.700 283.355,239.700 283.154 C 239.700 282.952,240.375 282.443,241.199 282.022 C 242.022 281.602,242.697 281.177,242.697 281.079 C 242.697 280.816,242.671 280.827,240.730 281.907 M152.060 281.441 C 152.060 281.544,152.566 281.890,153.184 282.210 C 153.801 282.529,154.307 282.707,154.307 282.604 C 154.307 282.501,153.801 282.155,153.184 281.835 C 152.566 281.516,152.060 281.338,152.060 281.441 M154.682 283.141 C 154.682 283.468,155.860 284.270,156.342 284.270 C 156.912 284.270,156.447 283.592,155.618 283.214 C 155.083 282.970,154.682 282.939,154.682 283.141 M156.929 284.195 C 156.929 284.502,160.300 286.266,160.502 286.065 C 160.564 286.003,159.785 285.490,158.771 284.924 C 157.758 284.358,156.929 284.030,156.929 284.195 M235.206 285.019 C 234.485 285.413,234.064 285.736,234.270 285.736 C 234.476 285.736,235.234 285.413,235.955 285.019 C 236.676 284.624,237.097 284.301,236.891 284.301 C 236.685 284.301,235.927 284.624,235.206 285.019 M163.380 287.404 C 164.055 288.079,165.543 288.542,165.543 288.077 C 165.543 287.877,165.012 287.529,164.364 287.303 C 162.851 286.775,162.761 286.785,163.380 287.404 M178.277 292.135 C 178.277 292.341,178.530 292.509,178.839 292.509 C 179.148 292.509,179.401 292.341,179.401 292.135 C 179.401 291.929,179.148 291.760,178.839 291.760 C 178.530 291.760,178.277 291.929,178.277 292.135 M180.524 292.509 C 180.524 292.715,180.777 292.884,181.086 292.884 C 181.395 292.884,181.648 292.715,181.648 292.509 C 181.648 292.303,181.395 292.135,181.086 292.135 C 180.777 292.135,180.524 292.303,180.524 292.509 M189.513 293.626 C 189.513 293.836,190.047 294.007,190.699 294.007 C 192.063 294.007,192.013 293.844,190.543 293.491 C 189.932 293.345,189.513 293.399,189.513 293.626 M202.809 293.633 C 202.185 293.901,202.267 293.959,203.299 293.981 C 204.036 293.997,204.445 293.855,204.307 293.633 C 204.037 293.196,203.825 293.196,202.809 293.633 M371.161 326.936 C 371.161 327.125,371.059 327.546,370.934 327.872 C 370.807 328.203,370.899 328.464,371.143 328.464 C 371.383 328.464,371.483 328.308,371.364 328.116 C 371.246 327.924,371.320 327.661,371.529 327.532 C 372.019 327.229,372.023 326.592,371.536 326.592 C 371.330 326.592,371.161 326.747,371.161 326.936 M28.090 327.319 C 28.090 327.513,28.261 327.777,28.471 327.906 C 28.680 328.036,28.754 328.299,28.636 328.490 C 28.517 328.682,28.617 328.839,28.857 328.839 C 29.101 328.839,29.193 328.578,29.066 328.247 C 28.941 327.921,28.839 327.499,28.839 327.310 C 28.839 327.121,28.670 326.966,28.464 326.966 C 28.258 326.966,28.090 327.125,28.090 327.319 M29.619 330.524 C 29.619 330.730,29.942 331.489,30.337 332.210 C 30.732 332.931,31.055 333.352,31.055 333.146 C 31.055 332.940,30.732 332.182,30.337 331.461 C 29.942 330.740,29.619 330.318,29.619 330.524 M368.526 333.555 C 368.302 334.146,367.918 334.756,367.673 334.912 C 367.334 335.127,367.337 335.196,367.687 335.200 C 368.195 335.207,369.464 333.009,369.139 332.685 C 369.027 332.572,368.751 332.964,368.526 333.555 M396.957 332.709 C 396.931 332.846,396.886 333.085,396.858 333.240 C 396.829 333.394,396.678 333.720,396.524 333.963 C 396.369 334.206,396.396 334.500,396.583 334.616 C 396.954 334.845,397.545 333.001,397.209 332.665 C 397.096 332.552,396.983 332.572,396.957 332.709 M31.824 335.185 C 32.284 336.044,32.959 336.531,32.959 336.004 C 32.959 335.632,31.933 334.457,31.608 334.457 C 31.512 334.457,31.610 334.785,31.824 335.185 M33.186 337.235 C 33.311 337.561,33.578 337.828,33.779 337.828 C 34.271 337.828,33.963 336.976,33.403 336.790 C 33.130 336.699,33.046 336.870,33.186 337.235 M395.131 337.348 C 395.131 337.578,395.014 338.075,394.871 338.453 C 394.620 339.115,394.635 339.115,395.297 338.459 C 395.808 337.952,395.874 337.672,395.556 337.354 C 395.247 337.045,395.131 337.043,395.131 337.348 M34.849 339.228 C 35.325 339.895,35.802 340.353,35.909 340.246 C 36.015 340.140,35.626 339.594,35.043 339.034 L 33.984 338.015 34.849 339.228 M362.921 340.812 C 360.950 342.584,360.681 343.120,362.160 342.328 C 362.762 342.007,365.436 338.945,365.106 338.955 C 365.038 338.958,364.054 339.793,362.921 340.812 M37.521 341.962 C 37.609 342.228,38.094 342.712,38.597 343.039 L 39.513 343.633 38.919 342.717 C 38.275 341.724,37.258 341.175,37.521 341.962 M6.367 342.434 C 6.367 342.943,8.287 346.561,9.836 348.970 C 12.694 353.417,11.732 351.359,7.781 344.575 C 7.003 343.240,6.367 342.276,6.367 342.434 M359.551 343.854 C 358.929 344.362,358.866 344.490,359.363 344.232 C 360.585 343.601,361.262 343.082,360.861 343.085 C 360.655 343.087,360.066 343.432,359.551 343.854 M356.273 345.415 C 355.398 345.855,354.682 346.353,354.682 346.521 C 354.682 346.933,357.185 345.865,357.905 345.145 C 358.677 344.372,358.188 344.453,356.273 345.415 M353.184 346.816 C 353.184 347.022,353.436 347.191,353.745 347.191 C 354.054 347.191,354.307 347.022,354.307 346.816 C 354.307 346.610,354.054 346.442,353.745 346.442 C 353.436 346.442,353.184 346.610,353.184 346.816 M389.891 348.408 C 389.473 349.284,389.343 349.679,389.603 349.287 C 389.862 348.896,390.370 348.310,390.730 347.987 C 391.455 347.337,391.584 346.816,391.019 346.816 C 390.817 346.816,390.310 347.533,389.891 348.408 M387.640 351.701 C 387.640 351.916,387.305 352.451,386.895 352.891 C 386.486 353.331,386.248 353.787,386.367 353.905 C 386.594 354.130,388.384 352.080,388.388 351.592 C 388.389 351.437,388.221 351.311,388.015 351.311 C 387.809 351.311,387.640 351.486,387.640 351.701 M11.621 351.966 C 11.638 352.441,13.787 354.877,14.001 354.663 C 14.112 354.553,13.787 353.980,13.281 353.390 C 12.774 352.800,12.360 352.176,12.360 352.002 C 12.360 351.828,12.191 351.685,11.985 351.685 C 11.779 351.685,11.615 351.812,11.621 351.966 M14.928 356.086 C 15.397 356.756,15.860 357.303,15.956 357.303 C 16.280 357.303,15.403 355.936,14.735 355.400 C 14.266 355.023,14.322 355.223,14.928 356.086 M381.263 359.374 C 379.942 360.707,378.988 361.798,379.144 361.798 C 379.572 361.798,384.063 357.346,383.850 357.134 C 383.749 357.032,382.585 358.040,381.263 359.374 M16.485 357.878 C 16.493 358.424,20.583 362.313,20.859 362.037 C 20.991 361.906,21.024 361.756,20.934 361.704 C 20.843 361.653,19.804 360.689,18.624 359.563 C 17.445 358.437,16.482 357.679,16.485 357.878 M21.875 363.241 C 22.267 363.683,22.740 364.045,22.927 364.045 C 23.454 364.045,22.893 363.346,21.983 362.869 C 21.167 362.441,21.166 362.443,21.875 363.241 M377.154 363.109 C 376.893 363.422,376.853 363.670,377.062 363.670 C 377.268 363.670,377.646 363.418,377.903 363.109 C 378.163 362.795,378.203 362.547,377.994 362.547 C 377.788 362.547,377.410 362.800,377.154 363.109 M372.097 366.720 L 371.348 367.479 372.378 367.013 C 372.945 366.756,373.408 366.405,373.408 366.232 C 373.408 365.720,372.897 365.911,372.097 366.720 M26.804 366.627 C 26.700 366.794,27.031 367.121,27.540 367.353 C 28.657 367.862,28.695 367.780,27.728 366.952 C 27.323 366.605,26.907 366.459,26.804 366.627 M368.914 368.539 C 368.193 368.934,367.738 369.264,367.902 369.273 C 368.299 369.293,370.412 368.195,370.412 367.968 C 370.412 367.723,370.390 367.731,368.914 368.539 M29.588 368.349 C 29.588 368.605,31.881 369.742,32.053 369.570 C 32.134 369.489,31.613 369.142,30.894 368.800 C 30.176 368.457,29.588 368.254,29.588 368.349 M32.584 369.977 C 32.584 370.250,34.184 371.161,34.662 371.161 C 35.201 371.161,34.689 370.467,33.878 370.098 C 32.740 369.579,32.584 369.565,32.584 369.977 M364.700 370.321 C 364.340 370.401,364.045 370.623,364.045 370.814 C 364.045 371.253,364.451 371.248,365.158 370.801 C 365.830 370.376,365.590 370.123,364.700 370.321 M35.581 371.529 C 36.217 371.948,37.342 372.048,36.944 371.651 C 36.802 371.508,36.310 371.339,35.852 371.275 C 35.191 371.183,35.135 371.235,35.581 371.529 M48.408 374.415 C 48.769 374.510,49.359 374.510,49.719 374.415 C 50.080 374.321,49.785 374.244,49.064 374.244 C 48.343 374.244,48.048 374.321,48.408 374.415 M162.797 374.438 C 197.027 374.491,253.150 374.491,287.516 374.438 C 321.882 374.385,293.876 374.342,225.281 374.342 C 156.685 374.342,128.568 374.385,162.797 374.438 " stroke="none" fill="#c7c7c7" fill-rule="evenodd"></path><path id="path2" d="M167.899 0.653 C 169.298 0.725,171.489 0.724,172.768 0.651 C 174.047 0.579,172.903 0.519,170.225 0.520 C 167.547 0.521,166.500 0.580,167.899 0.653 M242.984 0.646 C 243.657 0.729,244.669 0.728,245.231 0.642 C 245.794 0.557,245.243 0.488,244.007 0.491 C 242.772 0.493,242.311 0.563,242.984 0.646 M154.588 1.013 C 155.051 1.103,155.810 1.103,156.273 1.013 C 156.737 0.924,156.358 0.851,155.431 0.851 C 154.504 0.851,154.125 0.924,154.588 1.013 M146.255 1.562 C 145.225 1.758,144.213 2.086,144.007 2.292 C 143.758 2.541,143.845 2.586,144.268 2.425 C 144.617 2.292,146.218 1.962,147.826 1.692 C 149.433 1.421,150.159 1.202,149.438 1.204 C 148.717 1.206,147.285 1.367,146.255 1.562 M254.292 1.694 C 255.211 1.980,256.020 2.157,256.090 2.087 C 256.282 1.895,253.911 1.120,253.221 1.149 C 252.892 1.162,253.373 1.408,254.292 1.694 M134.363 5.832 C 132.911 6.620,133.076 6.892,134.551 6.142 C 135.962 5.424,136.212 5.238,135.737 5.258 C 135.548 5.267,134.930 5.525,134.363 5.832 M120.776 16.199 L 118.165 18.914 120.880 16.302 C 123.402 13.876,123.767 13.483,123.492 13.483 C 123.435 13.483,122.213 14.705,120.776 16.199 M276.966 14.981 C 277.771 15.805,278.513 16.479,278.616 16.479 C 278.719 16.479,278.145 15.805,277.341 14.981 C 276.536 14.157,275.794 13.483,275.691 13.483 C 275.588 13.483,276.162 14.157,276.966 14.981 M204.428 25.749 C 210.674 25.807,220.786 25.807,226.900 25.749 C 233.013 25.691,227.903 25.644,215.543 25.644 C 203.184 25.644,198.182 25.691,204.428 25.749 M111.847 27.060 L 111.173 28.277 111.945 27.341 C 112.630 26.510,112.934 25.843,112.628 25.843 C 112.569 25.843,112.218 26.390,111.847 27.060 M169.207 26.119 C 170.296 26.195,171.981 26.194,172.953 26.117 C 173.924 26.041,173.034 25.979,170.974 25.979 C 168.914 25.980,168.119 26.043,169.207 26.119 M183.427 26.120 C 184.714 26.193,186.821 26.193,188.109 26.120 C 189.396 26.047,188.343 25.987,185.768 25.987 C 183.193 25.987,182.140 26.047,183.427 26.120 M240.543 26.116 C 241.316 26.196,242.580 26.196,243.352 26.116 C 244.125 26.035,243.493 25.969,241.948 25.969 C 240.403 25.969,239.771 26.035,240.543 26.116 M155.712 26.488 C 156.381 26.571,157.477 26.571,158.146 26.488 C 158.816 26.405,158.268 26.337,156.929 26.337 C 155.590 26.337,155.042 26.405,155.712 26.488 M255.431 29.724 C 255.431 29.827,255.936 30.272,256.554 30.712 C 257.172 31.152,257.678 31.427,257.678 31.324 C 257.678 31.221,257.172 30.777,256.554 30.337 C 255.936 29.897,255.431 29.621,255.431 29.724 M261.248 34.839 C 262.683 36.389,263.934 37.604,264.028 37.541 C 264.121 37.477,262.947 36.210,261.418 34.724 L 258.639 32.022 261.248 34.839 M106.929 35.206 C 106.609 35.824,106.432 36.330,106.535 36.330 C 106.638 36.330,106.984 35.824,107.303 35.206 C 107.623 34.588,107.800 34.082,107.697 34.082 C 107.594 34.082,107.248 34.588,106.929 35.206 M136.471 36.798 C 135.365 38.060,134.719 38.951,134.910 38.951 C 135.004 38.951,135.622 38.277,136.285 37.453 C 137.570 35.854,137.700 35.395,136.471 36.798 M272.285 50.705 C 272.285 51.107,273.399 53.184,273.615 53.184 C 273.718 53.184,273.523 52.636,273.183 51.966 C 272.488 50.599,272.285 50.314,272.285 50.705 M126.966 52.139 C 126.966 52.251,126.711 52.953,126.399 53.700 C 126.088 54.446,125.917 55.056,126.020 55.056 C 126.316 55.056,127.372 52.341,127.158 52.127 C 127.053 52.022,126.966 52.027,126.966 52.139 M98.496 54.885 C 98.019 56.139,97.598 57.915,97.833 57.678 C 98.122 57.387,99.227 53.933,99.032 53.933 C 98.936 53.933,98.695 54.361,98.496 54.885 M54.144 61.748 C 53.539 61.879,59.523 62.002,67.440 62.023 C 79.310 62.054,80.554 62.013,74.532 61.792 C 65.433 61.457,55.596 61.436,54.144 61.748 M276.779 61.544 C 276.779 61.610,277.046 62.495,277.373 63.510 C 277.699 64.525,278.040 65.591,278.131 65.878 C 278.221 66.165,278.374 66.320,278.471 66.223 C 278.661 66.033,277.184 61.423,276.932 61.423 C 276.848 61.423,276.779 61.477,276.779 61.544 M308.240 62.063 C 318.758 62.317,350.075 62.333,349.684 62.084 C 349.446 61.933,339.054 61.843,326.592 61.884 C 314.129 61.925,305.871 62.006,308.240 62.063 M122.084 65.224 C 121.844 66.121,121.555 67.022,121.443 67.228 C 121.307 67.478,121.370 67.478,121.633 67.228 C 122.070 66.814,122.915 63.988,122.674 63.747 C 122.590 63.663,122.324 64.328,122.084 65.224 M35.768 65.523 C 33.794 66.457,34.173 66.476,36.517 65.560 C 37.547 65.158,38.137 64.826,37.828 64.821 C 37.519 64.817,36.592 65.133,35.768 65.523 M377.872 75.042 C 378.371 75.657,379.775 76.585,379.775 76.301 C 379.775 76.229,379.228 75.770,378.558 75.280 C 377.805 74.728,377.543 74.638,377.872 75.042 M380.150 76.896 C 380.150 76.961,380.698 77.508,381.367 78.113 L 382.584 79.213 381.484 77.996 C 380.459 76.862,380.150 76.607,380.150 76.896 M281.675 79.316 C 281.907 79.982,282.249 80.620,282.437 80.736 C 282.624 80.852,282.575 80.472,282.329 79.893 C 281.667 78.338,281.186 77.914,281.675 79.316 M14.770 80.243 L 13.670 81.461 14.888 80.361 C 16.022 79.335,16.277 79.026,15.988 79.026 C 15.923 79.026,15.375 79.574,14.770 80.243 M383.895 80.771 C 383.895 80.976,384.359 81.551,384.925 82.051 L 385.955 82.959 385.019 81.835 C 384.504 81.217,384.040 80.641,383.989 80.556 C 383.937 80.470,383.895 80.567,383.895 80.771 M53.745 87.640 C 53.618 87.846,53.767 88.015,54.076 88.015 C 54.385 88.015,54.742 87.846,54.869 87.640 C 54.996 87.434,54.848 87.266,54.539 87.266 C 54.230 87.266,53.873 87.434,53.745 87.640 M73.970 87.655 C 77.087 88.042,89.197 88.011,86.704 87.623 C 85.674 87.463,81.882 87.342,78.277 87.354 C 73.555 87.370,72.351 87.454,73.970 87.655 M351.778 88.606 C 352.118 88.947,356.929 90.998,356.929 90.802 C 356.929 90.585,355.725 89.993,353.519 89.123 C 352.408 88.685,351.624 88.453,351.778 88.606 M36.119 94.850 L 35.019 96.067 36.328 94.944 C 37.048 94.326,37.708 93.778,37.795 93.727 C 37.881 93.675,37.787 93.633,37.586 93.633 C 37.384 93.633,36.724 94.181,36.119 94.850 M361.423 93.750 C 361.423 93.815,361.971 94.362,362.640 94.967 L 363.858 96.067 362.758 94.850 C 361.732 93.716,361.423 93.461,361.423 93.750 M29.775 102.622 C 29.456 103.240,29.279 103.745,29.382 103.745 C 29.485 103.745,29.830 103.240,30.150 102.622 C 30.469 102.004,30.647 101.498,30.544 101.498 C 30.441 101.498,30.095 102.004,29.775 102.622 M369.288 103.514 C 369.288 103.916,370.403 105.993,370.618 105.993 C 370.721 105.993,370.527 105.445,370.187 104.775 C 369.491 103.408,369.288 103.123,369.288 103.514 M1.741 104.778 C 1.645 104.934,1.466 105.735,1.344 106.557 C 1.095 108.238,1.275 107.989,1.820 105.899 C 2.166 104.574,2.136 104.140,1.741 104.778 M397.586 107.770 C 397.869 108.955,398.107 110.164,398.114 110.456 C 398.121 110.748,398.223 110.890,398.341 110.773 C 398.619 110.495,397.740 106.029,397.361 105.795 C 397.201 105.696,397.302 106.585,397.586 107.770 M352.059 107.397 C 352.549 108.066,353.008 108.614,353.080 108.614 C 353.364 108.614,352.436 107.210,351.822 106.711 C 351.417 106.382,351.507 106.644,352.059 107.397 M25.672 114.062 C 25.529 115.017,25.489 115.876,25.582 115.969 C 25.676 116.063,25.870 115.358,26.013 114.402 C 26.156 113.447,26.197 112.589,26.103 112.495 C 26.010 112.402,25.816 113.107,25.672 114.062 M373.490 115.730 C 373.486 116.245,373.618 117.088,373.783 117.603 C 374.186 118.862,374.186 117.502,373.783 115.918 C 373.526 114.908,373.496 114.889,373.490 115.730 M399.379 118.914 C 399.381 120.562,399.447 121.189,399.526 120.308 C 399.605 119.428,399.604 118.079,399.523 117.312 C 399.443 116.545,399.378 117.266,399.379 118.914 M189.513 120.599 L 188.202 120.875 189.513 120.919 C 190.234 120.943,191.077 120.799,191.386 120.599 C 192.067 120.159,191.604 120.159,189.513 120.599 M195.412 120.499 C 196.287 120.578,197.720 120.578,198.596 120.499 C 199.471 120.420,198.755 120.356,197.004 120.356 C 195.253 120.356,194.537 120.420,195.412 120.499 M202.622 120.588 C 202.931 120.794,203.759 120.965,204.463 120.968 C 206.142 120.976,205.843 120.763,203.745 120.459 C 202.568 120.288,202.229 120.327,202.622 120.588 M185.955 120.974 L 185.206 121.296 185.955 121.316 C 186.367 121.328,186.957 121.173,187.266 120.974 C 188.010 120.493,187.075 120.493,185.955 120.974 M310.112 123.970 C 310.112 124.215,316.410 124.345,328.255 124.345 C 339.946 124.345,346.480 124.211,346.629 123.970 C 346.782 123.722,340.641 123.596,328.487 123.596 C 316.487 123.596,310.112 123.725,310.112 123.970 M168.851 124.852 C 168.095 125.088,167.337 125.428,167.165 125.608 C 166.811 125.981,168.160 125.620,169.850 124.891 C 171.231 124.294,170.702 124.274,168.851 124.852 M226.217 125.601 C 226.938 125.885,227.598 126.056,227.684 125.980 C 227.983 125.717,227.465 125.475,226.190 125.280 L 224.906 125.084 226.217 125.601 M135.955 145.506 C 134.420 147.051,133.249 148.315,133.352 148.315 C 133.455 148.315,134.795 147.051,136.330 145.506 C 137.864 143.961,139.036 142.697,138.933 142.697 C 138.830 142.697,137.490 143.961,135.955 145.506 M257.865 145.693 C 259.503 147.341,260.928 148.689,261.031 148.689 C 261.134 148.689,259.878 147.341,258.240 145.693 C 256.601 144.045,255.177 142.697,255.074 142.697 C 254.971 142.697,256.227 144.045,257.865 145.693 M189.888 146.442 C 189.888 146.648,190.140 146.816,190.449 146.816 C 190.758 146.816,191.011 146.648,191.011 146.442 C 191.011 146.236,190.758 146.067,190.449 146.067 C 190.140 146.067,189.888 146.236,189.888 146.442 M202.996 146.442 C 202.996 146.648,203.249 146.816,203.558 146.816 C 203.867 146.816,204.120 146.648,204.120 146.442 C 204.120 146.236,203.867 146.067,203.558 146.067 C 203.249 146.067,202.996 146.236,202.996 146.442 M181.086 147.833 C 179.939 148.109,179.587 148.621,180.689 148.411 C 181.222 148.309,181.751 148.077,181.863 147.895 C 181.975 147.714,182.015 147.585,181.951 147.609 C 181.887 147.633,181.498 147.734,181.086 147.833 M237.828 161.450 C 237.828 161.759,242.383 166.356,242.537 166.202 C 242.613 166.126,241.585 164.982,240.252 163.660 C 238.919 162.339,237.828 161.344,237.828 161.450 M153.933 163.483 C 153.023 164.410,152.363 165.169,152.466 165.169 C 152.569 165.169,153.397 164.410,154.307 163.483 C 155.217 162.556,155.877 161.798,155.774 161.798 C 155.671 161.798,154.842 162.556,153.933 163.483 M120.412 166.292 C 120.092 166.910,119.915 167.416,120.018 167.416 C 120.121 167.416,120.467 166.910,120.787 166.292 C 121.106 165.674,121.283 165.169,121.180 165.169 C 121.077 165.169,120.732 165.674,120.412 166.292 M273.783 167.416 C 274.203 168.240,274.631 168.914,274.734 168.914 C 274.837 168.914,274.578 168.240,274.157 167.416 C 273.737 166.592,273.309 165.918,273.206 165.918 C 273.103 165.918,273.362 166.592,273.783 167.416 M245.693 170.412 C 246.133 171.030,246.577 171.536,246.680 171.536 C 246.783 171.536,246.507 171.030,246.067 170.412 C 245.627 169.794,245.183 169.288,245.080 169.288 C 244.977 169.288,245.253 169.794,245.693 170.412 M116.460 174.771 C 116.253 175.315,116.153 175.829,116.238 175.914 C 116.323 175.999,116.572 175.554,116.791 174.925 C 117.278 173.528,116.984 173.391,116.460 174.771 M278.502 178.406 C 278.837 179.387,279.177 180.124,279.257 180.044 C 279.453 179.848,278.638 177.438,278.222 176.981 C 278.042 176.783,278.168 177.424,278.502 178.406 M112.227 188.642 C 111.887 189.801,111.234 193.737,111.278 194.357 C 111.301 194.680,111.620 193.427,111.987 191.573 C 112.595 188.494,112.721 186.959,112.227 188.642 M282.423 194.641 C 282.409 195.092,282.566 195.566,282.772 195.693 C 283.215 195.967,283.215 195.600,282.772 194.569 C 282.461 193.847,282.449 193.850,282.423 194.641 M282.798 197.409 C 282.812 197.907,282.977 198.652,283.164 199.064 C 283.400 199.586,283.434 199.359,283.275 198.315 C 283.010 196.576,282.760 196.101,282.798 197.409 M136.050 201.685 C 136.054 202.509,136.130 202.802,136.220 202.336 C 136.310 201.871,136.306 201.196,136.212 200.838 C 136.119 200.480,136.045 200.861,136.050 201.685 M283.248 202.247 C 283.248 203.174,283.321 203.553,283.410 203.090 C 283.500 202.626,283.500 201.868,283.410 201.404 C 283.321 200.941,283.248 201.320,283.248 202.247 M136.088 206.929 C 136.087 208.783,136.150 209.588,136.229 208.719 C 136.307 207.850,136.308 206.333,136.231 205.348 C 136.153 204.364,136.089 205.075,136.088 206.929 M283.253 211.798 C 283.256 212.828,283.329 213.205,283.415 212.635 C 283.501 212.066,283.499 211.223,283.410 210.763 C 283.321 210.302,283.250 210.768,283.253 211.798 M136.050 212.172 C 136.054 212.996,136.130 213.289,136.220 212.823 C 136.310 212.357,136.306 211.683,136.212 211.325 C 136.119 210.967,136.045 211.348,136.050 212.172 M0.182 266.105 C 0.182 295.974,0.227 308.138,0.281 293.135 C 0.335 278.133,0.335 253.695,0.281 238.828 C 0.227 223.962,0.182 236.236,0.182 266.105 M283.011 215.060 C 282.885 215.532,282.798 216.339,282.818 216.854 C 282.839 217.406,282.987 217.108,283.180 216.128 C 283.524 214.374,283.402 213.602,283.011 215.060 M282.631 218.554 C 282.502 218.889,282.411 219.444,282.429 219.787 C 282.447 220.131,282.610 219.915,282.791 219.307 C 283.144 218.125,283.020 217.540,282.631 218.554 M112.196 225.655 C 112.600 227.373,113.134 228.120,112.865 226.592 C 112.739 225.871,112.477 225.112,112.284 224.906 C 112.063 224.671,112.030 224.950,112.196 225.655 M254.950 225.350 C 254.851 225.518,254.666 226.245,254.539 226.966 L 254.309 228.277 254.871 226.812 C 255.372 225.507,255.424 224.549,254.950 225.350 M140.138 229.607 C 140.357 230.236,140.606 230.680,140.690 230.595 C 140.876 230.410,140.169 228.464,139.916 228.464 C 139.819 228.464,139.919 228.979,140.138 229.607 M115.730 237.158 C 115.730 237.562,116.868 240.075,117.051 240.075 C 117.154 240.075,116.978 239.452,116.660 238.690 C 116.098 237.346,115.730 236.740,115.730 237.158 M273.596 246.816 C 273.276 247.434,273.099 247.940,273.202 247.940 C 273.305 247.940,273.650 247.434,273.970 246.816 C 274.290 246.199,274.467 245.693,274.364 245.693 C 274.261 245.693,273.915 246.199,273.596 246.816 M120.787 248.315 C 121.106 248.933,121.452 249.438,121.555 249.438 C 121.658 249.438,121.481 248.933,121.161 248.315 C 120.841 247.697,120.496 247.191,120.393 247.191 C 120.290 247.191,120.467 247.697,120.787 248.315 M238.577 251.401 C 236.620 253.285,235.861 254.133,236.891 253.286 C 238.735 251.770,242.646 247.923,242.308 247.958 C 242.213 247.968,240.534 249.517,238.577 251.401 M155.137 251.499 C 156.108 252.508,156.959 253.259,157.029 253.165 C 157.099 253.072,156.304 252.246,155.263 251.330 L 153.371 249.663 155.137 251.499 M161.049 256.316 C 161.049 256.419,161.554 256.863,162.172 257.303 C 162.790 257.743,163.296 258.019,163.296 257.916 C 163.296 257.813,162.790 257.369,162.172 256.929 C 161.554 256.489,161.049 256.213,161.049 256.316 M168.914 261.217 C 168.914 261.320,169.419 261.665,170.037 261.985 C 170.655 262.305,171.161 262.482,171.161 262.379 C 171.161 262.276,170.655 261.930,170.037 261.610 C 169.419 261.291,168.914 261.114,168.914 261.217 M223.596 261.798 C 222.875 262.192,222.419 262.522,222.584 262.531 C 222.981 262.552,225.094 261.454,225.094 261.226 C 225.094 260.981,225.072 260.990,223.596 261.798 M133.895 266.292 C 134.910 267.322,135.824 268.165,135.927 268.165 C 136.030 268.165,135.284 267.322,134.270 266.292 C 133.255 265.262,132.341 264.419,132.238 264.419 C 132.135 264.419,132.881 265.262,133.895 266.292 M259.925 266.105 C 259.015 267.032,258.355 267.790,258.458 267.790 C 258.561 267.790,259.390 267.032,260.300 266.105 C 261.209 265.178,261.869 264.419,261.766 264.419 C 261.663 264.419,260.835 265.178,259.925 266.105 M210.930 266.186 C 209.629 266.492,208.636 266.813,208.722 266.899 C 208.932 267.109,212.770 266.292,213.483 265.886 C 214.221 265.466,213.775 265.518,210.930 266.186 M181.835 266.292 C 182.247 266.469,182.837 266.614,183.146 266.614 C 183.500 266.614,183.431 266.495,182.959 266.292 C 182.547 266.115,181.957 265.970,181.648 265.970 C 181.294 265.970,181.363 266.089,181.835 266.292 M184.131 266.651 C 184.490 266.981,187.573 267.604,187.255 267.282 C 187.146 267.172,186.325 266.918,185.431 266.717 C 184.536 266.516,183.951 266.486,184.131 266.651 M204.682 267.416 L 203.933 267.738 204.682 267.758 C 205.094 267.770,205.684 267.615,205.993 267.416 C 206.737 266.935,205.801 266.935,204.682 267.416 M191.948 267.790 C 192.075 267.996,192.633 268.153,193.187 268.138 C 194.087 268.115,194.115 268.078,193.446 267.790 C 192.405 267.343,191.671 267.343,191.948 267.790 M200.562 267.790 C 199.893 268.078,199.921 268.115,200.821 268.138 C 201.375 268.153,201.933 267.996,202.060 267.790 C 202.336 267.343,201.602 267.343,200.562 267.790 M137.828 270.155 C 137.828 270.219,138.375 270.767,139.045 271.372 L 140.262 272.472 139.162 271.255 C 138.137 270.120,137.828 269.865,137.828 270.155 M145.318 276.592 C 146.016 277.107,146.681 277.527,146.796 277.526 C 147.149 277.523,144.779 275.683,144.403 275.669 C 144.208 275.661,144.620 276.077,145.318 276.592 M222.472 289.576 C 221.751 289.780,221.012 290.091,220.830 290.267 C 220.648 290.443,221.184 290.385,222.022 290.138 C 222.860 289.890,223.669 289.564,223.820 289.413 C 224.136 289.097,224.191 289.091,222.472 289.576 M174.310 290.677 C 175.528 291.070,176.593 291.322,176.679 291.236 C 176.848 291.067,172.933 289.864,172.414 289.925 C 172.240 289.946,173.093 290.284,174.310 290.677 M218.727 290.637 C 217.955 290.884,217.922 290.942,218.539 290.968 C 218.951 290.986,219.541 290.836,219.850 290.637 C 220.506 290.213,220.051 290.213,218.727 290.637 M187.453 293.258 C 187.580 293.464,187.937 293.633,188.246 293.633 C 188.555 293.633,188.704 293.464,188.577 293.258 C 188.449 293.052,188.092 292.884,187.784 292.884 C 187.475 292.884,187.326 293.052,187.453 293.258 M192.697 293.650 C 193.634 294.031,199.863 294.031,201.124 293.650 C 201.657 293.488,199.882 293.362,197.004 293.356 C 194.051 293.350,192.259 293.472,192.697 293.650 M25.550 318.165 C 25.554 318.577,25.685 319.419,25.843 320.037 C 26.100 321.047,26.129 321.066,26.136 320.225 C 26.139 319.710,26.008 318.867,25.843 318.352 C 25.608 317.618,25.544 317.578,25.550 318.165 M373.613 319.680 C 373.469 320.635,373.429 321.494,373.522 321.587 C 373.616 321.681,373.810 320.976,373.953 320.020 C 374.096 319.065,374.137 318.207,374.043 318.113 C 373.950 318.020,373.756 318.725,373.613 319.680 M397.859 327.941 C 397.628 328.949,397.499 329.834,397.572 329.906 C 397.780 330.114,398.561 326.957,398.412 326.510 C 398.339 326.289,398.090 326.933,397.859 327.941 M1.504 327.185 C 1.507 327.580,1.681 328.155,1.890 328.464 C 2.167 328.875,2.202 328.723,2.019 327.903 C 1.711 326.525,1.496 326.227,1.504 327.185 M5.270 338.764 C 5.270 338.970,5.511 339.560,5.805 340.075 C 6.100 340.590,6.340 340.843,6.340 340.637 C 6.340 340.431,6.100 339.841,5.805 339.326 C 5.511 338.811,5.270 338.558,5.270 338.764 M35.942 340.921 C 38.279 343.375,38.336 343.415,37.661 342.113 C 37.387 341.586,37.018 341.157,36.840 341.159 C 36.662 341.162,35.927 340.625,35.206 339.967 C 34.485 339.309,34.816 339.738,35.942 340.921 M393.134 341.635 C 392.585 342.907,392.196 344.007,392.270 344.080 C 392.343 344.153,392.854 343.175,393.404 341.906 C 393.955 340.637,394.343 339.537,394.268 339.461 C 394.192 339.386,393.682 340.364,393.134 341.635 M48.127 348.315 C 48.539 348.492,49.129 348.636,49.438 348.636 C 49.792 348.636,49.723 348.517,49.251 348.315 C 48.839 348.138,48.249 347.993,47.940 347.993 C 47.586 347.993,47.655 348.112,48.127 348.315 M50.562 348.610 C 50.871 348.757,117.949 348.791,199.625 348.686 L 348.127 348.496 199.064 348.420 C 117.079 348.378,50.253 348.464,50.562 348.610 M383.685 356.204 C 383.080 356.835,382.838 357.249,383.147 357.124 C 383.650 356.920,385.248 355.056,384.919 355.056 C 384.845 355.056,384.290 355.573,383.685 356.204 M15.994 356.730 C 16.364 357.238,16.822 357.660,17.013 357.666 C 17.203 357.673,16.963 357.257,16.479 356.742 C 15.357 355.546,15.128 355.541,15.994 356.730 M37.946 371.764 C 38.286 372.120,41.199 373.046,41.199 372.798 C 41.199 372.632,40.144 372.201,38.577 371.726 C 38.058 371.569,37.777 371.586,37.946 371.764 M359.270 371.922 C 358.806 372.108,358.427 372.327,358.427 372.408 C 358.427 372.685,360.310 372.196,360.515 371.865 C 360.765 371.460,360.375 371.478,359.270 371.922 M356.554 372.659 C 355.783 372.906,355.750 372.965,356.367 372.991 C 356.779 373.008,357.369 372.859,357.678 372.659 C 358.334 372.235,357.879 372.235,356.554 372.659 " stroke="none" fill="#5b5b5b" fill-rule="evenodd"></path><path id="path3" d="M205.500 0.280 C 209.040 0.342,214.939 0.342,218.609 0.280 C 222.278 0.219,219.382 0.169,212.172 0.169 C 204.963 0.168,201.960 0.219,205.500 0.280 M161.147 0.643 C 161.717 0.729,162.559 0.727,163.020 0.638 C 163.481 0.549,163.015 0.479,161.985 0.482 C 160.955 0.484,160.578 0.557,161.147 0.643 M123.970 12.426 C 123.354 12.685,123.206 12.884,123.539 13.008 C 123.816 13.111,124.316 12.923,124.649 12.590 C 125.340 11.899,125.267 11.881,123.970 12.426 M195.238 26.120 C 196.430 26.194,198.284 26.194,199.358 26.118 C 200.432 26.043,199.457 25.982,197.191 25.983 C 194.925 25.984,194.046 26.045,195.238 26.120 M233.801 26.116 C 234.574 26.196,235.838 26.196,236.610 26.116 C 237.383 26.035,236.751 25.969,235.206 25.969 C 233.661 25.969,233.029 26.035,233.801 26.116 M161.897 26.486 C 162.466 26.572,163.309 26.570,163.769 26.481 C 164.230 26.392,163.764 26.322,162.734 26.324 C 161.704 26.327,161.327 26.400,161.897 26.486 M73.888 61.699 C 74.872 61.776,76.389 61.775,77.258 61.697 C 78.128 61.618,77.322 61.555,75.468 61.556 C 73.614 61.557,72.903 61.622,73.888 61.699 M89.807 62.074 C 90.895 62.150,92.580 62.149,93.552 62.073 C 94.523 61.996,93.633 61.934,91.573 61.935 C 89.513 61.936,88.718 61.998,89.807 62.074 M364.585 66.459 C 364.985 66.779,365.574 67.028,365.896 67.012 C 366.400 66.986,366.403 66.954,365.918 66.774 C 365.609 66.659,365.019 66.410,364.607 66.221 C 363.870 65.882,363.869 65.886,364.585 66.459 M16.275 78.371 L 14.794 79.963 16.386 78.482 C 17.261 77.668,17.978 76.951,17.978 76.890 C 17.978 76.607,17.651 76.890,16.275 78.371 M115.145 84.363 L 114.045 85.581 115.262 84.480 C 116.397 83.455,116.652 83.146,116.362 83.146 C 116.298 83.146,115.750 83.694,115.145 84.363 M285.019 84.457 C 285.718 85.178,286.374 85.768,286.477 85.768 C 286.580 85.768,286.092 85.178,285.393 84.457 C 284.694 83.736,284.038 83.146,283.935 83.146 C 283.832 83.146,284.320 83.736,285.019 84.457 M55.365 87.573 C 55.019 87.713,58.727 87.839,63.604 87.852 C 70.098 87.870,71.469 87.807,68.727 87.615 C 63.835 87.274,56.162 87.250,55.365 87.573 M103.090 87.913 C 103.862 87.994,105.126 87.994,105.899 87.913 C 106.671 87.832,106.039 87.766,104.494 87.766 C 102.949 87.766,102.317 87.832,103.090 87.913 M319.007 103.651 C 324.003 103.710,332.177 103.710,337.172 103.651 C 342.168 103.592,338.081 103.544,328.090 103.544 C 318.099 103.544,314.012 103.592,319.007 103.651 M302.062 113.101 C 301.933 113.509,301.989 114.132,302.187 114.486 C 302.468 114.988,302.547 114.826,302.547 113.744 C 302.547 112.191,302.409 112.008,302.062 113.101 M141.386 140.100 C 140.768 140.496,140.454 140.821,140.689 140.822 C 140.924 140.823,141.513 140.492,142.000 140.087 C 143.113 139.160,142.845 139.165,141.386 140.100 M136.434 144.389 C 135.987 144.701,135.250 145.502,134.795 146.168 L 133.968 147.378 134.868 146.446 C 135.363 145.933,136.189 145.139,136.704 144.681 C 137.782 143.721,137.626 143.553,136.434 144.389 M171.348 151.665 C 170.524 152.055,169.956 152.387,170.085 152.404 C 170.449 152.451,173.034 151.324,173.034 151.119 C 173.034 150.868,173.033 150.868,171.348 151.665 M223.596 152.228 C 223.596 152.331,224.101 152.677,224.719 152.996 C 225.337 153.316,225.843 153.493,225.843 153.390 C 225.843 153.287,225.337 152.941,224.719 152.622 C 224.101 152.302,223.596 152.125,223.596 152.228 M155.594 162.266 L 154.494 163.483 155.712 162.383 C 156.846 161.358,157.101 161.049,156.812 161.049 C 156.747 161.049,156.199 161.596,155.594 162.266 M110.147 199.064 C 110.158 200.374,110.204 200.452,110.511 199.686 C 110.732 199.134,110.727 198.580,110.498 198.188 C 110.221 197.713,110.138 197.921,110.147 199.064 M283.607 204.120 C 283.607 204.841,283.685 205.136,283.779 204.775 C 283.873 204.415,283.873 203.825,283.779 203.464 C 283.685 203.104,283.607 203.399,283.607 204.120 M257.785 206.929 C 257.788 207.959,257.861 208.336,257.947 207.766 C 258.033 207.197,258.030 206.354,257.942 205.894 C 257.853 205.433,257.782 205.899,257.785 206.929 M109.864 206.579 C 109.740 206.902,109.829 207.357,110.063 207.591 C 110.379 207.907,110.487 207.757,110.487 207.004 C 110.487 205.877,110.206 205.686,109.864 206.579 M283.615 209.925 C 283.619 210.749,283.696 211.042,283.785 210.576 C 283.875 210.110,283.872 209.436,283.778 209.078 C 283.684 208.720,283.611 209.101,283.615 209.925 M110.145 214.775 C 110.124 215.735,110.240 216.127,110.477 215.890 C 110.703 215.664,110.715 215.100,110.509 214.410 C 110.181 213.309,110.176 213.313,110.145 214.775 M242.726 246.320 C 242.710 246.561,242.247 247.320,241.697 248.005 L 240.696 249.251 241.929 248.075 C 242.608 247.427,243.070 246.670,242.958 246.390 C 242.835 246.080,242.744 246.052,242.726 246.320 M262.734 263.296 C 262.361 263.708,262.245 264.045,262.476 264.045 C 262.706 264.045,263.075 263.708,263.296 263.296 C 263.516 262.884,263.633 262.547,263.554 262.547 C 263.476 262.547,263.107 262.884,262.734 263.296 M258.971 267.509 L 257.491 269.101 259.082 267.621 C 260.563 266.244,260.846 265.918,260.563 265.918 C 260.502 265.918,259.785 266.634,258.971 267.509 M134.082 266.784 C 134.082 266.848,134.630 267.396,135.300 268.001 L 136.517 269.101 135.417 267.884 C 134.391 266.749,134.082 266.495,134.082 266.784 M196.540 268.055 C 197.006 268.145,197.680 268.141,198.038 268.048 C 198.396 267.954,198.015 267.881,197.191 267.885 C 196.367 267.889,196.074 267.966,196.540 268.055 M62.855 374.438 C 69.925 374.495,81.386 374.495,88.323 374.438 C 95.260 374.381,89.476 374.334,75.468 374.334 C 61.461 374.334,55.785 374.381,62.855 374.438 " stroke="none" fill="#848484" fill-rule="evenodd"></path><path id="path4" d="M190.918 26.107 C 191.381 26.196,192.140 26.196,192.603 26.107 C 193.066 26.018,192.687 25.945,191.760 25.945 C 190.833 25.945,190.454 26.018,190.918 26.107 M69.762 61.692 C 70.331 61.778,71.174 61.776,71.634 61.687 C 72.095 61.598,71.629 61.528,70.599 61.530 C 69.569 61.533,69.192 61.606,69.762 61.692 M83.251 62.074 C 84.236 62.151,85.753 62.150,86.622 62.071 C 87.491 61.993,86.685 61.930,84.831 61.931 C 82.978 61.932,82.266 61.996,83.251 62.074 M67.322 87.540 C 68.198 87.619,69.630 87.619,70.506 87.540 C 71.381 87.461,70.665 87.397,68.914 87.397 C 67.163 87.397,66.447 87.461,67.322 87.540 M73.132 87.909 C 73.702 87.995,74.544 87.993,75.005 87.904 C 75.466 87.815,75.000 87.745,73.970 87.748 C 72.940 87.750,72.563 87.823,73.132 87.909 " stroke="none" fill="#7c7c7c" fill-rule="evenodd"></path></g></svg>