<svg height="512pt" viewBox="0 0 512 512" width="512pt" xmlns="http://www.w3.org/2000/svg"><path d="m301 256c0-24.8125-20.1875-45-45-45s-45 20.1875-45 45 20.1875 45 45 45 45-20.1875 45-45zm-60 0c0-8.273438 6.730469-15 15-15s15 6.726562 15 15c0 8.269531-6.730469 15-15 15s-15-6.730469-15-15zm0 0"/><path d="m151 466c0 8.285156-6.714844 15-15 15s-15-6.714844-15-15 6.714844-15 15-15 15 6.714844 15 15zm0 0"/><path d="m151 46c0 8.285156-6.714844 15-15 15s-15-6.714844-15-15 6.714844-15 15-15 15 6.714844 15 15zm0 0"/><path d="m391 46c0 8.285156-6.714844 15-15 15s-15-6.714844-15-15 6.714844-15 15-15 15 6.714844 15 15zm0 0"/><path d="m391 466c0 8.285156-6.714844 15-15 15s-15-6.714844-15-15 6.714844-15 15-15 15 6.714844 15 15zm0 0"/><path d="m271 406c0 8.285156-6.714844 15-15 15s-15-6.714844-15-15 6.714844-15 15-15 15 6.714844 15 15zm0 0"/><path d="m271 106c0 8.285156-6.714844 15-15 15s-15-6.714844-15-15 6.714844-15 15-15 15 6.714844 15 15zm0 0"/><path d="m393.394531 318.015625c-7.175781-4.140625-16.347656-1.683594-20.488281 5.492187-4.144531 7.171876-1.6875 16.347657 5.488281 20.488282 7.175781 4.144531 16.347657 1.683594 20.488281-5.488282 4.144532-7.175781 1.6875-16.347656-5.488281-20.492187zm0 0"/><path d="m133.589844 168.011719c-7.171875-4.140625-16.347656-1.683594-20.488282 5.488281-4.140624 7.175781-1.683593 16.351562 5.488282 20.492188 7.175781 4.140624 16.347656 1.683593 20.492187-5.492188 4.140625-7.171875 1.683594-16.347656-5.492187-20.488281zm0 0"/><path d="m398.882812 173.496094c-4.140624-7.171875-13.3125-9.632813-20.488281-5.488282-7.175781 4.140626-9.632812 13.316407-5.492187 20.488282 4.144531 7.175781 13.316406 9.632812 20.492187 5.492187 7.175781-4.144531 9.632813-13.316406 5.488281-20.492187zm0 0"/><path d="m478.699219 138.085938c.957031-6.820313-2.847657-13.414063-9.230469-15.992188-1.125-.453125-27.890625-11.210938-60.460938-18.976562-23.109374-5.507813-43.214843-8.089844-60.203124-7.75-8.195313-14.996094-20.496094-31.285157-36.851563-48.757813-23-24.566406-45.683594-42.609375-46.636719-43.367187-5.457031-4.324219-13.171875-4.324219-18.628906 0-.957031.757812-23.640625 18.800781-46.636719 43.367187-16.355469 17.472656-28.65625 33.761719-36.851562 48.757813-16.988281-.339844-37.097657 2.242187-60.203125 7.75-32.574219 7.765624-59.339844 18.523437-60.460938 18.976562-6.382812 2.578125-10.191406 9.171875-9.234375 15.992188.167969 1.199218 4.234375 29.757812 13.796875 61.847656 6.792969 22.792968 14.621094 41.511718 23.421875 56.066406-8.800781 14.550781-16.628906 33.273438-23.421875 56.0625-9.5625 32.09375-13.628906 60.652344-13.796875 61.851562-.957031 6.816407 2.851563 13.410157 9.234375 15.992188 1.121094.453125 27.890625 11.210938 60.460938 18.972656 21.769531 5.191406 40.878906 7.785156 57.226562 7.785156 1.003906 0 1.992188-.015624 2.976563-.03125 8.191406 14.996094 20.492187 31.28125 36.851562 48.757813 22.996094 24.566406 45.679688 42.609375 46.636719 43.367187 2.726562 2.160157 6.019531 3.242188 9.3125 3.242188s6.585938-1.082031 9.3125-3.242188c.957031-.757812 23.640625-18.800781 46.636719-43.367187 16.359375-17.476563 28.660156-33.761719 36.855469-48.757813 19.671874.390626 40.996093-3.171874 60.199218-7.75 32.574219-7.765624 59.339844-18.523437 60.464844-18.976562 6.382812-2.578125 10.1875-9.175781 9.230469-15.992188-.167969-1.199218-4.234375-29.757812-13.796875-61.847656-6.792969-22.792968-14.617188-41.511718-23.417969-56.066406 8.800781-14.554688 16.625-33.273438 23.417969-56.066406 9.5625-32.089844 13.628906-60.648438 13.796875-61.847656zm-157.777344 35.445312c-7.828125-6.175781-16.550781-11.257812-25.941406-15.023438 9.191406-15.933593 24-27.347656 34.984375-30.609374 2.648437 11.148437.195312 29.667968-9.042969 45.632812zm9.042969 210.570312c-10.988282-3.261718-25.796875-14.679687-34.984375-30.609374 9.386719-3.765626 18.113281-8.851563 25.941406-15.023438 9.242187 15.976562 11.691406 34.5 9.042969 45.632812zm-147.929688 0c-.683594-2.886718-1.035156-5.59375-1.035156-8.101562 0-13.296875 3.527344-26.207031 10.078125-37.53125 7.828125 6.171875 16.550781 11.257812 25.941406 15.023438-6.53125 11.320312-15.941406 20.816406-27.441406 27.460937-2.175781 1.253906-4.695313 2.304687-7.542969 3.148437zm0-256.207031c10.988282 3.265625 25.796875 14.679688 34.984375 30.613281-9.386719 3.765626-18.113281 8.847657-25.941406 15.023438-9.242187-15.976562-11.691406-34.5-9.042969-45.636719zm-29.960937 143.09375c-18.390625.007813-35.679688-7.113281-43.992188-14.988281 8.320313-7.878906 25.605469-14.996094 43.992188-14.988281-.703125 4.894531-1.074219 9.898437-1.074219 14.988281s.371094 10.089844 1.074219 14.988281zm28.925781-14.988281c0-41.417969 33.71875-75 75-75 41.253906 0 75 33.558594 75 75 0 41.40625-33.710938 75-75 75-41.25 0-75-33.554688-75-75zm178.925781-14.992188c18.390625-.003906 35.679688 7.117188 43.996094 14.992188-8.324219 7.882812-25.613281 14.996094-43.996094 14.988281.703125-4.898437 1.074219-9.898437 1.074219-14.988281s-.371094-10.09375-1.074219-14.992188zm-138.214843-173.636718c12.859374-13.769532 25.875-25.546875 34.292968-32.820313 8.351563 7.214844 21.226563 18.867188 34.046875 32.558594 11.195313 11.964844 20.253907 23.25 26.980469 33.523437-18.675781 6.8125-40.324219 25.5625-52.136719 50.746094-2.933593-.246094-5.898437-.378906-8.894531-.378906s-5.960938.132812-8.894531.378906c-11.882813-25.339844-33.617188-43.992187-52.136719-50.746094 6.679688-10.199218 15.652344-21.398437 26.742188-33.261718zm-111.410157 64.847656c15.597657-3.703125 29.601563-5.917969 41.644531-6.652344-3.390624 19.507813 1.980469 47.601563 17.921876 70.453125-3.382813 4.84375-6.367188 9.984375-8.90625 15.375-27.949219-2.386719-54.910157 7.148438-69.949219 19.707031-5.382813-10.792968-10.46875-24.03125-15.0625-39.390624-5.378907-17.992188-8.953125-35.117188-10.953125-45.988282 10.414062-3.699218 27.03125-9.167968 45.304687-13.503906zm0 247.5625c-18.277343-4.335938-34.894531-9.804688-45.308593-13.507812 1.984374-10.777344 5.515624-27.722657 10.855468-45.640626 4.621094-15.507812 9.742188-28.863281 15.164063-39.738281 15.339843 12.816407 42.507812 22.070313 69.957031 19.726563 2.539062 5.386718 5.519531 10.519531 8.898438 15.359375-12.222657 17.523437-18.867188 38.410156-18.867188 60.019531 0 3.371094.324219 6.851562.945312 10.433594-12.042968-.734375-26.046874-2.949219-41.644531-6.652344zm179.988281 64.847656c-12.859374 13.769532-25.875 25.546875-34.292968 32.816406-8.351563-7.210937-21.226563-18.863281-34.046875-32.558593-11.195313-11.960938-20.25-23.246094-26.976563-33.519531 3.445313-1.257813 6.652344-2.730469 9.605469-4.433594 18.699219-10.796875 33.460937-26.980469 42.527344-46.3125 2.933593.246094 5.898437.378906 8.894531.378906s5.964844-.132812 8.898438-.378906c11.863281 25.292968 33.617187 43.996094 52.128906 50.75-6.679688 10.195312-15.648438 21.394531-26.738282 33.257812zm111.410157-64.847656c-15.597657 3.703125-29.601563 5.917969-41.644531 6.652344 3.390624-19.507813-1.980469-47.601563-17.921876-70.453125 3.378907-4.839844 6.359376-9.976563 8.898438-15.359375 27.605469 2.359375 54.78125-7.050782 69.957031-19.726563 5.382813 10.796875 10.46875 24.03125 15.0625 39.394531 5.378907 17.992188 8.953125 35.117188 10.953125 45.984376-10.414062 3.703124-27.03125 9.171874-45.304687 13.507812zm34.453125-188.414062c-4.621094 15.507812-9.742188 28.859374-15.167969 39.734374-15.070313-12.589843-42.046875-22.089843-69.945313-19.707031-2.539062-5.390625-5.523437-10.53125-8.90625-15.375 15.972657-22.898437 21.300782-51.011719 17.921876-70.453125 12.042968.734375 26.046874 2.949219 41.644531 6.648438 18.277343 4.339844 34.894531 9.808594 45.308593 13.507812-1.984374 10.78125-5.519531 27.726563-10.855468 45.644532zm0 0"/><path d="m139.082031 323.492188c-4.140625-7.175782-13.316406-9.632813-20.492187-5.488282-7.171875 4.140625-9.628906 13.3125-5.488282 20.488282 4.140626 7.175781 13.316407 9.632812 20.488282 5.488281 7.175781-4.140625 9.632812-13.3125 5.492187-20.488281zm0 0"/><path d="m512 256c0 8.285156-6.714844 15-15 15s-15-6.714844-15-15 6.714844-15 15-15 15 6.714844 15 15zm0 0"/><path d="m30 256c0 8.285156-6.714844 15-15 15s-15-6.714844-15-15 6.714844-15 15-15 15 6.714844 15 15zm0 0"/></svg>