<svg height="512pt" viewBox="0 -86 512.1565 512" width="512pt" xmlns="http://www.w3.org/2000/svg"><path d="m162.238281 38c-58.054687-2.6875-155.679687-37.921875-155.679687-37.921875s-3.386719 18.832031-3.558594 19.871094c-6.402344 49.839843-2.53125 100.457031 11.367188 148.742187 9.433593 34.65625 23.8125 67.769532 42.695312 98.320313 18.832031 29.503906 43.042969 59.792969 78.015625 70.03125 65.953125 19.179687 109.253906-41.652344 126.4375-96.585938 12.0625-40.296875 18.917969-81.96875 20.394531-124.007812.867188-19.699219-3.210937-76.625-4.078125-96.324219-37.234375 12.484375-76.324219 18.53125-115.59375 17.875zm-126.957031 47.816406c-1.136719-3.46875.003906-7.277344 2.863281-9.546875 2.859375-2.304687 6.863281-2.550781 9.980469-.605469 15.273438 9.546876 44.519531 24.730469 57.882812 24.730469 13.140626-.5 26.105469-3.199219 38.355469-7.984375 2.675781-1.140625 5.746094-.84375 8.15625.78125 2.382813 1.628906 3.808594 4.320313 3.820313 7.203125 0 25.425781-6.421875 44.085938-18.570313 53.890625-6.445312 5.226563-14.53125 7.992188-22.824219 7.8125-3.585937-.007812-7.164062-.386718-10.675781-1.128906-45.992187-9.632812-68.035156-72.460938-68.988281-75.152344zm187.355469 176.511719c-10.515625 11.421875-25.257813 18.039063-40.785157 18.308594-1.707031.027343-3.417968-.027344-5.121093-.171875-52.066407-5.035156-84.175781-72.203125-85.476563-75.066406-1.582031-3.257813-.917968-7.164063 1.648438-9.71875 2.515625-2.617188 6.402344-3.382813 9.71875-1.910157 13.277344 5.988281 51.636718 21.261719 69.339844 20.742188 49.203124-1.128907 64.910156-22.652344 65.515624-23.605469 2.117188-2.964844 5.851563-4.3125 9.375-3.382812 3.480469.859374 6.050782 3.808593 6.421876 7.375 1.125 9.980468-9.285157 45.820312-30.636719 67.429687zm35.753906-114.117187c-5.199219 5.09375-12.25 7.851562-19.523437 7.636718-1.539063.007813-3.078126-.109375-4.601563-.347656-34.277344-4.164062-55.449219-52.847656-56.40625-54.929688-1.382813-3.429687-.519531-7.359374 2.171875-9.894531 2.78125-2.460937 6.808594-2.914062 10.066406-1.128906 11.972656 6.597656 32.367188 15.535156 40.523438 14.667969 8.691406-1.363282 17.046875-4.335938 24.648437-8.765625 2.519531-1.582031 5.6875-1.714844 8.328125-.347657 2.675782 1.269532 4.511719 3.828126 4.859375 6.769532 2.34375 21.519531-1.125 37.574218-10.066406 46.339844zm0 0"/><path d="m207.191406 116.535156c7.808594 10.5 18.050782 20.394532 29.160156 21.78125 3.46875.878906 7.144532-.03125 9.804688-2.429687 4.105469-5.648438 6.101562-12.554688 5.640625-19.523438-6.164063 2.5625-12.644531 4.28125-19.265625 5.121094-8.703125.179687-17.34375-1.507813-25.339844-4.949219zm0 0"/><path d="m126.832031 140.835938c7.171875-7.632813 11.253907-17.648438 11.457031-28.117188-10.484374 3.125-21.34375 4.820312-32.28125 5.03125-15.210937-1.703125-29.917968-6.484375-43.21875-14.058594 9.285157 16.402344 24.472657 36.015625 44.953126 40.265625 6.5 2.035157 13.578124.878907 19.089843-3.121093zm0 0"/><path d="m119.542969 219.371094c12.410156 17.960937 33.152343 41.304687 58.839843 43.734375 11.273438 1.039062 22.40625-3.148438 30.199219-11.367188 9.363281-9.460937 16.636719-20.785156 21.347657-33.234375-17.875 8.878906-37.578126 13.457032-57.535157 13.363282-18.167969-1.332032-36.011719-5.550782-52.851562-12.496094zm0 0"/><path d="m502.417969 89.636719c-140.5 16.484375-184.667969-7.117188-185.449219-7.550781-2.753906-1.648438-6.1875-1.648438-8.9375 0-2.746094 1.695312-4.34375 4.757812-4.167969 7.984374.085938 1.039063 5.988281 107.519532-18.65625 168.699219-.691406 1.832031-.785156 3.839844-.261719 5.726563 14.144532 47.035156 42.089844 71.765625 80.011719 71.765625 9.453125-.101563 18.851563-1.472657 27.941407-4.078125 100.144531-27.25 118.457031-224.84375 119.238281-233.175782.175781-2.609374-.773438-5.167968-2.605469-7.03125-1.890625-1.820312-4.511719-2.683593-7.113281-2.339843zm-195.257813 105c-2.847656-2.3125-3.988281-6.136719-2.863281-9.632813.609375-1.648437 14.144531-40.175781 42.957031-46.164062 7.824219-2.097656 16.179688-.394532 22.5625 4.597656 7.984375 6.421875 12.148438 18.3125 12.148438 34.277344-.03125 2.878906-1.453125 5.5625-3.816406 7.203125-2.425782 1.589843-5.476563 1.882812-8.15625.78125-6.714844-2.601563-13.808594-4.097657-21.003907-4.425781-11.378906 2.625-22.179687 7.332031-31.847656 13.886718-3.113281 1.910156-7.082031 1.703125-9.980469-.523437zm118.804688 85.566406c-.957032 2.726563-3.199219 4.808594-5.988282 5.554687-.730468.234376-1.492187.351563-2.257812.347657-2.109375-.007813-4.144531-.777344-5.726562-2.171875-9.167969-7.65625-19.550782-13.726563-30.71875-17.960938-11.457032-3.820312-41.136719.78125-57.101563 4.683594-3.570313.808594-7.265625-.679688-9.285156-3.730469-2.027344-3.058593-1.886719-7.066406.347656-9.980469 1.558594-2.082031 39.308594-50.679687 82.4375-45.558593 11.222656.683593 21.488281 6.554687 27.769531 15.878906 7.8125 12.324219 7.984375 30.636719.523438 52.9375zm48.160156-79.75c-1.511719 1.25-3.417969 1.925781-5.378906 1.910156-1.625-.003906-3.214844-.453125-4.601563-1.304687-10.671875-6.679688-29.242187-16.054688-37.054687-16.054688-8.382813.332032-16.65625 2.0625-24.46875 5.121094-2.652344 1.101562-5.679688.808594-8.070313-.78125-2.417969-1.605469-3.878906-4.300781-3.90625-7.203125 0-17.875 4.597657-31.066406 13.449219-38.183594 6.976562-5.507812 16.15625-7.375 24.734375-5.03125 32.28125 6.683594 47.46875 50.070313 48.160156 51.980469 1.140625 3.46875-.003906 7.277344-2.863281 9.546875zm0 0"/><path d="m395.589844 228.65625c-17.183594-2.082031-35.144532 8.765625-48.507813 20.132812 7.105469-.949218 14.261719-1.46875 21.433594-1.5625 6.152344-.183593 12.300781.574219 18.222656 2.257813 9.195313 3.265625 17.917969 7.730469 25.949219 13.277344 2.546875-8.679688 1.867188-17.988281-1.910156-26.207031-3.570313-4.839844-9.175782-7.753907-15.1875-7.898438zm0 0"/><path d="m363.394531 165.652344c-.570312-3.3125-2.144531-6.375-4.511719-8.761719-1.347656-1.078125-3.050781-1.605469-4.773437-1.476563-1.140625-.007812-2.28125.140626-3.382813.433594-6.699218 1.859375-12.589843 5.886719-16.75 11.453125 4.773438-1.976562 9.851563-3.121093 15.011719-3.382812 4.851563.066406 9.679688.648437 14.40625 1.734375zm0 0"/><path d="m425.355469 155.933594c-3.472657-1.277344-7.351563-.722656-10.328125 1.476562-3.421875 3.351563-5.542969 7.8125-5.984375 12.582032 5.902343-1.492188 11.960937-2.277344 18.046875-2.34375 7.242187.496093 14.332031 2.320312 20.914062 5.382812-5.226562-8.253906-13.277344-14.332031-22.648437-17.097656zm0 0"/></svg>