<svg id="svg" version="1.1" xmlns="http://www.w3.org/2000/svg" xmlns:xlink="http://www.w3.org/1999/xlink" width="400" height="372.24489795918373" viewBox="0, 0, 400,372.24489795918373"><g id="svgg"><path id="path0" d="M203.259 0.277 C 204.949 0.346,207.714 0.346,209.404 0.277 C 211.094 0.208,209.711 0.152,206.331 0.152 C 202.952 0.152,201.569 0.208,203.259 0.277 M193.389 0.629 C 193.748 0.723,194.334 0.723,194.693 0.629 C 195.051 0.535,194.758 0.459,194.041 0.459 C 193.324 0.459,193.031 0.535,193.389 0.629 M172.439 3.352 C 172.439 3.557,172.691 3.724,172.998 3.724 C 173.305 3.724,173.557 3.557,173.557 3.352 C 173.557 3.147,173.305 2.980,172.998 2.980 C 172.691 2.980,172.439 3.147,172.439 3.352 M168.715 4.097 C 168.715 4.302,168.966 4.469,169.274 4.469 C 169.581 4.469,169.832 4.302,169.832 4.097 C 169.832 3.892,169.581 3.724,169.274 3.724 C 168.966 3.724,168.715 3.892,168.715 4.097 M155.307 7.821 C 155.307 8.026,155.559 8.194,155.866 8.194 C 156.173 8.194,156.425 8.026,156.425 7.821 C 156.425 7.616,156.173 7.449,155.866 7.449 C 155.559 7.449,155.307 7.616,155.307 7.821 M151.955 8.999 C 151.238 9.397,150.961 9.630,151.338 9.515 C 151.716 9.401,152.428 9.207,152.921 9.083 C 153.414 8.959,153.818 8.708,153.818 8.526 C 153.818 8.069,153.470 8.157,151.955 8.999 M147.300 10.601 C 145.861 11.260,146.530 11.269,148.231 10.615 C 148.948 10.338,149.283 10.107,148.976 10.101 C 148.669 10.095,147.914 10.320,147.300 10.601 M268.156 11.878 C 268.156 12.291,269.302 12.759,269.596 12.465 C 269.714 12.347,269.564 12.094,269.263 11.904 C 268.567 11.463,268.156 11.454,268.156 11.878 M142.655 12.276 C 142.354 12.467,142.204 12.719,142.322 12.838 C 142.616 13.131,143.762 12.664,143.762 12.251 C 143.762 11.826,143.352 11.836,142.655 12.276 M137.069 14.883 C 136.767 15.074,136.612 15.321,136.723 15.432 C 136.835 15.544,137.249 15.390,137.644 15.092 C 138.429 14.498,137.952 14.325,137.069 14.883 M134.544 15.920 C 133.522 16.429,132.917 17.132,133.502 17.132 C 133.997 17.132,135.568 16.220,135.568 15.933 C 135.568 15.749,135.736 15.702,135.940 15.829 C 136.145 15.955,136.313 15.881,136.313 15.664 C 136.313 15.149,136.004 15.193,134.544 15.920 M276.350 15.449 C 276.350 15.635,279.151 17.132,279.501 17.132 C 280.144 17.132,279.515 16.436,278.386 15.898 C 277.071 15.271,276.350 15.112,276.350 15.449 M129.981 18.436 C 129.060 18.929,128.473 19.333,128.678 19.333 C 128.883 19.333,129.804 18.929,130.726 18.436 C 131.648 17.942,132.235 17.538,132.030 17.538 C 131.825 17.538,130.903 17.942,129.981 18.436 M280.850 17.645 C 281.231 17.990,284.171 19.363,284.171 19.196 C 284.171 18.984,281.361 17.505,280.958 17.505 C 280.814 17.505,280.765 17.568,280.850 17.645 M126.794 19.914 C 126.396 20.214,126.267 20.466,126.506 20.472 C 127.213 20.492,128.119 20.058,128.119 19.699 C 128.119 19.211,127.614 19.293,126.794 19.914 M285.289 20.134 C 285.289 20.351,285.456 20.425,285.661 20.298 C 285.866 20.171,286.034 20.214,286.034 20.393 C 286.034 20.572,286.612 20.995,287.320 21.332 C 288.261 21.781,288.557 21.816,288.421 21.462 C 288.100 20.626,285.289 19.434,285.289 20.134 M125.512 20.857 C 125.512 21.086,125.386 21.201,125.233 21.112 C 125.079 21.024,124.618 21.286,124.209 21.694 C 123.464 22.436,123.465 22.436,124.767 21.786 C 126.399 20.970,126.388 20.981,125.909 20.686 C 125.691 20.551,125.512 20.628,125.512 20.857 M121.110 23.317 C 120.226 23.848,119.578 24.357,119.671 24.450 C 119.764 24.543,120.646 24.108,121.631 23.483 C 123.806 22.103,123.368 21.964,121.110 23.317 M293.110 24.603 C 293.110 24.820,293.277 24.894,293.482 24.767 C 293.687 24.641,293.855 24.710,293.855 24.922 C 293.855 25.134,294.399 25.580,295.065 25.913 L 296.276 26.519 295.042 25.364 C 293.772 24.174,293.110 23.913,293.110 24.603 M117.292 25.752 L 116.015 26.923 117.598 26.056 C 118.468 25.579,119.181 25.052,119.181 24.885 C 119.181 24.304,118.562 24.588,117.292 25.752 M297.784 27.496 C 298.650 28.249,301.987 30.540,302.218 30.540 C 302.626 30.540,301.630 29.670,299.747 28.381 C 298.170 27.302,296.906 26.732,297.784 27.496 M112.756 28.564 C 111.988 29.092,111.359 29.668,111.359 29.846 C 111.359 30.023,111.150 30.174,110.894 30.181 C 110.384 30.196,108.007 32.025,108.493 32.028 C 108.899 32.030,113.376 28.994,113.532 28.611 C 113.600 28.443,113.894 28.305,114.184 28.305 C 114.474 28.305,114.711 28.138,114.711 27.933 C 114.711 27.373,114.294 27.508,112.756 28.564 M303.898 31.890 C 304.537 32.428,305.146 32.781,305.251 32.675 C 305.448 32.478,303.437 30.912,302.987 30.912 C 302.849 30.912,303.259 31.352,303.898 31.890 M106.890 32.961 C 106.627 33.278,106.495 33.621,106.598 33.724 C 106.700 33.826,106.999 33.650,107.263 33.333 C 107.526 33.016,107.657 32.673,107.555 32.570 C 107.453 32.468,107.153 32.644,106.890 32.961 M305.773 33.129 C 305.773 33.324,306.569 34.013,307.542 34.659 L 309.311 35.834 307.712 34.304 C 306.041 32.706,305.773 32.543,305.773 33.129 M104.097 35.105 L 102.607 36.592 104.376 35.365 C 105.349 34.690,106.145 33.999,106.145 33.829 C 106.145 33.264,105.602 33.603,104.097 35.105 M309.567 36.149 C 309.655 36.414,310.049 36.812,310.442 37.031 C 310.835 37.251,311.327 37.602,311.537 37.811 C 311.747 38.021,312.329 38.524,312.831 38.929 L 313.743 39.665 312.909 38.572 C 311.960 37.327,309.322 35.415,309.567 36.149 M100.720 37.715 C 100.119 38.384,99.041 39.407,98.324 39.988 C 96.393 41.552,97.806 40.717,100.279 38.832 C 101.457 37.935,102.421 37.043,102.421 36.850 C 102.421 36.190,101.813 36.499,100.720 37.715 M314.339 40.179 C 314.339 40.360,314.926 40.955,315.642 41.502 C 317.202 42.691,317.373 42.262,315.901 40.852 C 314.823 39.818,314.339 39.610,314.339 40.179 M94.757 43.046 C 93.922 43.952,93.315 44.693,93.409 44.693 C 93.655 44.693,96.626 42.000,96.772 41.643 C 97.082 40.888,96.144 41.541,94.757 43.046 M318.063 43.286 C 318.881 44.359,328.618 54.002,328.750 53.870 C 328.933 53.687,319.860 44.465,318.622 43.576 C 318.212 43.282,317.961 43.151,318.063 43.286 M89.026 48.253 C 87.702 49.553,86.743 50.741,86.895 50.893 C 87.168 51.166,91.974 46.631,91.986 46.089 C 91.999 45.498,91.351 45.972,89.026 48.253 M83.732 54.097 C 82.925 54.967,81.575 56.391,80.732 57.260 C 79.890 58.129,79.313 58.953,79.452 59.092 C 79.678 59.318,81.987 56.961,84.709 53.724 C 86.193 51.960,85.453 52.242,83.732 54.097 M329.624 55.065 C 329.653 55.524,331.829 57.867,332.034 57.661 C 332.148 57.548,331.649 56.863,330.925 56.139 C 330.201 55.415,329.616 54.932,329.624 55.065 M332.588 58.450 C 332.588 58.643,333.217 59.531,333.985 60.425 C 334.753 61.318,336.384 63.329,337.610 64.892 C 338.835 66.456,339.898 67.675,339.971 67.602 C 340.124 67.449,337.308 63.639,335.992 62.217 C 335.508 61.694,334.620 60.554,334.019 59.683 C 332.918 58.090,332.588 57.806,332.588 58.450 M77.519 61.296 C 76.636 62.235,76.023 63.112,76.157 63.246 C 76.389 63.478,76.906 62.926,78.621 60.615 C 79.730 59.119,79.343 59.358,77.519 61.296 M73.893 65.997 C 73.107 67.082,72.291 68.093,72.079 68.244 C 71.868 68.394,71.812 68.520,71.956 68.523 C 72.100 68.526,71.790 68.990,71.267 69.553 C 70.744 70.116,70.062 71.080,69.752 71.695 L 69.188 72.812 69.976 71.990 C 70.409 71.537,70.764 71.065,70.764 70.940 C 70.764 70.815,71.262 70.096,71.872 69.342 C 74.023 66.679,75.654 64.357,75.489 64.192 C 75.397 64.100,74.679 64.912,73.893 65.997 M341.955 70.759 C 342.407 71.371,342.845 71.804,342.927 71.722 C 343.155 71.494,341.861 69.646,341.473 69.646 C 341.286 69.646,341.502 70.147,341.955 70.759 M67.861 74.385 C 66.658 75.781,66.342 76.520,67.049 76.285 C 67.409 76.165,69.467 72.998,69.186 72.998 C 69.114 72.998,68.518 73.622,67.861 74.385 M344.007 73.948 C 344.121 74.245,344.363 74.488,344.546 74.488 C 344.729 74.488,344.879 74.739,344.879 75.047 C 344.879 75.354,345.047 75.605,345.251 75.605 C 345.456 75.605,345.624 75.857,345.624 76.164 C 345.624 76.471,345.802 76.723,346.020 76.723 C 346.525 76.723,344.923 73.839,344.280 73.593 C 343.979 73.477,343.877 73.609,344.007 73.948 M347.361 78.937 C 347.930 79.949,348.458 80.717,348.533 80.642 C 348.693 80.481,346.751 77.095,346.498 77.095 C 346.403 77.095,346.792 77.924,347.361 78.937 M65.064 78.933 C 64.156 80.470,64.295 80.867,65.230 79.407 C 65.661 78.733,65.943 78.109,65.856 78.022 C 65.768 77.934,65.412 78.344,65.064 78.933 M63.854 81.104 C 63.425 81.404,61.825 83.930,61.825 84.308 C 61.825 84.950,62.545 84.421,62.898 83.520 C 63.118 82.956,63.574 82.118,63.911 81.657 C 64.544 80.790,64.528 80.634,63.854 81.104 M349.122 82.030 C 349.457 82.491,349.845 83.119,349.984 83.426 C 350.285 84.089,351.210 85.073,351.210 84.730 C 351.210 84.189,349.249 81.192,348.895 81.192 C 348.685 81.192,348.787 81.569,349.122 82.030 M60.267 87.337 C 60.034 87.849,59.702 88.268,59.531 88.268 C 59.359 88.268,59.218 88.436,59.218 88.641 C 59.218 89.435,59.853 88.953,60.446 87.709 C 60.788 86.993,60.983 86.406,60.880 86.406 C 60.776 86.406,60.501 86.825,60.267 87.337 M352.358 87.616 C 352.612 88.180,352.960 88.641,353.132 88.641 C 353.631 88.641,353.501 88.297,352.671 87.415 L 351.897 86.592 352.358 87.616 M354.468 91.590 C 355.031 92.598,355.541 93.372,355.603 93.311 C 355.803 93.111,354.049 89.758,353.743 89.758 C 353.579 89.758,353.906 90.582,354.468 91.590 M57.967 91.480 C 57.090 93.320,57.362 93.393,58.397 91.595 C 58.861 90.790,59.099 90.130,58.926 90.130 C 58.753 90.130,58.321 90.738,57.967 91.480 M355.706 94.041 C 355.706 94.246,355.946 94.832,356.238 95.345 C 356.531 95.857,356.771 96.108,356.771 95.903 C 356.771 95.698,356.531 95.112,356.238 94.600 C 355.946 94.088,355.706 93.836,355.706 94.041 M56.299 95.174 C 55.675 96.544,55.794 96.836,56.469 95.591 C 56.784 95.009,56.972 94.464,56.887 94.379 C 56.801 94.294,56.537 94.652,56.299 95.174 M357.806 99.069 C 357.914 99.479,358.149 99.814,358.330 99.814 C 358.720 99.814,358.733 99.695,358.433 98.913 C 358.105 98.058,357.576 98.189,357.806 99.069 M54.221 99.308 C 53.909 100.121,54.323 100.499,54.763 99.803 C 55.204 99.107,55.213 98.696,54.788 98.696 C 54.606 98.696,54.350 98.972,54.221 99.308 M359.990 103.911 C 360.127 104.423,360.394 105.093,360.584 105.400 C 360.824 105.789,360.853 105.675,360.680 105.028 C 360.543 104.516,360.276 103.845,360.086 103.538 C 359.846 103.150,359.817 103.264,359.990 103.911 M52.183 104.697 C 51.953 105.355,51.831 105.959,51.911 106.038 C 51.990 106.118,52.243 105.645,52.473 104.987 C 52.702 104.328,52.825 103.725,52.745 103.645 C 52.665 103.565,52.412 104.039,52.183 104.697 M49.024 112.942 C 48.723 114.065,48.733 114.519,49.052 114.201 C 49.345 113.908,49.648 112.104,49.404 112.104 C 49.319 112.104,49.148 112.481,49.024 112.942 M363.553 113.222 C 363.553 113.529,363.697 114.115,363.873 114.525 C 364.075 114.995,364.193 115.063,364.193 114.711 C 364.193 114.404,364.049 113.818,363.873 113.408 C 363.672 112.938,363.553 112.869,363.553 113.222 M365.736 121.601 C 365.736 121.909,365.903 122.160,366.108 122.160 C 366.313 122.160,366.480 121.909,366.480 121.601 C 366.480 121.294,366.313 121.043,366.108 121.043 C 365.903 121.043,365.736 121.294,365.736 121.601 M46.182 121.974 C 46.182 122.281,46.350 122.533,46.555 122.533 C 46.760 122.533,46.927 122.281,46.927 121.974 C 46.927 121.667,46.760 121.415,46.555 121.415 C 46.350 121.415,46.182 121.667,46.182 121.974 M369.832 141.155 C 369.832 141.564,370.000 141.899,370.205 141.899 C 370.410 141.899,370.577 141.564,370.577 141.155 C 370.577 140.745,370.410 140.410,370.205 140.410 C 370.000 140.410,369.832 140.745,369.832 141.155 M42.086 141.921 C 42.086 142.343,42.253 142.585,42.458 142.458 C 42.663 142.332,42.831 141.986,42.831 141.691 C 42.831 141.396,42.663 141.155,42.458 141.155 C 42.253 141.155,42.086 141.500,42.086 141.921 M370.403 143.871 C 370.243 144.238,370.217 144.643,370.345 144.771 C 370.723 145.149,371.028 144.618,370.854 143.884 C 370.700 143.233,370.680 143.233,370.403 143.871 M41.713 144.901 C 41.713 145.323,41.881 145.564,42.086 145.438 C 42.291 145.311,42.458 144.966,42.458 144.671 C 42.458 144.376,42.291 144.134,42.086 144.134 C 41.881 144.134,41.713 144.479,41.713 144.901 M370.765 147.111 C 370.640 147.314,370.709 147.775,370.918 148.135 C 371.245 148.696,371.301 148.644,371.311 147.765 C 371.323 146.694,371.150 146.488,370.765 147.111 M41.341 148.417 C 41.341 148.972,41.501 149.293,41.713 149.162 C 41.918 149.035,42.086 148.700,42.086 148.417 C 42.086 148.134,41.918 147.799,41.713 147.672 C 41.501 147.541,41.341 147.862,41.341 148.417 M371.157 151.176 C 371.042 151.362,371.106 151.907,371.298 152.386 C 371.625 153.202,371.649 153.181,371.671 152.048 C 371.695 150.825,371.539 150.559,371.157 151.176 M40.974 152.958 C 40.978 154.011,41.073 154.232,41.341 153.818 C 41.811 153.089,41.811 152.060,41.341 151.769 C 41.117 151.631,40.971 152.105,40.974 152.958 M371.613 157.449 C 371.544 157.602,371.592 158.566,371.719 159.590 L 371.950 161.453 372.009 159.311 C 372.062 157.344,371.933 156.736,371.613 157.449 M40.596 165.363 C 40.596 169.119,40.693 172.094,40.811 171.976 C 40.929 171.858,41.026 168.882,41.026 165.363 C 41.026 161.844,40.929 158.868,40.811 158.750 C 40.693 158.632,40.596 161.608,40.596 165.363 M371.611 171.788 C 371.525 172.863,371.593 173.902,371.761 174.097 C 371.929 174.291,372.067 173.412,372.067 172.142 C 372.067 169.321,371.822 169.131,371.611 171.788 M40.998 177.821 C 40.976 178.901,41.079 179.182,41.383 178.878 C 41.677 178.584,41.685 178.157,41.412 177.407 C 41.031 176.362,41.027 176.366,40.998 177.821 M371.206 178.908 C 371.045 179.495,371.005 180.068,371.118 180.181 C 371.506 180.569,371.750 179.952,371.625 178.898 L 371.499 177.840 371.206 178.908 M41.341 182.495 C 41.341 182.905,41.508 183.240,41.713 183.240 C 41.918 183.240,42.086 182.905,42.086 182.495 C 42.086 182.086,41.918 181.750,41.713 181.750 C 41.508 181.750,41.341 182.086,41.341 182.495 M370.809 183.175 C 370.644 183.652,370.608 184.140,370.729 184.261 C 371.116 184.648,371.387 184.078,371.245 183.179 L 371.109 182.309 370.809 183.175 M41.713 186.012 C 41.713 186.536,41.881 186.965,42.086 186.965 C 42.291 186.965,42.458 186.639,42.458 186.242 C 42.458 185.844,42.291 185.415,42.086 185.289 C 41.874 185.158,41.713 185.471,41.713 186.012 M78.957 185.640 C 78.957 185.731,102.901 209.755,132.166 239.027 C 161.431 268.300,185.447 292.468,185.536 292.736 C 185.625 293.003,185.901 293.154,186.149 293.071 C 186.524 292.946,79.619 185.475,79.120 185.475 C 79.030 185.475,78.957 185.549,78.957 185.640 M370.403 186.701 C 370.243 187.069,370.217 187.474,370.345 187.601 C 370.723 187.980,371.028 187.448,370.854 186.714 C 370.700 186.064,370.680 186.063,370.403 186.701 M42.086 189.013 C 42.086 189.320,42.253 189.572,42.458 189.572 C 42.663 189.572,42.831 189.320,42.831 189.013 C 42.831 188.706,42.663 188.454,42.458 188.454 C 42.253 188.454,42.086 188.706,42.086 189.013 M369.832 190.108 C 369.832 190.633,370.000 191.061,370.205 191.061 C 370.410 191.061,370.577 190.736,370.577 190.339 C 370.577 189.941,370.410 189.512,370.205 189.385 C 369.994 189.255,369.832 189.568,369.832 190.108 M80.447 193.855 C 80.447 194.162,80.615 194.413,80.819 194.413 C 81.024 194.413,81.192 194.162,81.192 193.855 C 81.192 193.547,81.024 193.296,80.819 193.296 C 80.615 193.296,80.447 193.547,80.447 193.855 M83.851 205.587 C 83.851 205.894,83.995 206.480,84.171 206.890 C 84.373 207.360,84.491 207.428,84.491 207.076 C 84.491 206.769,84.347 206.182,84.171 205.773 C 83.970 205.303,83.851 205.234,83.851 205.587 M46.182 208.752 C 46.182 209.060,46.350 209.311,46.555 209.311 C 46.760 209.311,46.927 209.060,46.927 208.752 C 46.927 208.445,46.760 208.194,46.555 208.194 C 46.350 208.194,46.182 208.445,46.182 208.752 M85.289 210.357 C 85.289 210.523,85.535 210.984,85.835 211.381 C 86.394 212.119,86.587 211.706,86.180 210.645 C 85.946 210.036,85.289 209.824,85.289 210.357 M88.469 217.691 C 88.610 218.101,88.809 218.729,88.913 219.088 C 89.016 219.446,89.258 219.739,89.451 219.739 C 89.644 219.739,89.698 219.907,89.572 220.112 C 89.445 220.317,89.530 220.484,89.761 220.484 C 90.194 220.484,89.899 218.981,89.397 218.622 C 89.253 218.520,88.928 218.101,88.674 217.691 L 88.212 216.946 88.469 217.691 M90.902 222.533 C 90.902 222.737,91.141 223.324,91.434 223.836 C 91.727 224.348,91.966 224.600,91.966 224.395 C 91.966 224.190,91.727 223.603,91.434 223.091 C 91.141 222.579,90.902 222.328,90.902 222.533 M93.186 227.392 C 93.415 227.894,93.752 228.305,93.937 228.305 C 94.121 228.305,94.168 228.473,94.041 228.678 C 93.914 228.883,93.988 229.050,94.205 229.050 C 94.701 229.050,94.698 228.929,94.177 227.785 C 93.944 227.274,93.532 226.772,93.262 226.668 C 92.869 226.517,92.854 226.664,93.186 227.392 M359.325 228.874 C 359.210 229.278,359.003 229.944,358.864 230.354 C 358.725 230.764,358.884 230.628,359.218 230.052 C 359.551 229.477,359.759 228.810,359.679 228.572 C 359.600 228.334,359.440 228.469,359.325 228.874 M94.600 229.636 C 94.600 230.026,96.550 233.183,96.699 233.034 C 96.779 232.954,96.409 232.108,95.877 231.155 C 94.982 229.555,94.600 229.100,94.600 229.636 M54.150 231.129 C 54.274 231.453,54.376 231.788,54.376 231.874 C 54.376 231.960,54.528 232.030,54.714 232.030 C 54.899 232.030,54.964 231.695,54.857 231.285 C 54.749 230.875,54.496 230.540,54.293 230.540 C 54.090 230.540,54.026 230.805,54.150 231.129 M54.749 232.729 C 54.749 232.909,55.000 233.265,55.307 233.520 C 55.914 234.023,55.989 233.902,55.640 232.991 C 55.401 232.368,54.749 232.176,54.749 232.729 M357.648 232.633 C 357.775 232.760,357.635 233.107,357.338 233.404 C 357.040 233.702,356.797 234.126,356.797 234.348 C 356.797 234.570,357.132 234.364,357.542 233.892 C 358.384 232.922,358.492 232.402,357.852 232.402 C 357.613 232.402,357.522 232.506,357.648 232.633 M97.631 234.913 C 98.115 235.782,98.636 236.495,98.790 236.496 C 99.369 236.502,99.030 235.759,97.910 234.567 L 96.752 233.333 97.631 234.913 M355.069 238.216 C 354.426 239.525,354.026 240.596,354.180 240.596 C 354.482 240.596,356.576 236.147,356.365 235.953 C 356.295 235.889,355.712 236.907,355.069 238.216 M56.983 236.983 C 56.983 237.534,58.267 239.851,58.572 239.851 C 58.756 239.851,58.528 239.223,58.066 238.454 C 57.063 236.787,56.983 236.678,56.983 236.983 M100.385 238.945 C 101.332 240.672,102.343 241.915,102.596 241.662 C 102.720 241.538,102.484 241.038,102.070 240.551 C 101.657 240.063,100.968 239.246,100.539 238.734 L 99.760 237.803 100.385 238.945 M58.845 241.283 C 58.845 241.456,59.274 242.084,59.799 242.680 L 60.752 243.762 60.102 242.365 C 59.507 241.086,58.845 240.516,58.845 241.283 M352.970 242.255 C 352.508 243.222,352.479 243.494,352.850 243.352 C 353.270 243.191,354.190 241.669,354.190 241.137 C 354.190 240.529,353.484 241.175,352.970 242.255 M61.453 245.668 C 61.453 245.873,61.699 246.365,61.999 246.763 C 62.300 247.161,62.546 247.318,62.546 247.114 C 62.546 246.909,62.300 246.416,61.999 246.018 C 61.699 245.621,61.453 245.463,61.453 245.668 M350.726 246.629 C 350.365 247.258,350.147 247.850,350.240 247.944 C 350.334 248.037,350.687 247.580,351.024 246.927 C 351.822 245.385,351.580 245.142,350.726 246.629 M62.942 248.827 C 62.942 249.053,49.530 262.652,33.138 279.048 C 16.745 295.443,3.428 308.953,3.544 309.068 C 3.834 309.359,63.687 249.464,63.687 248.884 C 63.687 248.627,63.520 248.417,63.315 248.417 C 63.110 248.417,62.942 248.602,62.942 248.827 M105.143 251.210 C 105.145 252.439,105.215 252.897,105.298 252.228 C 105.381 251.559,105.379 250.553,105.294 249.993 C 105.209 249.434,105.141 249.981,105.143 251.210 M348.234 250.745 C 347.818 251.615,347.689 252.009,347.948 251.619 C 348.206 251.229,348.710 250.647,349.069 250.326 C 349.790 249.679,349.917 249.162,349.356 249.162 C 349.155 249.162,348.651 249.874,348.234 250.745 M346.673 253.445 C 346.440 253.957,346.108 254.376,345.936 254.376 C 345.765 254.376,345.624 254.556,345.624 254.775 C 345.624 254.995,345.364 255.434,345.047 255.751 C 344.730 256.068,344.577 256.433,344.705 256.561 C 344.834 256.690,345.191 256.461,345.497 256.052 C 346.267 255.023,347.546 252.514,347.299 252.514 C 347.188 252.514,346.907 252.933,346.673 253.445 M103.642 258.736 C 103.398 259.308,102.920 260.154,102.578 260.615 C 102.221 261.097,102.131 261.453,102.368 261.453 C 102.841 261.453,104.386 258.597,104.206 258.057 C 104.140 257.858,103.886 258.164,103.642 258.736 M342.318 259.823 C 341.655 260.764,341.189 261.612,341.284 261.706 C 341.378 261.800,341.990 261.100,342.644 260.149 C 343.298 259.198,343.764 258.351,343.679 258.266 C 343.594 258.181,342.982 258.882,342.318 259.823 M340.208 262.595 C 340.073 262.813,340.052 263.081,340.161 263.191 C 340.428 263.457,341.155 262.987,341.155 262.548 C 341.155 262.072,340.512 262.104,340.208 262.595 M71.970 292.089 L 43.570 320.491 47.604 324.513 L 51.638 328.535 80.569 299.588 C 96.480 283.667,109.431 270.573,109.347 270.489 C 109.264 270.406,96.287 283.255,80.510 299.042 C 64.732 314.830,51.724 327.747,51.601 327.747 C 51.479 327.747,49.786 326.132,47.838 324.159 L 44.296 320.571 72.324 292.532 C 96.965 267.882,101.061 263.687,100.496 263.687 C 100.427 263.687,87.590 276.468,71.970 292.089 M336.313 267.784 C 336.094 268.194,336.054 268.529,336.225 268.529 C 336.621 268.529,337.430 267.729,337.430 267.337 C 337.430 266.759,336.707 267.048,336.313 267.784 M112.849 268.343 C 111.633 269.038,112.058 269.046,113.644 268.357 C 114.334 268.058,114.646 267.813,114.339 267.812 C 114.032 267.811,113.361 268.050,112.849 268.343 M128.678 268.777 C 129.292 269.101,130.088 269.623,130.447 269.937 C 130.847 270.286,131.099 270.343,131.099 270.084 C 131.099 269.683,128.480 268.140,127.855 268.171 C 127.693 268.180,128.063 268.452,128.678 268.777 M110.708 269.305 C 110.247 269.480,109.870 269.795,109.870 270.007 C 109.870 270.531,110.291 270.471,111.146 269.824 C 112.040 269.148,111.818 268.885,110.708 269.305 M131.541 270.414 C 131.631 270.683,131.924 270.976,132.193 271.066 C 132.472 271.159,132.612 271.020,132.519 270.740 C 132.429 270.471,132.136 270.178,131.867 270.088 C 131.588 269.995,131.448 270.135,131.541 270.414 M332.653 272.274 C 332.177 272.877,331.938 273.371,332.123 273.371 C 332.505 273.371,334.078 271.779,334.078 271.391 C 334.078 270.853,333.486 271.220,332.653 272.274 M133.333 271.899 C 134.625 272.776,135.361 273.031,134.451 272.287 C 133.939 271.868,133.352 271.524,133.147 271.522 C 132.942 271.521,133.026 271.690,133.333 271.899 M135.568 273.361 C 135.568 273.571,135.805 273.743,136.096 273.743 C 136.386 273.743,136.687 273.936,136.766 274.171 C 136.845 274.407,137.152 274.518,137.449 274.418 C 137.814 274.294,137.597 274.032,136.778 273.607 C 136.111 273.261,135.568 273.150,135.568 273.361 M330.474 274.953 C 329.491 276.046,328.985 276.922,329.534 276.583 C 329.981 276.306,331.616 274.115,331.375 274.115 C 331.295 274.115,330.889 274.493,330.474 274.953 M138.175 274.859 C 138.175 275.050,138.506 275.384,138.912 275.601 C 139.502 275.917,139.607 275.888,139.441 275.456 C 139.201 274.830,138.175 274.346,138.175 274.859 M140.618 276.524 C 141.015 276.825,141.508 277.071,141.713 277.071 C 141.918 277.071,141.760 276.825,141.363 276.524 C 140.965 276.224,140.472 275.978,140.267 275.978 C 140.062 275.978,140.220 276.224,140.618 276.524 M143.181 277.989 C 143.784 278.497,144.412 278.829,144.578 278.727 C 144.744 278.624,144.879 278.687,144.879 278.866 C 144.879 279.274,147.506 280.551,147.780 280.277 C 147.892 280.165,147.799 280.074,147.575 280.074 C 147.350 280.074,146.933 279.841,146.648 279.556 C 146.363 279.271,145.220 278.594,144.108 278.051 L 142.086 277.065 143.181 277.989 M323.277 282.495 C 320.928 284.851,319.179 286.778,319.389 286.778 C 319.599 286.778,321.663 284.851,323.974 282.495 C 326.286 280.140,328.036 278.212,327.863 278.212 C 327.690 278.212,325.626 280.140,323.277 282.495 M149.007 280.938 C 149.811 281.555,151.955 282.593,151.955 282.366 C 151.955 282.206,151.363 281.792,150.639 281.447 C 149.470 280.889,148.582 280.613,149.007 280.938 M154.190 283.387 C 154.190 283.570,154.455 283.821,154.779 283.945 C 155.690 284.295,155.781 284.219,155.174 283.613 C 154.541 282.980,154.190 282.899,154.190 283.387 M161.028 286.291 C 161.169 286.433,161.658 286.601,162.114 286.665 C 162.771 286.757,162.827 286.705,162.384 286.413 C 161.751 285.996,160.632 285.896,161.028 286.291 M315.916 289.562 C 315.151 290.273,314.702 290.860,314.918 290.865 C 315.133 290.871,315.879 290.289,316.574 289.572 C 318.207 287.887,317.726 287.879,315.916 289.562 M355.028 289.642 C 355.386 289.736,355.973 289.736,356.331 289.642 C 356.690 289.549,356.397 289.472,355.680 289.472 C 354.963 289.472,354.669 289.549,355.028 289.642 M361.359 289.642 C 361.718 289.736,362.304 289.736,362.663 289.642 C 363.021 289.549,362.728 289.472,362.011 289.472 C 361.294 289.472,361.001 289.549,361.359 289.642 M312.890 292.014 C 312.400 292.422,312.095 292.852,312.213 292.970 C 312.517 293.274,313.152 292.819,313.605 291.972 C 314.084 291.078,314.009 291.082,312.890 292.014 M343.401 292.264 C 342.913 292.813,342.926 292.852,343.525 292.622 C 343.893 292.481,344.265 292.365,344.351 292.365 C 344.436 292.365,344.507 292.197,344.507 291.993 C 344.507 291.445,344.024 291.563,343.401 292.264 M374.996 292.938 C 375.685 293.237,376.356 293.476,376.486 293.469 C 376.971 293.442,374.838 292.391,374.302 292.393 C 373.994 292.394,374.307 292.639,374.996 292.938 M310.393 294.281 C 309.688 295.075,309.689 295.077,310.501 294.652 C 311.406 294.177,311.963 293.482,311.439 293.482 C 311.254 293.482,310.783 293.842,310.393 294.281 M338.792 294.271 C 338.004 294.686,337.435 295.102,337.528 295.194 C 337.620 295.286,338.432 294.941,339.332 294.427 C 341.280 293.313,340.844 293.188,338.792 294.271 M378.837 294.707 C 379.830 295.674,382.129 296.910,381.919 296.365 C 381.808 296.073,381.072 295.473,380.286 295.031 C 378.670 294.123,378.109 293.997,378.837 294.707 M308.289 295.848 C 307.769 296.329,307.074 296.827,306.745 296.953 C 306.147 297.183,305.894 297.964,306.425 297.938 C 306.985 297.911,309.944 294.972,309.411 294.972 C 309.313 294.972,308.808 295.366,308.289 295.848 M336.251 295.620 C 335.627 295.760,334.969 296.834,335.508 296.834 C 335.942 296.834,337.271 295.801,337.057 295.630 C 336.955 295.548,336.592 295.544,336.251 295.620 M303.724 299.280 C 302.700 299.988,301.806 300.733,301.738 300.935 C 301.541 301.519,301.892 301.372,303.034 300.394 C 303.619 299.893,304.516 299.144,305.028 298.730 C 306.464 297.567,305.791 297.852,303.724 299.280 M331.838 299.086 C 331.329 299.477,331.090 299.801,331.307 299.805 C 331.845 299.817,333.192 298.804,332.955 298.566 C 332.850 298.461,332.347 298.695,331.838 299.086 M386.220 299.656 C 386.220 299.860,387.058 300.853,388.082 301.862 C 389.106 302.871,389.944 303.529,389.944 303.324 C 389.944 303.119,389.106 302.126,388.082 301.117 C 387.058 300.109,386.220 299.451,386.220 299.656 M329.229 301.499 C 328.509 302.366,329.023 302.529,329.793 301.678 C 330.165 301.267,330.296 300.931,330.085 300.931 C 329.873 300.931,329.488 301.187,329.229 301.499 M298.324 303.166 C 297.812 303.566,297.561 303.894,297.765 303.894 C 297.970 303.894,298.557 303.566,299.069 303.166 C 299.581 302.765,299.832 302.437,299.628 302.437 C 299.423 302.437,298.836 302.765,298.324 303.166 M326.759 304.119 C 325.758 305.121,325.814 305.860,326.827 305.019 C 327.486 304.472,328.263 303.166,327.929 303.166 C 327.810 303.166,327.284 303.595,326.759 304.119 M390.332 304.097 C 390.353 304.592,392.924 307.492,392.924 307.020 C 392.924 306.818,392.337 305.994,391.620 305.189 C 390.904 304.383,390.324 303.892,390.332 304.097 M294.227 305.773 C 294.227 305.978,293.976 306.145,293.669 306.145 C 293.361 306.145,293.110 306.313,293.110 306.518 C 293.110 307.072,293.559 306.959,294.600 306.145 C 295.354 305.555,295.407 305.415,294.879 305.409 C 294.520 305.404,294.227 305.568,294.227 305.773 M324.317 307.542 C 322.587 309.962,322.435 310.242,322.846 310.242 C 323.043 310.242,323.534 309.683,323.937 309.000 C 324.340 308.316,324.963 307.310,325.320 306.765 C 326.429 305.073,325.652 305.675,324.317 307.542 M290.037 308.218 C 289.064 308.725,288.268 309.298,288.268 309.493 C 288.268 309.946,289.333 309.540,290.135 308.781 C 290.475 308.458,291.075 307.994,291.467 307.750 C 292.680 306.994,291.894 307.252,290.037 308.218 M393.296 307.865 C 393.296 308.070,393.542 308.563,393.843 308.960 C 394.144 309.358,394.390 309.516,394.390 309.311 C 394.390 309.106,394.144 308.613,393.843 308.216 C 393.542 307.818,393.296 307.660,393.296 307.865 M92.633 338.638 C 76.086 355.237,62.598 368.867,62.658 368.928 C 62.719 368.989,76.321 355.481,92.885 338.910 C 109.449 322.340,123.189 308.705,123.419 308.611 C 123.648 308.516,123.585 308.443,123.277 308.449 C 122.970 308.455,109.180 322.040,92.633 338.638 M124.767 309.676 C 124.767 309.879,127.583 311.359,127.970 311.359 C 128.109 311.359,127.606 310.940,126.851 310.428 C 125.563 309.554,124.767 309.267,124.767 309.676 M395.236 311.453 C 395.684 312.426,396.186 313.222,396.350 313.222 C 396.838 313.222,396.691 312.642,395.996 311.820 C 395.638 311.397,395.136 310.742,394.882 310.367 C 394.628 309.991,394.787 310.480,395.236 311.453 M1.703 311.679 C 0.861 313.308,0.984 313.632,1.884 312.155 C 2.304 311.467,2.567 310.822,2.468 310.724 C 2.370 310.626,2.026 311.055,1.703 311.679 M321.476 312.306 C 320.852 313.676,320.971 313.968,321.646 312.723 C 321.961 312.142,322.149 311.596,322.064 311.511 C 321.978 311.426,321.714 311.784,321.476 312.306 M129.795 312.270 C 130.205 312.574,130.742 312.997,130.990 313.209 C 131.531 313.672,131.844 313.702,131.844 313.291 C 131.844 313.124,131.215 312.701,130.447 312.352 C 129.432 311.890,129.254 311.867,129.795 312.270 M282.030 312.559 C 281.569 312.781,281.192 313.115,281.192 313.300 C 281.192 313.486,281.024 313.534,280.819 313.408 C 280.615 313.281,280.447 313.355,280.447 313.572 C 280.447 314.114,281.038 314.067,281.631 313.477 C 281.901 313.207,282.458 312.794,282.868 312.557 C 283.806 312.015,283.154 312.017,282.030 312.559 M132.961 313.907 C 132.961 314.277,136.610 316.028,136.860 315.778 C 136.957 315.681,136.120 315.151,134.999 314.602 C 133.878 314.052,132.961 313.739,132.961 313.907 M277.095 315.270 C 276.583 315.563,276.331 315.802,276.536 315.802 C 276.741 315.802,277.328 315.563,277.840 315.270 C 278.352 314.977,278.603 314.738,278.399 314.738 C 278.194 314.738,277.607 314.977,277.095 315.270 M138.827 316.619 C 139.288 316.861,139.665 317.202,139.665 317.375 C 139.665 317.549,139.916 317.691,140.223 317.691 C 140.995 317.691,140.927 317.075,140.130 316.845 C 139.772 316.742,139.143 316.550,138.734 316.418 C 138.168 316.236,138.190 316.284,138.827 316.619 M272.719 317.028 C 272.258 317.250,271.881 317.574,271.881 317.748 C 271.881 318.273,272.464 318.105,273.371 317.318 C 274.305 316.508,274.040 316.391,272.719 317.028 M141.899 318.058 C 141.899 318.316,142.775 318.808,143.233 318.808 C 143.742 318.808,143.265 318.118,142.644 317.955 C 142.235 317.848,141.899 317.895,141.899 318.058 M318.063 321.229 C 318.063 321.536,318.231 321.788,318.436 321.788 C 318.641 321.788,318.808 321.536,318.808 321.229 C 318.808 320.922,318.641 320.670,318.436 320.670 C 318.231 320.670,318.063 320.922,318.063 321.229 M156.611 323.650 C 157.020 323.826,157.607 323.970,157.914 323.970 C 158.266 323.970,158.198 323.852,157.728 323.650 C 157.318 323.474,156.732 323.330,156.425 323.330 C 156.072 323.330,156.141 323.448,156.611 323.650 M164.618 325.885 C 164.618 326.089,164.870 326.257,165.177 326.257 C 165.484 326.257,165.736 326.089,165.736 325.885 C 165.736 325.680,165.484 325.512,165.177 325.512 C 164.870 325.512,164.618 325.680,164.618 325.885 M246.182 326.257 C 246.182 326.462,246.434 326.629,246.741 326.629 C 247.048 326.629,247.300 326.462,247.300 326.257 C 247.300 326.052,247.048 325.885,246.741 325.885 C 246.434 325.885,246.182 326.052,246.182 326.257 M186.778 329.981 C 186.905 330.186,187.250 330.354,187.545 330.354 C 187.840 330.354,188.082 330.186,188.082 329.981 C 188.082 329.777,187.737 329.609,187.315 329.609 C 186.893 329.609,186.652 329.777,186.778 329.981 M225.140 329.981 C 225.009 330.193,225.322 330.354,225.863 330.354 C 226.387 330.354,226.816 330.186,226.816 329.981 C 226.816 329.777,226.490 329.609,226.093 329.609 C 225.695 329.609,225.266 329.777,225.140 329.981 M2.236 330.238 C 2.240 330.731,4.012 332.793,4.240 332.567 C 4.355 332.453,3.951 331.815,3.342 331.148 C 2.733 330.481,2.235 330.071,2.236 330.238 M190.317 330.354 C 190.317 330.559,190.829 330.726,191.456 330.726 C 192.121 330.726,192.499 330.571,192.365 330.354 C 192.238 330.149,191.726 329.981,191.226 329.981 C 190.726 329.981,190.317 330.149,190.317 330.354 M221.043 330.354 C 220.909 330.571,221.287 330.726,221.952 330.726 C 222.579 330.726,223.091 330.559,223.091 330.354 C 223.091 330.149,222.682 329.981,222.182 329.981 C 221.682 329.981,221.169 330.149,221.043 330.354 M195.345 330.726 C 195.203 330.955,195.805 331.096,196.905 331.093 C 198.199 331.089,198.541 330.987,198.138 330.726 C 197.405 330.253,195.637 330.253,195.345 330.726 M215.456 330.726 C 215.319 330.948,215.770 331.099,216.574 331.099 C 217.377 331.099,217.828 330.948,217.691 330.726 C 217.564 330.521,217.061 330.354,216.574 330.354 C 216.086 330.354,215.583 330.521,215.456 330.726 M317.691 338.547 C 317.691 339.243,317.790 339.342,318.138 338.994 C 318.485 338.647,318.485 338.448,318.138 338.101 C 317.790 337.753,317.691 337.852,317.691 338.547 M318.808 343.416 C 318.808 343.635,319.092 344.096,319.439 344.440 C 320.030 345.026,320.054 345.022,319.812 344.383 C 319.669 344.008,319.553 343.547,319.553 343.359 C 319.553 343.171,319.385 343.017,319.181 343.017 C 318.976 343.017,318.808 343.196,318.808 343.416 M320.326 346.741 C 320.324 347.278,321.375 349.410,321.402 348.925 C 321.409 348.795,321.170 348.125,320.871 347.436 C 320.572 346.746,320.326 346.434,320.326 346.741 M395.598 349.534 C 395.365 350.047,395.242 350.466,395.326 350.466 C 395.622 350.466,396.648 349.289,396.648 348.949 C 396.648 348.268,396.015 348.621,395.598 349.534 M322.160 351.179 C 322.160 351.366,322.492 351.911,322.897 352.389 C 323.303 352.868,323.982 353.678,324.407 354.190 C 324.910 354.797,324.828 354.537,324.172 353.445 C 323.619 352.523,323.023 351.713,322.847 351.644 C 322.672 351.575,322.623 351.366,322.738 351.179 C 322.854 350.991,322.771 350.838,322.555 350.838 C 322.338 350.838,322.160 350.991,322.160 351.179 M393.916 352.721 C 393.347 353.734,392.967 354.562,393.073 354.562 C 393.351 354.562,395.277 351.205,395.100 351.028 C 395.018 350.946,394.485 351.708,393.916 352.721 M390.880 356.887 C 389.477 358.767,389.466 358.805,390.573 357.911 C 391.789 356.930,393.183 354.935,392.652 354.935 C 392.479 354.935,391.682 355.813,390.880 356.887 M325.140 355.464 C 325.140 355.988,327.068 358.244,328.049 358.869 L 329.050 359.507 328.070 358.431 C 327.532 357.840,326.652 356.870,326.115 356.277 C 325.579 355.684,325.140 355.318,325.140 355.464 M330.536 361.603 C 330.943 362.070,331.592 362.621,331.977 362.828 C 333.070 363.412,332.392 362.556,330.994 361.586 L 329.795 360.753 330.536 361.603 M333.333 363.845 C 333.333 364.270,334.915 365.411,336.685 366.262 C 337.674 366.737,337.809 366.753,337.244 366.325 C 336.834 366.015,336.297 365.588,336.049 365.376 C 335.802 365.164,335.425 364.991,335.211 364.991 C 334.998 364.991,334.823 364.863,334.823 364.708 C 334.823 364.552,334.488 364.216,334.078 363.960 C 333.669 363.704,333.333 363.652,333.333 363.845 M383.039 364.271 C 382.602 364.977,383.239 365.152,383.888 364.503 C 384.468 363.922,384.469 363.873,383.901 363.873 C 383.562 363.873,383.174 364.052,383.039 364.271 M379.702 366.657 C 378.883 367.162,378.328 367.580,378.470 367.586 C 378.793 367.601,381.378 366.088,381.378 365.885 C 381.378 365.643,381.263 365.696,379.702 366.657 M338.734 367.402 C 339.143 367.700,339.659 368.098,339.880 368.284 C 340.519 368.826,341.899 369.171,341.899 368.790 C 341.899 368.599,341.020 368.086,339.944 367.650 C 338.837 367.202,338.312 367.094,338.734 367.402 M39.851 368.343 C 40.070 368.752,40.437 369.088,40.667 369.088 C 40.896 369.088,40.780 368.752,40.410 368.343 C 40.039 367.933,39.672 367.598,39.594 367.598 C 39.516 367.598,39.632 367.933,39.851 368.343 M376.629 368.052 C 376.169 368.275,375.791 368.598,375.791 368.772 C 375.791 369.297,376.374 369.129,377.281 368.343 C 378.215 367.533,377.951 367.415,376.629 368.052 M60.521 369.858 C 59.907 370.251,59.655 370.571,59.963 370.567 C 60.270 370.564,60.940 370.233,61.453 369.832 C 62.643 368.901,61.987 368.919,60.521 369.858 M42.458 370.205 C 43.175 370.597,43.929 370.918,44.134 370.918 C 44.339 370.918,43.920 370.597,43.203 370.205 C 42.486 369.812,41.732 369.491,41.527 369.491 C 41.322 369.491,41.741 369.812,42.458 370.205 M50.750 372.334 C 51.316 372.420,52.154 372.418,52.612 372.329 C 53.070 372.241,52.607 372.171,51.583 372.174 C 50.559 372.176,50.184 372.249,50.750 372.334 M357.274 372.341 C 358.253 372.418,359.761 372.417,360.626 372.339 C 361.490 372.261,360.689 372.198,358.845 372.199 C 357.002 372.200,356.295 372.264,357.274 372.341 " stroke="none" fill="#cccccc" fill-rule="evenodd"></path><path id="path1" d="M197.910 0.825 C 197.114 0.971,195.540 1.094,194.413 1.098 C 192.224 1.107,181.619 2.328,177.933 2.996 C 176.710 3.218,175.476 3.310,175.191 3.201 C 174.907 3.092,174.674 3.137,174.674 3.301 C 174.674 3.466,173.794 3.771,172.719 3.980 C 169.618 4.584,157.723 7.749,155.385 8.593 C 154.216 9.015,151.583 9.952,149.534 10.674 C 102.632 27.217,63.188 68.898,48.616 117.318 C 44.805 129.983,41.783 146.613,41.730 155.214 C 41.721 156.699,41.588 157.914,41.434 157.914 C 41.124 157.914,41.205 172.427,41.517 172.739 C 41.625 172.848,41.713 173.980,41.713 175.255 C 41.713 194.112,50.068 222.801,62.072 245.164 L 64.224 249.173 33.831 279.615 C 0.138 313.361,1.919 311.319,0.622 317.695 C -0.042 320.960,0.376 323.888,2.108 328.119 C 3.390 331.252,39.018 367.402,42.801 369.409 C 48.624 372.498,54.148 372.552,60.133 369.578 C 61.603 368.848,68.652 362.013,92.562 338.132 C 112.060 318.659,123.244 307.747,123.475 307.972 C 125.520 309.969,142.694 317.877,153.259 321.688 C 159.397 323.902,170.280 326.655,177.281 327.766 C 180.047 328.205,182.561 328.649,182.868 328.753 C 183.175 328.858,184.097 328.997,184.916 329.063 C 185.736 329.129,186.825 329.252,187.337 329.337 C 187.849 329.423,188.739 329.519,189.314 329.551 C 189.890 329.583,190.283 329.735,190.188 329.888 C 190.093 330.042,196.243 330.228,203.853 330.301 C 211.464 330.374,217.817 330.510,217.970 330.602 C 218.124 330.695,218.250 330.614,218.250 330.424 C 218.250 330.233,219.548 329.988,221.136 329.879 C 240.978 328.521,267.140 320.621,285.289 310.508 C 292.376 306.559,299.362 302.163,302.733 299.532 C 303.416 298.999,304.789 297.964,305.784 297.233 C 341.469 270.990,365.950 227.650,370.594 182.495 C 371.122 177.359,371.625 156.797,371.229 156.553 C 371.075 156.458,370.942 155.343,370.933 154.075 C 370.874 145.905,367.568 128.183,363.867 116.201 C 345.281 56.030,290.292 9.478,229.236 2.227 C 227.188 1.984,225.261 1.704,224.953 1.606 C 224.646 1.507,223.557 1.379,222.533 1.320 C 221.508 1.261,219.078 1.111,217.132 0.985 C 211.627 0.630,199.518 0.529,197.910 0.825 M132.374 238.091 C 161.682 267.439,186.080 291.932,186.592 292.519 L 187.523 293.586 185.372 293.344 C 182.090 292.974,168.388 289.562,165.107 288.297 C 163.507 287.681,160.562 286.577,158.564 285.844 C 151.550 283.271,139.176 276.573,132.216 271.582 C 127.183 267.972,122.484 266.767,117.540 267.818 C 111.422 269.118,112.998 267.739,81.006 299.766 C 65.028 315.760,51.790 328.851,51.589 328.855 C 51.177 328.865,43.203 321.018,43.203 320.603 C 43.203 320.456,56.351 307.167,72.420 291.073 C 104.573 258.869,103.367 260.247,104.317 254.608 C 105.260 249.009,104.198 245.400,99.567 238.472 C 92.402 227.752,87.036 216.926,83.359 205.773 C 81.027 198.700,77.992 184.730,78.787 184.730 C 78.952 184.730,103.066 208.742,132.374 238.091 M351.397 290.730 C 348.251 291.292,346.527 291.765,344.693 292.571 C 339.455 294.871,338.005 295.648,335.215 297.650 C 326.782 303.701,319.581 314.893,318.566 323.528 C 318.438 324.619,318.231 325.512,318.105 325.512 C 317.317 325.510,318.659 341.278,319.548 342.458 C 319.702 342.663,320.038 343.501,320.294 344.320 C 325.249 360.195,341.530 371.829,358.659 371.737 C 362.711 371.716,365.145 371.541,366.108 371.204 C 366.415 371.096,367.588 370.804,368.715 370.555 C 380.515 367.950,391.889 358.207,396.522 346.735 C 408.726 316.522,383.343 285.020,351.397 290.730 " stroke="none" fill="#040404" fill-rule="evenodd"></path><path id="path2" d="M91.783 46.648 L 90.689 47.858 91.899 46.765 C 93.028 45.745,93.281 45.438,92.993 45.438 C 92.929 45.438,92.385 45.982,91.783 46.648 M371.450 165.549 C 371.451 167.188,371.517 167.812,371.595 166.936 C 371.674 166.060,371.673 164.719,371.593 163.957 C 371.513 163.194,371.448 163.911,371.450 165.549 M61.453 251.583 C 60.548 252.505,59.891 253.259,59.994 253.259 C 60.096 253.259,60.920 252.505,61.825 251.583 C 62.730 250.661,63.386 249.907,63.284 249.907 C 63.181 249.907,62.357 250.661,61.453 251.583 M57.152 255.959 L 55.680 257.542 57.263 256.070 C 58.735 254.701,59.017 254.376,58.735 254.376 C 58.674 254.376,57.962 255.088,57.152 255.959 M53.055 260.056 L 51.583 261.639 53.166 260.166 C 54.638 258.797,54.920 258.473,54.638 258.473 C 54.577 258.473,53.865 259.185,53.055 260.056 M48.417 264.618 C 47.512 265.540,46.856 266.294,46.959 266.294 C 47.061 266.294,47.885 265.540,48.790 264.618 C 49.694 263.696,50.351 262.942,50.248 262.942 C 50.146 262.942,49.322 263.696,48.417 264.618 M44.489 268.622 L 43.017 270.205 44.600 268.733 C 45.470 267.923,46.182 267.211,46.182 267.150 C 46.182 266.868,45.858 267.150,44.489 268.622 M40.020 273.091 L 38.547 274.674 40.130 273.202 C 41.001 272.392,41.713 271.680,41.713 271.619 C 41.713 271.337,41.389 271.619,40.020 273.091 M35.923 277.188 L 34.451 278.771 36.034 277.299 C 36.904 276.489,37.616 275.777,37.616 275.716 C 37.616 275.434,37.292 275.716,35.923 277.188 M31.657 281.378 C 30.753 282.300,30.096 283.054,30.199 283.054 C 30.301 283.054,31.125 282.300,32.030 281.378 C 32.934 280.456,33.591 279.702,33.488 279.702 C 33.386 279.702,32.562 280.456,31.657 281.378 M322.695 282.775 L 321.601 283.985 322.812 282.891 C 323.478 282.290,324.022 281.745,324.022 281.681 C 324.022 281.393,323.715 281.646,322.695 282.775 M27.540 285.568 L 26.257 286.965 27.654 285.681 C 28.954 284.486,29.222 284.171,28.937 284.171 C 28.875 284.171,28.246 284.800,27.540 285.568 M23.260 289.851 L 21.788 291.434 23.371 289.962 C 24.241 289.152,24.953 288.440,24.953 288.379 C 24.953 288.097,24.629 288.379,23.260 289.851 M357.635 290.029 C 358.403 290.110,359.660 290.110,360.428 290.029 C 361.196 289.949,360.568 289.883,359.032 289.883 C 357.495 289.883,356.867 289.949,357.635 290.029 M18.791 294.320 L 17.318 295.903 18.901 294.431 C 20.373 293.062,20.655 292.737,20.374 292.737 C 20.313 292.737,19.600 293.450,18.791 294.320 M14.505 298.603 L 13.222 300.000 14.618 298.717 C 15.386 298.011,16.015 297.382,16.015 297.320 C 16.015 297.035,15.700 297.303,14.505 298.603 M10.428 302.607 C 9.524 303.529,8.867 304.283,8.970 304.283 C 9.072 304.283,9.896 303.529,10.801 302.607 C 11.705 301.685,12.362 300.931,12.259 300.931 C 12.157 300.931,11.333 301.685,10.428 302.607 M59.008 304.749 L 57.914 305.959 59.125 304.865 C 60.253 303.845,60.506 303.538,60.219 303.538 C 60.155 303.538,59.610 304.083,59.008 304.749 M5.959 307.076 C 5.054 307.998,4.398 308.752,4.500 308.752 C 4.603 308.752,5.427 307.998,6.331 307.076 C 7.236 306.155,7.893 305.400,7.790 305.400 C 7.688 305.400,6.864 306.155,5.959 307.076 M50.815 312.942 L 49.721 314.153 50.931 313.059 C 52.059 312.039,52.313 311.732,52.025 311.732 C 51.961 311.732,51.416 312.277,50.815 312.942 M46.162 317.598 L 44.879 318.994 46.276 317.711 C 47.576 316.516,47.843 316.201,47.559 316.201 C 47.497 316.201,46.868 316.830,46.162 317.598 M200.186 330.726 C 200.313 330.931,200.752 331.099,201.161 331.099 C 201.571 331.099,201.803 330.931,201.676 330.726 C 201.549 330.521,201.111 330.354,200.701 330.354 C 200.291 330.354,200.060 330.521,200.186 330.726 M211.732 330.726 C 211.605 330.931,211.837 331.099,212.247 331.099 C 212.656 331.099,213.095 330.931,213.222 330.726 C 213.348 330.521,213.117 330.354,212.707 330.354 C 212.297 330.354,211.858 330.521,211.732 330.726 M6.331 334.195 C 6.331 334.259,6.876 334.804,7.542 335.405 L 8.752 336.499 7.658 335.289 C 6.639 334.160,6.331 333.907,6.331 334.195 M18.994 346.858 C 18.994 346.922,19.539 347.466,20.205 348.068 L 21.415 349.162 20.321 347.952 C 19.302 346.823,18.994 346.570,18.994 346.858 M27.561 355.424 C 27.561 355.488,28.105 356.033,28.771 356.634 L 29.981 357.728 28.887 356.518 C 27.868 355.389,27.561 355.136,27.561 355.424 M387.882 359.850 C 386.865 360.915,386.300 361.587,386.626 361.343 C 386.953 361.100,387.330 361.011,387.464 361.145 C 387.599 361.280,387.709 361.111,387.709 360.770 C 387.709 360.428,387.989 360.149,388.330 360.149 C 388.672 360.149,388.838 360.036,388.699 359.897 C 388.561 359.759,388.814 359.256,389.261 358.780 C 389.708 358.304,389.997 357.914,389.902 357.914 C 389.807 357.914,388.898 358.785,387.882 359.850 " stroke="none" fill="#585858" fill-rule="evenodd"></path><path id="path3" d="M97.990 40.442 C 97.294 40.936,96.907 41.341,97.131 41.341 C 97.355 41.341,98.008 40.927,98.583 40.421 C 99.899 39.264,99.635 39.272,97.990 40.442 M316.946 42.331 C 316.946 42.534,317.407 43.107,317.970 43.604 L 318.994 44.507 318.063 43.389 C 317.551 42.775,317.090 42.202,317.039 42.117 C 316.988 42.031,316.946 42.128,316.946 42.331 M354.637 92.543 C 355.083 93.460,355.512 94.147,355.590 94.069 C 355.758 93.900,354.253 90.875,354.001 90.875 C 353.905 90.875,354.192 91.626,354.637 92.543 M57.710 92.774 C 57.282 93.613,56.995 94.363,57.073 94.441 C 57.151 94.519,57.580 93.833,58.025 92.915 C 59.040 90.826,58.766 90.703,57.710 92.774 M371.002 152.328 C 371.002 152.635,371.146 153.222,371.322 153.631 C 371.524 154.101,371.642 154.170,371.642 153.818 C 371.642 153.510,371.498 152.924,371.322 152.514 C 371.120 152.044,371.002 151.976,371.002 152.328 M371.424 159.404 C 371.424 160.326,371.496 160.703,371.585 160.242 C 371.674 159.781,371.674 159.027,371.585 158.566 C 371.496 158.105,371.424 158.482,371.424 159.404 M41.118 165.363 C 41.118 168.538,41.175 169.837,41.245 168.250 C 41.315 166.662,41.315 164.064,41.245 162.477 C 41.175 160.889,41.118 162.188,41.118 165.363 M371.837 165.549 C 371.838 168.007,371.898 168.965,371.971 167.676 C 372.044 166.388,372.043 164.377,371.969 163.207 C 371.896 162.037,371.836 163.091,371.837 165.549 M371.424 171.695 C 371.424 172.616,371.496 172.993,371.585 172.533 C 371.674 172.072,371.674 171.318,371.585 170.857 C 371.496 170.396,371.424 170.773,371.424 171.695 M40.995 176.049 C 41.079 177.016,41.661 177.836,41.687 177.024 C 41.701 176.575,41.546 176.104,41.341 175.978 C 41.136 175.851,40.980 175.883,40.995 176.049 M371.163 177.866 C 371.026 178.412,370.985 178.931,371.073 179.018 C 371.161 179.106,371.345 178.732,371.482 178.186 C 371.619 177.640,371.659 177.121,371.571 177.034 C 371.483 176.946,371.300 177.321,371.163 177.866 M82.495 188.827 C 83.295 189.646,84.034 190.317,84.136 190.317 C 84.239 190.317,83.668 189.646,82.868 188.827 C 82.068 188.007,81.329 187.337,81.227 187.337 C 81.124 187.337,81.695 188.007,82.495 188.827 M86.592 192.924 C 87.392 193.743,88.131 194.413,88.233 194.413 C 88.336 194.413,87.765 193.743,86.965 192.924 C 86.165 192.104,85.426 191.434,85.324 191.434 C 85.221 191.434,85.792 192.104,86.592 192.924 M90.689 197.020 C 91.489 197.840,92.228 198.510,92.330 198.510 C 92.432 198.510,91.862 197.840,91.061 197.020 C 90.261 196.201,89.523 195.531,89.421 195.531 C 89.318 195.531,89.889 196.201,90.689 197.020 M94.972 201.304 C 95.667 202.020,96.319 202.607,96.422 202.607 C 96.524 202.607,96.039 202.020,95.345 201.304 C 94.650 200.587,93.997 200.000,93.895 200.000 C 93.792 200.000,94.277 200.587,94.972 201.304 M99.255 205.587 C 100.055 206.406,100.794 207.076,100.896 207.076 C 100.998 207.076,100.428 206.406,99.628 205.587 C 98.827 204.767,98.089 204.097,97.987 204.097 C 97.884 204.097,98.455 204.767,99.255 205.587 M103.724 210.056 C 104.524 210.875,105.263 211.546,105.365 211.546 C 105.468 211.546,104.897 210.875,104.097 210.056 C 103.297 209.236,102.558 208.566,102.456 208.566 C 102.353 208.566,102.924 209.236,103.724 210.056 M107.635 213.966 C 108.330 214.683,108.982 215.270,109.085 215.270 C 109.187 215.270,108.702 214.683,108.007 213.966 C 107.313 213.250,106.660 212.663,106.558 212.663 C 106.455 212.663,106.940 213.250,107.635 213.966 M363.208 217.748 C 362.979 218.496,362.939 218.957,363.119 218.772 C 363.484 218.399,364.050 216.387,363.790 216.387 C 363.700 216.387,363.438 217.000,363.208 217.748 M111.918 218.250 C 112.718 219.069,113.457 219.739,113.559 219.739 C 113.661 219.739,113.091 219.069,112.291 218.250 C 111.490 217.430,110.752 216.760,110.650 216.760 C 110.547 216.760,111.118 217.430,111.918 218.250 M116.387 222.719 C 117.396 223.743,118.305 224.581,118.408 224.581 C 118.510 224.581,117.769 223.743,116.760 222.719 C 115.751 221.695,114.842 220.857,114.739 220.857 C 114.637 220.857,115.379 221.695,116.387 222.719 M120.282 226.536 C 121.826 228.181,122.160 228.476,122.160 228.197 C 122.160 228.137,121.364 227.341,120.391 226.428 L 118.622 224.767 120.282 226.536 M358.720 229.625 C 358.096 230.994,358.215 231.287,358.889 230.042 C 359.205 229.460,359.393 228.915,359.308 228.830 C 359.222 228.744,358.958 229.102,358.720 229.625 M124.752 231.006 C 126.295 232.650,126.629 232.946,126.629 232.666 C 126.629 232.606,125.833 231.810,124.860 230.897 L 123.091 229.236 124.752 231.006 M128.848 235.102 C 130.392 236.747,130.726 237.042,130.726 236.763 C 130.726 236.703,129.930 235.907,128.957 234.994 L 127.188 233.333 128.848 235.102 M56.983 236.269 C 56.983 236.669,58.091 238.734,58.306 238.734 C 58.408 238.734,58.215 238.189,57.877 237.523 C 57.185 236.164,56.983 235.880,56.983 236.269 M354.821 238.180 C 354.481 238.894,354.279 239.479,354.373 239.479 C 354.627 239.479,355.758 237.198,355.588 237.028 C 355.507 236.947,355.162 237.465,354.821 238.180 M133.147 239.479 C 133.947 240.298,134.686 240.968,134.788 240.968 C 134.890 240.968,134.320 240.298,133.520 239.479 C 132.719 238.659,131.981 237.989,131.879 237.989 C 131.776 237.989,132.347 238.659,133.147 239.479 M137.415 243.669 C 138.958 245.313,139.292 245.609,139.292 245.329 C 139.292 245.269,138.496 244.473,137.523 243.560 L 135.754 241.899 137.415 243.669 M141.884 248.138 C 143.427 249.782,143.762 250.078,143.762 249.798 C 143.762 249.738,142.966 248.942,141.993 248.029 L 140.223 246.369 141.884 248.138 M145.981 252.235 C 147.524 253.879,147.858 254.175,147.858 253.895 C 147.858 253.835,147.062 253.039,146.089 252.126 L 144.320 250.466 145.981 252.235 M150.279 256.611 C 151.079 257.430,151.818 258.101,151.920 258.101 C 152.023 258.101,151.452 257.430,150.652 256.611 C 149.852 255.791,149.113 255.121,149.011 255.121 C 148.908 255.121,149.479 255.791,150.279 256.611 M154.174 260.428 C 155.718 262.073,156.052 262.368,156.052 262.089 C 156.052 262.029,155.256 261.233,154.283 260.320 L 152.514 258.659 154.174 260.428 M158.644 264.898 C 160.187 266.542,160.521 266.838,160.521 266.558 C 160.521 266.498,159.725 265.702,158.752 264.789 L 156.983 263.128 158.644 264.898 M338.008 265.528 C 337.648 265.926,337.441 266.470,337.549 266.738 C 337.699 267.113,337.751 267.104,337.773 266.696 C 337.789 266.405,338.080 265.860,338.419 265.486 C 338.758 265.111,338.952 264.804,338.849 264.804 C 338.747 264.804,338.368 265.130,338.008 265.528 M107.059 273.091 L 105.587 274.674 107.169 273.202 C 108.642 271.833,108.923 271.508,108.642 271.508 C 108.581 271.508,107.869 272.221,107.059 273.091 M103.538 276.536 C 102.634 277.458,101.977 278.212,102.080 278.212 C 102.182 278.212,103.006 277.458,103.911 276.536 C 104.815 275.615,105.472 274.860,105.369 274.860 C 105.267 274.860,104.443 275.615,103.538 276.536 M172.253 278.585 C 174.088 280.428,175.673 281.937,175.776 281.937 C 175.878 281.937,174.461 280.428,172.626 278.585 C 170.791 276.741,169.205 275.233,169.103 275.233 C 169.001 275.233,170.418 276.741,172.253 278.585 M327.933 277.556 C 326.535 279.015,326.518 279.058,327.654 278.263 C 328.321 277.797,329.039 277.092,329.250 276.697 C 329.792 275.684,329.622 275.795,327.933 277.556 M99.069 281.006 C 98.164 281.927,97.508 282.682,97.610 282.682 C 97.713 282.682,98.537 281.927,99.441 281.006 C 100.346 280.084,101.002 279.330,100.900 279.330 C 100.798 279.330,99.974 280.084,99.069 281.006 M148.603 280.990 C 148.603 281.093,149.274 281.519,150.093 281.937 C 150.912 282.355,151.583 282.613,151.583 282.510 C 151.583 282.408,150.912 281.982,150.093 281.564 C 149.274 281.146,148.603 280.888,148.603 280.990 M179.882 286.127 C 183.508 289.845,183.985 290.300,183.985 290.031 C 183.985 289.976,182.183 288.174,179.981 286.027 L 175.978 282.123 179.882 286.127 M94.959 285.196 L 92.924 287.337 95.065 285.301 C 97.055 283.410,97.377 283.054,97.101 283.054 C 97.043 283.054,96.079 284.018,94.959 285.196 M317.671 287.730 C 317.180 288.254,317.028 288.586,317.335 288.468 C 317.820 288.282,319.026 286.778,318.690 286.778 C 318.622 286.778,318.163 287.207,317.671 287.730 M90.875 289.199 C 89.971 290.121,89.314 290.875,89.417 290.875 C 89.519 290.875,90.343 290.121,91.248 289.199 C 92.152 288.277,92.809 287.523,92.706 287.523 C 92.604 287.523,91.780 288.277,90.875 289.199 M357.828 289.655 C 358.497 289.738,359.503 289.737,360.063 289.652 C 360.622 289.567,360.074 289.499,358.845 289.501 C 357.616 289.503,357.158 289.573,357.828 289.655 M184.730 290.992 C 184.730 291.056,185.275 291.601,185.940 292.202 L 187.151 293.296 186.057 292.086 C 185.037 290.957,184.730 290.704,184.730 290.992 M86.406 293.669 C 85.501 294.590,84.845 295.345,84.947 295.345 C 85.050 295.345,85.874 294.590,86.778 293.669 C 87.683 292.747,88.339 291.993,88.237 291.993 C 88.135 291.993,87.311 292.747,86.406 293.669 M82.309 297.765 C 81.404 298.687,80.748 299.441,80.850 299.441 C 80.953 299.441,81.777 298.687,82.682 297.765 C 83.586 296.844,84.243 296.089,84.140 296.089 C 84.038 296.089,83.214 296.844,82.309 297.765 M385.455 299.607 C 386.518 300.738,386.755 300.813,386.243 299.858 C 386.037 299.472,385.574 299.044,385.215 298.906 C 384.728 298.719,384.789 298.898,385.455 299.607 M331.192 299.825 C 330.731 300.011,330.354 300.341,330.354 300.560 C 330.354 301.013,331.644 300.438,332.031 299.812 C 332.297 299.382,332.294 299.382,331.192 299.825 M78.226 301.848 C 77.539 302.557,76.810 303.034,76.606 302.907 C 76.388 302.772,76.353 302.869,76.522 303.142 C 76.757 303.524,79.702 301.234,79.702 300.669 C 79.702 300.397,79.394 300.643,78.226 301.848 M73.743 306.331 C 72.838 307.253,72.182 308.007,72.284 308.007 C 72.387 308.007,73.211 307.253,74.115 306.331 C 75.020 305.410,75.677 304.655,75.574 304.655 C 75.472 304.655,74.648 305.410,73.743 306.331 M69.442 310.708 L 67.970 312.291 69.553 310.818 C 71.025 309.449,71.307 309.125,71.025 309.125 C 70.964 309.125,70.252 309.837,69.442 310.708 M120.650 310.521 L 119.367 311.918 120.764 310.635 C 122.063 309.440,122.331 309.125,122.047 309.125 C 121.985 309.125,121.356 309.753,120.650 310.521 M65.346 314.804 L 63.873 316.387 65.456 314.915 C 66.928 313.546,67.210 313.222,66.928 313.222 C 66.868 313.222,66.155 313.934,65.346 314.804 M116.181 314.991 L 114.898 316.387 116.294 315.104 C 117.594 313.909,117.862 313.594,117.578 313.594 C 117.515 313.594,116.887 314.223,116.181 314.991 M61.080 318.994 C 60.175 319.916,59.519 320.670,59.621 320.670 C 59.724 320.670,60.548 319.916,61.453 318.994 C 62.357 318.073,63.014 317.318,62.911 317.318 C 62.809 317.318,61.985 318.073,61.080 318.994 M112.084 319.088 L 110.801 320.484 112.197 319.201 C 113.497 318.006,113.765 317.691,113.481 317.691 C 113.419 317.691,112.790 318.319,112.084 319.088 M47.293 324.488 C 49.440 326.690,51.242 328.492,51.297 328.492 C 51.566 328.492,51.112 328.014,47.393 324.388 L 43.389 320.484 47.293 324.488 M56.779 323.371 L 55.307 324.953 56.890 323.481 C 58.362 322.112,58.644 321.788,58.362 321.788 C 58.302 321.788,57.589 322.500,56.779 323.371 M107.804 323.371 L 106.331 324.953 107.914 323.481 C 109.386 322.112,109.668 321.788,109.387 321.788 C 109.326 321.788,108.613 322.500,107.804 323.371 M52.866 327.281 L 51.583 328.678 52.980 327.394 C 54.279 326.200,54.547 325.885,54.263 325.885 C 54.201 325.885,53.572 326.513,52.866 327.281 M103.518 327.654 L 102.235 329.050 103.631 327.767 C 104.931 326.572,105.199 326.257,104.915 326.257 C 104.853 326.257,104.224 326.885,103.518 327.654 M317.505 327.002 C 317.365 327.442,317.334 327.887,317.437 327.989 C 317.539 328.092,317.737 327.815,317.877 327.374 C 318.017 326.934,318.048 326.489,317.945 326.387 C 317.843 326.285,317.644 326.561,317.505 327.002 M99.441 331.657 C 98.537 332.579,97.880 333.333,97.983 333.333 C 98.085 333.333,98.909 332.579,99.814 331.657 C 100.718 330.736,101.375 329.981,101.272 329.981 C 101.170 329.981,100.346 330.736,99.441 331.657 M198.138 330.726 C 198.445 330.925,199.032 331.087,199.441 331.087 C 200.058 331.087,200.090 331.025,199.628 330.726 C 199.320 330.528,198.734 330.365,198.324 330.365 C 197.707 330.365,197.675 330.427,198.138 330.726 M213.780 330.726 C 213.343 331.009,213.440 331.089,214.224 331.093 C 214.775 331.096,215.330 330.931,215.456 330.726 C 215.750 330.251,214.516 330.251,213.780 330.726 M5.214 333.508 C 6.502 335.029,38.007 366.536,38.923 367.220 C 39.695 367.796,28.219 356.225,13.076 341.158 C 8.240 336.346,4.702 332.904,5.214 333.508 M95.141 336.034 L 93.669 337.616 95.251 336.144 C 96.723 334.775,97.005 334.451,96.724 334.451 C 96.663 334.451,95.950 335.163,95.141 336.034 M90.855 340.317 L 89.572 341.713 90.968 340.430 C 92.268 339.235,92.536 338.920,92.252 338.920 C 92.190 338.920,91.561 339.548,90.855 340.317 M86.575 344.600 L 85.102 346.182 86.685 344.710 C 88.157 343.341,88.439 343.017,88.158 343.017 C 88.097 343.017,87.384 343.729,86.575 344.600 M82.105 349.069 L 80.633 350.652 82.216 349.180 C 83.688 347.810,83.970 347.486,83.688 347.486 C 83.627 347.486,82.915 348.198,82.105 349.069 M78.212 352.886 C 77.308 353.808,76.651 354.562,76.754 354.562 C 76.856 354.562,77.680 353.808,78.585 352.886 C 79.489 351.965,80.146 351.210,80.043 351.210 C 79.941 351.210,79.117 351.965,78.212 352.886 M73.912 357.263 L 72.439 358.845 74.022 357.373 C 75.494 356.004,75.776 355.680,75.495 355.680 C 75.434 355.680,74.721 356.392,73.912 357.263 M328.864 359.751 C 328.864 359.942,329.409 360.473,330.074 360.932 L 331.285 361.766 330.191 360.585 C 329.011 359.312,328.864 359.219,328.864 359.751 M69.646 361.453 C 68.742 362.374,68.085 363.128,68.188 363.128 C 68.290 363.128,69.114 362.374,70.019 361.453 C 70.923 360.531,71.580 359.777,71.477 359.777 C 71.375 359.777,70.551 360.531,69.646 361.453 M65.346 365.829 L 63.873 367.412 65.456 365.939 C 66.928 364.570,67.210 364.246,66.928 364.246 C 66.868 364.246,66.155 364.958,65.346 365.829 M341.899 368.865 C 341.899 368.947,342.444 369.196,343.110 369.418 C 344.217 369.788,344.259 369.775,343.597 369.269 C 342.931 368.758,341.899 368.513,341.899 368.865 " stroke="none" fill="#7c7c7c" fill-rule="evenodd"></path><path id="path4" d="M95.513 268.250 L 94.041 269.832 95.624 268.360 C 97.096 266.991,97.378 266.667,97.096 266.667 C 97.035 266.667,96.323 267.379,95.513 268.250 M90.875 272.812 C 89.971 273.734,89.314 274.488,89.417 274.488 C 89.519 274.488,90.343 273.734,91.248 272.812 C 92.152 271.890,92.809 271.136,92.706 271.136 C 92.604 271.136,91.780 271.890,90.875 272.812 M86.758 277.002 L 85.475 278.399 86.872 277.115 C 88.171 275.920,88.439 275.605,88.155 275.605 C 88.093 275.605,87.464 276.234,86.758 277.002 M82.478 281.285 L 81.006 282.868 82.588 281.396 C 84.061 280.026,84.342 279.702,84.061 279.702 C 84.000 279.702,83.288 280.414,82.478 281.285 M78.192 285.568 L 76.909 286.965 78.305 285.681 C 79.605 284.486,79.873 284.171,79.589 284.171 C 79.527 284.171,78.898 284.800,78.192 285.568 M74.095 289.665 L 72.812 291.061 74.209 289.778 C 75.509 288.583,75.776 288.268,75.492 288.268 C 75.430 288.268,74.801 288.897,74.095 289.665 M65.529 298.231 L 64.246 299.628 65.642 298.344 C 66.942 297.149,67.210 296.834,66.926 296.834 C 66.864 296.834,66.235 297.463,65.529 298.231 " stroke="none" fill="#747474" fill-rule="evenodd"></path><path id="path5" d="M89.182 49.255 L 87.709 50.838 89.292 49.366 C 90.764 47.997,91.046 47.672,90.765 47.672 C 90.704 47.672,89.991 48.385,89.182 49.255 M104.757 251.769 C 104.757 252.691,104.830 253.068,104.918 252.607 C 105.007 252.146,105.007 251.392,104.918 250.931 C 104.830 250.470,104.757 250.847,104.757 251.769 M116.181 314.618 L 114.898 316.015 116.294 314.731 C 117.594 313.537,117.862 313.222,117.578 313.222 C 117.515 313.222,116.887 313.850,116.181 314.618 M107.615 323.184 L 106.331 324.581 107.728 323.298 C 109.028 322.103,109.296 321.788,109.012 321.788 C 108.949 321.788,108.321 322.416,107.615 323.184 M103.329 327.467 L 102.235 328.678 103.445 327.584 C 104.573 326.564,104.827 326.257,104.539 326.257 C 104.475 326.257,103.930 326.802,103.329 327.467 M99.232 331.564 L 98.138 332.775 99.348 331.681 C 100.477 330.661,100.730 330.354,100.442 330.354 C 100.378 330.354,99.833 330.899,99.232 331.564 M201.676 330.726 C 201.803 330.931,202.231 331.099,202.629 331.099 C 203.027 331.099,203.352 330.931,203.352 330.726 C 203.352 330.521,202.923 330.354,202.399 330.354 C 201.858 330.354,201.545 330.515,201.676 330.726 M94.952 335.847 L 93.669 337.244 95.065 335.960 C 96.365 334.766,96.633 334.451,96.349 334.451 C 96.286 334.451,95.658 335.079,94.952 335.847 M8.566 336.429 C 8.566 336.493,9.111 337.038,9.777 337.640 L 10.987 338.734 9.893 337.523 C 8.873 336.395,8.566 336.142,8.566 336.429 M13.594 341.527 C 14.394 342.346,15.133 343.017,15.235 343.017 C 15.337 343.017,14.767 342.346,13.966 341.527 C 13.166 340.708,12.428 340.037,12.326 340.037 C 12.223 340.037,12.794 340.708,13.594 341.527 M86.386 344.413 L 85.102 345.810 86.499 344.527 C 87.799 343.332,88.067 343.017,87.783 343.017 C 87.720 343.017,87.092 343.645,86.386 344.413 M82.099 348.696 L 81.006 349.907 82.216 348.813 C 83.344 347.793,83.598 347.486,83.310 347.486 C 83.246 347.486,82.701 348.031,82.099 348.696 M78.003 352.793 L 76.909 354.004 78.119 352.910 C 79.247 351.890,79.501 351.583,79.213 351.583 C 79.149 351.583,78.604 352.128,78.003 352.793 M73.533 357.263 L 72.439 358.473 73.650 357.379 C 74.778 356.359,75.032 356.052,74.744 356.052 C 74.680 356.052,74.135 356.597,73.533 357.263 M65.340 365.456 L 64.246 366.667 65.456 365.573 C 66.585 364.553,66.838 364.246,66.550 364.246 C 66.486 364.246,65.941 364.791,65.340 365.456 " stroke="none" fill="#3c3c3c" fill-rule="evenodd"></path><path id="path6" d="M81.564 187.454 C 81.564 187.518,82.109 188.062,82.775 188.664 L 83.985 189.758 82.891 188.547 C 81.872 187.419,81.564 187.166,81.564 187.454 M73.906 306.611 L 72.812 307.821 74.022 306.727 C 75.151 305.708,75.404 305.400,75.116 305.400 C 75.052 305.400,74.507 305.945,73.906 306.611 M61.243 319.274 L 60.149 320.484 61.359 319.390 C 62.488 318.371,62.741 318.063,62.453 318.063 C 62.389 318.063,61.845 318.608,61.243 319.274 M317.546 330.137 C 317.421 330.632,317.459 331.414,317.629 331.874 C 317.870 332.523,317.939 332.321,317.939 330.974 C 317.939 329.005,317.868 328.853,317.546 330.137 M209.683 330.726 L 208.752 331.024 209.755 331.062 C 210.306 331.082,210.860 330.931,210.987 330.726 C 211.249 330.303,211.005 330.303,209.683 330.726 " stroke="none" fill="#343434" fill-rule="evenodd"></path><path id="path7" d="M203.259 0.650 C 204.949 0.719,207.714 0.719,209.404 0.650 C 211.094 0.581,209.711 0.524,206.331 0.524 C 202.952 0.524,201.569 0.581,203.259 0.650 M195.251 1.002 C 195.610 1.095,196.196 1.095,196.555 1.002 C 196.913 0.908,196.620 0.831,195.903 0.831 C 195.186 0.831,194.893 0.908,195.251 1.002 M216.299 1.008 C 216.762 1.097,217.432 1.094,217.788 1.001 C 218.144 0.908,217.765 0.835,216.946 0.839 C 216.127 0.843,215.835 0.919,216.299 1.008 M325.140 51.141 C 325.140 51.205,325.684 51.750,326.350 52.351 L 327.561 53.445 326.467 52.235 C 325.447 51.106,325.140 50.853,325.140 51.141 M40.968 172.954 C 40.968 173.261,41.136 173.616,41.341 173.743 C 41.546 173.870,41.713 173.722,41.713 173.415 C 41.713 173.107,41.546 172.752,41.341 172.626 C 41.136 172.499,40.968 172.647,40.968 172.954 M141.884 247.765 C 143.427 249.410,143.762 249.705,143.762 249.426 C 143.762 249.366,142.966 248.570,141.993 247.657 L 140.223 245.996 141.884 247.765 M99.232 264.153 L 98.138 265.363 99.348 264.269 C 100.477 263.250,100.730 262.942,100.442 262.942 C 100.378 262.942,99.833 263.487,99.232 264.153 M94.952 268.436 L 93.669 269.832 95.065 268.549 C 96.365 267.354,96.633 267.039,96.349 267.039 C 96.286 267.039,95.658 267.668,94.952 268.436 M163.113 268.994 C 164.656 270.639,164.991 270.934,164.991 270.655 C 164.991 270.595,164.195 269.799,163.222 268.886 L 161.453 267.225 163.113 268.994 M91.038 272.346 L 89.944 273.557 91.155 272.463 C 92.283 271.443,92.536 271.136,92.248 271.136 C 92.184 271.136,91.640 271.681,91.038 272.346 M167.412 273.371 C 168.212 274.190,168.950 274.860,169.052 274.860 C 169.155 274.860,168.584 274.190,167.784 273.371 C 166.984 272.551,166.245 271.881,166.143 271.881 C 166.041 271.881,166.611 272.551,167.412 273.371 M86.569 276.816 L 85.475 278.026 86.685 276.932 C 87.814 275.913,88.067 275.605,87.779 275.605 C 87.715 275.605,87.170 276.150,86.569 276.816 M82.099 281.285 L 81.006 282.495 82.216 281.401 C 83.344 280.382,83.598 280.074,83.310 280.074 C 83.246 280.074,82.701 280.619,82.099 281.285 M175.776 281.657 C 177.319 283.302,177.654 283.597,177.654 283.318 C 177.654 283.258,176.858 282.462,175.885 281.549 L 174.115 279.888 175.776 281.657 M78.375 285.009 L 77.281 286.220 78.492 285.126 C 79.157 284.524,79.702 283.980,79.702 283.915 C 79.702 283.628,79.395 283.881,78.375 285.009 M318.977 286.127 L 317.505 287.709 319.088 286.237 C 320.560 284.868,320.842 284.544,320.560 284.544 C 320.499 284.544,319.787 285.256,318.977 286.127 M73.533 289.851 L 72.439 291.061 73.650 289.968 C 74.778 288.948,75.032 288.641,74.744 288.641 C 74.680 288.641,74.135 289.185,73.533 289.851 M184.171 290.130 C 184.971 290.950,185.710 291.620,185.812 291.620 C 185.915 291.620,185.344 290.950,184.544 290.130 C 183.744 289.311,183.005 288.641,182.903 288.641 C 182.800 288.641,183.371 289.311,184.171 290.130 M69.809 293.575 L 68.715 294.786 69.926 293.692 C 71.054 292.672,71.307 292.365,71.019 292.365 C 70.955 292.365,70.411 292.910,69.809 293.575 M65.340 298.045 L 64.246 299.255 65.456 298.161 C 66.585 297.142,66.838 296.834,66.550 296.834 C 66.486 296.834,65.941 297.379,65.340 298.045 M328.844 303.073 L 327.561 304.469 328.957 303.186 C 330.257 301.991,330.525 301.676,330.241 301.676 C 330.178 301.676,329.550 302.304,328.844 303.073 M47.114 324.767 C 49.360 327.020,51.282 328.864,51.384 328.864 C 51.486 328.864,49.732 327.020,47.486 324.767 C 45.240 322.514,43.318 320.670,43.216 320.670 C 43.113 320.670,44.867 322.514,47.114 324.767 M204.283 330.726 C 205.211 331.125,208.439 331.125,209.683 330.726 C 210.292 330.531,209.389 330.424,207.076 330.417 C 204.783 330.410,203.800 330.519,204.283 330.726 M50.935 371.958 C 51.399 372.047,52.069 372.044,52.425 371.950 C 52.781 371.857,52.402 371.784,51.583 371.789 C 50.764 371.793,50.472 371.869,50.935 371.958 M357.459 371.968 C 358.335 372.046,359.675 372.045,360.438 371.965 C 361.201 371.885,360.484 371.821,358.845 371.822 C 357.207 371.824,356.583 371.889,357.459 371.968 " stroke="none" fill="#272727" fill-rule="evenodd"></path></g></svg>