<svg id="svg" version="1.1" xmlns="http://www.w3.org/2000/svg" xmlns:xlink="http://www.w3.org/1999/xlink" width="400" height="400" viewBox="0, 0, 400,400"><g id="svgg"><path id="path0" d="M235.846 103.423 C 233.914 108.460,245.242 127.329,253.672 133.115 C 256.472 135.037,257.890 134.539,255.630 132.428 C 254.954 131.796,254.400 131.031,254.400 130.728 C 254.400 130.425,254.040 129.917,253.600 129.600 C 253.160 129.283,252.800 128.703,252.800 128.312 C 252.800 127.920,252.620 127.600,252.400 127.600 C 252.180 127.600,252.000 127.330,252.000 127.000 C 252.000 126.670,251.820 126.400,251.600 126.400 C 251.380 126.400,251.200 126.040,251.200 125.600 C 251.200 125.160,251.020 124.800,250.800 124.800 C 250.580 124.800,250.400 124.440,250.400 124.000 C 250.400 123.560,250.220 123.200,250.000 123.200 C 249.780 123.200,249.600 122.840,249.600 122.400 C 249.600 121.960,249.420 121.600,249.200 121.600 C 248.980 121.600,248.800 121.240,248.800 120.800 C 248.800 120.360,248.620 120.000,248.400 120.000 C 248.180 120.000,248.000 119.460,248.000 118.800 C 248.000 118.140,247.820 117.600,247.600 117.600 C 247.380 117.600,247.200 116.880,247.200 116.000 C 247.200 115.120,247.020 114.400,246.800 114.400 C 246.580 114.400,246.400 113.601,246.400 112.624 C 246.400 111.647,246.220 110.736,246.000 110.600 C 245.779 110.463,245.600 108.663,245.600 106.576 L 245.600 102.800 240.843 102.800 C 236.904 102.800,236.044 102.907,235.846 103.423 M282.705 163.900 L 282.600 177.400 278.467 177.333 C 265.512 177.124,248.887 171.921,238.386 164.790 C 237.082 163.905,235.753 163.080,235.433 162.957 C 234.925 162.762,234.831 167.811,234.709 202.067 C 234.613 229.036,234.433 241.777,234.135 242.600 C 233.896 243.260,233.486 244.970,233.223 246.400 C 226.000 285.790,178.691 308.022,141.434 289.533 C 137.810 287.735,136.400 287.395,136.400 288.320 C 136.400 288.510,136.895 288.920,137.500 289.232 C 138.539 289.768,138.979 290.117,141.381 292.300 C 141.926 292.795,142.558 293.200,142.786 293.200 C 143.014 293.200,143.200 293.350,143.200 293.532 C 143.200 293.715,143.695 294.119,144.300 294.430 C 144.905 294.740,145.691 295.311,146.047 295.697 C 146.403 296.084,146.988 296.400,147.347 296.400 C 147.706 296.400,148.000 296.580,148.000 296.800 C 148.000 297.020,148.360 297.200,148.800 297.200 C 149.240 297.200,149.600 297.380,149.600 297.600 C 149.600 297.820,149.960 298.000,150.400 298.000 C 150.840 298.000,151.200 298.180,151.200 298.400 C 151.200 298.620,151.560 298.800,152.000 298.800 C 152.440 298.800,152.800 298.980,152.800 299.200 C 152.800 299.420,153.160 299.600,153.600 299.600 C 154.040 299.600,154.400 299.780,154.400 300.000 C 154.400 300.220,154.760 300.400,155.200 300.400 C 155.640 300.400,156.000 300.580,156.000 300.800 C 156.000 301.020,156.540 301.200,157.200 301.200 C 157.860 301.200,158.400 301.380,158.400 301.600 C 158.400 301.820,158.760 302.000,159.200 302.000 C 159.640 302.000,160.000 302.180,160.000 302.400 C 160.000 302.620,160.630 302.800,161.400 302.800 C 162.170 302.800,162.800 302.980,162.800 303.200 C 162.800 303.420,163.329 303.600,163.976 303.600 C 164.623 303.600,165.264 303.780,165.400 304.000 C 165.536 304.220,166.447 304.400,167.424 304.400 C 168.401 304.400,169.200 304.580,169.200 304.800 C 169.200 305.033,170.533 305.200,172.400 305.200 C 174.267 305.200,175.600 305.367,175.600 305.600 C 175.600 305.848,177.725 306.000,181.176 306.000 C 184.463 306.000,186.854 305.836,187.000 305.600 C 187.136 305.380,188.407 305.200,189.824 305.200 C 191.275 305.200,192.400 305.025,192.400 304.800 C 192.400 304.580,193.300 304.400,194.400 304.400 C 195.500 304.400,196.400 304.220,196.400 304.000 C 196.400 303.780,197.120 303.600,198.000 303.600 C 198.880 303.600,199.600 303.420,199.600 303.200 C 199.600 302.980,200.140 302.800,200.800 302.800 C 201.460 302.800,202.000 302.620,202.000 302.400 C 202.000 302.180,202.540 302.000,203.200 302.000 C 203.860 302.000,204.400 301.820,204.400 301.600 C 204.400 301.380,204.743 301.200,205.162 301.200 C 205.978 301.200,209.312 299.599,209.533 299.100 C 209.607 298.935,210.012 298.800,210.433 298.800 C 210.855 298.800,211.200 298.620,211.200 298.400 C 211.200 298.180,211.560 298.000,212.000 298.000 C 212.440 298.000,212.800 297.820,212.800 297.600 C 212.800 297.380,213.120 297.200,213.512 297.200 C 213.903 297.200,214.483 296.840,214.800 296.400 C 215.117 295.960,215.657 295.600,216.000 295.600 C 216.343 295.600,216.883 295.240,217.200 294.800 C 217.517 294.360,218.025 294.000,218.328 294.000 C 218.631 294.000,219.383 293.460,220.000 292.800 C 220.617 292.140,221.358 291.600,221.647 291.600 C 222.260 291.600,231.600 282.157,231.600 281.538 C 231.600 281.309,232.140 280.617,232.800 280.000 C 233.460 279.383,234.000 278.631,234.000 278.328 C 234.000 278.025,234.360 277.517,234.800 277.200 C 235.240 276.883,235.600 276.303,235.600 275.912 C 235.600 275.520,235.780 275.200,236.000 275.200 C 236.220 275.200,236.400 274.930,236.400 274.600 C 236.400 274.270,236.561 274.000,236.758 274.000 C 237.197 274.000,240.400 267.527,240.400 266.639 C 240.400 266.288,240.574 266.000,240.786 266.000 C 240.999 266.000,241.292 265.100,241.438 264.000 C 241.584 262.900,241.860 262.000,242.052 262.000 C 242.243 262.000,242.400 261.460,242.400 260.800 C 242.400 260.140,242.580 259.600,242.800 259.600 C 243.020 259.600,243.200 258.970,243.200 258.200 C 243.200 257.430,243.380 256.800,243.600 256.800 C 243.820 256.800,244.000 255.900,244.000 254.800 C 244.000 253.700,244.180 252.800,244.400 252.800 C 244.633 252.800,244.800 251.467,244.800 249.600 C 244.800 247.733,244.967 246.400,245.200 246.400 C 245.464 246.400,245.600 233.933,245.600 209.800 C 245.600 189.670,245.752 173.200,245.938 173.200 C 246.124 173.200,246.587 173.544,246.967 173.964 C 247.348 174.384,248.096 174.838,248.629 174.972 C 249.163 175.106,249.600 175.392,249.600 175.608 C 249.600 175.823,249.960 176.000,250.400 176.000 C 250.840 176.000,251.200 176.180,251.200 176.400 C 251.200 176.620,251.560 176.800,252.000 176.800 C 252.440 176.800,252.800 176.980,252.800 177.200 C 252.800 177.420,253.160 177.600,253.600 177.600 C 254.040 177.600,254.400 177.780,254.400 178.000 C 254.400 178.220,254.760 178.400,255.200 178.400 C 255.640 178.400,256.000 178.580,256.000 178.800 C 256.000 179.020,256.345 179.200,256.767 179.200 C 257.188 179.200,257.593 179.335,257.667 179.500 C 257.888 179.999,261.222 181.600,262.038 181.600 C 262.457 181.600,262.800 181.780,262.800 182.000 C 262.800 182.220,263.340 182.400,264.000 182.400 C 264.660 182.400,265.200 182.580,265.200 182.800 C 265.200 183.020,265.740 183.200,266.400 183.200 C 267.060 183.200,267.600 183.380,267.600 183.600 C 267.600 183.820,268.140 184.000,268.800 184.000 C 269.460 184.000,270.000 184.180,270.000 184.400 C 270.000 184.620,270.720 184.800,271.600 184.800 C 272.480 184.800,273.200 184.980,273.200 185.200 C 273.200 185.420,273.999 185.600,274.976 185.600 C 275.953 185.600,276.864 185.780,277.000 186.000 C 277.136 186.220,278.407 186.400,279.824 186.400 C 281.275 186.400,282.400 186.575,282.400 186.800 C 282.400 187.047,284.467 187.200,287.800 187.200 L 293.200 187.200 293.200 169.200 L 293.200 151.200 290.200 151.200 C 288.467 151.200,287.200 151.031,287.200 150.800 C 287.200 150.580,286.212 150.400,285.005 150.400 L 282.811 150.400 282.705 163.900 M179.788 177.300 C 179.686 177.575,179.556 183.830,179.501 191.200 L 179.400 204.600 178.200 204.484 C 170.399 203.726,165.507 203.972,161.800 205.309 C 138.797 213.602,135.165 243.149,155.434 257.110 C 157.282 258.383,159.392 257.691,157.600 256.400 C 157.160 256.083,156.800 255.503,156.800 255.112 C 156.800 254.720,156.620 254.400,156.400 254.400 C 156.180 254.400,156.000 254.040,156.000 253.600 C 156.000 253.160,155.820 252.800,155.600 252.800 C 155.380 252.800,155.200 252.361,155.200 251.824 C 155.200 251.287,155.020 250.736,154.800 250.600 C 154.580 250.464,154.400 249.924,154.400 249.400 C 154.400 248.876,154.220 248.336,154.000 248.200 C 153.780 248.064,153.600 247.243,153.600 246.376 C 153.600 245.509,153.420 244.800,153.200 244.800 C 152.965 244.800,152.800 243.400,152.800 241.400 C 152.800 239.400,152.965 238.000,153.200 238.000 C 153.420 238.000,153.600 237.100,153.600 236.000 C 153.600 234.900,153.780 234.000,154.000 234.000 C 154.220 234.000,154.400 233.460,154.400 232.800 C 154.400 232.140,154.580 231.600,154.800 231.600 C 155.020 231.600,155.200 231.240,155.200 230.800 C 155.200 230.360,155.380 230.000,155.600 230.000 C 155.820 230.000,156.000 229.640,156.000 229.200 C 156.000 228.760,156.180 228.400,156.400 228.400 C 156.620 228.400,156.800 228.040,156.800 227.600 C 156.800 227.160,156.980 226.800,157.200 226.800 C 157.420 226.800,157.600 226.526,157.600 226.192 C 157.600 225.396,165.394 217.600,166.189 217.600 C 166.525 217.600,166.800 217.420,166.800 217.200 C 166.800 216.980,167.160 216.800,167.600 216.800 C 168.040 216.800,168.400 216.620,168.400 216.400 C 168.400 216.180,168.760 216.000,169.200 216.000 C 169.640 216.000,170.000 215.820,170.000 215.600 C 170.000 215.380,170.360 215.200,170.800 215.200 C 171.240 215.200,171.600 215.020,171.600 214.800 C 171.600 214.580,172.140 214.400,172.800 214.400 C 173.460 214.400,174.000 214.220,174.000 214.000 C 174.000 213.780,174.810 213.600,175.800 213.600 C 176.790 213.600,177.600 213.420,177.600 213.200 C 177.600 212.967,178.933 212.800,180.800 212.800 C 182.667 212.800,184.000 212.967,184.000 213.200 C 184.000 213.420,184.900 213.600,186.000 213.600 C 187.100 213.600,188.000 213.780,188.000 214.000 C 188.000 214.220,188.540 214.400,189.200 214.400 L 190.400 214.400 190.400 196.000 C 190.400 178.053,190.381 177.600,189.624 177.600 C 189.197 177.600,188.736 177.420,188.600 177.200 C 188.221 176.587,180.020 176.680,179.788 177.300 " stroke="none" fill="#fb2c54" fill-rule="evenodd"></path><path id="path1" d="M199.600 163.596 C 199.600 209.732,199.465 233.200,199.200 233.200 C 198.971 233.200,198.800 234.400,198.800 236.000 C 198.800 237.600,198.629 238.800,198.400 238.800 C 198.180 238.800,198.000 239.340,198.000 240.000 C 198.000 240.660,197.820 241.200,197.600 241.200 C 197.380 241.200,197.200 241.543,197.200 241.962 C 197.200 242.778,195.599 246.112,195.100 246.333 C 194.935 246.407,194.800 246.730,194.800 247.052 C 194.800 247.373,194.395 248.070,193.900 248.599 C 192.389 250.215,192.000 250.748,192.000 251.201 C 192.000 251.778,190.161 253.600,189.579 253.600 C 189.327 253.600,188.617 254.140,188.000 254.800 C 187.383 255.460,186.631 256.000,186.328 256.000 C 186.025 256.000,185.517 256.360,185.200 256.800 C 184.883 257.240,184.303 257.600,183.912 257.600 C 183.520 257.600,183.200 257.750,183.200 257.933 C 183.200 258.268,180.513 259.080,178.096 259.475 C 177.379 259.592,176.694 259.849,176.573 260.044 C 176.266 260.541,166.109 260.499,165.800 260.000 C 165.664 259.780,164.944 259.600,164.200 259.600 C 163.456 259.600,162.749 259.441,162.629 259.246 C 162.508 259.052,161.598 258.771,160.605 258.622 C 159.612 258.473,158.800 258.182,158.800 257.975 C 158.800 257.769,158.620 257.600,158.400 257.600 C 156.728 257.600,160.778 262.577,164.555 265.164 C 173.170 271.064,184.154 271.950,193.366 267.489 C 201.123 263.731,206.481 257.392,209.079 248.898 C 209.736 246.749,209.789 241.977,209.897 175.300 L 210.013 104.000 222.106 103.995 C 228.758 103.992,234.607 103.880,235.104 103.747 C 236.095 103.481,236.788 101.687,236.072 101.244 C 235.828 101.094,235.583 99.475,235.518 97.587 L 235.400 94.200 217.500 94.096 L 199.600 93.992 199.600 163.596 M257.200 135.111 C 257.200 137.892,269.326 146.398,277.000 149.000 C 283.456 151.189,283.200 151.297,283.200 146.392 L 283.200 142.518 279.406 142.251 C 277.319 142.105,275.147 141.808,274.580 141.592 C 274.012 141.377,272.930 141.200,272.174 141.200 C 271.418 141.200,270.800 141.020,270.800 140.800 C 270.800 140.580,270.260 140.400,269.600 140.400 C 268.940 140.400,268.400 140.220,268.400 140.000 C 268.400 139.780,267.860 139.600,267.200 139.600 C 266.540 139.600,266.000 139.420,266.000 139.200 C 266.000 138.980,265.640 138.800,265.200 138.800 C 264.760 138.800,264.400 138.620,264.400 138.400 C 264.400 138.180,263.860 138.000,263.200 138.000 C 262.540 138.000,262.000 137.820,262.000 137.600 C 262.000 137.380,261.706 137.200,261.347 137.200 C 260.988 137.200,260.401 136.885,260.043 136.500 C 258.948 135.324,257.200 134.469,257.200 135.111 M160.400 168.800 C 160.400 169.020,159.590 169.200,158.600 169.200 C 157.610 169.200,156.800 169.380,156.800 169.600 C 156.800 169.820,156.080 170.000,155.200 170.000 C 154.320 170.000,153.600 170.180,153.600 170.400 C 153.600 170.620,152.880 170.800,152.000 170.800 C 151.120 170.800,150.400 170.980,150.400 171.200 C 150.400 171.420,149.860 171.600,149.200 171.600 C 148.540 171.600,148.000 171.780,148.000 172.000 C 148.000 172.220,147.640 172.400,147.200 172.400 C 146.760 172.400,146.400 172.580,146.400 172.800 C 146.400 173.020,145.875 173.200,145.233 173.200 C 144.592 173.200,144.007 173.342,143.933 173.515 C 143.860 173.689,142.315 174.531,140.500 175.387 C 138.685 176.244,137.200 177.092,137.200 177.272 C 137.200 177.452,136.906 177.600,136.547 177.600 C 136.188 177.600,135.603 177.916,135.247 178.303 C 134.891 178.689,134.105 179.260,133.500 179.570 C 132.895 179.881,132.400 180.285,132.400 180.468 C 132.400 180.650,132.142 180.800,131.827 180.800 C 131.301 180.800,129.174 182.850,122.500 189.787 C 121.125 191.217,120.000 192.481,120.000 192.597 C 120.000 192.713,119.460 193.372,118.800 194.063 C 118.140 194.754,117.600 195.522,117.600 195.771 C 117.600 196.020,117.240 196.483,116.800 196.800 C 116.360 197.117,116.000 197.697,116.000 198.088 C 116.000 198.480,115.820 198.800,115.600 198.800 C 115.380 198.800,115.200 199.120,115.200 199.512 C 115.200 199.903,114.840 200.483,114.400 200.800 C 113.960 201.117,113.600 201.697,113.600 202.088 C 113.600 202.480,113.420 202.800,113.200 202.800 C 112.980 202.800,112.800 203.160,112.800 203.600 C 112.800 204.040,112.620 204.400,112.400 204.400 C 112.180 204.400,112.000 204.940,112.000 205.600 C 112.000 206.260,111.820 206.800,111.600 206.800 C 111.380 206.800,111.200 207.160,111.200 207.600 C 111.200 208.040,111.020 208.400,110.800 208.400 C 110.580 208.400,110.400 208.839,110.400 209.376 C 110.400 209.913,110.220 210.464,110.000 210.600 C 109.780 210.736,109.600 211.251,109.600 211.744 C 109.600 212.237,109.421 212.819,109.202 213.038 C 108.984 213.256,108.688 214.552,108.546 215.918 C 108.403 217.283,108.132 218.400,107.943 218.400 C 107.754 218.400,107.600 219.480,107.600 220.800 C 107.600 222.133,107.422 223.200,107.200 223.200 C 106.945 223.200,106.800 226.533,106.800 232.400 C 106.800 238.267,106.945 241.600,107.200 241.600 C 107.422 241.600,107.600 242.667,107.600 244.000 C 107.600 245.320,107.754 246.400,107.943 246.400 C 108.132 246.400,108.403 247.517,108.546 248.882 C 108.688 250.248,108.984 251.544,109.202 251.762 C 109.421 251.981,109.600 252.563,109.600 253.056 C 109.600 253.549,109.780 254.064,110.000 254.200 C 110.220 254.336,110.400 254.791,110.400 255.211 C 110.400 255.632,110.760 256.617,111.200 257.400 C 111.640 258.183,112.000 259.179,112.000 259.612 C 112.000 260.045,112.180 260.400,112.400 260.400 C 112.620 260.400,112.800 260.760,112.800 261.200 C 112.800 261.640,112.980 262.000,113.200 262.000 C 113.420 262.000,113.600 262.320,113.600 262.712 C 113.600 263.103,113.960 263.683,114.400 264.000 C 114.840 264.317,115.200 264.897,115.200 265.288 C 115.200 265.680,115.380 266.000,115.600 266.000 C 115.820 266.000,116.000 266.320,116.000 266.712 C 116.000 267.103,116.360 267.683,116.800 268.000 C 117.240 268.317,117.600 268.825,117.600 269.128 C 117.600 269.431,118.095 270.156,118.700 270.740 C 119.305 271.323,120.040 272.266,120.333 272.836 C 120.626 273.405,121.238 274.125,121.692 274.436 C 122.146 274.746,123.032 275.540,123.660 276.200 C 128.965 281.772,130.417 283.200,130.781 283.200 C 131.663 283.200,131.129 281.800,129.273 279.249 C 123.900 271.865,120.033 263.233,118.408 255.000 C 118.147 253.680,117.769 251.845,117.567 250.923 C 117.070 248.653,117.100 234.959,117.608 232.320 C 118.597 227.176,118.985 225.576,120.111 222.000 C 125.754 204.085,138.665 190.362,157.400 182.368 C 161.931 180.434,169.622 178.710,176.200 178.154 C 180.098 177.824,179.986 177.984,179.994 172.700 L 180.000 168.400 170.200 168.400 C 163.933 168.400,160.400 168.544,160.400 168.800 " stroke="none" fill="#23eee7" fill-rule="evenodd"></path><path id="path2" d="M222.506 103.900 L 210.013 104.011 209.897 175.306 C 209.769 254.409,210.002 247.684,207.183 253.774 C 201.848 265.300,188.031 272.420,176.000 269.843 C 168.144 268.160,158.000 261.654,158.000 258.298 C 158.000 257.746,157.812 257.587,157.364 257.759 C 157.012 257.893,156.162 257.613,155.464 257.132 C 133.940 242.294,139.531 210.921,164.861 204.397 C 166.502 203.974,173.417 204.019,178.200 204.484 L 179.400 204.600 179.505 191.242 L 179.611 177.884 176.305 178.150 C 169.758 178.677,161.985 180.412,157.400 182.368 C 138.665 190.362,125.754 204.085,120.111 222.000 C 118.985 225.576,118.597 227.176,117.608 232.320 C 117.100 234.959,117.070 248.653,117.567 250.923 C 117.769 251.845,118.147 253.680,118.408 255.000 C 120.022 263.180,123.845 271.738,129.217 279.200 C 130.247 280.630,131.208 282.295,131.352 282.900 C 131.497 283.505,131.792 284.000,132.008 284.000 C 132.223 284.000,132.400 284.283,132.400 284.629 C 132.400 285.373,133.342 286.400,134.025 286.400 C 134.289 286.400,134.832 286.775,135.230 287.234 C 135.704 287.782,136.219 287.984,136.725 287.824 C 137.219 287.667,138.915 288.283,141.448 289.540 C 178.691 308.022,226.002 285.782,233.223 246.400 C 233.486 244.970,233.896 243.260,234.135 242.600 C 234.433 241.777,234.613 229.036,234.709 202.067 C 234.831 167.811,234.925 162.762,235.433 162.957 C 235.753 163.080,237.082 163.905,238.386 164.790 C 248.887 171.921,265.512 177.124,278.467 177.333 L 282.600 177.400 282.600 164.015 L 282.600 150.630 281.200 150.266 C 271.396 147.719,258.168 139.340,257.329 135.146 C 257.147 134.236,256.933 134.031,256.356 134.214 C 254.766 134.719,248.257 128.974,244.104 123.400 C 240.490 118.551,237.190 111.322,235.950 105.542 C 235.721 104.474,235.414 103.642,235.267 103.694 C 235.120 103.746,229.378 103.838,222.506 103.900 " stroke="none" fill="#040404" fill-rule="evenodd"></path></g></svg>