<svg id="svg" version="1.1" xmlns="http://www.w3.org/2000/svg" xmlns:xlink="http://www.w3.org/1999/xlink" width="400" height="400" viewBox="0, 0, 400,400"><g id="svgg"><path id="path0" d="M183.200 0.792 C 181.990 0.979,179.020 1.410,176.600 1.749 C 155.388 4.715,138.032 9.501,118.000 17.907 C 111.139 20.786,110.611 21.200,113.800 21.200 C 114.790 21.200,115.600 21.335,115.599 21.500 C 115.599 21.665,116.679 21.739,117.999 21.664 C 119.320 21.590,120.400 21.680,120.399 21.864 C 120.399 22.049,121.389 22.138,122.599 22.063 C 123.810 21.988,124.800 22.091,124.800 22.294 C 124.800 22.496,125.308 22.587,125.930 22.496 C 127.432 22.275,144.968 24.002,145.114 24.384 C 145.177 24.549,145.628 24.607,146.117 24.514 C 148.415 24.074,176.021 28.303,191.400 31.451 C 212.144 35.696,235.724 42.566,252.000 49.106 C 256.517 50.922,258.537 51.808,265.000 54.812 C 274.057 59.022,289.147 68.876,297.888 76.290 C 300.978 78.911,300.876 78.920,302.318 75.900 C 302.975 74.525,307.219 65.862,311.749 56.649 L 319.987 39.899 311.020 34.156 C 283.765 16.699,262.004 8.086,232.400 3.035 C 220.052 0.928,190.887 -0.402,183.200 0.792 M85.469 38.298 L 82.338 38.435 75.869 43.872 C 55.885 60.669,42.320 75.894,30.736 94.531 C 27.295 100.067,22.001 109.236,22.000 109.661 C 22.000 109.974,24.827 110.271,30.000 110.500 C 34.081 110.681,39.784 110.954,46.200 111.277 C 49.888 111.463,52.794 111.622,60.800 112.077 C 62.450 112.170,66.220 112.384,69.178 112.551 C 72.135 112.718,74.837 113.006,75.182 113.190 C 75.527 113.375,76.257 113.441,76.804 113.338 C 77.352 113.235,79.510 113.336,81.600 113.562 C 83.690 113.788,86.930 114.071,88.800 114.191 C 90.670 114.311,93.640 114.587,95.400 114.806 C 99.355 115.296,102.012 115.594,102.800 115.635 C 103.283 115.660,109.007 116.336,117.600 117.383 C 118.798 117.529,134.830 119.772,139.500 120.448 C 141.315 120.710,142.801 121.032,142.803 121.162 C 142.805 121.293,143.750 121.432,144.903 121.471 C 147.252 121.551,163.278 124.435,173.502 126.618 C 207.351 133.845,234.238 143.788,251.478 155.452 L 257.555 159.565 261.126 153.082 C 263.090 149.517,266.456 143.360,268.606 139.400 C 270.756 135.440,273.867 129.770,275.519 126.800 C 277.171 123.830,280.942 116.810,283.899 111.200 C 286.855 105.590,289.838 99.967,290.527 98.705 L 291.779 96.410 289.790 94.359 C 268.649 72.568,226.388 55.688,171.200 46.989 C 166.030 46.174,161.530 45.422,161.200 45.318 C 160.870 45.213,159.610 45.052,158.400 44.960 C 157.190 44.868,155.210 44.607,154.000 44.379 C 152.790 44.150,151.372 43.972,150.850 43.982 C 150.327 43.991,148.707 43.806,147.250 43.571 C 145.792 43.335,143.520 43.065,142.200 42.971 C 140.880 42.877,139.170 42.685,138.400 42.545 C 136.699 42.234,136.344 42.196,131.800 41.843 C 129.820 41.689,127.120 41.405,125.800 41.211 C 124.480 41.018,121.376 40.736,118.903 40.586 C 116.430 40.436,114.476 40.198,114.561 40.056 C 114.646 39.915,112.080 39.753,108.858 39.695 C 105.636 39.638,102.955 39.458,102.901 39.295 C 102.847 39.133,101.252 39.059,99.359 39.131 C 97.465 39.202,96.012 39.105,96.130 38.913 C 96.249 38.721,94.633 38.640,92.518 38.733 C 89.748 38.854,88.768 38.776,88.969 38.450 C 89.122 38.203,89.102 38.036,88.924 38.080 C 88.746 38.125,87.191 38.223,85.469 38.298 M331.459 58.900 C 327.535 67.036,303.959 113.434,300.921 119.000 C 299.600 121.420,295.852 128.440,292.591 134.600 C 289.331 140.760,284.961 148.770,282.880 152.400 C 280.799 156.030,277.657 161.597,275.897 164.770 C 259.574 194.203,239.442 224.226,225.048 240.600 C 221.831 244.259,221.219 245.163,221.415 245.969 C 222.022 248.474,245.890 304.450,246.693 305.253 C 247.495 306.055,260.180 296.260,273.200 284.785 C 311.412 251.106,347.902 196.814,368.494 143.000 C 376.183 122.908,379.002 113.698,378.358 110.778 C 377.368 106.289,363.287 84.242,355.381 74.800 C 348.627 66.734,335.554 52.800,334.741 52.800 C 334.554 52.800,333.077 55.545,331.459 58.900 M11.243 135.494 C 9.930 139.622,8.490 144.260,8.043 145.800 C 5.577 154.298,2.498 169.013,1.809 175.600 C 1.682 176.810,1.479 178.467,1.357 179.283 C 0.995 181.703,1.427 182.243,6.527 185.751 C 19.638 194.770,31.913 202.174,37.778 204.602 C 56.584 212.387,94.416 221.352,124.000 225.033 C 128.950 225.649,133.090 226.254,133.200 226.377 C 133.310 226.500,134.930 226.657,136.800 226.726 C 138.670 226.795,140.245 226.976,140.301 227.129 C 140.356 227.281,141.211 227.341,142.201 227.263 C 143.381 227.169,144.000 227.279,144.000 227.583 C 144.000 227.838,144.192 227.929,144.426 227.784 C 144.862 227.515,158.117 228.672,159.200 229.074 C 159.530 229.197,160.745 229.262,161.900 229.219 C 163.055 229.177,164.002 229.290,164.004 229.471 C 164.006 229.652,165.761 229.844,167.904 229.897 C 170.047 229.951,172.059 230.093,172.376 230.214 C 172.692 230.334,174.930 230.525,177.347 230.637 C 179.765 230.750,181.904 230.941,182.101 231.062 C 182.297 231.184,183.570 231.328,184.929 231.384 C 186.288 231.439,188.840 231.575,190.600 231.687 C 198.913 232.212,206.506 232.000,207.779 231.207 C 212.600 228.206,233.178 200.161,244.489 181.175 C 247.971 175.330,248.086 175.834,242.400 172.014 C 226.712 161.474,209.916 154.711,182.776 148.006 C 175.345 146.170,159.262 142.660,156.127 142.190 C 155.427 142.085,153.087 141.652,150.927 141.228 C 148.767 140.804,144.899 140.135,142.331 139.740 C 139.713 139.338,137.763 138.859,137.893 138.650 C 138.020 138.444,137.911 138.408,137.650 138.569 C 136.932 139.013,131.960 138.388,132.267 137.892 C 132.420 137.645,132.328 137.597,132.041 137.774 C 131.456 138.136,113.856 135.975,113.666 135.518 C 113.592 135.340,113.366 135.298,113.163 135.423 C 112.739 135.685,99.503 134.356,99.200 134.021 C 99.090 133.900,97.292 133.742,95.205 133.670 C 93.118 133.599,91.318 133.419,91.205 133.270 C 91.092 133.122,90.010 132.995,88.800 132.990 C 85.776 132.976,73.538 131.994,72.800 131.707 C 72.470 131.578,72.032 131.513,71.827 131.561 C 71.180 131.713,55.829 130.745,55.200 130.512 C 54.870 130.390,53.122 130.330,51.316 130.379 C 49.510 130.427,47.842 130.350,47.610 130.206 C 47.378 130.063,45.166 129.908,42.694 129.861 C 33.274 129.685,21.884 129.175,21.458 128.912 C 21.214 128.761,19.716 128.686,18.130 128.745 C 16.543 128.804,14.882 128.658,14.438 128.420 C 13.673 128.011,13.504 128.383,11.243 135.494 M389.693 141.036 C 389.471 141.456,387.903 145.282,386.210 149.539 C 384.516 153.795,382.534 158.565,381.806 160.139 C 381.077 161.712,379.184 165.880,377.598 169.400 C 349.987 230.702,306.973 286.018,262.189 317.815 C 254.266 323.441,254.619 323.066,255.410 325.000 C 258.369 332.232,282.866 379.899,283.977 380.586 C 285.720 381.663,313.158 364.970,323.400 356.601 C 364.780 322.785,387.750 283.597,397.372 230.400 C 400.205 214.738,400.446 181.032,397.790 172.000 C 397.693 171.670,397.332 169.784,396.989 167.809 C 394.732 154.831,390.537 139.439,389.693 141.036 M0.244 208.100 C 0.504 212.024,1.042 217.456,1.580 221.600 C 1.794 223.250,2.061 225.320,2.174 226.200 C 2.286 227.080,2.743 229.843,3.189 232.339 C 3.634 234.836,3.906 237.028,3.793 237.212 C 3.680 237.395,3.749 237.645,3.947 237.767 C 4.146 237.890,4.435 238.847,4.590 239.895 C 7.121 256.995,17.091 282.806,28.502 301.800 C 37.933 317.498,37.951 317.513,35.844 307.784 C 32.402 291.892,28.858 269.565,28.721 262.902 C 28.699 261.856,28.615 252.046,28.534 241.103 L 28.385 221.206 26.407 220.204 C 22.732 218.341,13.850 213.101,7.313 208.939 C -0.521 203.950,-0.027 204.009,0.244 208.100 M47.197 228.500 C 47.195 228.555,47.021 230.100,46.811 231.933 C 46.281 236.540,46.369 255.011,46.929 256.800 C 47.032 257.130,47.326 259.650,47.582 262.400 C 49.847 286.715,58.351 325.254,65.897 345.400 C 68.568 352.533,83.913 364.028,108.200 377.090 C 117.106 381.880,125.776 385.524,138.459 389.808 L 143.517 391.516 141.810 387.658 C 134.785 371.783,127.212 346.833,122.215 323.104 C 116.774 297.262,113.765 278.193,110.808 250.803 C 110.345 246.515,109.838 242.878,109.682 242.722 C 109.366 242.406,100.224 240.344,95.714 239.572 C 94.127 239.300,92.913 238.941,93.015 238.776 C 93.117 238.610,92.886 238.556,92.501 238.656 C 91.614 238.886,71.389 234.389,58.025 230.990 C 48.343 228.528,47.204 228.266,47.197 228.500 M129.815 249.278 C 129.998 251.545,130.160 254.210,130.174 255.200 C 130.188 256.190,130.301 257.090,130.423 257.200 C 130.712 257.458,132.578 272.868,132.590 275.100 C 132.596 276.035,132.755 276.800,132.944 276.800 C 133.133 276.800,133.214 277.430,133.124 278.200 C 133.034 278.970,133.070 279.600,133.204 279.600 C 133.338 279.600,133.676 281.265,133.956 283.300 C 140.882 333.697,159.660 392.918,170.030 397.068 C 177.534 400.072,214.497 400.400,229.000 397.592 C 230.100 397.379,233.475 396.745,236.500 396.183 C 245.172 394.572,253.816 392.325,265.117 388.744 L 266.433 388.327 265.471 386.663 C 260.036 377.268,249.437 356.296,242.800 341.800 C 241.087 338.060,238.607 332.750,237.288 330.000 C 233.907 322.951,230.106 314.484,224.077 300.567 C 221.209 293.949,217.936 286.479,216.802 283.967 C 215.668 281.455,212.484 274.000,209.726 267.400 C 202.561 250.253,203.176 251.200,199.197 251.200 C 197.732 251.200,196.442 251.109,196.331 250.998 C 196.220 250.886,193.810 250.698,190.976 250.578 C 188.142 250.459,185.728 250.235,185.612 250.081 C 185.495 249.926,184.320 249.787,183.000 249.771 C 179.211 249.725,171.128 249.203,170.768 248.980 C 170.589 248.869,168.515 248.687,166.160 248.575 C 163.805 248.464,161.740 248.286,161.570 248.182 C 161.401 248.077,159.320 247.894,156.948 247.775 C 154.575 247.657,152.429 247.390,152.180 247.183 C 151.930 246.976,151.613 246.921,151.474 247.059 C 151.206 247.327,141.418 246.490,140.400 246.112 C 140.070 245.990,139.219 245.928,138.510 245.974 C 137.800 246.021,137.032 245.943,136.802 245.801 C 136.573 245.660,134.832 245.456,132.934 245.350 L 129.483 245.157 129.815 249.278 " stroke="none" fill="#040404" fill-rule="evenodd"></path><path id="path1" d="M205.705 0.287 C 206.314 0.379,207.214 0.377,207.705 0.282 C 208.197 0.187,207.700 0.111,206.600 0.114 C 205.500 0.117,205.097 0.195,205.705 0.287 M214.100 0.676 C 214.485 0.776,215.115 0.776,215.500 0.676 C 215.885 0.575,215.570 0.493,214.800 0.493 C 214.030 0.493,213.715 0.575,214.100 0.676 M220.100 1.076 C 220.485 1.176,221.115 1.176,221.500 1.076 C 221.885 0.975,221.570 0.893,220.800 0.893 C 220.030 0.893,219.715 0.975,220.100 1.076 M260.600 9.200 C 261.040 9.389,261.670 9.544,262.000 9.544 C 262.378 9.544,262.304 9.417,261.800 9.200 C 261.360 9.011,260.730 8.856,260.400 8.856 C 260.022 8.856,260.096 8.983,260.600 9.200 M137.000 9.786 C 135.455 10.493,136.174 10.503,138.000 9.800 C 138.770 9.503,139.130 9.255,138.800 9.248 C 138.470 9.242,137.660 9.483,137.000 9.786 M119.257 16.356 C 118.879 16.596,118.849 16.783,119.157 16.974 C 119.401 17.124,119.600 17.046,119.600 16.800 C 119.600 16.554,119.780 16.464,120.000 16.600 C 120.220 16.736,120.400 16.657,120.400 16.424 C 120.400 15.914,119.992 15.890,119.257 16.356 M279.804 16.407 C 279.942 16.630,280.223 16.709,280.428 16.583 C 280.632 16.456,280.800 16.554,280.800 16.800 C 280.800 17.046,280.980 17.136,281.200 17.000 C 281.420 16.864,281.600 16.954,281.600 17.200 C 281.600 17.446,281.780 17.536,282.000 17.400 C 282.220 17.264,282.400 17.305,282.400 17.491 C 282.400 17.677,282.805 17.856,283.300 17.887 C 283.929 17.927,283.658 17.657,282.400 16.990 C 280.495 15.980,279.387 15.731,279.804 16.407 M116.800 17.407 L 115.800 17.985 116.800 17.822 C 117.350 17.733,117.935 17.646,118.100 17.630 C 118.265 17.613,118.400 17.420,118.400 17.200 C 118.400 16.663,117.995 16.715,116.800 17.407 M114.100 18.488 C 113.605 18.727,113.200 19.085,113.200 19.285 C 113.200 19.484,113.056 19.558,112.881 19.450 C 112.507 19.219,111.333 19.866,111.615 20.148 C 111.897 20.430,115.600 18.758,115.600 18.349 C 115.600 17.908,115.233 17.942,114.100 18.488 M284.400 18.308 C 284.400 18.477,286.470 19.646,289.000 20.906 C 291.530 22.165,293.600 23.109,293.600 23.004 C 293.600 22.898,292.475 22.246,291.100 21.554 C 289.725 20.863,288.510 20.164,288.400 20.002 C 287.888 19.247,284.400 17.770,284.400 18.308 M112.000 21.600 C 112.000 21.820,112.371 22.000,112.824 22.000 C 113.277 22.000,113.536 21.820,113.400 21.600 C 113.264 21.380,112.893 21.200,112.576 21.200 C 112.259 21.200,112.000 21.380,112.000 21.600 M116.200 22.000 C 116.064 22.220,116.334 22.400,116.800 22.400 C 117.266 22.400,117.536 22.220,117.400 22.000 C 117.264 21.780,116.994 21.600,116.800 21.600 C 116.606 21.600,116.336 21.780,116.200 22.000 M120.800 22.400 C 120.800 22.620,121.171 22.800,121.624 22.800 C 122.077 22.800,122.336 22.620,122.200 22.400 C 122.064 22.180,121.693 22.000,121.376 22.000 C 121.059 22.000,120.800 22.180,120.800 22.400 M125.200 22.800 C 125.200 23.020,125.695 23.197,126.300 23.194 C 127.157 23.189,127.268 23.102,126.800 22.800 C 126.017 22.294,125.200 22.294,125.200 22.800 M129.600 23.200 C 129.600 23.420,130.095 23.597,130.700 23.594 C 131.557 23.589,131.668 23.502,131.200 23.200 C 130.417 22.694,129.600 22.694,129.600 23.200 M134.200 23.600 C 134.057 23.831,134.428 23.997,135.076 23.994 C 135.949 23.989,136.066 23.901,135.600 23.600 C 134.831 23.103,134.507 23.103,134.200 23.600 M142.000 24.400 C 142.000 24.620,142.405 24.797,142.900 24.794 C 143.628 24.789,143.685 24.714,143.200 24.400 C 142.424 23.899,142.000 23.899,142.000 24.400 M300.220 26.738 C 300.935 27.374,306.893 30.840,307.033 30.701 C 307.192 30.541,300.533 26.400,300.116 26.400 C 299.964 26.400,300.011 26.552,300.220 26.738 M308.000 31.335 C 308.000 31.683,311.631 34.102,311.841 33.893 C 311.942 33.791,311.569 33.414,311.012 33.054 C 310.456 32.694,309.550 32.109,309.000 31.754 C 308.450 31.399,308.000 31.210,308.000 31.335 M86.000 38.000 C 86.000 38.220,86.540 38.400,87.200 38.400 C 87.860 38.400,88.400 38.220,88.400 38.000 C 88.400 37.780,87.860 37.600,87.200 37.600 C 86.540 37.600,86.000 37.780,86.000 38.000 M93.000 38.400 C 93.136 38.620,93.687 38.800,94.224 38.800 C 94.761 38.800,95.200 38.620,95.200 38.400 C 95.200 38.180,94.649 38.000,93.976 38.000 C 93.263 38.000,92.856 38.167,93.000 38.400 M80.202 39.198 C 79.803 39.639,79.662 40.000,79.889 40.000 C 80.392 40.000,81.390 38.857,81.121 38.588 C 81.015 38.482,80.602 38.756,80.202 39.198 M100.000 38.800 C 100.000 39.020,100.540 39.200,101.200 39.200 C 101.860 39.200,102.400 39.020,102.400 38.800 C 102.400 38.580,101.860 38.400,101.200 38.400 C 100.540 38.400,100.000 38.580,100.000 38.800 M106.000 39.200 C 106.000 39.420,106.540 39.600,107.200 39.600 C 107.860 39.600,108.400 39.420,108.400 39.200 C 108.400 38.980,107.860 38.800,107.200 38.800 C 106.540 38.800,106.000 38.980,106.000 39.200 M319.761 39.479 C 319.945 40.058,319.697 41.025,319.019 42.362 C 318.459 43.468,318.008 44.514,318.018 44.687 C 318.027 44.859,318.412 44.280,318.873 43.400 C 319.333 42.520,319.841 41.710,320.001 41.600 C 320.706 41.116,320.793 39.692,320.151 39.160 C 319.557 38.666,319.514 38.700,319.761 39.479 M112.000 39.600 C 112.000 39.820,112.450 40.000,113.000 40.000 C 113.550 40.000,114.000 39.820,114.000 39.600 C 114.000 39.380,113.550 39.200,113.000 39.200 C 112.450 39.200,112.000 39.380,112.000 39.600 M116.800 40.000 C 117.588 40.509,119.200 40.509,119.200 40.000 C 119.200 39.780,118.525 39.603,117.700 39.606 C 116.584 39.611,116.354 39.712,116.800 40.000 M77.800 41.200 C 77.402 41.640,77.256 42.000,77.476 42.000 C 77.696 42.000,78.202 41.640,78.600 41.200 C 78.998 40.760,79.144 40.400,78.924 40.400 C 78.704 40.400,78.198 40.760,77.800 41.200 M75.600 43.000 C 75.322 43.335,75.279 43.600,75.502 43.600 C 75.722 43.600,76.126 43.330,76.400 43.000 C 76.678 42.665,76.721 42.400,76.498 42.400 C 76.278 42.400,75.874 42.670,75.600 43.000 M73.362 44.858 C 72.605 45.710,72.606 45.713,73.478 45.256 C 74.450 44.746,75.049 44.000,74.486 44.000 C 74.287 44.000,73.781 44.386,73.362 44.858 M70.962 46.862 L 70.200 47.724 71.300 47.016 C 72.434 46.286,72.649 46.000,72.062 46.000 C 71.876 46.000,71.381 46.388,70.962 46.862 M316.475 47.819 C 315.270 50.300,315.405 50.647,316.646 48.261 C 317.201 47.194,317.587 46.253,317.503 46.170 C 317.419 46.086,316.957 46.828,316.475 47.819 M68.175 49.266 L 67.000 50.533 68.500 49.419 C 70.021 48.289,70.261 48.000,69.675 48.000 C 69.496 48.000,68.821 48.570,68.175 49.266 M254.400 51.000 C 254.950 51.314,255.580 51.572,255.800 51.572 C 256.020 51.572,255.750 51.314,255.200 51.000 C 254.650 50.686,254.020 50.428,253.800 50.428 C 253.580 50.428,253.850 50.686,254.400 51.000 M59.075 57.875 C 55.404 61.538,52.493 64.627,52.605 64.739 C 52.717 64.850,55.790 61.923,59.433 58.233 C 63.076 54.543,65.987 51.454,65.902 51.369 C 65.817 51.284,62.745 54.211,59.075 57.875 M257.200 52.166 C 257.750 52.460,258.650 52.812,259.200 52.949 C 259.750 53.086,259.480 52.852,258.600 52.429 C 256.790 51.558,255.668 51.348,257.200 52.166 M331.979 55.642 C 330.863 57.865,330.035 59.769,330.139 59.872 C 330.242 59.976,330.446 59.687,330.590 59.230 C 330.735 58.774,331.022 58.400,331.227 58.400 C 331.432 58.400,331.579 58.265,331.553 58.100 C 331.445 57.421,331.628 56.827,332.100 56.321 C 332.375 56.027,333.046 54.934,333.592 53.893 L 334.583 52.000 337.879 55.279 C 339.692 57.082,341.299 58.435,341.449 58.284 C 341.781 57.952,335.208 51.645,334.504 51.618 C 334.231 51.608,333.095 53.419,331.979 55.642 M312.672 55.819 C 311.732 57.789,311.864 58.124,312.847 56.262 C 313.293 55.416,313.587 54.654,313.501 54.567 C 313.414 54.481,313.041 55.044,312.672 55.819 M268.800 57.357 C 268.800 57.483,269.743 58.065,270.897 58.649 C 272.050 59.233,273.175 59.921,273.397 60.178 C 274.521 61.478,279.200 63.896,279.200 63.176 C 279.200 62.943,279.039 62.852,278.842 62.974 C 278.645 63.096,278.376 62.915,278.245 62.572 C 278.113 62.230,277.824 62.061,277.603 62.198 C 277.381 62.335,277.200 62.257,277.200 62.024 C 277.200 61.791,276.945 61.600,276.633 61.600 C 276.322 61.600,276.007 61.442,275.933 61.250 C 275.774 60.831,268.800 57.026,268.800 57.357 M226.400 59.200 C 226.400 59.420,226.670 59.600,227.000 59.600 C 227.330 59.600,227.600 59.420,227.600 59.200 C 227.600 58.980,227.330 58.800,227.000 58.800 C 226.670 58.800,226.400 58.980,226.400 59.200 M228.000 59.526 C 228.000 59.935,229.644 60.490,229.949 60.184 C 230.204 59.930,229.950 59.745,228.900 59.423 C 228.404 59.270,228.000 59.317,228.000 59.526 M308.484 64.621 C 307.118 67.364,306.009 69.741,306.021 69.904 C 306.032 70.067,307.213 67.886,308.645 65.058 C 310.077 62.229,311.185 59.852,311.108 59.775 C 311.031 59.698,309.850 61.879,308.484 64.621 M324.577 70.825 C 321.934 76.091,319.869 80.400,319.989 80.400 C 320.260 80.400,329.693 61.560,329.513 61.380 C 329.441 61.308,327.220 65.558,324.577 70.825 M347.075 64.595 C 348.134 65.802,349.174 66.792,349.386 66.795 C 349.599 66.798,348.795 65.810,347.600 64.600 C 344.829 61.794,344.616 61.792,347.075 64.595 M240.000 63.933 C 240.330 64.136,241.050 64.424,241.600 64.571 C 242.295 64.757,242.417 64.725,242.000 64.467 C 241.670 64.264,240.950 63.976,240.400 63.829 C 239.705 63.643,239.583 63.675,240.000 63.933 M50.204 67.196 C 49.574 67.854,49.155 68.488,49.273 68.607 C 49.392 68.725,49.973 68.187,50.565 67.411 C 51.881 65.685,51.735 65.598,50.204 67.196 M285.600 67.762 C 285.600 68.021,291.064 72.000,291.419 72.000 C 291.596 72.000,290.417 71.010,288.800 69.800 C 285.905 67.634,285.600 67.440,285.600 67.762 M351.398 69.311 C 352.011 70.142,352.612 70.721,352.735 70.598 C 352.858 70.475,352.357 69.795,351.622 69.087 L 350.285 67.800 351.398 69.311 M45.352 72.900 C 43.858 74.715,41.936 77.055,41.080 78.100 C 40.225 79.145,39.688 80.000,39.887 80.000 C 40.086 80.000,41.768 78.087,43.624 75.749 C 48.244 69.932,48.495 69.600,48.268 69.600 C 48.159 69.600,46.846 71.085,45.352 72.900 M256.000 70.820 C 257.332 71.723,258.000 72.010,258.000 71.678 C 258.000 71.486,257.542 71.120,256.981 70.864 C 255.729 70.294,255.189 70.269,256.000 70.820 M353.806 72.112 C 354.192 72.724,354.609 73.124,354.732 73.001 C 354.855 72.878,354.539 72.378,354.030 71.889 L 353.104 71.000 353.806 72.112 M260.000 72.824 C 260.000 73.057,260.165 73.145,260.366 73.021 C 260.567 72.897,260.812 73.021,260.911 73.298 C 261.010 73.574,261.245 73.655,261.434 73.478 C 261.622 73.301,261.512 72.989,261.188 72.784 C 260.409 72.292,260.000 72.305,260.000 72.824 M292.400 72.879 C 293.631 74.092,299.036 78.293,300.000 78.786 C 301.358 79.481,300.808 78.986,296.600 75.726 C 292.882 72.845,291.229 71.725,292.400 72.879 M263.400 74.598 C 264.280 75.140,265.573 75.854,266.273 76.186 C 266.973 76.517,267.658 76.971,267.796 77.194 C 267.934 77.417,268.343 77.600,268.704 77.600 C 269.676 77.600,268.984 77.074,265.600 75.238 C 262.311 73.455,260.854 73.031,263.400 74.598 M269.600 77.890 C 269.600 78.065,269.960 78.432,270.400 78.707 C 270.843 78.984,271.200 79.033,271.200 78.817 C 271.200 78.603,270.840 78.235,270.400 78.000 C 269.960 77.765,269.600 77.715,269.600 77.890 M358.417 77.800 C 358.423 78.344,360.690 81.045,360.932 80.797 C 361.038 80.689,360.515 79.880,359.769 79.000 C 359.022 78.120,358.414 77.580,358.417 77.800 M271.600 79.172 C 271.600 79.392,271.960 79.765,272.400 80.000 C 272.915 80.275,273.200 80.285,273.200 80.028 C 273.200 79.808,272.840 79.435,272.400 79.200 C 271.885 78.925,271.600 78.915,271.600 79.172 M314.296 91.002 C 311.933 95.734,310.003 99.739,310.008 99.902 C 310.014 100.157,319.194 82.776,319.198 82.500 C 319.215 81.525,317.823 83.939,314.296 91.002 M36.016 84.777 C 35.537 85.450,35.317 86.000,35.527 86.000 C 35.982 86.000,37.346 84.012,37.076 83.742 C 36.972 83.639,36.495 84.104,36.016 84.777 M366.213 88.748 C 367.405 90.480,369.566 93.850,371.014 96.238 C 373.817 100.860,374.216 101.438,373.746 100.188 C 373.019 98.257,364.878 85.600,364.363 85.600 C 364.188 85.600,365.020 87.017,366.213 88.748 M282.199 86.798 C 282.334 87.017,282.840 87.403,283.322 87.656 C 284.194 88.113,284.195 88.110,283.438 87.258 C 282.675 86.398,281.736 86.050,282.199 86.798 M288.309 92.308 C 290.449 94.457,292.281 96.161,292.379 96.095 C 292.614 95.938,285.108 88.400,284.717 88.400 C 284.552 88.400,286.169 90.158,288.309 92.308 M29.439 94.842 C 27.767 97.536,26.400 99.913,26.400 100.125 C 26.400 100.336,27.842 98.207,29.605 95.392 C 31.367 92.578,32.735 90.201,32.643 90.110 C 32.552 90.019,31.110 92.148,29.439 94.842 M291.400 98.000 C 291.059 98.660,290.869 99.200,290.979 99.200 C 291.089 99.200,291.459 98.660,291.800 98.000 C 292.141 97.340,292.331 96.800,292.221 96.800 C 292.111 96.800,291.741 97.340,291.400 98.000 M289.089 102.491 C 288.259 104.043,287.662 105.395,287.764 105.497 C 287.865 105.599,288.602 104.385,289.400 102.800 C 291.283 99.062,291.050 98.830,289.089 102.491 M306.400 106.800 C 305.296 109.000,304.483 110.800,304.593 110.800 C 304.703 110.800,305.696 109.000,306.800 106.800 C 307.904 104.600,308.717 102.800,308.607 102.800 C 308.497 102.800,307.504 104.600,306.400 106.800 M285.798 108.630 C 284.989 110.077,284.422 111.355,284.538 111.471 C 284.654 111.587,285.392 110.404,286.179 108.841 C 287.977 105.272,287.747 105.145,285.798 108.630 M21.985 108.030 C 21.527 108.926,21.209 109.808,21.277 109.989 C 21.344 110.170,21.794 109.437,22.275 108.359 C 23.334 105.986,23.140 105.766,21.985 108.030 M27.300 111.076 C 27.685 111.176,28.315 111.176,28.700 111.076 C 29.085 110.975,28.770 110.893,28.000 110.893 C 27.230 110.893,26.915 110.975,27.300 111.076 M35.305 111.487 C 35.914 111.579,36.814 111.577,37.305 111.482 C 37.797 111.387,37.300 111.311,36.200 111.314 C 35.100 111.317,34.697 111.395,35.305 111.487 M44.305 111.883 C 44.802 111.979,45.522 111.975,45.905 111.875 C 46.287 111.775,45.880 111.696,45.000 111.701 C 44.120 111.705,43.807 111.787,44.305 111.883 M51.905 112.283 C 52.402 112.379,53.122 112.375,53.505 112.275 C 53.887 112.175,53.480 112.096,52.600 112.101 C 51.720 112.105,51.407 112.187,51.905 112.283 M58.705 112.683 C 59.202 112.779,59.922 112.775,60.305 112.675 C 60.687 112.575,60.280 112.496,59.400 112.501 C 58.520 112.505,58.207 112.587,58.705 112.683 M65.300 113.076 C 65.685 113.176,66.315 113.176,66.700 113.076 C 67.085 112.975,66.770 112.893,66.000 112.893 C 65.230 112.893,64.915 112.975,65.300 113.076 M70.900 113.476 C 71.285 113.576,71.915 113.576,72.300 113.476 C 72.685 113.375,72.370 113.293,71.600 113.293 C 70.830 113.293,70.515 113.375,70.900 113.476 M301.276 116.600 C 300.412 118.250,299.821 119.600,299.964 119.600 C 300.107 119.600,300.893 118.250,301.709 116.600 C 302.525 114.950,303.116 113.600,303.021 113.600 C 302.926 113.600,302.141 114.950,301.276 116.600 M281.519 116.403 C 281.144 117.061,281.004 117.600,281.208 117.600 C 281.412 117.600,281.859 117.060,282.200 116.400 C 283.008 114.838,282.408 114.840,281.519 116.403 M132.000 120.000 C 132.000 120.220,132.259 120.400,132.576 120.400 C 132.893 120.400,133.264 120.220,133.400 120.000 C 133.536 119.780,133.277 119.600,132.824 119.600 C 132.371 119.600,132.000 119.780,132.000 120.000 M277.659 123.600 C 276.494 125.800,275.642 127.600,275.765 127.600 C 275.888 127.600,276.553 126.482,277.243 125.115 C 277.933 123.748,278.928 121.948,279.454 121.115 C 279.980 120.282,280.268 119.600,280.094 119.600 C 279.920 119.600,278.824 121.400,277.659 123.600 M134.800 120.400 C 134.800 120.620,135.070 120.800,135.400 120.800 C 135.730 120.800,136.000 120.620,136.000 120.400 C 136.000 120.180,135.730 120.000,135.400 120.000 C 135.070 120.000,134.800 120.180,134.800 120.400 M376.480 121.880 C 375.888 123.809,376.175 124.095,376.800 122.200 C 377.064 121.401,377.202 120.669,377.107 120.574 C 377.012 120.478,376.730 121.066,376.480 121.880 M140.400 121.200 C 140.400 121.420,140.670 121.600,141.000 121.600 C 141.330 121.600,141.600 121.420,141.600 121.200 C 141.600 120.980,141.330 120.800,141.000 120.800 C 140.670 120.800,140.400 120.980,140.400 121.200 M297.419 123.563 C 297.067 124.243,296.934 124.800,297.122 124.800 C 297.582 124.800,298.598 122.865,298.297 122.563 C 298.166 122.433,297.771 122.882,297.419 123.563 M18.500 128.276 C 18.885 128.376,19.515 128.376,19.900 128.276 C 20.285 128.175,19.970 128.093,19.200 128.093 C 18.430 128.093,18.115 128.175,18.500 128.276 M25.905 128.683 C 26.402 128.779,27.122 128.775,27.505 128.675 C 27.887 128.575,27.480 128.496,26.600 128.501 C 25.720 128.505,25.407 128.587,25.905 128.683 M291.944 133.877 C 288.961 139.473,288.313 140.800,288.565 140.800 C 288.833 140.800,295.239 128.706,295.064 128.531 C 294.968 128.434,293.563 130.840,291.944 133.877 M34.300 129.082 C 34.795 129.178,35.605 129.178,36.100 129.082 C 36.595 128.987,36.190 128.909,35.200 128.909 C 34.210 128.909,33.805 128.987,34.300 129.082 M273.800 130.800 C 273.243 131.900,272.877 132.800,272.987 132.800 C 273.097 132.800,273.643 131.900,274.200 130.800 C 274.757 129.700,275.123 128.800,275.013 128.800 C 274.903 128.800,274.357 129.700,273.800 130.800 M44.105 129.487 C 44.714 129.579,45.614 129.577,46.105 129.482 C 46.597 129.387,46.100 129.311,45.000 129.314 C 43.900 129.317,43.497 129.395,44.105 129.487 M52.100 129.876 C 52.485 129.976,53.115 129.976,53.500 129.876 C 53.885 129.775,53.570 129.693,52.800 129.693 C 52.030 129.693,51.715 129.775,52.100 129.876 M58.900 130.276 C 59.285 130.376,59.915 130.376,60.300 130.276 C 60.685 130.175,60.370 130.093,59.600 130.093 C 58.830 130.093,58.515 130.175,58.900 130.276 M65.300 130.676 C 65.685 130.776,66.315 130.776,66.700 130.676 C 67.085 130.575,66.770 130.493,66.000 130.493 C 65.230 130.493,64.915 130.575,65.300 130.676 M84.800 132.153 C 84.800 132.508,86.418 132.694,86.623 132.362 C 86.746 132.163,86.387 132.000,85.824 132.000 C 85.261 132.000,84.800 132.069,84.800 132.153 M119.120 136.080 C 119.493 136.453,119.707 136.453,120.080 136.080 C 120.453 135.707,120.347 135.600,119.600 135.600 C 118.853 135.600,118.747 135.707,119.120 136.080 M122.320 136.480 C 122.693 136.853,122.907 136.853,123.280 136.480 C 123.653 136.107,123.547 136.000,122.800 136.000 C 122.053 136.000,121.947 136.107,122.320 136.480 M125.000 136.800 C 125.136 137.020,125.507 137.200,125.824 137.200 C 126.141 137.200,126.400 137.020,126.400 136.800 C 126.400 136.580,126.029 136.400,125.576 136.400 C 125.123 136.400,124.864 136.580,125.000 136.800 M130.800 137.600 C 130.800 137.820,131.070 138.000,131.400 138.000 C 131.730 138.000,132.000 137.820,132.000 137.600 C 132.000 137.380,131.730 137.200,131.400 137.200 C 131.070 137.200,130.800 137.380,130.800 137.600 M133.600 138.000 C 133.600 138.220,133.870 138.400,134.200 138.400 C 134.530 138.400,134.800 138.220,134.800 138.000 C 134.800 137.780,134.530 137.600,134.200 137.600 C 133.870 137.600,133.600 137.780,133.600 138.000 M136.400 138.400 C 136.400 138.620,136.670 138.800,137.000 138.800 C 137.330 138.800,137.600 138.620,137.600 138.400 C 137.600 138.180,137.330 138.000,137.000 138.000 C 136.670 138.000,136.400 138.180,136.400 138.400 M139.200 138.800 C 139.200 139.020,139.560 139.200,140.000 139.200 C 140.440 139.200,140.800 139.020,140.800 138.800 C 140.800 138.580,140.440 138.400,140.000 138.400 C 139.560 138.400,139.200 138.580,139.200 138.800 M142.000 139.200 C 142.000 139.420,142.270 139.600,142.600 139.600 C 142.930 139.600,143.200 139.420,143.200 139.200 C 143.200 138.980,142.930 138.800,142.600 138.800 C 142.270 138.800,142.000 138.980,142.000 139.200 M144.400 139.600 C 144.400 139.820,144.670 140.000,145.000 140.000 C 145.330 140.000,145.600 139.820,145.600 139.600 C 145.600 139.380,145.330 139.200,145.000 139.200 C 144.670 139.200,144.400 139.380,144.400 139.600 M217.926 139.804 C 218.435 140.177,218.960 140.373,219.093 140.241 C 219.413 139.921,219.195 139.755,218.000 139.413 L 217.000 139.126 217.926 139.804 M389.480 139.453 C 388.901 140.032,389.229 140.412,389.968 140.017 C 390.487 139.739,390.801 139.738,390.938 140.013 C 391.049 140.237,391.094 140.191,391.037 139.910 C 390.919 139.330,389.902 139.031,389.480 139.453 M146.600 140.000 C 146.736 140.220,147.107 140.400,147.424 140.400 C 147.741 140.400,148.000 140.220,148.000 140.000 C 148.000 139.780,147.629 139.600,147.176 139.600 C 146.723 139.600,146.464 139.780,146.600 140.000 M267.472 142.505 C 267.102 143.217,266.165 144.950,265.389 146.355 C 264.612 147.761,264.054 148.987,264.148 149.081 C 264.241 149.174,265.255 147.518,266.400 145.400 C 267.545 143.282,268.406 141.473,268.313 141.379 C 268.220 141.286,267.841 141.793,267.472 142.505 M224.800 142.395 C 224.800 142.671,225.741 143.200,226.233 143.200 C 226.779 143.200,226.266 142.458,225.600 142.284 C 225.160 142.169,224.800 142.219,224.800 142.395 M226.800 143.195 C 226.800 143.471,227.741 144.000,228.233 144.000 C 228.779 144.000,228.266 143.258,227.600 143.084 C 227.160 142.969,226.800 143.019,226.800 143.195 M236.000 147.600 C 238.090 148.678,239.980 149.559,240.200 149.559 C 240.420 149.559,238.890 148.678,236.800 147.600 C 234.710 146.522,232.820 145.641,232.600 145.641 C 232.380 145.641,233.910 146.522,236.000 147.600 M283.600 149.600 C 283.151 150.480,282.874 151.200,282.984 151.200 C 283.094 151.200,283.551 150.480,284.000 149.600 C 284.449 148.720,284.726 148.000,284.616 148.000 C 284.506 148.000,284.049 148.720,283.600 149.600 M242.400 150.579 C 242.400 150.689,242.940 151.059,243.600 151.400 C 244.260 151.741,244.800 151.931,244.800 151.821 C 244.800 151.711,244.260 151.341,243.600 151.000 C 242.940 150.659,242.400 150.469,242.400 150.579 M262.400 151.399 C 262.106 151.949,261.972 152.506,262.103 152.637 C 262.234 152.767,262.629 152.318,262.981 151.637 C 263.333 150.957,263.466 150.400,263.278 150.400 C 263.089 150.400,262.694 150.850,262.400 151.399 M199.404 152.007 C 199.542 152.230,199.810 152.317,200.000 152.200 C 200.190 152.083,200.460 152.173,200.600 152.400 C 200.740 152.627,201.056 152.689,201.301 152.538 C 201.586 152.361,201.468 152.153,200.973 151.959 C 199.846 151.518,199.115 151.540,199.404 152.007 M281.400 153.600 C 280.843 154.700,280.224 155.600,280.024 155.600 C 279.825 155.600,279.459 156.216,279.211 156.968 C 278.962 157.720,278.498 158.552,278.180 158.817 C 277.511 159.372,277.416 160.000,278.000 160.000 C 278.220 160.000,278.400 159.745,278.400 159.433 C 278.400 159.122,278.550 158.807,278.733 158.733 C 279.140 158.571,282.957 151.600,282.639 151.600 C 282.515 151.600,281.957 152.500,281.400 153.600 M247.400 153.474 C 247.620 153.706,249.780 155.209,252.200 156.814 C 254.620 158.419,256.660 159.883,256.733 160.066 C 256.922 160.539,258.000 160.482,258.000 160.000 C 258.000 159.780,257.774 159.600,257.497 159.600 C 257.220 159.600,255.285 158.461,253.197 157.068 C 248.466 153.913,246.886 152.933,247.400 153.474 M260.493 154.800 C 260.216 155.243,260.167 155.600,260.383 155.600 C 260.597 155.600,260.965 155.240,261.200 154.800 C 261.435 154.360,261.485 154.000,261.310 154.000 C 261.135 154.000,260.768 154.360,260.493 154.800 M382.053 157.653 C 381.580 158.793,381.258 159.792,381.339 159.872 C 381.420 159.953,381.873 159.086,382.347 157.947 C 382.820 156.807,383.142 155.808,383.061 155.728 C 382.980 155.647,382.527 156.514,382.053 157.653 M219.600 159.126 C 219.600 159.336,219.915 159.597,220.300 159.708 C 220.685 159.819,221.360 160.045,221.800 160.211 C 222.514 160.481,222.536 160.448,222.000 159.900 C 221.260 159.143,219.600 158.608,219.600 159.126 M361.680 160.300 C 361.724 160.465,361.274 161.539,360.680 162.687 C 359.470 165.024,359.424 165.200,360.024 165.200 C 360.257 165.200,360.336 165.020,360.200 164.800 C 360.064 164.580,360.121 164.400,360.327 164.400 C 360.533 164.400,361.084 163.512,361.551 162.426 C 362.518 160.176,362.551 160.000,362.000 160.000 C 361.780 160.000,361.636 160.135,361.680 160.300 M224.000 161.200 C 224.770 161.622,225.580 161.966,225.800 161.966 C 226.020 161.966,225.570 161.622,224.800 161.200 C 224.030 160.778,223.220 160.434,223.000 160.434 C 222.780 160.434,223.230 160.778,224.000 161.200 M379.553 162.900 C 379.527 163.175,379.527 163.535,379.553 163.700 C 379.579 163.865,379.420 164.000,379.200 164.000 C 378.980 164.000,378.800 164.180,378.800 164.400 C 378.800 165.259,379.543 164.738,379.940 163.600 C 380.194 162.871,380.209 162.400,379.979 162.400 C 379.771 162.400,379.579 162.625,379.553 162.900 M232.000 164.979 C 232.000 165.089,232.540 165.459,233.200 165.800 C 233.860 166.141,234.400 166.331,234.400 166.221 C 234.400 166.111,233.860 165.741,233.200 165.400 C 232.540 165.059,232.000 164.869,232.000 164.979 M274.418 165.566 C 274.173 166.025,274.139 166.400,274.343 166.400 C 274.754 166.400,275.322 165.188,275.042 164.908 C 274.944 164.811,274.664 165.107,274.418 165.566 M358.475 167.419 C 357.270 169.900,357.405 170.247,358.646 167.861 C 359.201 166.794,359.587 165.853,359.503 165.770 C 359.419 165.686,358.957 166.428,358.475 167.419 M377.443 167.433 C 377.121 168.272,377.135 168.400,377.553 168.400 C 377.748 168.400,378.001 168.040,378.116 167.600 C 378.363 166.655,377.795 166.514,377.443 167.433 M272.586 168.900 L 271.952 170.200 272.767 169.200 C 273.552 168.237,273.808 167.600,273.410 167.600 C 273.306 167.600,272.935 168.185,272.586 168.900 M239.600 169.343 C 239.600 169.617,244.076 172.457,244.244 172.290 C 244.336 172.197,243.422 171.464,242.212 170.661 C 240.131 169.279,239.600 169.011,239.600 169.343 M375.064 172.648 C 374.458 173.884,374.061 174.994,374.181 175.114 C 374.506 175.439,374.676 175.180,375.782 172.680 C 377.084 169.734,376.506 169.708,375.064 172.648 M268.245 176.245 C 267.004 178.377,266.057 180.191,266.143 180.276 C 266.228 180.361,267.313 178.687,268.555 176.555 C 269.796 174.423,270.743 172.609,270.657 172.524 C 270.572 172.439,269.487 174.113,268.245 176.245 M351.992 180.719 C 347.760 189.097,347.727 189.167,348.313 188.600 C 348.852 188.078,356.099 173.566,355.913 173.380 C 355.835 173.302,354.071 176.604,351.992 180.719 M246.893 174.800 C 247.398 175.608,248.000 175.869,248.000 175.280 C 248.000 174.864,247.133 174.000,246.717 174.000 C 246.539 174.000,246.618 174.360,246.893 174.800 M372.475 178.219 C 371.270 180.700,371.405 181.047,372.646 178.661 C 373.201 177.594,373.587 176.653,373.503 176.570 C 373.419 176.486,372.957 177.228,372.475 178.219 M245.349 180.571 C 245.101 180.841,244.774 181.453,244.622 181.931 C 244.470 182.409,244.178 182.800,243.973 182.800 C 243.768 182.800,243.600 183.070,243.600 183.400 C 243.600 183.730,243.420 184.000,243.200 184.000 C 242.980 184.000,242.800 184.180,242.800 184.400 C 242.800 185.317,243.493 184.666,244.746 182.572 C 246.027 180.430,246.294 179.543,245.349 180.571 M0.800 181.847 C 0.800 182.067,1.064 182.596,1.387 183.024 C 1.710 183.451,1.975 183.620,1.975 183.400 C 1.975 183.180,1.710 182.651,1.387 182.224 C 1.064 181.796,0.800 181.627,0.800 181.847 M3.384 184.597 C 4.036 185.129,4.646 185.487,4.741 185.392 C 4.971 185.162,3.108 183.626,2.600 183.628 C 2.380 183.628,2.733 184.064,3.384 184.597 M241.612 186.383 C 241.131 187.059,240.807 187.821,240.892 188.077 C 240.977 188.332,241.462 187.870,241.969 187.050 C 243.102 185.217,242.819 184.688,241.612 186.383 M5.200 185.746 C 5.200 186.052,14.611 192.364,15.516 192.665 C 15.892 192.790,14.220 191.552,11.800 189.914 C 5.768 185.832,5.200 185.473,5.200 185.746 M399.701 188.600 C 399.705 189.480,399.787 189.793,399.883 189.295 C 399.979 188.798,399.975 188.078,399.875 187.695 C 399.775 187.313,399.696 187.720,399.701 188.600 M238.953 190.500 C 237.576 192.836,237.486 193.035,238.187 192.200 C 239.000 191.232,239.700 190.000,239.438 190.000 C 239.333 190.000,239.115 190.225,238.953 190.500 M259.086 191.162 C 258.318 192.462,258.246 192.800,258.736 192.800 C 259.020 192.800,259.376 192.239,260.320 190.300 C 260.749 189.421,259.669 190.174,259.086 191.162 M364.011 195.043 C 362.659 197.596,361.614 199.747,361.690 199.823 C 361.766 199.899,362.960 197.810,364.344 195.181 C 365.728 192.551,366.772 190.400,366.665 190.400 C 366.558 190.400,365.364 192.489,364.011 195.043 M346.155 191.812 C 345.790 192.369,345.593 192.926,345.716 193.050 C 345.840 193.173,346.229 192.718,346.581 192.037 C 347.352 190.546,347.079 190.402,346.155 191.812 M18.000 194.400 C 18.990 195.058,19.980 195.597,20.200 195.597 C 20.420 195.597,19.790 195.058,18.800 194.400 C 17.810 193.742,16.820 193.203,16.600 193.203 C 16.380 193.203,17.010 193.742,18.000 194.400 M257.086 194.362 C 256.298 195.696,256.244 196.000,256.792 196.000 C 257.008 196.000,257.298 195.550,257.436 195.000 C 257.574 194.450,257.847 194.000,258.043 194.000 C 258.240 194.000,258.400 193.820,258.400 193.600 C 258.400 192.839,257.770 193.205,257.086 194.362 M344.233 195.057 C 343.852 196.050,344.272 196.186,344.782 195.234 C 345.027 194.775,345.061 194.400,344.857 194.400 C 344.653 194.400,344.372 194.696,344.233 195.057 M254.700 198.143 C 253.494 200.052,253.389 200.400,254.024 200.400 C 254.257 200.400,254.336 200.220,254.200 200.000 C 254.064 199.780,254.143 199.600,254.376 199.600 C 254.609 199.600,254.800 199.330,254.800 199.000 C 254.800 198.670,254.980 198.400,255.200 198.400 C 255.420 198.400,255.600 198.130,255.600 197.800 C 255.600 197.470,255.780 197.200,256.000 197.200 C 256.220 197.200,256.400 197.020,256.400 196.800 C 256.400 195.960,255.759 196.466,254.700 198.143 M28.000 200.382 C 28.000 200.603,28.763 201.173,29.697 201.649 C 31.072 202.351,31.286 202.385,30.826 201.831 C 30.078 200.931,28.000 199.864,28.000 200.382 M341.094 200.500 C 340.988 200.775,340.894 201.160,340.885 201.355 C 340.876 201.551,340.694 201.821,340.480 201.955 C 340.266 202.090,339.513 203.190,338.807 204.400 C 338.100 205.610,337.165 207.185,336.728 207.900 C 336.292 208.615,336.026 209.200,336.138 209.200 C 336.250 209.200,337.011 208.075,337.829 206.700 C 338.647 205.325,339.523 204.020,339.775 203.800 C 340.301 203.341,342.000 200.632,342.000 200.253 C 342.000 199.795,341.290 199.989,341.094 200.500 M230.000 204.276 C 227.063 208.564,226.672 209.200,226.971 209.200 C 227.250 209.200,232.903 200.767,232.732 200.605 C 232.659 200.536,231.430 202.188,230.000 204.276 M31.600 202.592 C 31.600 202.793,34.609 204.400,34.984 204.400 C 35.675 204.400,35.000 203.653,33.786 203.074 C 32.374 202.401,31.600 202.230,31.600 202.592 M3.586 206.015 C 5.410 207.123,6.966 207.967,7.044 207.890 C 7.223 207.710,1.101 204.000,0.625 204.000 C 0.429 204.000,1.761 204.907,3.586 206.015 M358.400 204.800 C 358.125 205.315,358.115 205.600,358.372 205.600 C 358.592 205.600,358.965 205.240,359.200 204.800 C 359.475 204.285,359.485 204.000,359.228 204.000 C 359.008 204.000,358.635 204.360,358.400 204.800 M36.800 205.126 C 38.798 206.228,40.517 206.724,39.404 205.877 C 38.967 205.544,38.472 205.356,38.304 205.459 C 38.137 205.563,38.000 205.487,38.000 205.290 C 38.000 205.094,37.775 204.925,37.500 204.914 C 37.225 204.904,36.640 204.773,36.200 204.624 C 35.760 204.475,36.030 204.701,36.800 205.126 M247.558 209.465 C 244.883 213.524,240.758 219.443,240.007 220.300 C 239.766 220.575,239.738 220.800,239.945 220.800 C 240.365 220.800,250.522 205.989,250.274 205.740 C 250.187 205.654,248.965 207.330,247.558 209.465 M356.800 207.600 C 356.525 208.115,356.515 208.400,356.772 208.400 C 356.992 208.400,357.365 208.040,357.600 207.600 C 357.875 207.085,357.885 206.800,357.628 206.800 C 357.408 206.800,357.035 207.160,356.800 207.600 M8.177 208.763 C 8.328 209.006,9.024 209.483,9.725 209.822 C 10.909 210.394,10.943 210.392,10.200 209.790 C 8.985 208.805,7.845 208.226,8.177 208.763 M225.481 210.613 C 225.086 211.156,224.930 211.600,225.135 211.600 C 225.340 211.600,225.803 211.150,226.163 210.600 C 227.011 209.307,226.424 209.318,225.481 210.613 M353.219 213.710 C 350.108 218.976,349.105 220.800,349.320 220.800 C 349.424 220.800,350.280 219.495,351.222 217.900 C 352.165 216.305,353.085 214.940,353.268 214.867 C 353.451 214.793,353.600 214.491,353.600 214.195 C 353.600 213.899,353.825 213.416,354.100 213.121 C 354.893 212.271,356.078 209.999,355.723 210.010 C 355.545 210.015,354.419 211.680,353.219 213.710 M399.693 211.200 C 399.693 211.970,399.775 212.285,399.876 211.900 C 399.976 211.515,399.976 210.885,399.876 210.500 C 399.775 210.115,399.693 210.430,399.693 211.200 M223.461 213.440 C 223.054 213.998,222.809 214.543,222.917 214.650 C 223.025 214.758,223.505 214.296,223.984 213.623 C 224.463 212.950,224.707 212.406,224.527 212.413 C 224.347 212.419,223.867 212.882,223.461 213.440 M19.600 216.024 C 19.600 216.257,19.780 216.336,20.000 216.200 C 20.220 216.064,20.400 216.140,20.400 216.369 C 20.400 216.598,20.850 216.898,21.400 217.036 C 21.950 217.174,22.400 217.414,22.400 217.569 C 22.400 217.961,25.249 219.285,25.516 219.017 C 25.793 218.740,25.874 218.796,22.735 217.068 C 19.833 215.470,19.600 215.392,19.600 216.024 M220.000 217.800 C 219.722 218.135,219.679 218.400,219.902 218.400 C 220.122 218.400,220.526 218.130,220.800 217.800 C 221.078 217.465,221.121 217.200,220.898 217.200 C 220.678 217.200,220.274 217.470,220.000 217.800 M217.148 221.481 C 214.779 224.572,214.395 225.391,216.341 223.200 C 217.886 221.462,219.429 219.200,219.071 219.200 C 218.975 219.200,218.109 220.226,217.148 221.481 M91.600 220.400 C 91.600 220.620,91.870 220.800,92.200 220.800 C 92.530 220.800,92.800 220.620,92.800 220.400 C 92.800 220.180,92.530 220.000,92.200 220.000 C 91.870 220.000,91.600 220.180,91.600 220.400 M28.338 220.925 C 28.647 221.297,28.824 225.555,28.900 234.434 L 29.011 247.400 29.106 234.143 C 29.191 222.166,29.137 220.861,28.543 220.634 C 28.026 220.435,27.982 220.497,28.338 220.925 M93.600 220.800 C 93.600 221.020,93.870 221.200,94.200 221.200 C 94.530 221.200,94.800 221.020,94.800 220.800 C 94.800 220.580,94.530 220.400,94.200 220.400 C 93.870 220.400,93.600 220.580,93.600 220.800 M327.186 222.821 C 326.462 223.950,325.614 225.128,325.303 225.440 C 324.991 225.752,324.801 226.204,324.882 226.445 C 324.962 226.686,325.889 225.587,326.942 224.003 C 327.995 222.420,328.777 221.044,328.680 220.947 C 328.583 220.849,327.910 221.693,327.186 222.821 M97.800 221.600 C 97.664 221.820,97.934 222.000,98.400 222.000 C 98.866 222.000,99.136 221.820,99.000 221.600 C 98.864 221.380,98.594 221.200,98.400 221.200 C 98.206 221.200,97.936 221.380,97.800 221.600 M238.800 221.800 C 238.522 222.135,238.479 222.400,238.702 222.400 C 238.922 222.400,239.326 222.130,239.600 221.800 C 239.878 221.465,239.921 221.200,239.698 221.200 C 239.478 221.200,239.074 221.470,238.800 221.800 M237.200 224.000 C 236.730 224.660,236.504 225.200,236.698 225.200 C 236.891 225.200,237.449 224.660,237.937 224.000 C 238.425 223.340,238.651 222.800,238.439 222.800 C 238.228 222.800,237.670 223.340,237.200 224.000 M212.998 226.689 L 211.885 228.200 213.222 226.913 C 213.957 226.205,214.458 225.525,214.335 225.402 C 214.212 225.279,213.611 225.858,212.998 226.689 M345.753 226.100 C 344.376 228.436,344.286 228.635,344.987 227.800 C 345.800 226.832,346.500 225.600,346.238 225.600 C 346.133 225.600,345.915 225.825,345.753 226.100 M322.877 228.883 C 321.700 230.415,321.329 231.200,321.781 231.200 C 322.074 231.200,324.492 227.559,324.316 227.383 C 324.227 227.294,323.580 227.969,322.877 228.883 M232.618 230.018 C 231.570 231.353,230.781 232.514,230.865 232.599 C 230.950 232.683,231.886 231.669,232.945 230.345 C 234.005 229.022,234.794 227.860,234.698 227.765 C 234.603 227.669,233.667 228.683,232.618 230.018 M209.573 230.253 C 208.818 231.046,207.660 231.936,207.000 232.231 C 206.340 232.527,206.088 232.776,206.440 232.784 C 207.551 232.812,211.641 229.508,211.130 228.996 C 211.028 228.895,210.328 229.461,209.573 230.253 M341.699 232.428 C 340.985 233.507,340.400 234.525,340.400 234.690 C 340.400 234.855,341.045 234.032,341.833 232.861 C 342.621 231.691,343.206 230.673,343.132 230.599 C 343.058 230.525,342.413 231.348,341.699 232.428 M320.002 232.797 C 319.395 233.650,319.322 233.928,319.751 233.764 C 320.480 233.484,321.774 231.600,321.236 231.600 C 321.026 231.600,320.471 232.139,320.002 232.797 M188.900 232.276 C 189.285 232.376,189.915 232.376,190.300 232.276 C 190.685 232.175,190.370 232.093,189.600 232.093 C 188.830 232.093,188.515 232.175,188.900 232.276 M195.100 232.682 C 195.595 232.778,196.405 232.778,196.900 232.682 C 197.395 232.587,196.990 232.509,196.000 232.509 C 195.010 232.509,194.605 232.587,195.100 232.682 M228.421 235.221 C 227.482 236.335,226.794 237.327,226.892 237.425 C 226.991 237.524,227.840 236.693,228.779 235.579 C 229.718 234.465,230.406 233.473,230.308 233.375 C 230.209 233.276,229.360 234.107,228.421 235.221 M45.701 235.800 C 45.705 236.680,45.787 236.993,45.883 236.495 C 45.979 235.998,45.975 235.278,45.875 234.895 C 45.775 234.513,45.696 234.920,45.701 235.800 M338.253 236.791 C 337.106 238.525,336.971 238.943,337.630 238.723 C 337.867 238.645,338.051 238.454,338.040 238.300 C 338.029 238.145,338.466 237.538,339.010 236.951 C 340.026 235.856,340.266 235.200,339.653 235.200 C 339.462 235.200,338.832 235.916,338.253 236.791 M225.329 238.900 C 224.086 240.281,223.725 241.121,224.768 240.204 C 225.606 239.468,226.616 238.000,226.284 238.000 C 226.204 238.000,225.775 238.405,225.329 238.900 M94.000 238.800 C 94.000 239.020,94.270 239.200,94.600 239.200 C 94.930 239.200,95.200 239.020,95.200 238.800 C 95.200 238.580,94.930 238.400,94.600 238.400 C 94.270 238.400,94.000 238.580,94.000 238.800 M314.207 240.626 C 313.609 241.411,313.208 242.141,313.316 242.249 C 313.490 242.423,314.543 241.108,315.358 239.700 C 315.939 238.696,315.267 239.237,314.207 240.626 M100.200 240.000 C 100.336 240.220,100.717 240.400,101.047 240.400 C 101.377 240.400,101.536 240.220,101.400 240.000 C 101.264 239.780,100.883 239.600,100.553 239.600 C 100.223 239.600,100.064 239.780,100.200 240.000 M221.775 243.300 L 220.600 244.600 221.900 243.425 C 223.112 242.330,223.384 242.000,223.075 242.000 C 223.006 242.000,222.421 242.585,221.775 243.300 M310.954 244.916 C 309.203 247.180,308.662 248.000,308.917 248.000 C 309.211 248.000,312.893 243.160,312.727 242.993 C 312.638 242.904,311.840 243.769,310.954 244.916 M45.714 248.200 C 45.717 249.300,45.795 249.703,45.887 249.095 C 45.979 248.486,45.977 247.586,45.882 247.095 C 45.787 246.603,45.711 247.100,45.714 248.200 M329.044 250.044 C 328.214 251.157,327.604 252.137,327.690 252.223 C 327.775 252.309,328.525 251.468,329.356 250.356 C 330.186 249.243,330.796 248.263,330.710 248.177 C 330.625 248.091,329.875 248.932,329.044 250.044 M307.719 248.890 C 306.812 250.062,306.756 250.537,307.623 249.711 C 308.136 249.222,308.456 248.723,308.335 248.601 C 308.213 248.480,307.936 248.610,307.719 248.890 M201.000 250.693 C 201.660 250.789,202.515 251.150,202.900 251.495 C 203.309 251.863,203.600 251.938,203.600 251.676 C 203.600 251.019,202.219 250.391,200.926 250.460 L 199.800 250.520 201.000 250.693 M305.156 252.100 C 304.686 252.995,304.688 252.996,305.542 252.238 C 306.495 251.391,306.582 251.200,306.014 251.200 C 305.802 251.200,305.416 251.605,305.156 252.100 M204.385 253.672 C 204.811 254.371,205.067 255.091,204.956 255.272 C 204.844 255.452,204.954 255.600,205.200 255.600 C 205.446 255.600,205.536 255.780,205.400 256.000 C 205.264 256.220,205.343 256.400,205.576 256.400 C 205.809 256.400,206.000 256.315,206.000 256.211 C 206.000 255.706,204.201 252.400,203.926 252.400 C 203.753 252.400,203.960 252.972,204.385 253.672 M325.847 254.173 C 324.630 255.769,324.427 256.686,325.620 255.200 C 326.562 254.026,327.299 252.800,327.062 252.800 C 326.970 252.800,326.424 253.418,325.847 254.173 M303.192 254.210 C 302.419 255.141,302.971 255.317,303.798 254.402 C 304.197 253.961,304.338 253.600,304.111 253.600 C 303.884 253.600,303.470 253.874,303.192 254.210 M300.800 257.000 C 300.283 257.550,300.041 258.000,300.261 258.000 C 300.481 258.000,301.083 257.550,301.600 257.000 C 302.117 256.450,302.359 256.000,302.139 256.000 C 301.919 256.000,301.317 256.450,300.800 257.000 M323.600 257.000 C 323.317 257.341,323.176 257.709,323.286 257.819 C 323.396 257.929,323.717 257.741,324.000 257.400 C 324.283 257.059,324.424 256.691,324.314 256.581 C 324.204 256.471,323.883 256.659,323.600 257.000 M206.213 257.400 C 206.358 257.840,206.512 258.380,206.554 258.600 C 206.596 258.820,206.858 259.360,207.135 259.800 C 207.870 260.968,207.318 258.979,206.525 257.600 C 206.157 256.961,206.044 256.889,206.213 257.400 M321.800 259.200 C 321.399 259.643,321.162 260.095,321.272 260.205 C 321.382 260.315,321.799 260.043,322.200 259.600 C 322.601 259.157,322.838 258.705,322.728 258.595 C 322.618 258.485,322.201 258.757,321.800 259.200 M298.129 260.100 C 296.886 261.481,296.525 262.321,297.568 261.404 C 298.406 260.668,299.416 259.200,299.084 259.200 C 299.004 259.200,298.575 259.605,298.129 260.100 M390.436 261.236 C 390.166 262.139,390.018 262.952,390.108 263.042 C 390.198 263.132,390.493 262.466,390.764 261.564 C 391.034 260.661,391.182 259.848,391.092 259.758 C 391.002 259.668,390.707 260.334,390.436 261.236 M320.000 261.600 C 319.450 262.030,319.197 262.386,319.438 262.391 C 319.679 262.396,320.202 262.040,320.600 261.600 C 321.512 260.592,321.288 260.592,320.000 261.600 M226.828 261.400 C 226.828 261.620,227.086 262.250,227.400 262.800 C 227.714 263.350,227.972 263.620,227.972 263.400 C 227.972 263.180,227.714 262.550,227.400 262.000 C 227.086 261.450,226.828 261.180,226.828 261.400 M29.301 263.000 C 29.305 263.880,29.387 264.193,29.483 263.695 C 29.579 263.198,29.575 262.478,29.475 262.095 C 29.375 261.713,29.296 262.120,29.301 263.000 M294.759 263.904 C 292.621 266.289,292.337 266.902,294.198 265.114 C 295.278 264.077,296.067 263.134,295.952 263.018 C 295.836 262.903,295.300 263.301,294.759 263.904 M317.800 264.000 C 317.402 264.440,317.256 264.800,317.476 264.800 C 317.696 264.800,318.202 264.440,318.600 264.000 C 318.998 263.560,319.144 263.200,318.924 263.200 C 318.704 263.200,318.198 263.560,317.800 264.000 M388.844 266.044 C 388.598 266.751,388.466 267.400,388.552 267.485 C 388.638 267.571,388.909 267.062,389.156 266.356 C 389.402 265.649,389.534 265.000,389.448 264.915 C 389.362 264.829,389.091 265.338,388.844 266.044 M315.599 266.602 C 315.083 267.151,314.844 267.600,315.068 267.600 C 315.579 267.600,316.998 266.065,316.732 265.799 C 316.625 265.691,316.114 266.052,315.599 266.602 M284.600 274.400 C 281.101 277.904,278.323 280.857,278.427 280.961 C 278.532 281.065,281.486 278.290,284.994 274.794 C 288.501 271.298,291.279 268.345,291.166 268.233 C 291.054 268.121,288.099 270.896,284.600 274.400 M313.075 269.522 C 311.809 270.843,311.622 271.666,312.837 270.566 C 313.621 269.857,314.598 268.400,314.289 268.400 C 314.212 268.400,313.666 268.905,313.075 269.522 M310.078 272.919 C 308.772 274.267,308.302 275.311,309.419 274.385 C 310.079 273.837,311.755 271.600,311.506 271.600 C 311.424 271.600,310.782 272.194,310.078 272.919 M212.828 273.400 C 212.828 273.620,213.086 274.250,213.400 274.800 C 213.714 275.350,213.972 275.620,213.972 275.400 C 213.972 275.180,213.714 274.550,213.400 274.000 C 213.086 273.450,212.828 273.180,212.828 273.400 M305.686 277.713 C 303.352 280.076,302.794 281.331,305.035 279.178 C 306.388 277.878,308.221 275.600,307.914 275.600 C 307.836 275.600,306.834 276.551,305.686 277.713 M214.828 278.200 C 214.828 278.420,215.086 279.050,215.400 279.600 C 215.714 280.150,215.972 280.420,215.972 280.200 C 215.972 279.980,215.714 279.350,215.400 278.800 C 215.086 278.250,214.828 277.980,214.828 278.200 M383.584 279.400 C 383.541 279.620,383.527 279.935,383.553 280.100 C 383.579 280.265,383.409 280.400,383.176 280.400 C 382.943 280.400,382.864 280.580,383.000 280.800 C 383.136 281.020,383.095 281.200,382.909 281.200 C 382.723 281.200,382.544 281.605,382.513 282.100 C 382.469 282.778,382.651 282.623,383.251 281.472 C 383.689 280.631,383.961 279.731,383.856 279.472 C 383.750 279.212,383.628 279.180,383.584 279.400 M234.814 280.476 C 234.822 280.764,235.081 281.450,235.390 282.000 C 235.937 282.973,235.950 282.976,235.891 282.100 C 235.857 281.605,235.677 281.200,235.491 281.200 C 235.305 281.200,235.256 281.032,235.383 280.828 C 235.509 280.623,235.430 280.342,235.207 280.204 C 234.983 280.066,234.806 280.188,234.814 280.476 M16.800 281.789 C 16.800 282.300,18.601 285.600,18.880 285.600 C 19.342 285.600,19.296 285.419,18.320 283.411 C 17.583 281.894,16.800 281.058,16.800 281.789 M274.687 283.969 C 273.762 284.832,273.105 285.638,273.227 285.761 C 273.350 285.883,274.241 285.177,275.208 284.192 C 277.374 281.984,276.990 281.820,274.687 283.969 M296.899 287.048 C 294.266 289.649,293.530 290.514,295.000 289.279 C 297.724 286.992,301.919 282.800,301.485 282.800 C 301.327 282.800,299.263 284.711,296.899 287.048 M236.014 283.500 C 236.022 283.665,236.286 284.250,236.600 284.800 C 237.196 285.842,237.457 285.134,236.957 283.833 C 236.713 283.196,235.988 282.940,236.014 283.500 M380.683 285.409 C 379.462 287.900,379.436 288.000,380.024 288.000 C 380.257 288.000,380.336 287.820,380.200 287.600 C 380.064 287.380,380.108 287.200,380.297 287.200 C 380.592 287.200,382.400 283.925,382.400 283.389 C 382.400 282.608,381.589 283.562,380.683 285.409 M237.200 286.181 C 237.200 286.281,237.409 286.821,237.664 287.381 C 238.312 288.803,238.849 288.659,238.340 287.200 C 237.997 286.215,237.200 285.503,237.200 286.181 M270.785 287.584 C 270.023 288.235,269.591 288.775,269.825 288.784 C 270.059 288.793,270.768 288.260,271.400 287.600 C 272.868 286.067,272.568 286.059,270.785 287.584 M19.200 287.171 C 19.200 287.376,19.451 287.794,19.757 288.100 C 20.063 288.406,20.786 289.589,21.364 290.728 C 21.941 291.868,22.499 292.800,22.603 292.800 C 22.708 292.800,22.125 291.450,21.309 289.800 C 19.974 287.101,19.200 286.137,19.200 287.171 M219.206 288.671 C 219.218 289.284,219.955 290.178,220.226 289.907 C 220.374 289.759,220.204 289.347,219.848 288.990 C 219.491 288.634,219.203 288.491,219.206 288.671 M238.406 289.100 C 238.417 289.647,239.153 290.581,239.388 290.346 C 239.703 290.031,239.201 288.800,238.757 288.800 C 238.561 288.800,238.403 288.935,238.406 289.100 M267.544 290.387 C 267.025 290.819,266.797 291.179,267.038 291.187 C 267.279 291.194,267.802 290.840,268.200 290.400 C 269.126 289.376,268.766 289.369,267.544 290.387 M220.406 291.500 C 220.417 292.047,221.153 292.981,221.388 292.746 C 221.703 292.431,221.201 291.200,220.757 291.200 C 220.561 291.200,220.403 291.335,220.406 291.500 M265.144 292.387 C 264.625 292.819,264.397 293.179,264.638 293.187 C 264.879 293.194,265.402 292.840,265.800 292.400 C 266.726 291.376,266.366 291.369,265.144 292.387 M221.633 293.720 C 221.615 294.116,221.907 295.016,222.282 295.720 C 222.657 296.424,222.927 297.135,222.882 297.300 C 222.837 297.465,222.991 297.600,223.224 297.600 C 223.457 297.600,223.536 297.780,223.400 298.000 C 223.264 298.220,223.354 298.400,223.600 298.400 C 223.846 298.400,223.963 298.537,223.859 298.704 C 223.756 298.872,223.944 299.367,224.277 299.804 C 224.860 300.570,224.872 300.563,224.583 299.600 C 224.006 297.672,221.665 293.007,221.633 293.720 M288.209 295.191 C 287.131 296.286,286.338 297.271,286.448 297.381 C 286.557 297.491,287.620 296.595,288.810 295.390 C 289.999 294.186,290.792 293.200,290.571 293.200 C 290.351 293.200,289.288 294.096,288.209 295.191 M261.858 295.059 C 260.828 295.862,260.069 296.602,260.171 296.704 C 260.348 296.881,264.000 294.066,264.000 293.752 C 264.000 293.443,263.690 293.632,261.858 295.059 M375.800 295.200 C 375.459 295.860,375.269 296.400,375.379 296.400 C 375.489 296.400,375.859 295.860,376.200 295.200 C 376.541 294.540,376.731 294.000,376.621 294.000 C 376.511 294.000,376.141 294.540,375.800 295.200 M284.149 298.902 C 282.504 300.780,282.313 301.340,283.805 299.913 C 284.660 299.096,285.265 298.331,285.148 298.215 C 285.032 298.098,284.582 298.407,284.149 298.902 M371.349 303.095 C 370.057 305.237,368.585 307.667,368.077 308.495 C 367.570 309.323,367.238 310.000,367.339 310.000 C 367.574 310.000,371.092 304.507,372.783 301.500 C 374.873 297.783,373.901 298.864,371.349 303.095 M26.400 299.747 C 26.400 300.230,31.345 308.388,31.527 308.206 C 31.613 308.120,30.734 306.463,29.574 304.525 C 27.010 300.242,26.400 299.324,26.400 299.747 M255.200 300.200 C 254.917 300.541,254.776 300.909,254.886 301.019 C 254.996 301.129,255.317 300.941,255.600 300.600 C 255.883 300.259,256.024 299.891,255.914 299.781 C 255.804 299.671,255.483 299.859,255.200 300.200 M243.630 300.474 C 243.582 300.910,245.697 305.636,245.864 305.469 C 245.948 305.386,245.485 304.166,244.837 302.759 C 244.189 301.351,243.646 300.323,243.630 300.474 M280.000 302.800 C 279.230 303.448,278.791 303.983,279.025 303.989 C 279.259 303.995,279.968 303.460,280.600 302.800 C 282.056 301.281,281.805 301.281,280.000 302.800 M250.043 304.044 C 248.796 305.056,249.113 305.371,250.400 304.400 C 250.943 303.990,251.301 303.568,251.194 303.462 C 251.087 303.356,250.570 303.618,250.043 304.044 M277.000 305.200 C 276.602 305.640,276.456 306.000,276.676 306.000 C 276.896 306.000,277.402 305.640,277.800 305.200 C 278.198 304.760,278.344 304.400,278.124 304.400 C 277.904 304.400,277.398 304.760,277.000 305.200 M136.800 306.200 C 136.800 306.530,136.980 306.800,137.200 306.800 C 137.420 306.800,137.600 306.530,137.600 306.200 C 137.600 305.870,137.420 305.600,137.200 305.600 C 136.980 305.600,136.800 305.870,136.800 306.200 M274.562 307.258 C 273.805 308.110,273.806 308.113,274.678 307.656 C 275.650 307.146,276.249 306.400,275.686 306.400 C 275.487 306.400,274.981 306.786,274.562 307.258 M228.028 308.200 C 228.028 308.420,228.286 309.050,228.600 309.600 C 228.914 310.150,229.172 310.420,229.172 310.200 C 229.172 309.980,228.914 309.350,228.600 308.800 C 228.286 308.250,228.028 307.980,228.028 308.200 M119.600 309.400 C 119.600 309.730,119.780 310.000,120.000 310.000 C 120.220 310.000,120.400 309.730,120.400 309.400 C 120.400 309.070,120.220 308.800,120.000 308.800 C 119.780 308.800,119.600 309.070,119.600 309.400 M120.000 311.400 C 120.000 311.730,120.180 312.000,120.400 312.000 C 120.620 312.000,120.800 311.730,120.800 311.400 C 120.800 311.070,120.620 310.800,120.400 310.800 C 120.180 310.800,120.000 311.070,120.000 311.400 M229.628 311.800 C 229.628 312.020,229.886 312.650,230.200 313.200 C 230.514 313.750,230.772 314.020,230.772 313.800 C 230.772 313.580,230.514 312.950,230.200 312.400 C 229.886 311.850,229.628 311.580,229.628 311.800 M120.400 313.400 C 120.400 313.730,120.580 314.000,120.800 314.000 C 121.020 314.000,121.200 313.730,121.200 313.400 C 121.200 313.070,121.020 312.800,120.800 312.800 C 120.580 312.800,120.400 313.070,120.400 313.400 M266.800 313.400 C 266.522 313.735,266.479 314.000,266.702 314.000 C 266.922 314.000,267.326 313.730,267.600 313.400 C 267.878 313.065,267.921 312.800,267.698 312.800 C 267.478 312.800,267.074 313.070,266.800 313.400 M230.834 314.448 C 230.815 314.584,231.418 316.024,232.174 317.648 C 232.930 319.272,233.553 320.420,233.558 320.200 C 233.571 319.740,230.886 314.072,230.834 314.448 M120.800 315.400 C 120.800 315.730,120.980 316.000,121.200 316.000 C 121.420 316.000,121.600 315.730,121.600 315.400 C 121.600 315.070,121.420 314.800,121.200 314.800 C 120.980 314.800,120.800 315.070,120.800 315.400 M121.200 317.376 C 121.200 317.693,121.380 318.064,121.600 318.200 C 121.820 318.336,122.000 318.077,122.000 317.624 C 122.000 317.171,121.820 316.800,121.600 316.800 C 121.380 316.800,121.200 317.059,121.200 317.376 M260.800 317.800 C 260.517 318.141,260.376 318.509,260.486 318.619 C 260.596 318.729,260.917 318.541,261.200 318.200 C 261.483 317.859,261.624 317.491,261.514 317.381 C 261.404 317.271,261.083 317.459,260.800 317.800 M258.984 318.827 C 258.839 319.061,258.816 319.349,258.933 319.467 C 259.220 319.753,260.000 319.248,260.000 318.776 C 260.000 318.265,259.309 318.299,258.984 318.827 M360.400 319.000 C 360.122 319.335,360.079 319.600,360.302 319.600 C 360.522 319.600,360.926 319.330,361.200 319.000 C 361.478 318.665,361.521 318.400,361.298 318.400 C 361.078 318.400,360.674 318.670,360.400 319.000 M256.311 321.103 C 255.272 321.902,254.488 322.621,254.567 322.701 C 254.784 322.918,258.400 320.297,258.400 319.923 C 258.400 319.487,258.450 319.459,256.311 321.103 M357.165 323.278 C 354.447 326.751,353.852 327.600,354.136 327.600 C 354.233 327.600,355.688 325.890,357.369 323.800 C 359.050 321.710,360.269 320.000,360.077 320.000 C 359.886 320.000,358.575 321.475,357.165 323.278 M57.600 321.800 C 57.600 322.130,57.780 322.400,58.000 322.400 C 58.220 322.400,58.400 322.130,58.400 321.800 C 58.400 321.470,58.220 321.200,58.000 321.200 C 57.780 321.200,57.600 321.470,57.600 321.800 M235.628 325.400 C 235.628 325.620,235.886 326.250,236.200 326.800 C 236.514 327.350,236.772 327.620,236.772 327.400 C 236.772 327.180,236.514 326.550,236.200 326.000 C 235.886 325.450,235.628 325.180,235.628 325.400 M58.800 326.200 C 58.800 326.530,58.980 326.800,59.200 326.800 C 59.420 326.800,59.600 326.530,59.600 326.200 C 59.600 325.870,59.420 325.600,59.200 325.600 C 58.980 325.600,58.800 325.870,58.800 326.200 M254.800 325.789 C 254.800 326.277,256.594 329.600,256.858 329.600 C 257.022 329.600,256.782 328.700,256.325 327.600 C 255.644 325.962,254.800 324.960,254.800 325.789 M352.419 329.305 L 351.495 330.600 352.626 329.512 C 353.249 328.914,353.664 328.331,353.550 328.217 C 353.436 328.103,352.927 328.593,352.419 329.305 M237.234 329.000 C 237.234 329.220,237.578 330.030,238.000 330.800 C 238.422 331.570,238.766 332.020,238.766 331.800 C 238.766 331.580,238.422 330.770,238.000 330.000 C 237.578 329.230,237.234 328.780,237.234 329.000 M349.609 332.500 L 348.285 334.200 349.823 332.713 C 350.668 331.896,351.264 331.131,351.147 331.013 C 351.030 330.896,350.338 331.565,349.609 332.500 M239.200 333.381 C 239.200 333.513,239.866 334.920,240.679 336.510 C 241.493 338.099,242.123 339.535,242.079 339.700 C 242.036 339.865,242.192 340.000,242.427 340.000 C 242.961 340.000,242.613 338.830,241.305 336.228 C 240.398 334.424,239.200 332.804,239.200 333.381 M259.600 336.000 C 259.600 336.220,259.768 336.400,259.973 336.400 C 260.178 336.400,260.465 336.774,260.610 337.230 C 260.754 337.687,260.953 337.980,261.051 337.882 C 261.315 337.618,260.328 335.600,259.936 335.600 C 259.751 335.600,259.600 335.780,259.600 336.000 M341.095 341.105 C 338.073 344.133,335.600 346.758,335.600 346.939 C 335.600 347.421,341.236 342.145,344.469 338.636 C 349.005 333.714,347.029 335.159,341.095 341.105 M262.043 340.200 C 262.043 340.420,263.733 343.930,265.800 348.000 C 267.867 352.070,269.557 355.220,269.557 355.000 C 269.557 354.780,267.867 351.270,265.800 347.200 C 263.733 343.130,262.043 339.980,262.043 340.200 M63.656 341.200 C 63.656 341.530,63.811 342.160,64.000 342.600 C 64.217 343.104,64.344 343.178,64.344 342.800 C 64.344 342.470,64.189 341.840,64.000 341.400 C 63.783 340.896,63.656 340.822,63.656 341.200 M244.219 344.037 C 244.571 344.718,244.942 345.191,245.044 345.089 C 245.317 344.816,244.331 342.800,243.926 342.800 C 243.735 342.800,243.867 343.357,244.219 344.037 M332.600 349.409 C 331.720 350.168,331.190 350.791,331.422 350.794 C 331.653 350.797,332.454 350.170,333.200 349.400 C 334.919 347.627,334.663 347.631,332.600 349.409 M246.840 349.000 C 246.840 349.220,247.632 350.930,248.600 352.800 C 249.568 354.670,250.360 356.020,250.360 355.800 C 250.360 355.580,249.568 353.870,248.600 352.000 C 247.632 350.130,246.840 348.780,246.840 349.000 M329.200 352.400 C 328.650 352.830,328.397 353.186,328.638 353.191 C 328.879 353.196,329.402 352.840,329.800 352.400 C 330.712 351.392,330.488 351.392,329.200 352.400 M70.888 353.419 C 71.486 354.045,72.082 354.452,72.211 354.322 C 72.340 354.193,71.851 353.681,71.123 353.184 L 69.800 352.280 70.888 353.419 M326.800 354.400 C 326.250 354.830,325.997 355.186,326.238 355.191 C 326.479 355.196,327.002 354.840,327.400 354.400 C 328.312 353.392,328.088 353.392,326.800 354.400 M72.800 354.949 C 72.800 355.053,74.420 356.416,76.400 357.978 C 78.380 359.540,80.000 360.656,80.000 360.458 C 80.000 360.259,78.612 359.040,76.916 357.748 C 73.498 355.145,72.800 354.671,72.800 354.949 M250.436 356.600 C 250.436 356.820,250.870 357.810,251.400 358.800 C 251.930 359.790,252.364 360.420,252.364 360.200 C 252.364 359.980,251.930 358.990,251.400 358.000 C 250.870 357.010,250.436 356.380,250.436 356.600 M322.154 358.068 C 320.422 359.372,320.191 359.601,320.620 359.589 C 321.044 359.577,323.942 357.228,323.554 357.211 C 323.419 357.205,322.789 357.591,322.154 358.068 M271.600 359.813 C 271.600 360.366,273.681 364.052,273.881 363.853 C 274.199 363.534,273.184 361.200,272.728 361.200 C 272.522 361.200,272.464 361.020,272.600 360.800 C 272.736 360.580,272.646 360.400,272.400 360.400 C 272.154 360.400,272.064 360.220,272.200 360.000 C 272.336 359.780,272.257 359.600,272.024 359.600 C 271.791 359.600,271.600 359.696,271.600 359.813 M86.000 364.786 C 86.000 364.998,86.405 365.384,86.900 365.644 C 87.795 366.114,87.796 366.112,87.038 365.258 C 86.191 364.305,86.000 364.218,86.000 364.786 M310.100 366.840 C 309.165 367.502,308.400 368.134,308.400 368.245 C 308.400 368.491,310.305 367.382,311.626 366.366 C 313.224 365.138,311.940 365.537,310.100 366.840 M89.800 367.392 C 91.068 368.450,100.000 373.733,100.194 373.539 C 100.290 373.443,98.621 372.335,96.485 371.077 C 90.124 367.332,88.959 366.690,89.800 367.392 M305.800 369.600 C 305.140 370.037,304.780 370.395,305.000 370.395 C 305.220 370.395,305.940 370.037,306.600 369.600 C 307.260 369.163,307.620 368.805,307.400 368.805 C 307.180 368.805,306.460 369.163,305.800 369.600 M301.682 372.071 C 300.517 372.746,299.640 373.373,299.733 373.466 C 299.826 373.559,300.959 372.998,302.251 372.219 C 305.121 370.488,304.635 370.362,301.682 372.071 M136.229 372.400 C 136.376 372.950,136.664 373.670,136.867 374.000 C 137.125 374.417,137.157 374.295,136.971 373.600 C 136.824 373.050,136.536 372.330,136.333 372.000 C 136.075 371.583,136.043 371.705,136.229 372.400 M278.681 373.787 C 279.271 374.989,279.999 376.067,280.298 376.182 C 280.615 376.304,280.309 375.392,279.565 373.996 C 277.967 370.997,277.227 370.823,278.681 373.787 M259.434 374.868 C 260.228 376.445,261.131 377.988,261.439 378.296 C 261.748 378.605,262.000 379.114,262.000 379.429 C 262.000 379.743,262.195 380.000,262.433 380.000 C 262.928 380.000,262.968 380.113,261.445 377.200 C 260.813 375.990,260.164 374.910,260.003 374.800 C 259.843 374.690,259.412 374.015,259.046 373.300 C 258.679 372.585,258.292 372.000,258.185 372.000 C 258.078 372.000,258.640 373.290,259.434 374.868 M100.800 373.779 C 100.800 373.889,101.340 374.259,102.000 374.600 C 102.660 374.941,103.200 375.131,103.200 375.021 C 103.200 374.911,102.660 374.541,102.000 374.200 C 101.340 373.859,100.800 373.669,100.800 373.779 M106.000 376.592 C 106.000 376.701,107.305 377.445,108.900 378.246 C 110.495 379.047,111.890 379.834,112.000 379.995 C 112.349 380.506,114.864 381.669,115.104 381.429 C 115.230 381.303,115.258 381.131,115.167 381.046 C 114.762 380.671,106.000 376.414,106.000 376.592 M282.344 379.878 C 282.854 380.850,283.600 381.449,283.600 380.886 C 283.600 380.687,283.214 380.181,282.742 379.762 C 281.890 379.005,281.887 379.006,282.344 379.878 M158.000 380.016 C 158.000 380.600,159.585 383.642,160.220 384.277 C 160.510 384.567,160.866 385.177,161.010 385.633 C 161.155 386.088,161.358 386.375,161.462 386.272 C 161.671 386.062,158.507 379.600,158.196 379.600 C 158.088 379.600,158.000 379.787,158.000 380.016 M117.200 382.610 C 119.105 383.620,120.213 383.869,119.796 383.193 C 119.658 382.970,119.377 382.891,119.172 383.017 C 118.968 383.144,118.800 383.046,118.800 382.800 C 118.800 382.554,118.620 382.464,118.400 382.600 C 118.180 382.736,118.000 382.646,118.000 382.400 C 118.000 382.154,117.820 382.064,117.600 382.200 C 117.380 382.336,117.200 382.295,117.200 382.109 C 117.200 381.923,116.795 381.744,116.300 381.713 C 115.671 381.673,115.942 381.943,117.200 382.610 M264.019 383.000 C 264.009 383.594,264.723 384.610,264.974 384.359 C 265.094 384.240,264.929 383.795,264.609 383.371 C 264.288 382.947,264.022 382.780,264.019 383.000 M141.660 386.800 C 141.890 387.460,142.241 388.000,142.439 388.000 C 142.906 388.000,142.895 387.845,142.336 386.619 C 141.688 385.197,141.151 385.341,141.660 386.800 M266.013 386.620 C 266.006 386.851,266.208 387.248,266.463 387.503 C 266.814 387.854,266.802 388.116,266.414 388.583 C 265.988 389.096,266.012 389.200,266.551 389.200 C 266.910 389.200,267.200 388.877,267.200 388.476 C 267.200 387.716,266.035 385.894,266.013 386.620 M132.400 388.520 C 132.400 388.792,137.293 390.441,137.495 390.238 C 137.581 390.152,136.695 389.767,135.526 389.382 C 134.357 388.998,133.175 388.600,132.900 388.499 C 132.625 388.397,132.400 388.407,132.400 388.520 M143.693 391.600 C 143.276 392.267,143.293 392.400,143.797 392.400 C 144.133 392.400,144.400 392.046,144.400 391.600 C 144.400 391.160,144.353 390.800,144.296 390.800 C 144.239 390.800,143.968 391.160,143.693 391.600 M187.905 399.883 C 188.402 399.979,189.122 399.975,189.505 399.875 C 189.887 399.775,189.480 399.696,188.600 399.701 C 187.720 399.705,187.407 399.787,187.905 399.883 M209.505 399.883 C 210.002 399.979,210.722 399.975,211.105 399.875 C 211.487 399.775,211.080 399.696,210.200 399.701 C 209.320 399.705,209.007 399.787,209.505 399.883 " stroke="none" fill="#cacaca" fill-rule="evenodd"></path><path id="path2" d="M28.544 227.200 C 28.544 229.290,28.612 230.145,28.694 229.100 C 28.776 228.055,28.776 226.345,28.694 225.300 C 28.612 224.255,28.544 225.110,28.544 227.200 M45.734 242.000 C 45.734 243.650,45.805 244.325,45.891 243.500 C 45.978 242.675,45.978 241.325,45.891 240.500 C 45.805 239.675,45.734 240.350,45.734 242.000 " stroke="none" fill="#7c7c7c" fill-rule="evenodd"></path><path id="path3" d="M115.120 40.080 C 115.493 40.453,115.707 40.453,116.080 40.080 C 116.453 39.707,116.347 39.600,115.600 39.600 C 114.853 39.600,114.747 39.707,115.120 40.080 M339.600 57.400 C 340.795 58.610,341.863 59.600,341.973 59.600 C 342.083 59.600,341.195 58.610,340.000 57.400 C 338.805 56.190,337.737 55.200,337.627 55.200 C 337.517 55.200,338.405 56.190,339.600 57.400 M42.900 129.876 C 43.285 129.976,43.915 129.976,44.300 129.876 C 44.685 129.775,44.370 129.693,43.600 129.693 C 42.830 129.693,42.515 129.775,42.900 129.876 M350.278 183.405 C 349.912 184.172,349.695 184.800,349.796 184.800 C 350.070 184.800,351.284 182.351,351.101 182.168 C 351.014 182.081,350.644 182.638,350.278 183.405 M28.561 249.600 C 28.561 253.010,28.622 254.405,28.697 252.700 C 28.772 250.995,28.772 248.205,28.697 246.500 C 28.622 244.795,28.561 246.190,28.561 249.600 M287.978 270.700 L 286.600 272.200 288.100 270.822 C 288.925 270.063,289.600 269.388,289.600 269.322 C 289.600 269.016,289.262 269.304,287.978 270.700 M295.389 289.300 L 292.600 292.200 295.500 289.411 C 298.194 286.820,298.583 286.400,298.289 286.400 C 298.228 286.400,296.923 287.705,295.389 289.300 M251.281 359.391 C 251.759 360.376,252.219 361.114,252.303 361.030 C 252.484 360.849,250.868 357.600,250.597 357.600 C 250.494 357.600,250.802 358.406,251.281 359.391 " stroke="none" fill="#575757" fill-rule="evenodd"></path><path id="path4" d="M132.200 11.814 C 131.195 12.298,131.163 12.353,132.000 12.151 C 132.550 12.019,133.171 11.750,133.380 11.555 C 133.898 11.071,133.614 11.133,132.200 11.814 M84.800 38.000 C 84.800 38.220,85.070 38.400,85.400 38.400 C 85.730 38.400,86.000 38.220,86.000 38.000 C 86.000 37.780,85.730 37.600,85.400 37.600 C 85.070 37.600,84.800 37.780,84.800 38.000 M60.985 56.500 L 59.000 58.600 61.100 56.615 C 63.051 54.771,63.383 54.400,63.085 54.400 C 63.022 54.400,62.077 55.345,60.985 56.500 M330.272 59.819 C 329.332 61.789,329.464 62.124,330.447 60.262 C 330.893 59.416,331.187 58.654,331.101 58.567 C 331.014 58.481,330.641 59.044,330.272 59.819 M344.718 62.300 C 345.594 63.345,346.728 64.560,347.238 65.000 C 347.747 65.440,347.105 64.585,345.811 63.100 C 343.133 60.027,342.305 59.421,344.718 62.300 M305.265 70.617 C 304.595 72.088,304.723 72.402,305.447 71.065 C 305.786 70.440,305.988 69.854,305.896 69.763 C 305.805 69.671,305.521 70.056,305.265 70.617 M288.400 92.600 C 289.817 94.030,291.067 95.200,291.177 95.200 C 291.287 95.200,290.217 94.030,288.800 92.600 C 287.383 91.170,286.133 90.000,286.023 90.000 C 285.913 90.000,286.983 91.170,288.400 92.600 M313.580 93.239 C 313.120 94.140,312.813 94.946,312.897 95.030 C 312.981 95.114,313.441 94.376,313.919 93.391 C 315.009 91.147,314.715 91.015,313.580 93.239 M11.845 131.450 C 11.490 132.491,11.213 133.535,11.229 133.771 C 11.245 134.007,11.605 133.224,12.028 132.032 C 12.451 130.840,12.728 129.795,12.644 129.710 C 12.559 129.626,12.200 130.408,11.845 131.450 M293.400 132.000 C 293.059 132.660,292.869 133.200,292.979 133.200 C 293.089 133.200,293.459 132.660,293.800 132.000 C 294.141 131.340,294.331 130.800,294.221 130.800 C 294.111 130.800,293.741 131.340,293.400 132.000 M233.233 145.754 C 233.640 146.129,240.800 149.587,240.800 149.408 C 240.800 149.186,233.777 145.600,233.341 145.600 C 233.190 145.600,233.142 145.669,233.233 145.754 M272.126 170.100 C 271.355 171.299,270.862 172.409,271.192 172.205 C 271.388 172.084,271.817 171.448,272.144 170.792 C 272.740 169.597,272.729 169.162,272.126 170.100 M42.800 207.031 C 42.800 207.301,44.878 208.056,45.076 207.857 C 45.167 207.767,44.692 207.501,44.020 207.267 C 43.349 207.033,42.800 206.927,42.800 207.031 M28.493 222.400 C 28.493 223.170,28.575 223.485,28.676 223.100 C 28.776 222.715,28.776 222.085,28.676 221.700 C 28.575 221.315,28.493 221.630,28.493 222.400 M28.950 251.400 C 28.951 253.820,29.016 254.758,29.096 253.485 C 29.176 252.212,29.175 250.232,29.094 249.085 C 29.014 247.938,28.949 248.980,28.950 251.400 M204.200 254.000 C 204.541 254.660,204.911 255.200,205.021 255.200 C 205.131 255.200,204.941 254.660,204.600 254.000 C 204.259 253.340,203.889 252.800,203.779 252.800 C 203.669 252.800,203.859 253.340,204.200 254.000 M11.649 268.009 C 12.254 269.800,12.595 270.148,12.228 268.600 C 12.071 267.940,11.771 267.224,11.561 267.009 C 11.350 266.794,11.390 267.244,11.649 268.009 M293.662 290.440 C 292.926 291.109,292.398 291.731,292.489 291.822 C 292.580 291.914,293.263 291.361,294.006 290.594 C 295.666 288.881,295.472 288.794,293.662 290.440 M285.719 297.690 C 284.812 298.862,284.756 299.337,285.623 298.511 C 286.136 298.022,286.456 297.523,286.335 297.401 C 286.213 297.280,285.936 297.410,285.719 297.690 M269.634 355.000 C 269.634 355.220,269.978 356.030,270.400 356.800 C 270.822 357.570,271.166 358.020,271.166 357.800 C 271.166 357.580,270.822 356.770,270.400 356.000 C 269.978 355.230,269.634 354.780,269.634 355.000 M152.449 365.209 C 153.054 367.000,153.395 367.348,153.028 365.800 C 152.871 365.140,152.571 364.424,152.361 364.209 C 152.150 363.994,152.190 364.444,152.449 365.209 M275.645 367.300 C 276.148 368.345,276.718 369.200,276.912 369.200 C 277.106 369.200,276.862 368.525,276.369 367.700 C 274.988 365.390,274.631 365.193,275.645 367.300 M285.300 380.488 C 284.062 381.085,284.157 381.694,285.400 381.127 C 285.950 380.877,286.400 380.520,286.400 380.336 C 286.400 379.941,286.447 379.935,285.300 380.488 " stroke="none" fill="#848484" fill-rule="evenodd"></path><path id="path5" d="M341.934 59.500 C 342.367 60.105,343.223 61.050,343.835 61.600 C 344.469 62.169,344.200 61.695,343.212 60.500 C 341.351 58.251,340.640 57.694,341.934 59.500 M28.563 237.200 C 28.563 240.830,28.623 242.315,28.698 240.500 C 28.772 238.685,28.772 235.715,28.698 233.900 C 28.623 232.085,28.563 233.570,28.563 237.200 M128.954 244.977 C 128.832 245.294,128.803 245.879,128.889 246.277 C 128.987 246.728,129.124 246.512,129.254 245.700 C 129.471 244.338,129.330 243.996,128.954 244.977 " stroke="none" fill="#747474" fill-rule="evenodd"></path><path id="path6" d="M197.500 0.282 C 197.995 0.378,198.805 0.378,199.300 0.282 C 199.795 0.187,199.390 0.109,198.400 0.109 C 197.410 0.109,197.005 0.187,197.500 0.282 M65.300 112.676 C 65.685 112.776,66.315 112.776,66.700 112.676 C 67.085 112.575,66.770 112.493,66.000 112.493 C 65.230 112.493,64.915 112.575,65.300 112.676 M202.500 232.676 C 202.885 232.776,203.515 232.776,203.900 232.676 C 204.285 232.575,203.970 232.493,203.200 232.493 C 202.430 232.493,202.115 232.575,202.500 232.676 M46.093 236.400 C 46.093 237.170,46.175 237.485,46.276 237.100 C 46.376 236.715,46.376 236.085,46.276 235.700 C 46.175 235.315,46.093 235.630,46.093 236.400 M129.293 246.000 C 129.293 246.770,129.375 247.085,129.476 246.700 C 129.576 246.315,129.576 245.685,129.476 245.300 C 129.375 244.915,129.293 245.230,129.293 246.000 M46.109 247.600 C 46.109 248.590,46.187 248.995,46.282 248.500 C 46.378 248.005,46.378 247.195,46.282 246.700 C 46.187 246.205,46.109 246.610,46.109 247.600 M28.501 257.000 C 28.505 257.880,28.587 258.193,28.683 257.695 C 28.779 257.198,28.775 256.478,28.675 256.095 C 28.575 255.713,28.496 256.120,28.501 257.000 M283.191 275.500 L 279.800 279.000 283.300 275.609 C 286.551 272.459,286.982 272.000,286.691 272.000 C 286.631 272.000,285.056 273.575,283.191 275.500 M299.781 284.900 L 298.200 286.600 299.900 285.019 C 301.481 283.548,301.784 283.200,301.481 283.200 C 301.416 283.200,300.651 283.965,299.781 284.900 " stroke="none" fill="#3c3c3c" fill-rule="evenodd"></path><path id="path7" d="M192.500 0.291 C 193.325 0.378,194.675 0.378,195.500 0.291 C 196.325 0.205,195.650 0.134,194.000 0.134 C 192.350 0.134,191.675 0.205,192.500 0.291 M220.500 1.476 C 220.885 1.576,221.515 1.576,221.900 1.476 C 222.285 1.375,221.970 1.293,221.200 1.293 C 220.430 1.293,220.115 1.375,220.500 1.476 M139.105 42.683 C 139.602 42.779,140.322 42.775,140.705 42.675 C 141.087 42.575,140.680 42.496,139.800 42.501 C 138.920 42.505,138.607 42.587,139.105 42.683 M146.500 43.476 C 146.885 43.576,147.515 43.576,147.900 43.476 C 148.285 43.375,147.970 43.293,147.200 43.293 C 146.430 43.293,146.115 43.375,146.500 43.476 M62.175 55.700 L 61.000 57.000 62.300 55.825 C 63.512 54.730,63.784 54.400,63.475 54.400 C 63.406 54.400,62.821 54.985,62.175 55.700 M345.600 63.800 C 346.346 64.570,347.047 65.200,347.157 65.200 C 347.267 65.200,346.746 64.570,346.000 63.800 C 345.254 63.030,344.553 62.400,344.443 62.400 C 344.333 62.400,344.854 63.030,345.600 63.800 M30.833 110.543 C 30.925 110.622,31.720 110.797,32.600 110.932 C 33.690 111.099,34.009 111.055,33.600 110.795 C 33.053 110.446,30.445 110.209,30.833 110.543 M39.633 110.943 C 39.725 111.022,40.520 111.197,41.400 111.332 C 42.490 111.499,42.809 111.455,42.400 111.195 C 41.853 110.846,39.245 110.609,39.633 110.943 M61.633 112.143 C 61.725 112.221,62.430 112.401,63.200 112.542 C 64.185 112.723,64.422 112.682,64.000 112.406 C 63.458 112.050,61.237 111.803,61.633 112.143 M87.300 114.276 C 87.685 114.376,88.315 114.376,88.700 114.276 C 89.085 114.175,88.770 114.093,88.000 114.093 C 87.230 114.093,86.915 114.175,87.300 114.276 M106.500 116.276 C 106.885 116.376,107.515 116.376,107.900 116.276 C 108.285 116.175,107.970 116.093,107.200 116.093 C 106.430 116.093,106.115 116.175,106.500 116.276 M14.400 128.394 C 14.730 128.611,15.435 128.791,15.967 128.794 C 17.251 128.802,16.925 128.575,15.200 128.258 C 14.215 128.077,13.978 128.118,14.400 128.394 M21.200 128.782 C 21.530 129.005,22.145 129.191,22.567 129.194 C 23.590 129.202,23.271 128.973,21.800 128.644 C 20.924 128.448,20.762 128.485,21.200 128.782 M28.400 129.179 C 28.730 129.404,29.525 129.591,30.167 129.594 C 31.704 129.602,31.384 129.370,29.400 129.038 C 28.254 128.846,27.970 128.886,28.400 129.179 M38.000 129.600 C 38.330 129.813,39.050 129.973,39.600 129.954 L 40.600 129.920 39.600 129.600 C 38.058 129.106,37.236 129.106,38.000 129.600 M47.400 130.000 C 47.536 130.220,48.042 130.387,48.524 130.372 C 49.369 130.345,49.371 130.331,48.600 130.000 C 47.499 129.527,47.108 129.527,47.400 130.000 M60.800 130.800 C 61.130 131.013,61.760 131.178,62.200 131.166 L 63.000 131.144 62.200 130.800 C 61.004 130.286,60.005 130.286,60.800 130.800 M395.044 158.600 C 395.373 160.071,395.602 160.390,395.594 159.367 C 395.591 158.945,395.405 158.330,395.182 158.000 C 394.885 157.562,394.848 157.724,395.044 158.600 M226.033 162.549 C 226.445 162.917,228.800 164.000,228.800 163.821 C 228.800 163.590,226.582 162.400,226.153 162.400 C 225.996 162.400,225.942 162.467,226.033 162.549 M399.693 203.600 C 399.693 204.370,399.775 204.685,399.876 204.300 C 399.976 203.915,399.976 203.285,399.876 202.900 C 399.775 202.515,399.693 202.830,399.693 203.600 M185.233 231.343 C 185.325 231.421,186.030 231.601,186.800 231.742 C 187.785 231.923,188.022 231.882,187.600 231.606 C 187.058 231.250,184.837 231.003,185.233 231.343 M200.100 232.294 C 201.145 232.376,202.855 232.376,203.900 232.294 C 204.945 232.212,204.090 232.144,202.000 232.144 C 199.910 232.144,199.055 232.212,200.100 232.294 M46.446 232.867 C 46.421 233.234,46.296 233.864,46.170 234.267 C 45.952 234.962,45.963 234.963,46.397 234.287 C 46.648 233.896,46.773 233.266,46.673 232.887 C 46.511 232.268,46.488 232.266,46.446 232.867 M46.150 241.800 C 46.151 244.220,46.216 245.158,46.296 243.885 C 46.376 242.612,46.375 240.632,46.294 239.485 C 46.214 238.338,46.149 239.380,46.150 241.800 M132.600 245.200 C 133.040 245.389,133.670 245.544,134.000 245.544 C 134.378 245.544,134.304 245.417,133.800 245.200 C 133.360 245.011,132.730 244.856,132.400 244.856 C 132.022 244.856,132.096 244.983,132.600 245.200 M28.446 259.200 C 28.427 259.750,28.587 260.470,28.800 260.800 C 29.294 261.564,29.294 260.742,28.800 259.200 L 28.480 258.200 28.446 259.200 M290.981 267.300 L 289.400 269.000 291.100 267.419 C 292.681 265.948,292.984 265.600,292.681 265.600 C 292.616 265.600,291.851 266.365,290.981 267.300 M303.385 281.300 L 301.400 283.400 303.500 281.415 C 305.451 279.571,305.783 279.200,305.485 279.200 C 305.422 279.200,304.477 280.145,303.385 281.300 M69.183 350.900 C 70.164 351.945,71.019 352.800,71.083 352.800 C 71.384 352.800,71.066 352.441,69.300 350.783 L 67.400 349.000 69.183 350.900 M197.300 399.894 C 198.345 399.976,200.055 399.976,201.100 399.894 C 202.145 399.812,201.290 399.744,199.200 399.744 C 197.110 399.744,196.255 399.812,197.300 399.894 " stroke="none" fill="#272727" fill-rule="evenodd"></path></g></svg>